<svg width="18" height="26" viewBox="0 0 18 26" fill="none" xmlns="http://www.w3.org/2000/svg">
<path d="M12.1496 18.1817L14.696 24.4246L12.1496 25.4514L9.56208 19.2085L5.29065 22.4942V4.9978L17.571 17.3603L12.1496 18.1817Z" fill="#1B1A18"/>
<path d="M5.45438 2.65705C5.29009 2.28741 5.24902 1.8767 5.24902 1.50705C5.24902 1.13741 5.29009 0.726698 5.45438 0.357056C5.61867 0.726698 5.65974 1.13741 5.65974 1.50705C5.65974 1.8767 5.61867 2.28741 5.45438 2.65705Z" fill="#1B1A18"/>
<path d="M3.44199 3.47812C3.07235 3.31384 2.74378 3.06741 2.45628 2.82098C2.16878 2.53348 1.92235 2.24598 1.79913 1.83527C2.16878 1.99955 2.49735 2.24598 2.78485 2.49241C3.03127 2.82098 3.31878 3.10848 3.44199 3.47812Z" fill="#1B1A18"/>
<path d="M2.62093 5.49051C2.25128 5.6548 1.84057 5.69587 1.47092 5.69587C1.10128 5.69587 0.690566 5.6548 0.320923 5.49051C0.690566 5.32623 1.10128 5.28516 1.47092 5.28516C1.84057 5.28516 2.25128 5.32623 2.62093 5.49051Z" fill="#1B1A18"/>
<path d="M3.44199 7.50354C3.2777 7.87318 3.03127 8.20175 2.78485 8.48925C2.49735 8.77675 2.20985 9.02318 1.79913 9.1464C1.96342 8.77675 2.20985 8.44818 2.45628 8.16068C2.78485 7.91425 3.07235 7.66783 3.44199 7.50354Z" fill="#1B1A18"/>
<path d="M8.28876 5.49051C8.6584 5.32623 9.06912 5.28516 9.43876 5.28516C9.8084 5.28516 10.2191 5.32623 10.5888 5.49051C10.2191 5.6548 9.8084 5.69587 9.43876 5.69587C9.06912 5.69587 8.6584 5.6548 8.28876 5.49051Z" fill="#1B1A18"/>
<path d="M7.46851 3.47812C7.63279 3.10848 7.87922 2.77991 8.12564 2.49241C8.41314 2.20491 8.70065 1.95848 9.11136 1.83527C8.94708 2.20491 8.70065 2.53348 8.45422 2.82098C8.16672 3.10848 7.83815 3.35491 7.46851 3.47812Z" fill="#1B1A18"/>
</svg>
