<svg width="26" height="14" viewBox="0 0 26 14" fill="none" xmlns="http://www.w3.org/2000/svg">
<path d="M0.963196 6.89278C0.963196 3.26348 3.90532 0.32135 7.53462 0.32135H19.0346C22.6639 0.32135 25.6061 3.26348 25.6061 6.89278C25.6061 10.5221 22.6639 13.4642 19.0346 13.4642H7.53462C3.90532 13.4642 0.963196 10.5221 0.963196 6.89278Z" fill="white"/>
<path fill-rule="evenodd" clip-rule="evenodd" d="M19.0346 0.732064H7.53462C4.13216 0.732064 1.37391 3.49031 1.37391 6.89278C1.37391 10.2952 4.13216 13.0535 7.53462 13.0535H19.0346C22.4371 13.0535 25.1953 10.2952 25.1953 6.89278C25.1953 3.49031 22.4371 0.732064 19.0346 0.732064ZM7.53462 0.32135C3.90532 0.32135 0.963196 3.26348 0.963196 6.89278C0.963196 10.5221 3.90532 13.4642 7.53462 13.4642H19.0346C22.6639 13.4642 25.6061 10.5221 25.6061 6.89278C25.6061 3.26348 22.6639 0.32135 19.0346 0.32135H7.53462Z" fill="#EBEEF5"/>
<path d="M7.7266 6.75926L9.29893 5.18694C9.39824 5.08763 9.39824 4.93868 9.29893 4.83937C9.19963 4.74007 9.05067 4.74007 8.95136 4.83937L7.19698 6.59376C7.09767 6.69306 7.09767 6.84202 7.19698 6.94132L8.95136 8.69571C9.00102 8.74536 9.06722 8.76191 9.13342 8.76191C9.19963 8.76191 9.26583 8.74536 9.31548 8.69571C9.41479 8.59641 9.41479 8.44745 9.31548 8.34814L7.7266 6.75926Z" fill="#A7B0B7"/>
<path d="M19.7429 6.57734L17.9885 4.82295C17.8892 4.72365 17.7403 4.72365 17.6409 4.82295C17.5416 4.92226 17.5416 5.07121 17.6409 5.17052L19.2133 6.74285L17.6409 8.31517C17.5416 8.41448 17.5416 8.56343 17.6409 8.66274C17.6906 8.71239 17.7568 8.72894 17.823 8.72894C17.8892 8.72894 17.9554 8.71239 18.0051 8.66274L19.7594 6.90835C19.8422 6.8256 19.8422 6.67664 19.7429 6.57734Z" fill="#A7B0B7"/>
<path d="M13.5955 2.78572L13.0989 2.78888L13.1499 10.7995L13.6464 10.7963L13.5955 2.78572Z" fill="#EDF3F7"/>
</svg>
