<svg width="201" height="33" viewBox="0 0 201 33" fill="none" xmlns="http://www.w3.org/2000/svg">
<path d="M1.33817 16.7672C0.996458 16.6095 0.724839 16.3773 0.523315 16.0706C0.689792 15.8603 0.891315 15.7552 1.12789 15.7552C1.24179 15.7552 1.36446 15.7771 1.49589 15.8209C1.63608 15.8647 1.72808 15.8954 1.77189 15.9129C2.02598 16.0005 2.29322 16.0443 2.5736 16.0443C3.02046 16.0443 3.43665 15.9392 3.82217 15.7289C4.21646 15.5186 4.50998 15.2338 4.70274 14.8746C5.20217 13.9458 5.45189 12.8594 5.45189 11.6152C5.45189 11.0457 5.39932 10.3797 5.29417 9.61746C5.04884 9.62622 4.82979 9.67003 4.63703 9.74889C4.45303 9.82775 4.21208 9.95479 3.91417 10.13C3.71265 10.2439 3.49798 10.3009 3.27017 10.3009C3.12998 10.3009 3.00293 10.2834 2.88903 10.2483C2.79265 10.222 2.69189 10.1782 2.58674 10.1169C2.49036 10.0468 2.42465 9.97232 2.3896 9.89346C2.36332 9.84089 2.35017 9.78394 2.35017 9.7226C2.35017 9.63498 2.38084 9.55175 2.44217 9.47289C2.50351 9.39403 2.57798 9.3327 2.6656 9.28889C3.32274 8.97346 3.94484 8.70622 4.53189 8.48717C4.67208 8.44337 4.84293 8.4127 5.04446 8.39517C5.22846 8.37765 5.36427 8.35575 5.45189 8.32946C5.71474 8.26813 5.93379 8.23746 6.10903 8.23746C6.46827 8.23746 6.79246 8.36451 7.0816 8.6186V9.36775C7.09036 9.61308 7.09474 9.98546 7.09474 10.4849V10.9449L7.0816 11.3129C7.06408 12.0927 7.02465 12.7542 6.96332 13.2975C6.90198 13.8319 6.77055 14.3577 6.56903 14.8746C6.34122 15.4441 6.03455 15.9041 5.64903 16.2546C5.27227 16.6051 4.79036 16.8373 4.20332 16.9512C3.7477 17.0476 3.31836 17.0957 2.91532 17.0957C2.35455 17.0957 1.82884 16.9862 1.33817 16.7672Z" fill="#1B1A18"/>
<path d="M9.14565 11.694C9.36469 11.7554 9.51803 11.8298 9.60565 11.9175C9.70203 12.0051 9.75022 12.1234 9.75022 12.2723C9.75022 12.3424 9.73707 12.4344 9.71079 12.5483C9.61441 12.9426 9.56184 13.3369 9.55307 13.7312C9.54431 14.178 9.61441 14.5898 9.76336 14.9666C9.81593 15.098 9.86412 15.1944 9.90793 15.2557C9.9605 15.3083 10.0218 15.3346 10.0919 15.3346C10.1796 15.3346 10.2935 15.2557 10.4336 15.098C10.7578 14.7125 10.9988 14.327 11.1565 13.9415C11.3142 13.5559 11.4106 13.1573 11.4456 12.7455C11.4719 12.4738 11.5157 12.303 11.5771 12.2329C11.6121 12.1978 11.6691 12.1759 11.7479 12.1672C11.8268 12.1584 11.9407 12.154 12.0896 12.154C12.3262 12.1716 12.4883 12.1935 12.5759 12.2197C12.6723 12.246 12.738 12.2898 12.7731 12.3512C12.8081 12.4125 12.8256 12.5133 12.8256 12.6535L12.8125 13.2712C12.8125 13.4026 12.8081 13.5954 12.7994 13.8495C12.7731 14.638 12.7512 15.2251 12.7336 15.6106C12.7249 15.9173 12.6329 16.3028 12.4576 16.7672C12.4401 16.7935 12.3919 16.8329 12.3131 16.8855C12.2342 16.9293 12.1641 16.9556 12.1028 16.9643C12.0853 16.9643 12.0458 16.938 11.9845 16.8855C11.9319 16.8241 11.8925 16.7716 11.8662 16.7277C11.8049 16.5876 11.7348 16.3992 11.6559 16.1626L11.5508 15.9129L11.5245 15.834L11.4851 15.8735L11.2748 16.0049C11.1696 16.0925 11.0557 16.1626 10.9331 16.2152C10.7316 16.3378 10.4906 16.3992 10.2102 16.3992C9.85974 16.3992 9.52679 16.3028 9.21136 16.11C8.89593 15.9085 8.64622 15.6369 8.46222 15.2952C8.16431 14.7695 8.01536 14.1605 8.01536 13.4683C8.01536 13.1178 8.06355 12.6754 8.15993 12.1409C8.17745 12.0095 8.26069 11.8956 8.40965 11.7992C8.54107 11.7028 8.69441 11.6546 8.86965 11.6546C8.95726 11.6546 9.04926 11.6677 9.14565 11.694Z" fill="#1B1A18"/>
<path d="M14.9636 17.5032C14.2276 17.5032 13.7589 17.1877 13.5573 16.5569C13.6274 16.5569 13.7194 16.5613 13.8333 16.57C13.956 16.57 14.0568 16.5788 14.1356 16.5963C14.2583 16.6138 14.3459 16.6226 14.3985 16.6226C14.7928 16.6226 15.1213 16.4474 15.3842 16.0969C15.5682 15.8428 15.6602 15.5843 15.6602 15.3215C15.6602 15.1462 15.6164 14.9754 15.5288 14.8089C15.336 14.4672 15.0994 14.0904 14.819 13.6786C14.635 13.407 14.4686 13.1485 14.3196 12.9032C14.1444 12.6228 14.0568 12.3117 14.0568 11.97C14.0568 11.6546 14.1444 11.3786 14.3196 11.142C14.5036 10.8967 14.7709 10.7434 15.1213 10.682L15.5419 10.6032C15.9975 10.5156 16.3392 10.4717 16.567 10.4717C16.9438 10.4717 17.2768 10.5594 17.5659 10.7346C17.6272 10.7784 17.6886 10.8573 17.7499 10.9712C17.82 11.0763 17.8726 11.1596 17.9076 11.2209C17.8463 11.2472 17.7587 11.291 17.6448 11.3523C17.5396 11.4049 17.4476 11.4356 17.3688 11.4443C17.2461 11.4618 17.0621 11.4706 16.8168 11.4706C16.5802 11.4706 16.4006 11.475 16.2779 11.4837C15.9975 11.51 15.7741 11.6064 15.6076 11.7729C15.4499 11.9306 15.371 12.1234 15.371 12.3512C15.371 12.5264 15.4236 12.706 15.5288 12.89C15.7653 13.2843 16.0939 13.7356 16.5145 14.2437C16.8299 14.638 16.9876 15.0455 16.9876 15.466C16.9876 15.6938 16.935 15.9348 16.8299 16.1889C16.4707 17.0651 15.8486 17.5032 14.9636 17.5032Z" fill="#1B1A18"/>
<path d="M17.7474 12.3117C17.6861 12.2417 17.6423 12.1672 17.616 12.0883C17.5985 12.0095 17.581 11.8999 17.5634 11.7597C17.6423 11.5757 17.7869 11.4837 17.9972 11.4837C18.1023 11.5013 18.1768 11.51 18.2206 11.51C18.3958 11.51 18.5053 11.4575 18.5492 11.3523C18.593 11.2472 18.6149 11.1245 18.6149 10.9843C18.6149 10.8441 18.6149 10.7346 18.6149 10.6557L18.6543 9.86717C18.6631 9.69194 18.6718 9.47727 18.6806 9.22317C18.6981 8.96032 18.7156 8.65803 18.7332 8.31632C18.7419 8.13232 18.7857 7.99651 18.8646 7.90889C18.9522 7.82127 19.0705 7.77746 19.2194 7.77746C19.3246 7.77746 19.4078 7.78622 19.4692 7.80375C19.8284 7.8826 20.0693 7.99651 20.192 8.14546C20.3147 8.29441 20.3979 8.51784 20.4417 8.81575C20.4505 8.87708 20.4417 9.00413 20.4154 9.19689L20.1789 11.2472C20.1701 11.2997 20.157 11.3655 20.1394 11.4443C20.1219 11.5144 20.1132 11.567 20.1132 11.602C20.1132 11.6809 20.157 11.7335 20.2446 11.7597C20.3322 11.786 20.4943 11.7948 20.7309 11.786C21.1339 11.6984 21.4406 11.6415 21.6509 11.6152C21.6947 11.6064 21.7648 11.602 21.8612 11.602C21.9663 11.602 22.0364 11.6152 22.0714 11.6415C22.1065 11.659 22.1328 11.7116 22.1503 11.7992C22.1766 11.878 22.1897 11.97 22.1897 12.0752C22.1897 12.1716 22.1766 12.2592 22.1503 12.338C22.1328 12.4169 22.1065 12.4607 22.0714 12.4695C21.8349 12.5396 21.5545 12.5965 21.2303 12.6403C20.8448 12.7104 20.56 12.7717 20.376 12.8243C20.2796 12.8506 20.1832 12.9163 20.0869 13.0215C19.9905 13.1266 19.9379 13.223 19.9292 13.3106C19.9116 13.7399 19.8985 14.178 19.8897 14.6249C19.881 14.9666 19.8941 15.3083 19.9292 15.65C19.9554 15.9392 20.0124 16.1495 20.1 16.2809C20.1876 16.4036 20.3191 16.4649 20.4943 16.4649C20.6345 16.4649 20.836 16.4167 21.0989 16.3203C21.2391 16.259 21.3617 16.2283 21.4669 16.2283C21.6333 16.2283 21.7516 16.3203 21.8217 16.5043C21.848 16.5657 21.8612 16.627 21.8612 16.6883C21.8612 16.8022 21.8173 16.8942 21.7297 16.9643C21.6509 17.0344 21.5413 17.0957 21.4012 17.1483C21.1383 17.2447 20.8711 17.2973 20.5994 17.306C20.2314 17.306 19.8853 17.2184 19.5612 17.0432C19.237 16.8592 18.9785 16.6051 18.7857 16.2809C18.6017 15.9567 18.5229 15.5843 18.5492 15.1637C18.5579 14.9973 18.5623 14.7344 18.5623 14.3752C18.5623 13.8057 18.5404 13.2274 18.4966 12.6403C18.4878 12.5877 18.4572 12.5527 18.4046 12.5352C18.352 12.5089 18.2644 12.4826 18.1417 12.4563C17.9402 12.4213 17.8088 12.3731 17.7474 12.3117Z" fill="#1B1A18"/>
<path d="M25.4822 12.3117C25.4209 12.2417 25.3771 12.1672 25.3508 12.0883C25.3333 12.0095 25.3157 11.8999 25.2982 11.7597C25.3771 11.5757 25.5216 11.4837 25.7319 11.4837C25.8371 11.5013 25.9116 11.51 25.9554 11.51C26.1306 11.51 26.2401 11.4575 26.2839 11.3523C26.3277 11.2472 26.3496 11.1245 26.3496 10.9843C26.3496 10.8441 26.3496 10.7346 26.3496 10.6557L26.3891 9.86717C26.3978 9.69194 26.4066 9.47727 26.4154 9.22317C26.4329 8.96032 26.4504 8.65803 26.4679 8.31632C26.4767 8.13232 26.5205 7.99651 26.5994 7.90889C26.687 7.82127 26.8053 7.77746 26.9542 7.77746C27.0594 7.77746 27.1426 7.78622 27.2039 7.80375C27.5632 7.8826 27.8041 7.99651 27.9268 8.14546C28.0495 8.29441 28.1327 8.51784 28.1765 8.81575C28.1853 8.87708 28.1765 9.00413 28.1502 9.19689L27.9136 11.2472C27.9049 11.2997 27.8917 11.3655 27.8742 11.4443C27.8567 11.5144 27.8479 11.567 27.8479 11.602C27.8479 11.6809 27.8917 11.7335 27.9794 11.7597C28.067 11.786 28.2291 11.7948 28.4656 11.786C28.8687 11.6984 29.1754 11.6415 29.3856 11.6152C29.4295 11.6064 29.4996 11.602 29.5959 11.602C29.7011 11.602 29.7712 11.6152 29.8062 11.6415C29.8413 11.659 29.8675 11.7116 29.8851 11.7992C29.9114 11.878 29.9245 11.97 29.9245 12.0752C29.9245 12.1716 29.9114 12.2592 29.8851 12.338C29.8675 12.4169 29.8413 12.4607 29.8062 12.4695C29.5696 12.5396 29.2893 12.5965 28.9651 12.6403C28.5796 12.7104 28.2948 12.7717 28.1108 12.8243C28.0144 12.8506 27.918 12.9163 27.8216 13.0215C27.7253 13.1266 27.6727 13.223 27.6639 13.3106C27.6464 13.7399 27.6333 14.178 27.6245 14.6249C27.6157 14.9666 27.6289 15.3083 27.6639 15.65C27.6902 15.9392 27.7472 16.1495 27.8348 16.2809C27.9224 16.4036 28.0538 16.4649 28.2291 16.4649C28.3693 16.4649 28.5708 16.4167 28.8336 16.3203C28.9738 16.259 29.0965 16.2283 29.2016 16.2283C29.3681 16.2283 29.4864 16.3203 29.5565 16.5043C29.5828 16.5657 29.5959 16.627 29.5959 16.6883C29.5959 16.8022 29.5521 16.8942 29.4645 16.9643C29.3856 17.0344 29.2761 17.0957 29.1359 17.1483C28.8731 17.2447 28.6058 17.2973 28.3342 17.306C27.9662 17.306 27.6201 17.2184 27.2959 17.0432C26.9717 16.8592 26.7133 16.6051 26.5205 16.2809C26.3365 15.9567 26.2576 15.5843 26.2839 15.1637C26.2927 14.9973 26.2971 14.7344 26.2971 14.3752C26.2971 13.8057 26.2752 13.2274 26.2314 12.6403C26.2226 12.5877 26.1919 12.5527 26.1394 12.5352C26.0868 12.5089 25.9992 12.4826 25.8765 12.4563C25.675 12.4213 25.5435 12.3731 25.4822 12.3117Z" fill="#1B1A18"/>
<path d="M30.3116 20.9203C30.3729 20.9028 30.4518 20.8765 30.5482 20.8415C30.6446 20.8152 30.7278 20.7977 30.7979 20.7889C31.4287 20.7714 31.8887 20.6399 32.1779 20.3946C32.4758 20.1493 32.6642 19.7156 32.743 19.0935C32.8219 18.4714 32.9007 17.5382 32.9796 16.294L33.0322 15.4529C33.0409 15.2514 33.0015 15.098 32.9139 14.9929C32.835 14.879 32.6861 14.8089 32.467 14.7826C31.9939 14.73 31.5821 14.546 31.2316 14.2306C30.8899 13.9152 30.6533 13.5165 30.5219 13.0346C30.4781 12.8857 30.4299 12.7104 30.3773 12.5089C30.2722 12.1234 30.1977 11.8342 30.1539 11.6415V11.6152C30.1539 11.5626 30.1714 11.5057 30.2065 11.4443C30.2415 11.3742 30.2766 11.326 30.3116 11.2997C30.4518 11.2034 30.6139 11.1552 30.7979 11.1552C31.0432 11.1552 31.2623 11.2428 31.455 11.418C31.6478 11.5845 31.7573 11.7948 31.7836 12.0489C31.8274 12.4432 31.9019 12.8725 32.007 13.3369C32.0508 13.5209 32.1341 13.6129 32.2567 13.6129C32.3531 13.6129 32.4364 13.5647 32.5065 13.4683C32.7343 13.1792 32.9095 12.8988 33.0322 12.6272C33.1811 12.2942 33.4002 12.1277 33.6893 12.1277C33.7682 12.1277 33.8251 12.1321 33.8602 12.1409C34.3158 12.2285 34.5348 12.5089 34.5173 12.982L34.4779 14.2043C34.4428 15.2908 34.4034 16.1013 34.3596 16.6357L34.3202 17.1615C34.2676 17.8799 34.215 18.4363 34.1625 18.8306C34.1186 19.2337 34.0442 19.6367 33.939 20.0397C33.8076 20.5479 33.5666 20.9247 33.2162 21.17C32.8657 21.4241 32.4539 21.5512 31.9807 21.5512C31.604 21.5512 31.2272 21.4767 30.8505 21.3277C30.7716 21.2927 30.6796 21.2445 30.5745 21.1832C30.4693 21.1306 30.3905 21.0868 30.3379 21.0517L30.3116 20.9203Z" fill="#1B1A18"/>
<path d="M38.6868 16.1626C38.4239 16.443 38.1392 16.5832 37.8325 16.5832C37.5784 16.5832 37.3112 16.4999 37.0308 16.3335L36.9914 17.5295C36.9475 18.4057 36.9256 19.1679 36.9256 19.8163C36.9256 19.939 36.9344 20.1317 36.9519 20.3946C36.9694 20.6575 36.9782 20.8502 36.9782 20.9729C36.9782 21.1043 36.9738 21.2007 36.9651 21.262C36.9563 21.3409 36.9037 21.4241 36.8074 21.5117C36.711 21.6081 36.6146 21.6695 36.5182 21.6957C36.4481 21.7133 36.3999 21.722 36.3736 21.722C36.1721 21.722 35.975 21.6344 35.7822 21.4592C35.5982 21.2839 35.5106 21.0999 35.5194 20.9072C35.5369 20.25 35.5719 19.2994 35.6245 18.0552L35.7165 15.19C35.734 14.6643 35.7034 14.2218 35.6245 13.8626C35.607 13.7575 35.5982 13.6874 35.5982 13.6523C35.5982 13.5121 35.6376 13.4026 35.7165 13.3237C35.8041 13.2449 35.918 13.1967 36.0582 13.1792C36.2773 13.1617 36.4525 13.1047 36.5839 13.0083C36.7154 12.9032 36.8687 12.7411 37.0439 12.522C37.3594 12.1277 37.7055 11.9306 38.0822 11.9306C38.5028 11.9306 38.9803 12.1891 39.5148 12.706C39.7601 12.9426 39.8828 13.2624 39.8828 13.6655C39.8828 13.8144 39.8696 13.9634 39.8434 14.1123C39.782 14.4803 39.6506 14.822 39.4491 15.1375C39.2563 15.4529 39.0022 15.7946 38.6868 16.1626ZM37.4645 13.9677C37.2717 14.4935 37.1754 14.9622 37.1754 15.374C37.1754 15.4704 37.1797 15.5405 37.1885 15.5843L37.3462 15.6632C37.5215 15.6106 37.7054 15.4573 37.8982 15.2032C38.091 14.9491 38.2487 14.6643 38.3714 14.3489C38.5028 14.0247 38.5685 13.7399 38.5685 13.4946C38.5685 13.3895 38.5466 13.2843 38.5028 13.1792C38.4414 13.0653 38.3494 13.0083 38.2268 13.0083C38.0691 13.0083 37.9552 13.0653 37.8851 13.1792C37.8588 13.2142 37.7975 13.3106 37.7011 13.4683C37.6047 13.626 37.5258 13.7925 37.4645 13.9677Z" fill="#1B1A18"/>
<path d="M43.1777 15.1637C43.0901 15.2163 42.9631 15.2426 42.7966 15.2426C42.7353 15.2426 42.6608 15.2382 42.5732 15.2295C42.4855 15.2207 42.4111 15.2207 42.3497 15.2295C42.4198 15.5186 42.5863 15.7552 42.8492 15.9392C43.112 16.1144 43.4055 16.202 43.7297 16.202C44.0101 16.202 44.2598 16.1407 44.4789 16.018C44.8031 15.8516 45.0835 15.6544 45.32 15.4266C45.4865 15.2601 45.6442 15.1769 45.7932 15.1769C45.8895 15.1769 45.9728 15.2251 46.0429 15.3215C46.113 15.4354 46.148 15.5756 46.148 15.742C46.148 15.9173 46.113 16.0531 46.0429 16.1495C45.8151 16.4999 45.5172 16.7409 45.1492 16.8723C44.7899 17.0037 44.3694 17.0695 43.8875 17.0695C43.388 17.0695 42.9061 16.9599 42.4417 16.7409C41.9774 16.5218 41.5787 16.2239 41.2457 15.8472C40.9215 15.4617 40.7069 15.0367 40.6017 14.5723C40.5316 14.3007 40.4966 14.0335 40.4966 13.7706C40.4966 13.3588 40.6105 13.0258 40.8383 12.7717C41.0749 12.5177 41.4516 12.2767 41.9686 12.0489C42.4417 11.8474 42.8798 11.7466 43.2829 11.7466C43.572 11.7466 43.8524 11.7904 44.124 11.878C44.9652 12.1409 45.3857 12.5001 45.3857 12.9557C45.3857 13.2449 45.2149 13.5954 44.8732 14.0072C44.7067 14.1999 44.5095 14.3708 44.2817 14.5197C44.0539 14.6687 43.8305 14.8045 43.6115 14.9272C43.4012 15.0411 43.2566 15.1199 43.1777 15.1637ZM43.7297 12.7323C43.721 12.6885 43.6859 12.6535 43.6246 12.6272C43.572 12.5921 43.5414 12.5702 43.5326 12.5615C43.296 12.5439 43.0551 12.614 42.8097 12.7717C42.5644 12.9207 42.3585 13.1135 42.192 13.35C42.0343 13.5866 41.9555 13.8144 41.9555 14.0335L41.9686 14.1386C41.9774 14.1737 42.0212 14.2175 42.1 14.27C42.1876 14.3226 42.2402 14.3401 42.2577 14.3226C42.8798 13.8582 43.3486 13.4858 43.664 13.2055C43.7166 13.1529 43.7429 13.0565 43.7429 12.9163C43.7429 12.8287 43.7385 12.7674 43.7297 12.7323Z" fill="#1B1A18"/>
<path d="M50.8387 11.6677C50.8387 11.8342 50.8168 12.062 50.773 12.3512C50.7379 12.6841 50.716 12.9514 50.7073 13.1529C50.8124 13.1091 50.9351 13.0083 51.0753 12.8506C51.1541 12.763 51.233 12.6885 51.3118 12.6272C51.6974 12.3556 52.0654 12.2197 52.4158 12.2197C52.7838 12.2197 53.1737 12.3731 53.5855 12.6797C54.2076 13.1354 54.5187 13.6698 54.5187 14.2832C54.5187 14.7651 54.3172 15.2733 53.9141 15.8077C53.3358 16.5876 52.521 17.0563 51.4695 17.214C51.417 17.2228 51.3381 17.2272 51.233 17.2272C51.0665 17.2272 50.7905 17.1921 50.405 17.122C50.405 17.0344 50.3918 16.938 50.3656 16.8329C50.4269 16.8066 50.5057 16.7716 50.6021 16.7277C50.7073 16.6752 50.7993 16.6445 50.8781 16.6357C51.1497 16.6095 51.452 16.4693 51.785 16.2152C52.1267 15.9523 52.4246 15.65 52.6787 15.3083C52.9328 14.9666 53.0774 14.6687 53.1124 14.4146C53.1212 14.3796 53.1299 14.3314 53.1387 14.27C53.1475 14.2087 53.1518 14.1342 53.1518 14.0466C53.1518 13.959 53.1387 13.8845 53.1124 13.8232C52.9722 13.499 52.8101 13.2843 52.6261 13.1792C52.5736 13.1529 52.4815 13.1836 52.3501 13.2712C52.2187 13.35 52.1135 13.4377 52.0347 13.534C51.4564 14.1649 51.1147 14.8877 51.0095 15.7026C50.9745 16.018 50.7949 16.1714 50.4707 16.1626C50.2078 16.1626 49.9669 16.0575 49.7478 15.8472C49.5288 15.6281 49.4193 15.3872 49.4193 15.1243C49.4105 13.8013 49.4061 11.8211 49.4061 9.18375C49.4061 8.9647 49.4675 8.81575 49.5901 8.73689C49.7215 8.64927 49.9099 8.57917 50.1553 8.5266C50.2604 8.50032 50.3787 8.52222 50.5101 8.59232C50.6415 8.66241 50.7555 8.75441 50.8518 8.86832C50.9482 8.98222 50.9964 9.09613 50.9964 9.21003C50.9964 9.72698 50.957 10.371 50.8781 11.142L50.8387 11.6677Z" fill="#1B1A18"/>
<path d="M56.56 11.694C56.7791 11.7554 56.9324 11.8298 57.02 11.9175C57.1164 12.0051 57.1646 12.1234 57.1646 12.2723C57.1646 12.3424 57.1515 12.4344 57.1252 12.5483C57.0288 12.9426 56.9762 13.3369 56.9675 13.7312C56.9587 14.178 57.0288 14.5898 57.1778 14.9666C57.2303 15.098 57.2785 15.1944 57.3223 15.2557C57.3749 15.3083 57.4362 15.3346 57.5063 15.3346C57.5939 15.3346 57.7079 15.2557 57.848 15.098C58.1722 14.7125 58.4132 14.327 58.5709 13.9415C58.7286 13.5559 58.825 13.1573 58.86 12.7455C58.8863 12.4738 58.9301 12.303 58.9915 12.2329C59.0265 12.1978 59.0835 12.1759 59.1623 12.1672C59.2412 12.1584 59.3551 12.154 59.504 12.154C59.7406 12.1716 59.9027 12.1935 59.9903 12.2197C60.0867 12.246 60.1524 12.2898 60.1875 12.3512C60.2225 12.4125 60.24 12.5133 60.24 12.6535L60.2269 13.2712C60.2269 13.4026 60.2225 13.5954 60.2138 13.8495C60.1875 14.638 60.1656 15.2251 60.148 15.6106C60.1393 15.9173 60.0473 16.3028 59.872 16.7672C59.8545 16.7935 59.8063 16.8329 59.7275 16.8855C59.6486 16.9293 59.5785 16.9556 59.5172 16.9643C59.4997 16.9643 59.4602 16.938 59.3989 16.8855C59.3463 16.8241 59.3069 16.7716 59.2806 16.7277C59.2193 16.5876 59.1492 16.3992 59.0703 16.1626L58.9652 15.9129L58.9389 15.834L58.8995 15.8735L58.6892 16.0049C58.584 16.0925 58.4701 16.1626 58.3475 16.2152C58.1459 16.3378 57.905 16.3992 57.6246 16.3992C57.2741 16.3992 56.9412 16.3028 56.6258 16.11C56.3103 15.9085 56.0606 15.6369 55.8766 15.2952C55.5787 14.7695 55.4298 14.1605 55.4298 13.4683C55.4298 13.1178 55.4779 12.6754 55.5743 12.1409C55.5919 12.0095 55.6751 11.8956 55.824 11.7992C55.9555 11.7028 56.1088 11.6546 56.284 11.6546C56.3717 11.6546 56.4637 11.6677 56.56 11.694Z" fill="#1B1A18"/>
<path d="M63.2524 11.6415C63.2787 11.7291 63.2831 11.8649 63.2656 12.0489L63.1079 13.5997C63.1517 13.5647 63.2174 13.442 63.305 13.2317C63.3926 13.0127 63.4758 12.8375 63.5547 12.706C63.6336 12.5658 63.6949 12.4738 63.7387 12.43C64.1505 12.0357 64.6149 11.7992 65.1319 11.7203C65.6488 11.6415 66.2183 11.6064 66.8404 11.6152C66.9018 11.6152 66.9675 11.6415 67.0376 11.694C67.1164 11.7378 67.1559 11.7773 67.1559 11.8123C67.1559 11.8386 67.1296 11.8868 67.077 11.9569C67.0244 12.0182 66.9762 12.0577 66.9324 12.0752C66.4067 12.2504 65.9423 12.4519 65.5393 12.6797C65.145 12.9076 64.8033 13.2055 64.5141 13.5735C63.8307 14.4409 63.4364 15.3346 63.3313 16.2546C63.305 16.4999 63.2305 16.6664 63.1079 16.754C62.9852 16.8329 62.8143 16.8723 62.5953 16.8723C62.3499 16.8723 62.1309 16.7672 61.9381 16.5569C61.7454 16.3466 61.649 16.1144 61.649 15.8603C61.6578 14.9316 61.6621 13.5384 61.6621 11.6809C61.6621 11.4268 61.7191 11.2516 61.833 11.1552C61.9469 11.05 62.1528 10.9975 62.4507 10.9975C62.6698 10.9975 62.8538 11.0588 63.0027 11.1815C63.1604 11.3041 63.2437 11.4575 63.2524 11.6415Z" fill="#1B1A18"/>
<path d="M68.7959 16.6095C68.9712 16.3992 69.0982 16.2327 69.1771 16.11C69.2735 15.9786 69.3742 15.9129 69.4794 15.9129C69.5845 15.9129 69.6634 15.9786 69.7159 16.11C69.8386 16.4605 69.8999 16.7365 69.8999 16.938C69.8999 17.0257 69.8956 17.0914 69.8868 17.1352C69.8517 17.3104 69.751 17.4331 69.5845 17.5032C69.4268 17.5733 69.2384 17.5996 69.0194 17.582C68.9405 17.582 68.8047 17.582 68.6119 17.582C68.4279 17.582 68.2658 17.5557 68.1256 17.5032C67.9942 17.4506 67.8759 17.363 67.7708 17.2403C67.543 16.9687 67.4291 16.7058 67.4291 16.4517C67.4291 14.4015 67.4203 12.8594 67.4028 11.8255L67.3897 9.51232C67.3897 9.20565 67.359 8.92527 67.2977 8.67117C67.2889 8.62737 67.2845 8.57479 67.2845 8.51346C67.2845 8.18927 67.5036 8.02717 67.9417 8.02717C68.2308 8.02717 68.4717 8.12356 68.6645 8.31632C68.866 8.50032 68.958 8.74565 68.9405 9.05232C68.9142 9.5167 68.8792 10.2133 68.8354 11.142L68.7565 12.7192C68.6864 14.2087 68.6382 15.3258 68.6119 16.0706C68.6032 16.1582 68.6076 16.2546 68.6251 16.3597C68.6426 16.4649 68.6558 16.5306 68.6645 16.5569L68.7959 16.6095Z" fill="#1B1A18"/>
<path d="M72.8123 15.1637C72.7247 15.2163 72.5976 15.2426 72.4312 15.2426C72.3698 15.2426 72.2954 15.2382 72.2077 15.2295C72.1201 15.2207 72.0456 15.2207 71.9843 15.2295C72.0544 15.5186 72.2209 15.7552 72.4837 15.9392C72.7466 16.1144 73.0401 16.202 73.3643 16.202C73.6447 16.202 73.8944 16.1407 74.1135 16.018C74.4376 15.8516 74.718 15.6544 74.9546 15.4266C75.1211 15.2601 75.2788 15.1769 75.4277 15.1769C75.5241 15.1769 75.6074 15.2251 75.6775 15.3215C75.7476 15.4354 75.7826 15.5756 75.7826 15.742C75.7826 15.9173 75.7476 16.0531 75.6775 16.1495C75.4496 16.4999 75.1517 16.7409 74.7837 16.8723C74.4245 17.0037 74.0039 17.0695 73.522 17.0695C73.0226 17.0695 72.5407 16.9599 72.0763 16.7409C71.6119 16.5218 71.2133 16.2239 70.8803 15.8472C70.5561 15.4617 70.3415 15.0367 70.2363 14.5723C70.1662 14.3007 70.1312 14.0335 70.1312 13.7706C70.1312 13.3588 70.2451 13.0258 70.4729 12.7717C70.7095 12.5177 71.0862 12.2767 71.6032 12.0489C72.0763 11.8474 72.5144 11.7466 72.9175 11.7466C73.2066 11.7466 73.487 11.7904 73.7586 11.878C74.5997 12.1409 75.0203 12.5001 75.0203 12.9557C75.0203 13.2449 74.8495 13.5954 74.5077 14.0072C74.3413 14.1999 74.1441 14.3708 73.9163 14.5197C73.6885 14.6687 73.4651 14.8045 73.246 14.9272C73.0357 15.0411 72.8912 15.1199 72.8123 15.1637ZM73.3643 12.7323C73.3556 12.6885 73.3205 12.6535 73.2592 12.6272C73.2066 12.5921 73.1759 12.5702 73.1672 12.5615C72.9306 12.5439 72.6896 12.614 72.4443 12.7717C72.199 12.9207 71.9931 13.1135 71.8266 13.35C71.6689 13.5866 71.59 13.8144 71.59 14.0335L71.6032 14.1386C71.6119 14.1737 71.6557 14.2175 71.7346 14.27C71.8222 14.3226 71.8748 14.3401 71.8923 14.3226C72.5144 13.8582 72.9832 13.4858 73.2986 13.2055C73.3512 13.1529 73.3775 13.0565 73.3775 12.9163C73.3775 12.8287 73.3731 12.7674 73.3643 12.7323Z" fill="#1B1A18"/>
<path d="M77.2787 17.5032C76.5427 17.5032 76.074 17.1877 75.8724 16.5569C75.9425 16.5569 76.0345 16.5613 76.1484 16.57C76.2711 16.57 76.3719 16.5788 76.4507 16.5963C76.5734 16.6138 76.661 16.6226 76.7136 16.6226C77.1079 16.6226 77.4364 16.4474 77.6993 16.0969C77.8833 15.8428 77.9753 15.5843 77.9753 15.3215C77.9753 15.1462 77.9315 14.9754 77.8439 14.8089C77.6511 14.4672 77.4145 14.0904 77.1342 13.6786C76.9502 13.407 76.7837 13.1485 76.6347 12.9032C76.4595 12.6228 76.3719 12.3117 76.3719 11.97C76.3719 11.6546 76.4595 11.3786 76.6347 11.142C76.8187 10.8967 77.086 10.7434 77.4364 10.682L77.857 10.6032C78.3126 10.5156 78.6544 10.4717 78.8822 10.4717C79.2589 10.4717 79.5919 10.5594 79.881 10.7346C79.9423 10.7784 80.0037 10.8573 80.065 10.9712C80.1351 11.0763 80.1877 11.1596 80.2227 11.2209C80.1614 11.2472 80.0738 11.291 79.9599 11.3523C79.8547 11.4049 79.7627 11.4356 79.6839 11.4443C79.5612 11.4618 79.3772 11.4706 79.1319 11.4706C78.8953 11.4706 78.7157 11.475 78.593 11.4837C78.3126 11.51 78.0892 11.6064 77.9227 11.7729C77.765 11.9306 77.6861 12.1234 77.6861 12.3512C77.6861 12.5264 77.7387 12.706 77.8439 12.89C78.0804 13.2843 78.409 13.7356 78.8296 14.2437C79.145 14.638 79.3027 15.0455 79.3027 15.466C79.3027 15.6938 79.2502 15.9348 79.145 16.1889C78.7858 17.0651 78.1637 17.5032 77.2787 17.5032Z" fill="#1B1A18"/>
<path d="M80.7611 17.5032C80.0251 17.5032 79.5563 17.1877 79.3548 16.5569C79.4249 16.5569 79.5169 16.5613 79.6308 16.57C79.7534 16.57 79.8542 16.5788 79.9331 16.5963C80.0557 16.6138 80.1434 16.6226 80.1959 16.6226C80.5902 16.6226 80.9188 16.4474 81.1816 16.0969C81.3656 15.8428 81.4576 15.5843 81.4576 15.3215C81.4576 15.1462 81.4138 14.9754 81.3262 14.8089C81.1335 14.4672 80.8969 14.0904 80.6165 13.6786C80.4325 13.407 80.266 13.1485 80.1171 12.9032C79.9418 12.6228 79.8542 12.3117 79.8542 11.97C79.8542 11.6546 79.9418 11.3786 80.1171 11.142C80.3011 10.8967 80.5683 10.7434 80.9188 10.682L81.3394 10.6032C81.795 10.5156 82.1367 10.4717 82.3645 10.4717C82.7413 10.4717 83.0742 10.5594 83.3634 10.7346C83.4247 10.7784 83.486 10.8573 83.5474 10.9712C83.6175 11.0763 83.67 11.1596 83.7051 11.2209C83.6437 11.2472 83.5561 11.291 83.4422 11.3523C83.3371 11.4049 83.2451 11.4356 83.1662 11.4443C83.0435 11.4618 82.8595 11.4706 82.6142 11.4706C82.3776 11.4706 82.198 11.475 82.0754 11.4837C81.795 11.51 81.5715 11.6064 81.4051 11.7729C81.2474 11.9306 81.1685 12.1234 81.1685 12.3512C81.1685 12.5264 81.2211 12.706 81.3262 12.89C81.5628 13.2843 81.8914 13.7356 82.3119 14.2437C82.6274 14.638 82.7851 15.0455 82.7851 15.466C82.7851 15.6938 82.7325 15.9348 82.6274 16.1889C82.2681 17.0651 81.646 17.5032 80.7611 17.5032Z" fill="#1B1A18"/>
<path d="M85.3073 17.0037C85.2547 17.179 85.1539 17.3323 85.005 17.4637C84.8648 17.5952 84.7202 17.6609 84.5713 17.6609C84.3697 17.6521 84.1726 17.5557 83.9798 17.3717C83.7958 17.1877 83.7038 16.9862 83.7038 16.7672C83.7038 16.662 83.7345 16.57 83.7958 16.4912C83.8659 16.4123 83.9623 16.3335 84.085 16.2546C84.1638 16.202 84.2033 16.1757 84.2033 16.1757C84.2208 16.1582 84.2602 16.1188 84.3216 16.0575C84.3829 15.9961 84.4398 15.9523 84.4924 15.926C84.5537 15.891 84.6107 15.8735 84.6633 15.8735C84.7421 15.8735 84.8254 15.9041 84.913 15.9655C85.0269 16.0356 85.1233 16.1626 85.2021 16.3466C85.2897 16.5218 85.3335 16.6883 85.3335 16.846C85.3335 16.8811 85.3248 16.9337 85.3073 17.0037Z" fill="#1B1A18"/>
<path d="M90.7444 15.8735C90.4816 16.1714 90.2143 16.4079 89.9427 16.5832C89.6711 16.7497 89.3688 16.8329 89.0358 16.8329C88.9657 16.8329 88.8694 16.8241 88.7467 16.8066L88.4838 16.8197C87.3798 16.8285 86.5737 16.3028 86.0655 15.2426C85.9516 14.9973 85.8947 14.7037 85.8947 14.362C85.8947 14.0641 85.9385 13.7794 86.0261 13.5077C86.1137 13.2361 86.2364 13.0127 86.3941 12.8375L86.6438 12.5352C86.7665 12.3775 86.8629 12.2679 86.933 12.2066C87.2396 11.9087 87.6471 11.7597 88.1553 11.7597C88.4181 11.7597 88.6766 11.8036 88.9307 11.8912C89.1848 11.9788 89.4082 12.0971 89.601 12.246C89.636 12.2723 89.6711 12.3293 89.7061 12.4169C89.7412 12.4957 89.7587 12.5615 89.7587 12.614C89.7587 12.6841 89.7061 12.763 89.601 12.8506C89.4958 12.9295 89.3994 12.9645 89.3118 12.9557C88.716 12.8857 88.2385 13.0302 87.8793 13.3895C87.52 13.7399 87.3404 14.2218 87.3404 14.8352C87.3404 15.2382 87.4236 15.523 87.5901 15.6895C87.7654 15.8559 88.0501 15.9392 88.4444 15.9392C88.6897 15.9392 88.9219 15.891 89.141 15.7946C89.36 15.6895 89.6141 15.5449 89.9033 15.3609L90.153 15.2032C90.2406 15.1594 90.3545 15.1331 90.4947 15.1243C90.6436 15.1068 90.7575 15.0937 90.8364 15.0849C90.8276 15.1637 90.8233 15.2426 90.8233 15.3215C90.832 15.3916 90.8364 15.4485 90.8364 15.4923C90.8364 15.6851 90.8057 15.8121 90.7444 15.8735Z" fill="#1B1A18"/>
<path d="M94.4966 16.3335C94.225 16.4999 93.9139 16.5832 93.5634 16.5832C93.1779 16.5832 92.8055 16.4868 92.4463 16.294C92.0958 16.0925 91.8154 15.8077 91.6052 15.4397C91.3949 15.0717 91.3073 14.6512 91.3423 14.178L91.408 13.8626C91.4606 13.5472 91.5044 13.315 91.5395 13.166C91.6183 12.8418 91.776 12.614 92.0126 12.4826C92.2492 12.3512 92.5646 12.246 92.9589 12.1672C93.213 12.1146 93.4627 12.0883 93.708 12.0883C94.4791 12.0883 95.1274 12.3468 95.6532 12.8637C95.9335 13.1441 96.0737 13.4858 96.0737 13.8889C96.0737 14.2832 95.9292 14.7081 95.64 15.1637C95.3071 15.6807 94.9259 16.0706 94.4966 16.3335ZM93.3926 12.7586C93.2524 13.1003 93.1034 13.5253 92.9457 14.0335L92.8143 14.4277L92.9063 14.4672C92.9063 14.5285 92.9063 14.6249 92.9063 14.7563C92.9151 14.879 92.9326 14.9841 92.9589 15.0717C93.0553 15.3434 93.1648 15.5098 93.2874 15.5712C93.34 15.5975 93.4145 15.5843 93.5109 15.5317C93.616 15.4792 93.708 15.4178 93.7869 15.3477C93.9095 15.2426 94.1067 15.0236 94.3783 14.6906C94.5798 14.4628 94.6806 14.1912 94.6806 13.8757C94.6806 13.6041 94.6017 13.3588 94.444 13.1397C94.2951 12.9207 94.0848 12.7717 93.8132 12.6929C93.7869 12.6841 93.7387 12.6797 93.6686 12.6797C93.5021 12.6797 93.4101 12.706 93.3926 12.7586Z" fill="#1B1A18"/>
<path d="M103.277 13.7837C103.259 13.4508 103.119 13.2055 102.856 13.0477C102.646 13.1003 102.475 13.166 102.344 13.2449C102.212 13.3237 102.116 13.4026 102.054 13.4815C101.993 13.5516 101.884 13.6917 101.726 13.902C101.673 13.9721 101.616 14.0685 101.555 14.1912C101.502 14.3138 101.472 14.3883 101.463 14.4146C101.437 14.4759 101.424 14.5417 101.424 14.6117C101.424 14.6643 101.432 14.7476 101.45 14.8615C101.476 14.9666 101.485 15.0498 101.476 15.1112C101.467 15.2426 101.472 15.4485 101.489 15.7289L101.502 16.1363C101.502 16.259 101.498 16.351 101.489 16.4123C101.472 16.5525 101.428 16.6752 101.358 16.7803C101.288 16.8855 101.191 16.938 101.069 16.938C101.025 16.938 100.968 16.9249 100.898 16.8986C100.837 16.8811 100.736 16.8504 100.596 16.8066C100.455 16.7628 100.346 16.6971 100.267 16.6095C100.188 16.5131 100.149 16.3773 100.149 16.202C100.149 15.7464 100.105 15.063 100.017 14.1517C99.9998 14.0554 99.9823 13.8933 99.9647 13.6655C99.956 13.5691 99.9122 13.4946 99.8333 13.442C99.7544 13.3895 99.6581 13.3632 99.5442 13.3632C99.3602 13.3632 99.22 13.4114 99.1236 13.5077C98.7206 13.7356 98.427 13.994 98.243 14.2832C98.059 14.5723 97.967 14.9447 97.967 15.4003L97.9802 15.8472C97.9802 16.1363 97.9057 16.4036 97.7567 16.6489C97.7129 16.7277 97.6209 16.7978 97.4807 16.8592C97.3493 16.9117 97.2354 16.9293 97.139 16.9117C97.0514 16.903 96.9594 16.846 96.863 16.7409C96.7754 16.627 96.7316 16.5262 96.7316 16.4386C96.7053 15.7026 96.6922 14.971 96.6922 14.2437C96.6922 13.5866 96.7009 13.0959 96.7185 12.7717C96.7272 12.6053 96.7842 12.4738 96.8893 12.3775C96.9944 12.2811 97.1215 12.2329 97.2704 12.2329C97.4632 12.2329 97.6341 12.303 97.783 12.4432C97.8619 12.5921 97.9276 12.7017 97.9802 12.7717C98.0327 12.8331 98.0897 12.8637 98.151 12.8637C98.2036 12.8637 98.2649 12.8375 98.335 12.7849C98.4051 12.7236 98.5015 12.6272 98.6242 12.4957C98.9133 12.1803 99.2156 12.0226 99.531 12.0226C99.8727 12.0226 100.285 12.1935 100.766 12.5352C100.801 12.5615 100.85 12.6009 100.911 12.6535C100.972 12.6973 101.025 12.7192 101.069 12.7192C101.13 12.7192 101.226 12.6491 101.358 12.5089C101.849 12.0533 102.471 11.8036 103.224 11.7597C103.461 11.751 103.697 11.843 103.934 12.0357C104.179 12.2197 104.333 12.4432 104.394 12.706C104.499 13.1529 104.574 13.6786 104.617 14.2832C104.67 15.1944 104.692 15.8778 104.683 16.3335C104.674 16.5437 104.617 16.7102 104.512 16.8329C104.407 16.9468 104.271 17.0037 104.105 17.0037C103.973 17.0037 103.833 16.9643 103.684 16.8855C103.623 16.8592 103.566 16.811 103.513 16.7409C103.461 16.6708 103.434 16.6095 103.434 16.5569L103.356 15.1637C103.347 15.0148 103.338 14.8264 103.329 14.5986C103.321 14.362 103.303 14.0904 103.277 13.7837Z" fill="#1B1A18"/>
<path d="M107.023 17.4637C106.936 17.7617 106.853 17.9676 106.774 18.0815C106.695 18.2041 106.594 18.2655 106.471 18.2655C106.296 18.2655 106.003 18.134 105.591 17.8712L105.657 17.3455C105.718 16.8723 105.775 16.5175 105.827 16.2809C105.976 15.6938 106.16 15.0367 106.379 14.3095L106.813 12.7849C106.936 12.338 107.041 11.8693 107.129 11.3786C107.181 11.1157 107.269 10.7215 107.391 10.1957L108.009 7.5146C108.149 6.90127 108.246 6.49822 108.298 6.30546C108.395 6.30546 108.482 6.30108 108.561 6.29232C108.64 6.28356 108.719 6.27917 108.798 6.27917C108.894 6.27917 108.99 6.29232 109.087 6.3186C109.358 6.37994 109.556 6.46317 109.678 6.56832C109.81 6.6647 109.875 6.80927 109.875 7.00203C109.875 7.09841 109.853 7.23422 109.81 7.40946L109.442 8.65803C109.214 9.42908 109.021 10.0818 108.863 10.6163C108.758 11.0369 108.596 11.6765 108.377 12.5352L107.878 14.454C107.869 14.4978 107.856 14.5504 107.838 14.6117C107.821 14.6643 107.803 14.7213 107.786 14.7826C107.724 15.0017 107.615 15.3916 107.457 15.9523C107.299 16.5131 107.155 17.0169 107.023 17.4637Z" fill="#1B1A18"/>
<path d="M115.259 11.6677C115.259 11.8342 115.237 12.062 115.193 12.3512C115.158 12.6841 115.136 12.9514 115.127 13.1529C115.232 13.1091 115.355 13.0083 115.495 12.8506C115.574 12.763 115.653 12.6885 115.732 12.6272C116.117 12.3556 116.485 12.2197 116.836 12.2197C117.204 12.2197 117.594 12.3731 118.006 12.6797C118.628 13.1354 118.939 13.6698 118.939 14.2832C118.939 14.7651 118.737 15.2733 118.334 15.8077C117.756 16.5876 116.941 17.0563 115.89 17.214C115.837 17.2228 115.758 17.2272 115.653 17.2272C115.487 17.2272 115.211 17.1921 114.825 17.122C114.825 17.0344 114.812 16.938 114.786 16.8329C114.847 16.8066 114.926 16.7716 115.022 16.7277C115.127 16.6752 115.219 16.6445 115.298 16.6357C115.57 16.6095 115.872 16.4693 116.205 16.2152C116.547 15.9523 116.845 15.65 117.099 15.3083C117.353 14.9666 117.497 14.6687 117.532 14.4146C117.541 14.3796 117.55 14.3314 117.559 14.27C117.567 14.2087 117.572 14.1342 117.572 14.0466C117.572 13.959 117.559 13.8845 117.532 13.8232C117.392 13.499 117.23 13.2843 117.046 13.1792C116.994 13.1529 116.902 13.1836 116.77 13.2712C116.639 13.35 116.534 13.4377 116.455 13.534C115.876 14.1649 115.535 14.8877 115.43 15.7026C115.395 16.018 115.215 16.1714 114.891 16.1626C114.628 16.1626 114.387 16.0575 114.168 15.8472C113.949 15.6281 113.839 15.3872 113.839 15.1243C113.831 13.8013 113.826 11.8211 113.826 9.18375C113.826 8.9647 113.887 8.81575 114.01 8.73689C114.142 8.64927 114.33 8.57917 114.575 8.5266C114.68 8.50032 114.799 8.52222 114.93 8.59232C115.062 8.66241 115.175 8.75441 115.272 8.86832C115.368 8.98222 115.416 9.09613 115.416 9.21003C115.416 9.72698 115.377 10.371 115.298 11.142L115.259 11.6677Z" fill="#1B1A18"/>
<path d="M122.242 15.1637C122.154 15.2163 122.027 15.2426 121.861 15.2426C121.799 15.2426 121.725 15.2382 121.637 15.2295C121.55 15.2207 121.475 15.2207 121.414 15.2295C121.484 15.5186 121.65 15.7552 121.913 15.9392C122.176 16.1144 122.47 16.202 122.794 16.202C123.074 16.202 123.324 16.1407 123.543 16.018C123.867 15.8516 124.147 15.6544 124.384 15.4266C124.551 15.2601 124.708 15.1769 124.857 15.1769C124.954 15.1769 125.037 15.2251 125.107 15.3215C125.177 15.4354 125.212 15.5756 125.212 15.742C125.212 15.9173 125.177 16.0531 125.107 16.1495C124.879 16.4999 124.581 16.7409 124.213 16.8723C123.854 17.0037 123.433 17.0695 122.951 17.0695C122.452 17.0695 121.97 16.9599 121.506 16.7409C121.041 16.5218 120.643 16.2239 120.31 15.8472C119.986 15.4617 119.771 15.0367 119.666 14.5723C119.596 14.3007 119.561 14.0335 119.561 13.7706C119.561 13.3588 119.675 13.0258 119.902 12.7717C120.139 12.5177 120.516 12.2767 121.033 12.0489C121.506 11.8474 121.944 11.7466 122.347 11.7466C122.636 11.7466 122.916 11.7904 123.188 11.878C124.029 12.1409 124.45 12.5001 124.45 12.9557C124.45 13.2449 124.279 13.5954 123.937 14.0072C123.771 14.1999 123.574 14.3708 123.346 14.5197C123.118 14.6687 122.895 14.8045 122.675 14.9272C122.465 15.0411 122.321 15.1199 122.242 15.1637ZM122.794 12.7323C122.785 12.6885 122.75 12.6535 122.689 12.6272C122.636 12.5921 122.605 12.5702 122.597 12.5615C122.36 12.5439 122.119 12.614 121.874 12.7717C121.628 12.9207 121.423 13.1135 121.256 13.35C121.098 13.5866 121.019 13.8144 121.019 14.0335L121.033 14.1386C121.041 14.1737 121.085 14.2175 121.164 14.27C121.252 14.3226 121.304 14.3401 121.322 14.3226C121.944 13.8582 122.413 13.4858 122.728 13.2055C122.781 13.1529 122.807 13.0565 122.807 12.9163C122.807 12.8287 122.803 12.7674 122.794 12.7323Z" fill="#1B1A18"/>
<path d="M127.576 13.0872C127.576 13.4026 127.589 13.6085 127.615 13.7049C127.65 13.8013 127.729 13.8495 127.852 13.8495C127.966 13.8495 128.145 13.8232 128.39 13.7706H128.693C129.192 13.7706 129.499 13.8801 129.613 14.0992C129.657 14.1167 129.7 14.1649 129.744 14.2437C129.788 14.3138 129.819 14.362 129.836 14.3883C129.801 14.4146 129.749 14.4584 129.678 14.5197C129.608 14.5723 129.543 14.603 129.481 14.6117C129.28 14.6556 128.978 14.7125 128.574 14.7826C128.496 14.7914 128.355 14.8133 128.154 14.8483C127.838 14.9097 127.681 15.0937 127.681 15.4003C127.681 15.4441 127.69 15.5274 127.707 15.65C127.812 16.1232 127.9 16.5394 127.97 16.8986C128.04 17.2491 128.097 17.5426 128.141 17.7792L128.377 18.9357C128.465 19.3563 128.509 19.6805 128.509 19.9083C128.509 20.0748 128.469 20.1975 128.39 20.2763C128.312 20.3639 128.158 20.4077 127.93 20.4077C127.738 20.4077 127.593 20.3596 127.497 20.2632C127.4 20.1668 127.33 20.0135 127.286 19.8032C127.208 19.4001 127.072 18.7956 126.879 17.9895L126.458 15.8077C126.441 15.2996 126.191 15.0455 125.709 15.0455C125.552 15.0455 125.442 15.0192 125.381 14.9666C125.328 14.9228 125.28 14.8746 125.236 14.822C125.192 14.7607 125.17 14.7037 125.17 14.6512C125.17 14.6074 125.197 14.5592 125.249 14.5066C125.311 14.4453 125.368 14.4102 125.42 14.4015C125.736 14.3577 125.946 14.27 126.051 14.1386C126.165 14.0072 126.226 13.8013 126.235 13.5209L126.261 12.6797C126.27 12.3117 126.283 11.935 126.301 11.5495C126.318 11.1639 126.349 10.8222 126.393 10.5243C126.428 10.2702 126.537 10.0862 126.721 9.97232C126.905 9.84965 127.159 9.78832 127.484 9.78832C127.624 9.78832 127.733 9.7927 127.812 9.80146C127.996 9.81898 128.206 9.9066 128.443 10.0643C128.68 10.2133 128.807 10.3754 128.824 10.5506C128.912 11.05 128.728 11.3217 128.272 11.3655C127.974 11.3041 127.799 11.3392 127.746 11.4706C127.694 11.602 127.659 11.7641 127.641 11.9569C127.641 12.0708 127.633 12.2329 127.615 12.4432C127.589 12.6535 127.576 12.8681 127.576 13.0872Z" fill="#1B1A18"/>
<path d="M133.055 16.3335C132.784 16.4999 132.473 16.5832 132.122 16.5832C131.737 16.5832 131.364 16.4868 131.005 16.294C130.655 16.0925 130.374 15.8077 130.164 15.4397C129.954 15.0717 129.866 14.6512 129.901 14.178L129.967 13.8626C130.019 13.5472 130.063 13.315 130.098 13.166C130.177 12.8418 130.335 12.614 130.571 12.4826C130.808 12.3512 131.123 12.246 131.518 12.1672C131.772 12.1146 132.022 12.0883 132.267 12.0883C133.038 12.0883 133.686 12.3468 134.212 12.8637C134.492 13.1441 134.633 13.4858 134.633 13.8889C134.633 14.2832 134.488 14.7081 134.199 15.1637C133.866 15.6807 133.485 16.0706 133.055 16.3335ZM131.951 12.7586C131.811 13.1003 131.662 13.5253 131.505 14.0335L131.373 14.4277L131.465 14.4672C131.465 14.5285 131.465 14.6249 131.465 14.7563C131.474 14.879 131.491 14.9841 131.518 15.0717C131.614 15.3434 131.724 15.5098 131.846 15.5712C131.899 15.5975 131.973 15.5843 132.07 15.5317C132.175 15.4792 132.267 15.4178 132.346 15.3477C132.468 15.2426 132.666 15.0236 132.937 14.6906C133.139 14.4628 133.239 14.1912 133.239 13.8757C133.239 13.6041 133.161 13.3588 133.003 13.1397C132.854 12.9207 132.644 12.7717 132.372 12.6929C132.346 12.6841 132.298 12.6797 132.227 12.6797C132.061 12.6797 131.969 12.706 131.951 12.7586Z" fill="#1B1A18"/>
<path d="M136.986 11.6415C137.012 11.7291 137.017 11.8649 136.999 12.0489L136.841 13.5997C136.885 13.5647 136.951 13.442 137.038 13.2317C137.126 13.0127 137.209 12.8375 137.288 12.706C137.367 12.5658 137.428 12.4738 137.472 12.43C137.884 12.0357 138.348 11.7992 138.865 11.7203C139.382 11.6415 139.952 11.6064 140.574 11.6152C140.635 11.6152 140.701 11.6415 140.771 11.694C140.85 11.7378 140.889 11.7773 140.889 11.8123C140.889 11.8386 140.863 11.8868 140.81 11.9569C140.758 12.0182 140.71 12.0577 140.666 12.0752C140.14 12.2504 139.676 12.4519 139.273 12.6797C138.878 12.9076 138.537 13.2055 138.248 13.5735C137.564 14.4409 137.17 15.3346 137.065 16.2546C137.038 16.4999 136.964 16.6664 136.841 16.754C136.719 16.8329 136.548 16.8723 136.329 16.8723C136.083 16.8723 135.864 16.7672 135.672 16.5569C135.479 16.3466 135.382 16.1144 135.382 15.8603C135.391 14.9316 135.396 13.5384 135.396 11.6809C135.396 11.4268 135.453 11.2516 135.566 11.1552C135.68 11.05 135.886 10.9975 136.184 10.9975C136.403 10.9975 136.587 11.0588 136.736 11.1815C136.894 11.3041 136.977 11.4575 136.986 11.6415Z" fill="#1B1A18"/>
<path d="M143.012 15.1637C142.924 15.2163 142.797 15.2426 142.631 15.2426C142.57 15.2426 142.495 15.2382 142.408 15.2295C142.32 15.2207 142.245 15.2207 142.184 15.2295C142.254 15.5186 142.421 15.7552 142.684 15.9392C142.946 16.1144 143.24 16.202 143.564 16.202C143.844 16.202 144.094 16.1407 144.313 16.018C144.637 15.8516 144.918 15.6544 145.154 15.4266C145.321 15.2601 145.479 15.1769 145.628 15.1769C145.724 15.1769 145.807 15.2251 145.877 15.3215C145.947 15.4354 145.982 15.5756 145.982 15.742C145.982 15.9173 145.947 16.0531 145.877 16.1495C145.649 16.4999 145.352 16.7409 144.984 16.8723C144.624 17.0037 144.204 17.0695 143.722 17.0695C143.222 17.0695 142.74 16.9599 142.276 16.7409C141.812 16.5218 141.413 16.2239 141.08 15.8472C140.756 15.4617 140.541 15.0367 140.436 14.5723C140.366 14.3007 140.331 14.0335 140.331 13.7706C140.331 13.3588 140.445 13.0258 140.673 12.7717C140.909 12.5177 141.286 12.2767 141.803 12.0489C142.276 11.8474 142.714 11.7466 143.117 11.7466C143.406 11.7466 143.687 11.7904 143.958 11.878C144.8 12.1409 145.22 12.5001 145.22 12.9557C145.22 13.2449 145.049 13.5954 144.708 14.0072C144.541 14.1999 144.344 14.3708 144.116 14.5197C143.888 14.6687 143.665 14.8045 143.446 14.9272C143.236 15.0411 143.091 15.1199 143.012 15.1637ZM143.564 12.7323C143.555 12.6885 143.52 12.6535 143.459 12.6272C143.406 12.5921 143.376 12.5702 143.367 12.5615C143.13 12.5439 142.889 12.614 142.644 12.7717C142.399 12.9207 142.193 13.1135 142.026 13.35C141.869 13.5866 141.79 13.8144 141.79 14.0335L141.803 14.1386C141.812 14.1737 141.856 14.2175 141.934 14.27C142.022 14.3226 142.075 14.3401 142.092 14.3226C142.714 13.8582 143.183 13.4858 143.498 13.2055C143.551 13.1529 143.577 13.0565 143.577 12.9163C143.577 12.8287 143.573 12.7674 143.564 12.7323Z" fill="#1B1A18"/>
<path d="M153.249 16.5437C153.17 16.5087 153.091 16.4912 153.012 16.4912C152.934 16.4912 152.864 16.5131 152.802 16.5569C152.75 16.5919 152.688 16.6489 152.618 16.7277C152.513 16.8329 152.404 16.9205 152.29 16.9906C152.184 17.0519 151.992 17.1089 151.711 17.1615C151.589 17.179 151.488 17.1877 151.409 17.1877C151.041 17.1877 150.656 17.1089 150.252 16.9512C149.858 16.7847 149.578 16.5876 149.411 16.3597C149.236 16.1144 149.153 15.8516 149.162 15.5712C149.17 15.1506 149.346 14.73 149.687 14.3095C150.02 13.9064 150.323 13.6217 150.594 13.4552C150.875 13.2887 151.256 13.1836 151.738 13.1397C151.843 13.1397 151.992 13.1222 152.184 13.0872C152.386 13.0521 152.487 13.0039 152.487 12.9426C152.487 12.8199 152.43 12.7104 152.316 12.614C152.211 12.5089 151.992 12.4563 151.659 12.4563C151.536 12.4563 151.352 12.4651 151.107 12.4826C150.861 12.5001 150.691 12.5089 150.594 12.5089C150.296 12.5089 150.082 12.4607 149.95 12.3643C149.915 12.3468 149.898 12.2636 149.898 12.1146C149.898 11.8517 149.99 11.6853 150.174 11.6152C150.55 11.475 150.94 11.4005 151.343 11.3917C151.852 11.3917 152.32 11.5057 152.75 11.7335C153.188 11.9525 153.508 12.2285 153.709 12.5615C153.911 12.8944 154.042 13.3544 154.103 13.9415C154.173 14.5986 154.208 15.4354 154.208 16.4517C154.208 16.7321 154.169 16.8942 154.09 16.938C154.02 16.9818 153.954 17.0037 153.893 17.0037C153.814 17.0037 153.74 16.9818 153.67 16.938C153.608 16.8855 153.538 16.8154 153.459 16.7277C153.38 16.6314 153.31 16.57 153.249 16.5437ZM151.172 16.386C151.584 16.2634 151.987 16.0662 152.382 15.7946C152.469 15.7333 152.548 15.6544 152.618 15.558C152.688 15.4617 152.732 15.4003 152.75 15.374C152.767 15.3477 152.78 15.2733 152.789 15.1506C152.807 15.0192 152.811 14.914 152.802 14.8352C152.793 14.8089 152.776 14.7388 152.75 14.6249C152.732 14.511 152.701 14.4102 152.658 14.3226C152.614 14.2525 152.544 14.1868 152.447 14.1255C152.351 14.0641 152.263 14.0378 152.184 14.0466C152.018 14.0554 151.838 14.1167 151.646 14.2306C151.453 14.3445 151.273 14.4978 151.107 14.6906C150.94 14.8921 150.809 15.098 150.712 15.3083C150.625 15.5098 150.581 15.6982 150.581 15.8735C150.599 16.11 150.664 16.2677 150.778 16.3466C150.84 16.3904 150.914 16.4123 151.002 16.4123C151.072 16.4123 151.129 16.4036 151.172 16.386Z" fill="#1B1A18"/>
<path d="M157.303 12.2592C157.303 12.3117 157.294 12.3818 157.277 12.4695C157.259 12.5483 157.255 12.6009 157.263 12.6272C157.868 12.4957 158.381 12.43 158.801 12.43C159.458 12.43 159.953 12.7455 160.286 13.3763C160.558 13.9108 160.694 14.5022 160.694 15.1506C160.694 15.3171 160.676 15.558 160.641 15.8735C160.615 16.0837 160.532 16.2546 160.391 16.386C160.251 16.5087 160.085 16.57 159.892 16.57C159.69 16.57 159.546 16.535 159.458 16.4649C159.379 16.386 159.331 16.2984 159.314 16.202C159.305 16.1056 159.301 15.9523 159.301 15.742L159.287 15.466C159.27 14.9403 159.235 14.4847 159.182 14.0992C159.156 13.9415 159.095 13.8319 158.998 13.7706C158.911 13.7005 158.792 13.6655 158.643 13.6655C158.503 13.6655 158.337 13.6874 158.144 13.7312C157.846 13.81 157.645 13.8714 157.539 13.9152C157.443 13.959 157.298 14.051 157.106 14.1912C157.044 14.235 157.001 14.3226 156.974 14.454C156.948 14.5855 156.935 14.6599 156.935 14.6775C156.821 15.2382 156.698 15.9085 156.567 16.6883C156.558 16.7234 156.541 16.8066 156.514 16.938C156.488 17.0695 156.435 17.1615 156.357 17.214C156.286 17.2754 156.181 17.2973 156.041 17.2797C155.489 17.2097 155.209 16.9775 155.2 16.5832C155.191 16.075 155.231 15.4748 155.318 14.7826C155.38 14.2832 155.437 13.8801 155.489 13.5735C155.507 13.4333 155.529 13.2624 155.555 13.0609C155.59 12.8594 155.621 12.6272 155.647 12.3643C155.673 12.1628 155.699 12.0138 155.726 11.9175C155.752 11.8211 155.813 11.7422 155.91 11.6809C156.006 11.6108 156.155 11.5757 156.357 11.5757C156.611 11.5757 156.821 11.6327 156.987 11.7466C157.154 11.8605 157.259 12.0226 157.303 12.2329V12.2592Z" fill="#1B1A18"/>
<path d="M161.346 20.9203C161.408 20.9028 161.487 20.8765 161.583 20.8415C161.679 20.8152 161.763 20.7977 161.833 20.7889C162.464 20.7714 162.924 20.6399 163.213 20.3946C163.511 20.1493 163.699 19.7156 163.778 19.0935C163.857 18.4714 163.936 17.5382 164.014 16.294L164.067 15.4529C164.076 15.2514 164.036 15.098 163.949 14.9929C163.87 14.879 163.721 14.8089 163.502 14.7826C163.029 14.73 162.617 14.546 162.266 14.2306C161.925 13.9152 161.688 13.5165 161.557 13.0346C161.513 12.8857 161.465 12.7104 161.412 12.5089C161.307 12.1234 161.232 11.8342 161.189 11.6415V11.6152C161.189 11.5626 161.206 11.5057 161.241 11.4443C161.276 11.3742 161.311 11.326 161.346 11.2997C161.487 11.2034 161.649 11.1552 161.833 11.1552C162.078 11.1552 162.297 11.2428 162.49 11.418C162.683 11.5845 162.792 11.7948 162.818 12.0489C162.862 12.4432 162.937 12.8725 163.042 13.3369C163.086 13.5209 163.169 13.6129 163.292 13.6129C163.388 13.6129 163.471 13.5647 163.541 13.4683C163.769 13.1792 163.944 12.8988 164.067 12.6272C164.216 12.2942 164.435 12.1277 164.724 12.1277C164.803 12.1277 164.86 12.1321 164.895 12.1409C165.351 12.2285 165.57 12.5089 165.552 12.982L165.513 14.2043C165.478 15.2908 165.438 16.1013 165.394 16.6357L165.355 17.1615C165.302 17.8799 165.25 18.4363 165.197 18.8306C165.153 19.2337 165.079 19.6367 164.974 20.0397C164.842 20.5479 164.601 20.9247 164.251 21.17C163.9 21.4241 163.489 21.5512 163.016 21.5512C162.639 21.5512 162.262 21.4767 161.885 21.3277C161.806 21.2927 161.714 21.2445 161.609 21.1832C161.504 21.1306 161.425 21.0868 161.373 21.0517L161.346 20.9203Z" fill="#1B1A18"/>
<path d="M177.359 13.534C177.324 13.7531 177.254 14.3226 177.149 15.2426C177.088 15.7683 177.053 16.0399 177.044 16.0575L175.887 15.8735L176.124 13.0346L175.979 13.1397C175.9 13.2098 175.791 13.3194 175.651 13.4683C175.519 13.6085 175.401 13.7356 175.296 13.8495C174.954 14.3226 174.704 14.6424 174.547 14.8089C174.161 15.2119 173.806 15.5493 173.482 15.8209C173.167 16.0837 172.79 16.3247 172.352 16.5437C172.177 16.6314 171.962 16.6752 171.708 16.6752C171.489 16.6752 171.279 16.6357 171.077 16.5569C170.876 16.478 170.705 16.3597 170.564 16.202C169.872 15.4485 169.526 14.5373 169.526 13.4683C169.526 13.1617 169.552 12.8462 169.605 12.522C169.675 12.1015 169.763 11.6897 169.868 11.2866C169.973 10.8748 170.118 10.3447 170.302 9.69632C170.363 9.51232 170.446 9.23632 170.551 8.86832C170.595 8.69308 170.661 8.59232 170.748 8.56603C170.784 8.54851 170.814 8.53975 170.84 8.53975C170.937 8.53975 171.051 8.57917 171.182 8.65803C171.471 8.82451 171.677 8.9866 171.8 9.14432C171.931 9.30203 171.997 9.48165 171.997 9.68317C171.997 9.91975 171.905 10.2308 171.721 10.6163C171.178 11.7729 170.906 12.8375 170.906 13.81C170.906 14.0641 170.915 14.2525 170.932 14.3752C170.95 14.5767 171.051 14.7563 171.235 14.914C171.419 15.0717 171.62 15.1506 171.839 15.1506C172.076 15.1506 172.282 15.063 172.457 14.8877C173.368 13.9765 174.117 13.0521 174.704 12.1146C175.292 11.1771 175.752 10.1476 176.084 9.02603C176.12 8.8946 176.159 8.76756 176.203 8.64489L176.229 8.6186C176.746 8.67117 177.153 8.8727 177.451 9.22317C177.749 9.56489 177.881 9.98984 177.846 10.498C177.609 11.8999 177.447 12.9119 177.359 13.534Z" fill="#1B1A18"/>
<path d="M186.507 15.9523C186.533 16.0399 186.546 16.1232 186.546 16.202C186.546 16.3422 186.502 16.4561 186.415 16.5437C186.336 16.6226 186.226 16.662 186.086 16.662C186.034 16.662 185.99 16.6577 185.955 16.6489C185.56 16.5613 185.249 16.4649 185.022 16.3597C184.846 16.2809 184.522 16.0837 184.049 15.7683C183.69 15.5317 183.392 15.3477 183.155 15.2163C182.849 15.0498 182.52 14.9359 182.17 14.8746C182.012 14.8483 181.639 14.8045 181.052 14.7432C180.79 14.7257 180.597 14.7081 180.474 14.6906L180.238 16.6357L180.251 16.846C180.251 17.1615 180.211 17.3717 180.132 17.4769C180.062 17.582 179.913 17.6346 179.686 17.6346C179.449 17.6346 179.243 17.5601 179.068 17.4112C178.893 17.2622 178.805 17.0782 178.805 16.8592C178.805 16.1933 178.84 15.6018 178.91 15.0849C179.155 13.499 179.721 11.8517 180.605 10.1432C181.105 9.18813 181.872 8.45213 182.906 7.93517C183.238 7.7687 183.576 7.68546 183.917 7.68546C184.268 7.68546 184.592 7.77746 184.89 7.96146C185.197 8.1367 185.451 8.39517 185.652 8.73689C185.836 9.04356 185.928 9.34146 185.928 9.6306C185.928 10.0337 185.771 10.4411 185.455 10.8529C185.078 11.3436 184.544 12.0401 183.852 12.9426L182.998 14.0466C183.006 14.0466 183.015 14.0597 183.024 14.086C183.041 14.1036 183.059 14.1211 183.076 14.1386L183.366 14.2963C184.093 14.6906 184.627 15.0016 184.969 15.2295C185.302 15.431 185.657 15.5317 186.034 15.5317C186.147 15.5317 186.235 15.5274 186.296 15.5186C186.323 15.5624 186.358 15.6281 186.402 15.7157C186.445 15.8034 186.48 15.8822 186.507 15.9523ZM181.644 13.35C182.003 12.947 182.362 12.5264 182.722 12.0883C183.09 11.6502 183.414 11.2384 183.694 10.8529C183.808 10.6952 183.904 10.5287 183.983 10.3535C184.062 10.1695 184.132 9.98546 184.194 9.80146C184.264 9.61746 184.312 9.48603 184.338 9.40717C184.347 9.38089 184.351 9.33708 184.351 9.27575C184.351 9.20565 184.342 9.11803 184.325 9.01289C184.307 8.90775 184.294 8.83327 184.286 8.78946C183.646 8.98222 183.063 9.37651 182.538 9.97232C182.012 10.5681 181.596 11.2297 181.289 11.9569C180.991 12.6841 180.838 13.3106 180.829 13.8363C181.004 13.8538 181.14 13.8232 181.236 13.7443C181.342 13.6655 181.477 13.534 181.644 13.35Z" fill="#1B1A18"/>
<path d="M189.904 16.5306C190.141 16.4868 190.632 16.386 191.376 16.2283L192.388 16.018C192.502 16.1319 192.599 16.2327 192.677 16.3203C192.756 16.4079 192.796 16.4824 192.796 16.5437C192.796 16.6138 192.761 16.6839 192.691 16.754C192.62 16.8241 192.48 16.938 192.27 17.0957C192.244 17.1133 192.213 17.1439 192.178 17.1877C192.152 17.2316 192.121 17.2578 192.086 17.2666L191.731 17.3586C191.433 17.4462 191.166 17.5119 190.929 17.5557C190.702 17.6083 190.469 17.6346 190.233 17.6346C189.392 17.6346 188.704 17.3849 188.169 16.8855C187.968 16.7015 187.81 16.5175 187.696 16.3335C187.591 16.1407 187.539 15.9348 187.539 15.7157C187.539 15.6194 187.543 15.5493 187.552 15.5055C187.692 14.638 187.85 13.902 188.025 13.2975C188.209 12.6316 188.542 11.5013 189.024 9.9066C189.129 9.52984 189.295 8.9647 189.523 8.21117C189.584 8.00965 189.668 7.86946 189.773 7.7906C189.887 7.71175 190.049 7.68108 190.259 7.6986C190.303 7.6986 190.342 7.70298 190.377 7.71175C190.421 7.72051 190.465 7.72489 190.509 7.72489C191.052 7.7687 191.324 8.03156 191.324 8.51346C191.324 8.63613 191.306 8.76317 191.271 8.8946C191.201 9.17498 191.07 9.55175 190.877 10.0249C190.167 11.8298 189.62 13.5691 189.234 15.2426C189.181 15.4529 189.155 15.6719 189.155 15.8997C189.155 16.3291 189.344 16.5437 189.72 16.5437C189.799 16.5437 189.86 16.5394 189.904 16.5306Z" fill="#1B1A18"/>
<path d="M34.5141 30.9187C34.4353 30.8837 34.3564 30.8662 34.2776 30.8662C34.1987 30.8662 34.1286 30.8881 34.0673 30.9319C34.0147 30.9669 33.9534 31.0239 33.8833 31.1027C33.7781 31.2079 33.6686 31.2955 33.5547 31.3656C33.4496 31.4269 33.2568 31.4839 32.9764 31.5365C32.8537 31.554 32.753 31.5627 32.6741 31.5627C32.3061 31.5627 31.9206 31.4839 31.5176 31.3262C31.1233 31.1597 30.8429 30.9626 30.6764 30.7347C30.5012 30.4894 30.4179 30.2266 30.4267 29.9462C30.4355 29.5256 30.6107 29.105 30.9524 28.6845C31.2854 28.2814 31.5877 27.9966 31.8593 27.8302C32.1397 27.6637 32.5208 27.5586 33.0027 27.5147C33.1078 27.5147 33.2568 27.4972 33.4496 27.4622C33.6511 27.4271 33.7518 27.3789 33.7518 27.3176C33.7518 27.1949 33.6949 27.0854 33.581 26.989C33.4758 26.8839 33.2568 26.8313 32.9238 26.8313C32.8012 26.8313 32.6172 26.8401 32.3718 26.8576C32.1265 26.8751 31.9557 26.8839 31.8593 26.8839C31.5614 26.8839 31.3467 26.8357 31.2153 26.7393C31.1802 26.7218 31.1627 26.6386 31.1627 26.4896C31.1627 26.2267 31.2547 26.0603 31.4387 25.9902C31.8155 25.85 32.2054 25.7755 32.6084 25.7667C33.1166 25.7667 33.5854 25.8806 34.0147 26.1085C34.4528 26.3275 34.7726 26.6035 34.9741 26.9365C35.1757 27.2694 35.3071 27.7294 35.3684 28.3165C35.4385 28.9736 35.4736 29.8104 35.4736 30.8267C35.4736 31.1071 35.4341 31.2692 35.3553 31.313C35.2852 31.3568 35.2195 31.3787 35.1581 31.3787C35.0793 31.3787 35.0048 31.3568 34.9347 31.313C34.8734 31.2605 34.8033 31.1904 34.7244 31.1027C34.6456 31.0064 34.5755 30.945 34.5141 30.9187ZM32.4376 30.761C32.8494 30.6384 33.2524 30.4412 33.6467 30.1696C33.7343 30.1083 33.8132 30.0294 33.8833 29.933C33.9534 29.8367 33.9972 29.7753 34.0147 29.749C34.0322 29.7227 34.0454 29.6483 34.0541 29.5256C34.0717 29.3942 34.076 29.289 34.0673 29.2102C34.0585 29.1839 34.041 29.1138 34.0147 28.9999C33.9972 28.886 33.9665 28.7852 33.9227 28.6976C33.8789 28.6275 33.8088 28.5618 33.7124 28.5005C33.616 28.4391 33.5284 28.4128 33.4496 28.4216C33.2831 28.4304 33.1035 28.4917 32.9107 28.6056C32.7179 28.7195 32.5383 28.8728 32.3718 29.0656C32.2054 29.2671 32.0739 29.473 31.9776 29.6833C31.8899 29.8848 31.8461 30.0732 31.8461 30.2485C31.8636 30.485 31.9294 30.6427 32.0433 30.7216C32.1046 30.7654 32.1791 30.7873 32.2667 30.7873C32.3368 30.7873 32.3937 30.7786 32.4376 30.761Z" fill="#1B1A18"/>
<path d="M38.5679 26.6342C38.5679 26.6867 38.5591 26.7568 38.5416 26.8445C38.5241 26.9233 38.5197 26.9759 38.5285 27.0022C39.133 26.8707 39.6456 26.805 40.0662 26.805C40.7233 26.805 41.2184 27.1205 41.5513 27.7513C41.8229 28.2858 41.9587 28.8772 41.9587 29.5256C41.9587 29.6921 41.9412 29.933 41.9062 30.2485C41.8799 30.4587 41.7966 30.6296 41.6564 30.761C41.5163 30.8837 41.3498 30.945 41.157 30.945C40.9555 30.945 40.8109 30.91 40.7233 30.8399C40.6444 30.761 40.5963 30.6734 40.5787 30.577C40.57 30.4806 40.5656 30.3273 40.5656 30.117L40.5524 29.841C40.5349 29.3153 40.4999 28.8597 40.4473 28.4742C40.421 28.3165 40.3597 28.2069 40.2633 28.1456C40.1757 28.0755 40.0574 28.0405 39.9084 28.0405C39.7683 28.0405 39.6018 28.0624 39.409 28.1062C39.1111 28.185 38.9096 28.2464 38.8044 28.2902C38.7081 28.334 38.5635 28.426 38.3707 28.5662C38.3094 28.61 38.2656 28.6976 38.2393 28.829C38.213 28.9605 38.1999 29.0349 38.1999 29.0525C38.086 29.6132 37.9633 30.2835 37.8319 31.0633C37.8231 31.0984 37.8056 31.1816 37.7793 31.313C37.753 31.4445 37.7004 31.5365 37.6216 31.589C37.5515 31.6504 37.4464 31.6723 37.3062 31.6547C36.7542 31.5847 36.4738 31.3525 36.465 30.9582C36.4563 30.45 36.4957 29.8498 36.5833 29.1576C36.6446 28.6582 36.7016 28.2551 36.7542 27.9485C36.7717 27.8083 36.7936 27.6374 36.8199 27.4359C36.8549 27.2344 36.8856 27.0022 36.9119 26.7393C36.9382 26.5378 36.9644 26.3888 36.9907 26.2925C37.017 26.1961 37.0784 26.1172 37.1747 26.0559C37.2711 25.9858 37.4201 25.9507 37.6216 25.9507C37.8757 25.9507 38.086 26.0077 38.2524 26.1216C38.4189 26.2355 38.5241 26.3976 38.5679 26.6079V26.6342Z" fill="#1B1A18"/>
<path d="M47.8423 30.0513C47.8598 30.2003 47.9256 30.393 48.0395 30.6296C48.057 30.6734 48.0745 30.7216 48.092 30.7742C48.1183 30.8267 48.1446 30.8881 48.1709 30.9582C47.873 31.1246 47.6364 31.2079 47.4612 31.2079C47.3298 31.2079 47.2071 31.1685 47.0932 31.0896C46.9793 31.002 46.8522 30.8662 46.712 30.6822C46.6069 30.5595 46.5193 30.4982 46.4492 30.4982C46.3791 30.4982 46.3046 30.5551 46.2257 30.669C46.0505 30.9319 45.8315 31.129 45.5686 31.2605C45.3145 31.3919 45.0429 31.4576 44.7537 31.4576C44.4296 31.4576 44.1141 31.3831 43.8075 31.2342C43.5096 31.0765 43.2774 30.8662 43.1109 30.6033C42.9356 30.3317 42.848 29.9286 42.848 29.3942C42.848 29.0086 42.9006 28.6187 43.0057 28.2245C43.1109 27.8302 43.2598 27.506 43.4526 27.2519C43.6629 26.9627 43.9126 26.7349 44.2017 26.5685C44.4909 26.3932 44.8107 26.3056 45.1612 26.3056C45.2751 26.3056 45.3627 26.31 45.424 26.3187C45.4503 26.3275 45.4897 26.3319 45.5423 26.3319C45.7438 26.3319 45.8446 26.2355 45.8446 26.0427L45.8315 25.9376C45.7088 24.93 45.5993 24.1896 45.5029 23.7165C45.4941 23.6727 45.481 23.6026 45.4635 23.5062C45.4459 23.4098 45.4372 23.3309 45.4372 23.2696C45.4372 23.1469 45.4635 23.0418 45.516 22.9542C45.5686 22.8578 45.6606 22.7789 45.792 22.7176C45.8446 22.6913 45.9059 22.6782 45.976 22.6782C46.16 22.6782 46.3528 22.7395 46.5543 22.8622C46.7558 22.9761 46.8741 23.1075 46.9092 23.2565C47.0406 23.7997 47.1633 24.505 47.2772 25.3725L47.5137 27.3702C47.6539 28.5618 47.7635 29.4555 47.8423 30.0513ZM44.3332 28.4085C44.1842 28.8378 44.1097 29.2321 44.1097 29.5913C44.1097 30.0907 44.285 30.4587 44.6355 30.6953C44.7757 30.6165 44.8852 30.5288 44.964 30.4325C45.0517 30.3273 45.1524 30.1784 45.2663 29.9856L45.4109 29.7359C45.6124 29.4467 45.7438 29.1226 45.8052 28.7633C45.8753 28.4041 45.9191 27.9485 45.9366 27.3965C45.9454 27.3176 45.9278 27.23 45.884 27.1336C45.849 27.0285 45.8096 26.9715 45.7657 26.9627C45.6957 26.9452 45.5774 26.9671 45.4109 27.0285C45.2444 27.081 45.1393 27.138 45.0955 27.1993C44.8939 27.4359 44.7318 27.6418 44.6092 27.817C44.4953 27.9923 44.4033 28.1894 44.3332 28.4085Z" fill="#1B1A18"/>
<path d="M53.4413 24.5707C53.45 25.4207 53.4719 26.1216 53.507 26.6736C53.5508 27.2168 53.6472 27.7951 53.7961 28.4085C54.1641 28.277 54.5015 28.2113 54.8081 28.2113C55.3251 28.2113 55.7719 28.3646 56.1487 28.6713C56.5255 28.978 56.7796 29.3591 56.911 29.8147C57.0161 30.1477 57.0687 30.5946 57.0687 31.1553L57.0556 32.1805C57.0556 32.2418 57.0205 32.3119 56.9504 32.3907C56.8803 32.4696 56.8102 32.5178 56.7401 32.5353C56.7139 32.5441 56.6744 32.5485 56.6219 32.5485C56.4203 32.5485 56.21 32.4477 55.991 32.2462C55.7719 32.0534 55.658 31.8607 55.6493 31.6679L55.623 30.9845C55.623 30.8267 55.6142 30.5989 55.5967 30.301C55.5792 29.9944 55.5441 29.7753 55.4916 29.6439C55.439 29.4949 55.3733 29.381 55.2944 29.3022C55.2156 29.2233 55.1279 29.1839 55.0316 29.1839C54.9615 29.1839 54.8826 29.2146 54.795 29.2759C54.7161 29.3372 54.646 29.4205 54.5847 29.5256C54.4007 29.8147 54.1598 30.3843 53.8619 31.2342C53.7655 31.5408 53.5946 31.6942 53.3493 31.6942C53.323 31.6942 53.266 31.6854 53.1784 31.6679C53.1259 31.6504 53.0251 31.6241 52.8761 31.589C52.7272 31.5452 52.6089 31.4795 52.5213 31.3919C52.4424 31.3043 52.403 31.1772 52.403 31.0107C52.403 29.3547 52.3022 27.9835 52.1007 26.897C52.0043 26.3538 51.9561 25.7273 51.9561 25.0176V24.137V23.677C51.9561 23.5544 52.0219 23.4492 52.1533 23.3616C52.2847 23.274 52.4337 23.2302 52.6001 23.2302C52.7403 23.2302 52.8586 23.2608 52.955 23.3222C53.1302 23.4273 53.2529 23.5587 53.323 23.7165C53.4018 23.8742 53.4413 24.0713 53.4413 24.3079V24.5707Z" fill="#1B1A18"/>
<path d="M59.2024 25.4645C59.1848 25.517 59.1191 25.574 59.0052 25.6353C58.9001 25.6966 58.8125 25.7536 58.7424 25.8062L58.3744 25.609C58.0151 25.4163 57.7698 25.2629 57.6384 25.149C57.5683 25.0965 57.5332 25.0307 57.5332 24.9519C57.5332 24.8993 57.5507 24.8555 57.5858 24.8205C57.6296 24.7766 57.6909 24.7547 57.7698 24.7547C58.1115 24.7547 58.5277 24.8424 59.0184 25.0176C59.0709 25.0264 59.1191 25.0877 59.1629 25.2016C59.2067 25.3067 59.2199 25.3944 59.2024 25.4645ZM58.0195 27.909C58.0458 27.7951 58.0633 27.7119 58.0721 27.6593C58.0808 27.6067 58.0852 27.5498 58.0852 27.4885C58.0852 27.3658 58.1203 27.2694 58.1904 27.1993C58.2692 27.1292 58.4138 27.0942 58.6241 27.0942C58.8694 27.0942 59.0841 27.173 59.2681 27.3307C59.4608 27.4797 59.5791 27.6768 59.6229 27.9222C59.6492 28.0448 59.6667 28.1807 59.6755 28.3296C59.6843 28.4786 59.6887 28.5749 59.6887 28.6187L59.8727 30.8662C59.8989 31.1027 59.8639 31.2867 59.7675 31.4182C59.6799 31.5408 59.509 31.6022 59.2549 31.6022C59.0359 31.6022 58.8475 31.5408 58.6898 31.4182C58.5408 31.2955 58.4488 31.1378 58.4138 30.945L58.0721 28.1587L58.0195 27.909Z" fill="#1B1A18"/>
<path d="M60.3791 26.6867C60.3177 26.6166 60.2739 26.5422 60.2476 26.4633C60.2301 26.3845 60.2126 26.2749 60.1951 26.1347C60.2739 25.9507 60.4185 25.8587 60.6288 25.8587C60.7339 25.8763 60.8084 25.885 60.8522 25.885C61.0274 25.885 61.137 25.8325 61.1808 25.7273C61.2246 25.6222 61.2465 25.4995 61.2465 25.3593C61.2465 25.2191 61.2465 25.1096 61.2465 25.0307L61.2859 24.2422C61.2947 24.0669 61.3034 23.8523 61.3122 23.5982C61.3297 23.3353 61.3473 23.033 61.3648 22.6913C61.3735 22.5073 61.4173 22.3715 61.4962 22.2839C61.5838 22.1963 61.7021 22.1525 61.8511 22.1525C61.9562 22.1525 62.0394 22.1612 62.1008 22.1787C62.46 22.2576 62.701 22.3715 62.8236 22.5205C62.9463 22.6694 63.0295 22.8928 63.0733 23.1907C63.0821 23.2521 63.0733 23.3791 63.0471 23.5719L62.8105 25.6222C62.8017 25.6747 62.7886 25.7405 62.7711 25.8193C62.7535 25.8894 62.7448 25.942 62.7448 25.977C62.7448 26.0559 62.7886 26.1085 62.8762 26.1347C62.9638 26.161 63.1259 26.1698 63.3625 26.161C63.7655 26.0734 64.0722 26.0165 64.2825 25.9902C64.3263 25.9814 64.3964 25.977 64.4928 25.977C64.5979 25.977 64.668 25.9902 64.7031 26.0165C64.7381 26.034 64.7644 26.0866 64.7819 26.1742C64.8082 26.253 64.8214 26.345 64.8214 26.4502C64.8214 26.5466 64.8082 26.6342 64.7819 26.713C64.7644 26.7919 64.7381 26.8357 64.7031 26.8445C64.4665 26.9146 64.1861 26.9715 63.8619 27.0153C63.4764 27.0854 63.1916 27.1467 63.0076 27.1993C62.9113 27.2256 62.8149 27.2913 62.7185 27.3965C62.6221 27.5016 62.5695 27.598 62.5608 27.6856C62.5432 28.1149 62.5301 28.553 62.5213 28.9999C62.5126 29.3416 62.5257 29.6833 62.5608 30.025C62.5871 30.3142 62.644 30.5245 62.7316 30.6559C62.8193 30.7786 62.9507 30.8399 63.1259 30.8399C63.2661 30.8399 63.4676 30.7917 63.7305 30.6953C63.8707 30.634 63.9933 30.6033 64.0985 30.6033C64.265 30.6033 64.3833 30.6953 64.4533 30.8793C64.4796 30.9406 64.4928 31.002 64.4928 31.0633C64.4928 31.1772 64.449 31.2692 64.3613 31.3393C64.2825 31.4094 64.173 31.4707 64.0328 31.5233C63.7699 31.6197 63.5027 31.6723 63.2311 31.681C62.8631 31.681 62.517 31.5934 62.1928 31.4182C61.8686 31.2342 61.6101 30.9801 61.4173 30.6559C61.2333 30.3317 61.1545 29.9593 61.1808 29.5387C61.1895 29.3723 61.1939 29.1094 61.1939 28.7502C61.1939 28.1807 61.172 27.6024 61.1282 27.0153C61.1194 26.9627 61.0888 26.9277 61.0362 26.9102C60.9836 26.8839 60.896 26.8576 60.7733 26.8313C60.5718 26.7963 60.4404 26.7481 60.3791 26.6867Z" fill="#1B1A18"/>
<path d="M71.7938 26.6999C71.7938 26.7349 71.7982 26.7744 71.807 26.8182C71.8157 26.8532 71.8245 26.8883 71.8333 26.9233C71.9034 26.9321 72.0085 26.9365 72.1487 26.9365C72.762 26.9365 73.3929 26.805 74.0413 26.5422C74.2253 26.4721 74.3786 26.437 74.5013 26.437C74.7466 26.437 74.9481 26.5509 75.1058 26.7787C75.1847 26.9014 75.2241 27.0066 75.2241 27.0942C75.2241 27.1993 75.1672 27.3088 75.0533 27.4227C74.7028 27.7469 74.3304 27.9309 73.9361 27.9747C73.5856 28.0186 73.0599 28.093 72.359 28.1982L71.439 28.3296C71.2988 28.6363 71.2287 28.9342 71.2287 29.2233C71.2287 29.6439 71.3733 29.9944 71.6624 30.2747C71.9603 30.5464 72.3634 30.6909 72.8716 30.7085C73.3885 30.7172 74.05 30.6822 74.8561 30.6033L75.0533 30.5902C75.2723 30.5902 75.4519 30.6427 75.5921 30.7479C75.7411 30.8443 75.8813 31.0195 76.0127 31.2736C75.9163 31.4839 75.7805 31.6241 75.6053 31.6942C75.43 31.773 75.2022 31.83 74.9218 31.865C74.6327 31.9001 74.3041 31.9176 73.9361 31.9176C73.1388 31.9176 72.4203 31.7906 71.7807 31.5365C70.6504 31.0984 69.9276 30.3405 69.6121 29.2627C69.5683 29.1138 69.5464 28.9561 69.5464 28.7896C69.5464 28.6144 69.5464 28.5092 69.5464 28.4742C69.5464 28.1763 69.4018 27.9572 69.1127 27.817C68.8761 27.6856 68.6921 27.5586 68.5607 27.4359C68.438 27.3132 68.3592 27.1292 68.3241 26.8839L69.8093 26.7919L70.4796 24.8599C70.4971 24.7986 70.5146 24.7241 70.5321 24.6365C70.5584 24.5401 70.5847 24.4656 70.611 24.413C70.6898 24.2378 70.7293 24.0932 70.7293 23.9793C70.7293 23.8041 70.646 23.6507 70.4796 23.5193C70.4182 23.4755 70.3656 23.3967 70.3218 23.2827C70.2868 23.1601 70.2517 23.0637 70.2167 22.9936L70.5058 22.9016C70.646 22.8666 70.7468 22.8359 70.8081 22.8096C70.8432 22.7921 70.9176 22.7614 71.0316 22.7176C71.1455 22.665 71.2112 22.6081 71.2287 22.5467C71.29 22.3978 71.3645 22.297 71.4521 22.2445C71.5485 22.1919 71.6624 22.1656 71.7938 22.1656C71.8815 22.1656 72.0129 22.1744 72.1881 22.1919C72.2407 22.1919 72.2933 22.205 72.3458 22.2313C72.4072 22.2488 72.4554 22.2751 72.4904 22.3102C72.6919 22.5205 72.9154 22.6607 73.1607 22.7307C73.406 22.8008 73.6952 22.8359 74.0281 22.8359H74.5933H75.6973C76.442 22.8359 76.9984 22.8447 77.3664 22.8622C77.5592 22.8709 77.8045 22.9542 78.1024 23.1119C78.155 23.1382 78.1944 23.1907 78.2207 23.2696C78.2557 23.3397 78.2733 23.4098 78.2733 23.4799C78.2733 23.5149 78.2426 23.5587 78.1813 23.6113C78.1199 23.6551 78.063 23.6858 78.0104 23.7033C77.4146 23.861 76.9634 23.953 76.6567 23.9793C76.1836 24.0231 75.4738 24.0801 74.5275 24.1502C74.3085 24.1589 73.958 24.1808 73.4761 24.2159C73.4411 24.2159 73.3797 24.2071 73.2921 24.1896C73.2045 24.1633 73.1388 24.1502 73.095 24.1502C72.7708 24.1502 72.5649 24.286 72.4773 24.5576C72.2407 25.2586 72.0173 25.9551 71.807 26.6473L71.7938 26.6999Z" fill="#1B1A18"/>
<path d="M80.3011 26.6342C80.3011 26.6867 80.2923 26.7568 80.2748 26.8445C80.2573 26.9233 80.2529 26.9759 80.2616 27.0022C80.8662 26.8707 81.3788 26.805 81.7993 26.805C82.4565 26.805 82.9515 27.1205 83.2845 27.7513C83.5561 28.2858 83.6919 28.8772 83.6919 29.5256C83.6919 29.6921 83.6744 29.933 83.6394 30.2485C83.6131 30.4587 83.5298 30.6296 83.3896 30.761C83.2495 30.8837 83.083 30.945 82.8902 30.945C82.6887 30.945 82.5441 30.91 82.4565 30.8399C82.3776 30.761 82.3294 30.6734 82.3119 30.577C82.3032 30.4806 82.2988 30.3273 82.2988 30.117L82.2856 29.841C82.2681 29.3153 82.2331 28.8597 82.1805 28.4742C82.1542 28.3165 82.0929 28.2069 81.9965 28.1456C81.9089 28.0755 81.7906 28.0405 81.6416 28.0405C81.5014 28.0405 81.335 28.0624 81.1422 28.1062C80.8443 28.185 80.6428 28.2464 80.5376 28.2902C80.4413 28.334 80.2967 28.426 80.1039 28.5662C80.0426 28.61 79.9988 28.6976 79.9725 28.829C79.9462 28.9605 79.9331 29.0349 79.9331 29.0525C79.8192 29.6132 79.6965 30.2835 79.5651 31.0633C79.5563 31.0984 79.5388 31.1816 79.5125 31.313C79.4862 31.4445 79.4336 31.5365 79.3548 31.589C79.2847 31.6504 79.1795 31.6723 79.0393 31.6547C78.4873 31.5847 78.207 31.3525 78.1982 30.9582C78.1895 30.45 78.2289 29.8498 78.3165 29.1576C78.3778 28.6582 78.4348 28.2551 78.4874 27.9485C78.5049 27.8083 78.5268 27.6374 78.5531 27.4359C78.5881 27.2344 78.6188 27.0022 78.6451 26.7393C78.6713 26.5378 78.6976 26.3888 78.7239 26.2925C78.7502 26.1961 78.8115 26.1172 78.9079 26.0559C79.0043 25.9858 79.1533 25.9507 79.3548 25.9507C79.6089 25.9507 79.8192 26.0077 79.9856 26.1216C80.1521 26.2355 80.2573 26.3976 80.3011 26.6079V26.6342Z" fill="#1B1A18"/>
<path d="M83.8447 26.6867C83.7834 26.6166 83.7396 26.5422 83.7133 26.4633C83.6958 26.3845 83.6782 26.2749 83.6607 26.1347C83.7396 25.9507 83.8841 25.8587 84.0944 25.8587C84.1996 25.8763 84.274 25.885 84.3179 25.885C84.4931 25.885 84.6026 25.8325 84.6464 25.7273C84.6902 25.6222 84.7121 25.4995 84.7121 25.3593C84.7121 25.2191 84.7121 25.1096 84.7121 25.0307L84.7516 24.2422C84.7603 24.0669 84.7691 23.8523 84.7779 23.5982C84.7954 23.3353 84.8129 23.033 84.8304 22.6913C84.8392 22.5073 84.883 22.3715 84.9619 22.2839C85.0495 22.1963 85.1678 22.1525 85.3167 22.1525C85.4219 22.1525 85.5051 22.1612 85.5664 22.1787C85.9257 22.2576 86.1666 22.3715 86.2893 22.5205C86.4119 22.6694 86.4952 22.8928 86.539 23.1907C86.5478 23.2521 86.539 23.3791 86.5127 23.5719L86.2761 25.6222C86.2674 25.6747 86.2542 25.7405 86.2367 25.8193C86.2192 25.8894 86.2104 25.942 86.2104 25.977C86.2104 26.0559 86.2542 26.1085 86.3419 26.1347C86.4295 26.161 86.5916 26.1698 86.8281 26.161C87.2312 26.0734 87.5378 26.0165 87.7481 25.9902C87.7919 25.9814 87.862 25.977 87.9584 25.977C88.0636 25.977 88.1337 25.9902 88.1687 26.0165C88.2038 26.034 88.23 26.0866 88.2476 26.1742C88.2738 26.253 88.287 26.345 88.287 26.4502C88.287 26.5466 88.2738 26.6342 88.2476 26.713C88.23 26.7919 88.2038 26.8357 88.1687 26.8445C87.9321 26.9146 87.6518 26.9715 87.3276 27.0153C86.942 27.0854 86.6573 27.1467 86.4733 27.1993C86.3769 27.2256 86.2805 27.2913 86.1841 27.3965C86.0878 27.5016 86.0352 27.598 86.0264 27.6856C86.0089 28.1149 85.9958 28.553 85.987 28.9999C85.9782 29.3416 85.9914 29.6833 86.0264 30.025C86.0527 30.3142 86.1097 30.5245 86.1973 30.6559C86.2849 30.7786 86.4163 30.8399 86.5916 30.8399C86.7318 30.8399 86.9333 30.7917 87.1961 30.6953C87.3363 30.634 87.459 30.6033 87.5641 30.6033C87.7306 30.6033 87.8489 30.6953 87.919 30.8793C87.9453 30.9406 87.9584 31.002 87.9584 31.0633C87.9584 31.1772 87.9146 31.2692 87.827 31.3393C87.7481 31.4094 87.6386 31.4707 87.4984 31.5233C87.2356 31.6197 86.9683 31.6723 86.6967 31.681C86.3287 31.681 85.9826 31.5934 85.6584 31.4182C85.3342 31.2342 85.0758 30.9801 84.883 30.6559C84.699 30.3317 84.6201 29.9593 84.6464 29.5387C84.6552 29.3723 84.6596 29.1094 84.6596 28.7502C84.6596 28.1807 84.6377 27.6024 84.5939 27.0153C84.5851 26.9627 84.5544 26.9277 84.5019 26.9102C84.4493 26.8839 84.3617 26.8576 84.239 26.8313C84.0375 26.7963 83.906 26.7481 83.8447 26.6867Z" fill="#1B1A18"/>
<path d="M91.046 29.5387C90.9584 29.5913 90.8313 29.6176 90.6648 29.6176C90.6035 29.6176 90.529 29.6132 90.4414 29.6045C90.3538 29.5957 90.2793 29.5957 90.218 29.6045C90.2881 29.8936 90.4545 30.1302 90.7174 30.3142C90.9803 30.4894 91.2738 30.577 91.598 30.577C91.8783 30.577 92.1281 30.5157 92.3471 30.393C92.6713 30.2266 92.9517 30.0294 93.1883 29.8016C93.3547 29.6351 93.5125 29.5519 93.6614 29.5519C93.7578 29.5519 93.841 29.6001 93.9111 29.6965C93.9812 29.8104 94.0163 29.9506 94.0163 30.117C94.0163 30.2923 93.9812 30.4281 93.9111 30.5245C93.6833 30.8749 93.3854 31.1159 93.0174 31.2473C92.6582 31.3787 92.2376 31.4445 91.7557 31.4445C91.2562 31.4445 90.7743 31.3349 90.31 31.1159C89.8456 30.8968 89.4469 30.5989 89.114 30.2222C88.7898 29.8367 88.5751 29.4117 88.47 28.9473C88.3999 28.6757 88.3648 28.4085 88.3648 28.1456C88.3648 27.7338 88.4787 27.4008 88.7065 27.1467C88.9431 26.8927 89.3199 26.6517 89.8368 26.4239C90.31 26.2224 90.7481 26.1216 91.1511 26.1216C91.4403 26.1216 91.7206 26.1654 91.9922 26.253C92.8334 26.5159 93.254 26.8751 93.254 27.3307C93.254 27.6199 93.0831 27.9704 92.7414 28.3822C92.5749 28.5749 92.3778 28.7458 92.15 28.8947C91.9222 29.0437 91.6987 29.1795 91.4797 29.3022C91.2694 29.4161 91.1248 29.4949 91.046 29.5387ZM91.598 27.1073C91.5892 27.0635 91.5542 27.0285 91.4928 27.0022C91.4402 26.9671 91.4096 26.9452 91.4008 26.9365C91.1643 26.9189 90.9233 26.989 90.678 27.1467C90.4326 27.2957 90.2267 27.4885 90.0603 27.725C89.9025 27.9616 89.8237 28.1894 89.8237 28.4085L89.8368 28.5136C89.8456 28.5487 89.8894 28.5925 89.9683 28.645C90.0559 28.6976 90.1084 28.7151 90.126 28.6976C90.7481 28.2332 91.2168 27.8608 91.5323 27.5805C91.5848 27.5279 91.6111 27.4315 91.6111 27.2913C91.6111 27.2037 91.6067 27.1424 91.598 27.1073Z" fill="#1B1A18"/>
<path d="M96.1044 26.0165C96.1307 26.1041 96.1351 26.2399 96.1176 26.4239L95.9599 27.9747C96.0037 27.9397 96.0694 27.817 96.157 27.6067C96.2446 27.3877 96.3279 27.2125 96.4067 27.081C96.4856 26.9408 96.5469 26.8488 96.5907 26.805C97.0025 26.4107 97.4669 26.1742 97.9838 26.0953C98.5008 26.0165 99.0703 25.9814 99.6924 25.9902C99.7538 25.9902 99.8195 26.0165 99.8896 26.069C99.9684 26.1128 100.008 26.1523 100.008 26.1873C100.008 26.2136 99.9816 26.2618 99.929 26.3319C99.8764 26.3932 99.8282 26.4327 99.7844 26.4502C99.2587 26.6254 98.7943 26.8269 98.3913 27.0547C97.997 27.2826 97.6553 27.5805 97.3661 27.9485C96.6827 28.8159 96.2884 29.7096 96.1833 30.6296C96.157 30.8749 96.0825 31.0414 95.9599 31.129C95.8372 31.2079 95.6663 31.2473 95.4473 31.2473C95.202 31.2473 94.9829 31.1422 94.7901 30.9319C94.5974 30.7216 94.501 30.4894 94.501 30.2353C94.5098 29.3066 94.5141 27.9134 94.5141 26.0559C94.5141 25.8018 94.5711 25.6266 94.685 25.5302C94.7989 25.425 95.0048 25.3725 95.3027 25.3725C95.5218 25.3725 95.7058 25.4338 95.8547 25.5565C96.0124 25.6791 96.0957 25.8325 96.1044 26.0165Z" fill="#1B1A18"/>
<path d="M102.805 26.6867C102.744 26.6166 102.7 26.5422 102.674 26.4633C102.656 26.3845 102.639 26.2749 102.621 26.1347C102.7 25.9507 102.845 25.8587 103.055 25.8587C103.16 25.8763 103.235 25.885 103.278 25.885C103.454 25.885 103.563 25.8325 103.607 25.7273C103.651 25.6222 103.673 25.4995 103.673 25.3593C103.673 25.2191 103.673 25.1096 103.673 25.0307L103.712 24.2422C103.721 24.0669 103.73 23.8523 103.738 23.5982C103.756 23.3353 103.774 23.033 103.791 22.6913C103.8 22.5073 103.844 22.3715 103.922 22.2839C104.01 22.1963 104.128 22.1525 104.277 22.1525C104.382 22.1525 104.466 22.1612 104.527 22.1787C104.886 22.2576 105.127 22.3715 105.25 22.5205C105.373 22.6694 105.456 22.8928 105.5 23.1907C105.508 23.2521 105.5 23.3791 105.473 23.5719L105.237 25.6222C105.228 25.6747 105.215 25.7405 105.197 25.8193C105.18 25.8894 105.171 25.942 105.171 25.977C105.171 26.0559 105.215 26.1085 105.302 26.1347C105.39 26.161 105.552 26.1698 105.789 26.161C106.192 26.0734 106.498 26.0165 106.709 25.9902C106.753 25.9814 106.823 25.977 106.919 25.977C107.024 25.977 107.094 25.9902 107.129 26.0165C107.164 26.034 107.191 26.0866 107.208 26.1742C107.234 26.253 107.248 26.345 107.248 26.4502C107.248 26.5466 107.234 26.6342 107.208 26.713C107.191 26.7919 107.164 26.8357 107.129 26.8445C106.893 26.9146 106.612 26.9715 106.288 27.0153C105.903 27.0854 105.618 27.1467 105.434 27.1993C105.338 27.2256 105.241 27.2913 105.145 27.3965C105.048 27.5016 104.996 27.598 104.987 27.6856C104.97 28.1149 104.956 28.553 104.948 28.9999C104.939 29.3416 104.952 29.6833 104.987 30.025C105.013 30.3142 105.07 30.5245 105.158 30.6559C105.246 30.7786 105.377 30.8399 105.552 30.8399C105.692 30.8399 105.894 30.7917 106.157 30.6953C106.297 30.634 106.42 30.6033 106.525 30.6033C106.691 30.6033 106.81 30.6953 106.88 30.8793C106.906 30.9406 106.919 31.002 106.919 31.0633C106.919 31.1772 106.875 31.2692 106.788 31.3393C106.709 31.4094 106.599 31.4707 106.459 31.5233C106.196 31.6197 105.929 31.6723 105.657 31.681C105.289 31.681 104.943 31.5934 104.619 31.4182C104.295 31.2342 104.036 30.9801 103.844 30.6559C103.66 30.3317 103.581 29.9593 103.607 29.5387C103.616 29.3723 103.62 29.1094 103.62 28.7502C103.62 28.1807 103.598 27.6024 103.554 27.0153C103.546 26.9627 103.515 26.9277 103.462 26.9102C103.41 26.8839 103.322 26.8576 103.2 26.8313C102.998 26.7963 102.867 26.7481 102.805 26.6867Z" fill="#1B1A18"/>
<path d="M110.75 30.7085C110.478 30.8749 110.167 30.9582 109.816 30.9582C109.431 30.9582 109.059 30.8618 108.699 30.669C108.349 30.4675 108.068 30.1827 107.858 29.8147C107.648 29.4467 107.56 29.0262 107.595 28.553L107.661 28.2376C107.714 27.9222 107.757 27.69 107.792 27.541C107.871 27.2168 108.029 26.989 108.266 26.8576C108.502 26.7262 108.818 26.621 109.212 26.5422C109.466 26.4896 109.716 26.4633 109.961 26.4633C110.732 26.4633 111.38 26.7218 111.906 27.2387C112.187 27.5191 112.327 27.8608 112.327 28.2639C112.327 28.6582 112.182 29.0831 111.893 29.5387C111.56 30.0557 111.179 30.4456 110.75 30.7085ZM109.646 27.1336C109.505 27.4753 109.356 27.9003 109.199 28.4085L109.067 28.8027L109.159 28.8422C109.159 28.9035 109.159 28.9999 109.159 29.1313C109.168 29.254 109.186 29.3591 109.212 29.4467C109.308 29.7184 109.418 29.8848 109.54 29.9462C109.593 29.9725 109.667 29.9593 109.764 29.9067C109.869 29.8542 109.961 29.7928 110.04 29.7227C110.163 29.6176 110.36 29.3986 110.631 29.0656C110.833 28.8378 110.934 28.5662 110.934 28.2507C110.934 27.9791 110.855 27.7338 110.697 27.5147C110.548 27.2957 110.338 27.1467 110.066 27.0679C110.04 27.0591 109.992 27.0547 109.922 27.0547C109.755 27.0547 109.663 27.081 109.646 27.1336Z" fill="#1B1A18"/>
<path d="M116.941 31.8782C116.205 31.8782 115.737 31.5627 115.535 30.9319C115.605 30.9319 115.697 30.9363 115.811 30.945C115.934 30.945 116.035 30.9538 116.113 30.9713C116.236 30.9888 116.324 30.9976 116.376 30.9976C116.771 30.9976 117.099 30.8224 117.362 30.4719C117.546 30.2178 117.638 29.9593 117.638 29.6965C117.638 29.5212 117.594 29.3504 117.507 29.1839C117.314 28.8422 117.077 28.4654 116.797 28.0536C116.613 27.782 116.446 27.5235 116.297 27.2782C116.122 26.9978 116.035 26.6867 116.035 26.345C116.035 26.0296 116.122 25.7536 116.297 25.517C116.481 25.2717 116.749 25.1184 117.099 25.057L117.52 24.9782C117.975 24.8906 118.317 24.8467 118.545 24.8467C118.922 24.8467 119.255 24.9344 119.544 25.1096C119.605 25.1534 119.666 25.2323 119.728 25.3462C119.798 25.4513 119.85 25.5346 119.885 25.5959C119.824 25.6222 119.736 25.666 119.623 25.7273C119.517 25.7799 119.425 25.8106 119.347 25.8193C119.224 25.8368 119.04 25.8456 118.795 25.8456C118.558 25.8456 118.378 25.85 118.256 25.8587C117.975 25.885 117.752 25.9814 117.585 26.1479C117.428 26.3056 117.349 26.4984 117.349 26.7262C117.349 26.9014 117.401 27.081 117.507 27.265C117.743 27.6593 118.072 28.1106 118.492 28.6187C118.808 29.013 118.965 29.4205 118.965 29.841C118.965 30.0688 118.913 30.3098 118.808 30.5639C118.448 31.4401 117.826 31.8782 116.941 31.8782Z" fill="#1B1A18"/>
<path d="M121.369 24.5707C121.378 25.4207 121.4 26.1216 121.435 26.6736C121.479 27.2168 121.575 27.7951 121.724 28.4085C122.092 28.277 122.43 28.2113 122.736 28.2113C123.253 28.2113 123.7 28.3646 124.077 28.6713C124.454 28.978 124.708 29.3591 124.839 29.8147C124.944 30.1477 124.997 30.5946 124.997 31.1553L124.984 32.1805C124.984 32.2418 124.949 32.3119 124.878 32.3907C124.808 32.4696 124.738 32.5178 124.668 32.5353C124.642 32.5441 124.602 32.5485 124.55 32.5485C124.348 32.5485 124.138 32.4477 123.919 32.2462C123.7 32.0534 123.586 31.8607 123.577 31.6679L123.551 30.9845C123.551 30.8267 123.542 30.5989 123.525 30.301C123.507 29.9944 123.472 29.7753 123.42 29.6439C123.367 29.4949 123.301 29.381 123.222 29.3022C123.144 29.2233 123.056 29.1839 122.96 29.1839C122.889 29.1839 122.811 29.2146 122.723 29.2759C122.644 29.3372 122.574 29.4205 122.513 29.5256C122.329 29.8147 122.088 30.3843 121.79 31.2342C121.693 31.5408 121.523 31.6942 121.277 31.6942C121.251 31.6942 121.194 31.6854 121.106 31.6679C121.054 31.6504 120.953 31.6241 120.804 31.589C120.655 31.5452 120.537 31.4795 120.449 31.3919C120.37 31.3043 120.331 31.1772 120.331 31.0107C120.331 29.3547 120.23 27.9835 120.029 26.897C119.932 26.3538 119.884 25.7273 119.884 25.0176V24.137V23.677C119.884 23.5544 119.95 23.4492 120.081 23.3616C120.213 23.274 120.362 23.2302 120.528 23.2302C120.668 23.2302 120.787 23.2608 120.883 23.3222C121.058 23.4273 121.181 23.5587 121.251 23.7165C121.33 23.8742 121.369 24.0713 121.369 24.3079V24.5707Z" fill="#1B1A18"/>
<path d="M128.773 30.7085C128.502 30.8749 128.191 30.9582 127.84 30.9582C127.455 30.9582 127.082 30.8618 126.723 30.669C126.372 30.4675 126.092 30.1827 125.882 29.8147C125.672 29.4467 125.584 29.0262 125.619 28.553L125.685 28.2376C125.737 27.9222 125.781 27.69 125.816 27.541C125.895 27.2168 126.053 26.989 126.289 26.8576C126.526 26.7262 126.841 26.621 127.236 26.5422C127.49 26.4896 127.739 26.4633 127.985 26.4633C128.756 26.4633 129.404 26.7218 129.93 27.2387C130.21 27.5191 130.35 27.8608 130.35 28.2639C130.35 28.6582 130.206 29.0831 129.917 29.5387C129.584 30.0557 129.203 30.4456 128.773 30.7085ZM127.669 27.1336C127.529 27.4753 127.38 27.9003 127.222 28.4085L127.091 28.8027L127.183 28.8422C127.183 28.9035 127.183 28.9999 127.183 29.1313C127.192 29.254 127.209 29.3591 127.236 29.4467C127.332 29.7184 127.441 29.8848 127.564 29.9462C127.617 29.9725 127.691 29.9593 127.788 29.9067C127.893 29.8542 127.985 29.7928 128.064 29.7227C128.186 29.6176 128.383 29.3986 128.655 29.0656C128.856 28.8378 128.957 28.5662 128.957 28.2507C128.957 27.9791 128.878 27.7338 128.721 27.5147C128.572 27.2957 128.361 27.1467 128.09 27.0679C128.064 27.0591 128.015 27.0547 127.945 27.0547C127.779 27.0547 127.687 27.081 127.669 27.1336Z" fill="#1B1A18"/>
<path d="M132.704 26.0165C132.73 26.1041 132.734 26.2399 132.717 26.4239L132.559 27.9747C132.603 27.9397 132.669 27.817 132.756 27.6067C132.844 27.3877 132.927 27.2125 133.006 27.081C133.085 26.9408 133.146 26.8488 133.19 26.805C133.602 26.4107 134.066 26.1742 134.583 26.0953C135.1 26.0165 135.67 25.9814 136.292 25.9902C136.353 25.9902 136.419 26.0165 136.489 26.069C136.568 26.1128 136.607 26.1523 136.607 26.1873C136.607 26.2136 136.581 26.2618 136.528 26.3319C136.476 26.3932 136.428 26.4327 136.384 26.4502C135.858 26.6254 135.394 26.8269 134.991 27.0547C134.596 27.2826 134.255 27.5805 133.965 27.9485C133.282 28.8159 132.888 29.7096 132.783 30.6296C132.756 30.8749 132.682 31.0414 132.559 31.129C132.436 31.2079 132.266 31.2473 132.047 31.2473C131.801 31.2473 131.582 31.1422 131.389 30.9319C131.197 30.7216 131.1 30.4894 131.1 30.2353C131.109 29.3066 131.113 27.9134 131.113 26.0559C131.113 25.8018 131.17 25.6266 131.284 25.5302C131.398 25.425 131.604 25.3725 131.902 25.3725C132.121 25.3725 132.305 25.4338 132.454 25.5565C132.612 25.6791 132.695 25.8325 132.704 26.0165Z" fill="#1B1A18"/>
<path d="M136.525 26.6867C136.464 26.6166 136.42 26.5422 136.394 26.4633C136.377 26.3845 136.359 26.2749 136.341 26.1347C136.42 25.9507 136.565 25.8587 136.775 25.8587C136.88 25.8763 136.955 25.885 136.999 25.885C137.174 25.885 137.283 25.8325 137.327 25.7273C137.371 25.6222 137.393 25.4995 137.393 25.3593C137.393 25.2191 137.393 25.1096 137.393 25.0307L137.432 24.2422C137.441 24.0669 137.45 23.8523 137.459 23.5982C137.476 23.3353 137.494 23.033 137.511 22.6913C137.52 22.5073 137.564 22.3715 137.643 22.2839C137.73 22.1963 137.849 22.1525 137.997 22.1525C138.103 22.1525 138.186 22.1612 138.247 22.1787C138.606 22.2576 138.847 22.3715 138.97 22.5205C139.093 22.6694 139.176 22.8928 139.22 23.1907C139.229 23.2521 139.22 23.3791 139.193 23.5719L138.957 25.6222C138.948 25.6747 138.935 25.7405 138.917 25.8193C138.9 25.8894 138.891 25.942 138.891 25.977C138.891 26.0559 138.935 26.1085 139.023 26.1347C139.11 26.161 139.272 26.1698 139.509 26.161C139.912 26.0734 140.219 26.0165 140.429 25.9902C140.473 25.9814 140.543 25.977 140.639 25.977C140.744 25.977 140.814 25.9902 140.849 26.0165C140.885 26.034 140.911 26.0866 140.928 26.1742C140.955 26.253 140.968 26.345 140.968 26.4502C140.968 26.5466 140.955 26.6342 140.928 26.713C140.911 26.7919 140.885 26.8357 140.849 26.8445C140.613 26.9146 140.333 26.9715 140.008 27.0153C139.623 27.0854 139.338 27.1467 139.154 27.1993C139.058 27.2256 138.961 27.2913 138.865 27.3965C138.769 27.5016 138.716 27.598 138.707 27.6856C138.69 28.1149 138.677 28.553 138.668 28.9999C138.659 29.3416 138.672 29.6833 138.707 30.025C138.733 30.3142 138.79 30.5245 138.878 30.6559C138.966 30.7786 139.097 30.8399 139.272 30.8399C139.413 30.8399 139.614 30.7917 139.877 30.6953C140.017 30.634 140.14 30.6033 140.245 30.6033C140.411 30.6033 140.53 30.6953 140.6 30.8793C140.626 30.9406 140.639 31.002 140.639 31.0633C140.639 31.1772 140.595 31.2692 140.508 31.3393C140.429 31.4094 140.319 31.4707 140.179 31.5233C139.916 31.6197 139.649 31.6723 139.377 31.681C139.009 31.681 138.663 31.5934 138.339 31.4182C138.015 31.2342 137.757 30.9801 137.564 30.6559C137.38 30.3317 137.301 29.9593 137.327 29.5387C137.336 29.3723 137.34 29.1094 137.34 28.7502C137.34 28.1807 137.318 27.6024 137.275 27.0153C137.266 26.9627 137.235 26.9277 137.183 26.9102C137.13 26.8839 137.042 26.8576 136.92 26.8313C136.718 26.7963 136.587 26.7481 136.525 26.6867Z" fill="#1B1A18"/>
<path d="M143.727 29.5387C143.639 29.5913 143.512 29.6176 143.346 29.6176C143.284 29.6176 143.21 29.6132 143.122 29.6045C143.035 29.5957 142.96 29.5957 142.899 29.6045C142.969 29.8936 143.135 30.1302 143.398 30.3142C143.661 30.4894 143.955 30.577 144.279 30.577C144.559 30.577 144.809 30.5157 145.028 30.393C145.352 30.2266 145.632 30.0294 145.869 29.8016C146.036 29.6351 146.193 29.5519 146.342 29.5519C146.439 29.5519 146.522 29.6001 146.592 29.6965C146.662 29.8104 146.697 29.9506 146.697 30.117C146.697 30.2923 146.662 30.4281 146.592 30.5245C146.364 30.8749 146.066 31.1159 145.698 31.2473C145.339 31.3787 144.918 31.4445 144.436 31.4445C143.937 31.4445 143.455 31.3349 142.991 31.1159C142.526 30.8968 142.128 30.5989 141.795 30.2222C141.471 29.8367 141.256 29.4117 141.151 28.9473C141.081 28.6757 141.046 28.4085 141.046 28.1456C141.046 27.7338 141.16 27.4008 141.387 27.1467C141.624 26.8927 142.001 26.6517 142.518 26.4239C142.991 26.2224 143.429 26.1216 143.832 26.1216C144.121 26.1216 144.401 26.1654 144.673 26.253C145.514 26.5159 145.935 26.8751 145.935 27.3307C145.935 27.6199 145.764 27.9704 145.422 28.3822C145.256 28.5749 145.059 28.7458 144.831 28.8947C144.603 29.0437 144.38 29.1795 144.16 29.3022C143.95 29.4161 143.806 29.4949 143.727 29.5387ZM144.279 27.1073C144.27 27.0635 144.235 27.0285 144.174 27.0022C144.121 26.9671 144.09 26.9452 144.082 26.9365C143.845 26.9189 143.604 26.989 143.359 27.1467C143.113 27.2957 142.908 27.4885 142.741 27.725C142.583 27.9616 142.504 28.1894 142.504 28.4085L142.518 28.5136C142.526 28.5487 142.57 28.5925 142.649 28.645C142.737 28.6976 142.789 28.7151 142.807 28.6976C143.429 28.2332 143.898 27.8608 144.213 27.5805C144.266 27.5279 144.292 27.4315 144.292 27.2913C144.292 27.2037 144.288 27.1424 144.279 27.1073Z" fill="#1B1A18"/>
<path d="M149.179 26.6342C149.179 26.6867 149.17 26.7568 149.153 26.8445C149.135 26.9233 149.131 26.9759 149.139 27.0022C149.744 26.8707 150.257 26.805 150.677 26.805C151.334 26.805 151.829 27.1205 152.162 27.7513C152.434 28.2858 152.57 28.8772 152.57 29.5256C152.57 29.6921 152.552 29.933 152.517 30.2485C152.491 30.4587 152.408 30.6296 152.267 30.761C152.127 30.8837 151.961 30.945 151.768 30.945C151.566 30.945 151.422 30.91 151.334 30.8399C151.255 30.761 151.207 30.6734 151.19 30.577C151.181 30.4806 151.177 30.3273 151.177 30.117L151.163 29.841C151.146 29.3153 151.111 28.8597 151.058 28.4742C151.032 28.3165 150.971 28.2069 150.874 28.1456C150.787 28.0755 150.668 28.0405 150.519 28.0405C150.379 28.0405 150.213 28.0624 150.02 28.1062C149.722 28.185 149.521 28.2464 149.415 28.2902C149.319 28.334 149.174 28.426 148.982 28.5662C148.92 28.61 148.877 28.6976 148.85 28.829C148.824 28.9605 148.811 29.0349 148.811 29.0525C148.697 29.6132 148.574 30.2835 148.443 31.0633C148.434 31.0984 148.417 31.1816 148.39 31.313C148.364 31.4445 148.311 31.5365 148.233 31.589C148.162 31.6504 148.057 31.6723 147.917 31.6547C147.365 31.5847 147.085 31.3525 147.076 30.9582C147.067 30.45 147.107 29.8498 147.194 29.1576C147.256 28.6582 147.313 28.2551 147.365 27.9485C147.383 27.8083 147.405 27.6374 147.431 27.4359C147.466 27.2344 147.497 27.0022 147.523 26.7393C147.549 26.5378 147.575 26.3888 147.602 26.2925C147.628 26.1961 147.689 26.1172 147.786 26.0559C147.882 25.9858 148.031 25.9507 148.233 25.9507C148.487 25.9507 148.697 26.0077 148.863 26.1216C149.03 26.2355 149.135 26.3976 149.179 26.6079V26.6342Z" fill="#1B1A18"/>
<path d="M157.574 25.4645C157.556 25.517 157.49 25.574 157.376 25.6353C157.271 25.6966 157.184 25.7536 157.114 25.8062L156.746 25.609C156.386 25.4163 156.141 25.2629 156.01 25.149C155.939 25.0965 155.904 25.0307 155.904 24.9519C155.904 24.8993 155.922 24.8555 155.957 24.8205C156.001 24.7766 156.062 24.7547 156.141 24.7547C156.483 24.7547 156.899 24.8424 157.39 25.0176C157.442 25.0264 157.49 25.0877 157.534 25.2016C157.578 25.3067 157.591 25.3944 157.574 25.4645ZM156.391 27.909C156.417 27.7951 156.435 27.7119 156.443 27.6593C156.452 27.6067 156.456 27.5498 156.456 27.4885C156.456 27.3658 156.491 27.2694 156.562 27.1993C156.64 27.1292 156.785 27.0942 156.995 27.0942C157.241 27.0942 157.455 27.173 157.639 27.3307C157.832 27.4797 157.95 27.6768 157.994 27.9222C158.02 28.0448 158.038 28.1807 158.047 28.3296C158.055 28.4786 158.06 28.5749 158.06 28.6187L158.244 30.8662C158.27 31.1027 158.235 31.2867 158.139 31.4182C158.051 31.5408 157.88 31.6022 157.626 31.6022C157.407 31.6022 157.219 31.5408 157.061 31.4182C156.912 31.2955 156.82 31.1378 156.785 30.945L156.443 28.1587L156.391 27.909Z" fill="#1B1A18"/>
<path d="M158.75 26.6867C158.689 26.6166 158.645 26.5422 158.619 26.4633C158.601 26.3845 158.584 26.2749 158.566 26.1347C158.645 25.9507 158.79 25.8587 159 25.8587C159.105 25.8763 159.18 25.885 159.223 25.885C159.399 25.885 159.508 25.8325 159.552 25.7273C159.596 25.6222 159.618 25.4995 159.618 25.3593C159.618 25.2191 159.618 25.1096 159.618 25.0307L159.657 24.2422C159.666 24.0669 159.675 23.8523 159.683 23.5982C159.701 23.3353 159.718 23.033 159.736 22.6913C159.745 22.5073 159.789 22.3715 159.867 22.2839C159.955 22.1963 160.073 22.1525 160.222 22.1525C160.327 22.1525 160.411 22.1612 160.472 22.1787C160.831 22.2576 161.072 22.3715 161.195 22.5205C161.318 22.6694 161.401 22.8928 161.445 23.1907C161.453 23.2521 161.445 23.3791 161.418 23.5719L161.182 25.6222C161.173 25.6747 161.16 25.7405 161.142 25.8193C161.125 25.8894 161.116 25.942 161.116 25.977C161.116 26.0559 161.16 26.1085 161.247 26.1347C161.335 26.161 161.497 26.1698 161.734 26.161C162.137 26.0734 162.443 26.0165 162.654 25.9902C162.698 25.9814 162.768 25.977 162.864 25.977C162.969 25.977 163.039 25.9902 163.074 26.0165C163.109 26.034 163.136 26.0866 163.153 26.1742C163.179 26.253 163.193 26.345 163.193 26.4502C163.193 26.5466 163.179 26.6342 163.153 26.713C163.136 26.7919 163.109 26.8357 163.074 26.8445C162.838 26.9146 162.557 26.9715 162.233 27.0153C161.848 27.0854 161.563 27.1467 161.379 27.1993C161.282 27.2256 161.186 27.2913 161.09 27.3965C160.993 27.5016 160.941 27.598 160.932 27.6856C160.914 28.1149 160.901 28.553 160.893 28.9999C160.884 29.3416 160.897 29.6833 160.932 30.025C160.958 30.3142 161.015 30.5245 161.103 30.6559C161.19 30.7786 161.322 30.8399 161.497 30.8399C161.637 30.8399 161.839 30.7917 162.102 30.6953C162.242 30.634 162.365 30.6033 162.47 30.6033C162.636 30.6033 162.754 30.6953 162.825 30.8793C162.851 30.9406 162.864 31.002 162.864 31.0633C162.864 31.1772 162.82 31.2692 162.733 31.3393C162.654 31.4094 162.544 31.4707 162.404 31.5233C162.141 31.6197 161.874 31.6723 161.602 31.681C161.234 31.681 160.888 31.5934 160.564 31.4182C160.24 31.2342 159.981 30.9801 159.789 30.6559C159.605 30.3317 159.526 29.9593 159.552 29.5387C159.561 29.3723 159.565 29.1094 159.565 28.7502C159.565 28.1807 159.543 27.6024 159.499 27.0153C159.491 26.9627 159.46 26.9277 159.407 26.9102C159.355 26.8839 159.267 26.8576 159.145 26.8313C158.943 26.7963 158.812 26.7481 158.75 26.6867Z" fill="#1B1A18"/>
<path fill-rule="evenodd" clip-rule="evenodd" d="M193.91 5.66469C195.104 2.84998 196.977 -0.362655 198.674 0.525765C200.448 1.45409 197.746 4.1735 195.065 6.47922C194.447 7.011 193.592 6.41549 193.91 5.66469ZM196.442 8.02323C197.871 7.06398 199.445 6.3552 200.005 7.23947C200.604 8.18422 198.909 8.79862 196.987 9.22324C196.19 9.39915 195.765 8.4777 196.442 8.02323Z" fill="#1B1A18"/>
</svg>
