<svg width="120" height="33" viewBox="0 0 120 33" fill="none" xmlns="http://www.w3.org/2000/svg">
<path fill-rule="evenodd" clip-rule="evenodd" d="M2.04449 21.1211C2.04449 15.7867 6.36882 11.4624 11.7032 11.4624C17.0375 11.4624 21.3618 15.7867 21.3618 21.1211C21.3618 26.4554 17.0375 30.7797 11.7032 30.7797C6.36882 30.7797 2.04449 26.4554 2.04449 21.1211Z" fill="#43BA7F"/>
<path fill-rule="evenodd" clip-rule="evenodd" d="M67.5832 22.5592C66.1047 20.7208 68.276 16.5204 72.4328 13.1774C76.5897 9.8344 82.7557 11.339 84.2342 13.1774C85.7127 15.0158 81.9437 16.4918 77.7869 19.8348C73.63 23.1778 69.0617 24.3976 67.5832 22.5592Z" fill="#FCC232"/>
<path d="M2.45595 20.9815C2.45595 23.53 3.32443 25.6727 5.0614 27.4097C6.8126 29.1324 8.94821 29.9938 11.4682 29.9938C13.9598 29.9938 16.0812 29.1182 17.8324 27.367C19.5978 25.6015 20.4805 23.4731 20.4805 20.9815C20.4805 18.49 19.5978 16.3686 17.8324 14.6174C16.0812 12.8519 13.9598 11.9692 11.4682 11.9692C8.97669 11.9692 6.84819 12.8519 5.08276 14.6174C3.33155 16.3828 2.45595 18.5042 2.45595 20.9815ZM0 20.6398V1.29117L2.45595 0.992188V14.4252C3.58071 12.8591 4.91191 11.6702 6.44955 10.8587C7.98719 10.0329 9.66008 9.62006 11.4682 9.62006C14.7428 9.62006 17.4835 10.7092 19.6903 12.8875C21.8971 15.0516 23.0005 17.7496 23.0005 20.9815C23.0005 24.2134 21.8971 26.9256 19.6903 29.1182C17.4835 31.3107 14.7428 32.407 11.4682 32.407C8.1082 32.407 5.35327 31.3179 3.20342 29.1395C1.06781 26.9612 0 24.128 0 20.6398Z" fill="black"/>
<path d="M41.0037 28.4561C40.0925 29.7945 39.0461 30.7982 37.8644 31.4674C36.6827 32.1223 35.3586 32.4497 33.8922 32.4497C31.4718 32.4497 29.5853 31.7165 28.2328 30.2501C26.8945 28.7694 26.2253 26.6978 26.2253 24.0354V10.0899L28.6514 9.82223L28.6813 22.8181C28.6813 25.3524 29.1582 27.246 30.1121 28.4989C31.0803 29.7518 32.5254 30.3782 34.4474 30.3782C36.2128 30.3782 37.7434 29.7304 39.039 28.4348C40.3488 27.125 41.0037 25.5446 41.0037 23.6937V10.0899L43.4597 9.79091V31.8731L41.0037 32.1721V28.4561Z" fill="black"/>
<path d="M47.9872 32.1721V10.0899L50.4218 9.79091V14.5106C51.3045 12.8021 52.3794 11.5208 53.6466 10.6665C54.9279 9.81226 56.4086 9.38514 58.0886 9.38514H58.6866L57.6829 11.7984C55.2056 12.0404 53.376 13.1225 52.1943 15.0445C51.0126 16.9666 50.4218 19.8354 50.4218 23.651V31.8731L47.9872 32.1721Z" fill="black"/>
<path d="M60.2883 32.2148V1.33389L62.787 0.992188V31.8731L60.2883 32.2148Z" fill="black"/>
<path d="M69.1938 22.8608L83.5878 14.297C82.9756 13.5425 82.1997 12.973 81.26 12.5886C80.3346 12.2041 79.2739 12.0119 78.0779 12.0119C75.5722 12.0119 73.4508 12.8733 71.7138 14.596C69.9769 16.3188 69.1084 18.433 69.1084 20.9388C69.1084 21.3374 69.1155 21.6863 69.1297 21.9852C69.144 22.27 69.1653 22.5619 69.1938 22.8608ZM86.7272 29.289C85.2892 30.3568 83.8655 31.147 82.456 31.6596C81.0464 32.1579 79.5871 32.407 78.0779 32.407C74.7606 32.407 72.0057 31.3179 69.8131 29.1395C67.6206 26.947 66.5243 24.2276 66.5243 20.9815C66.5243 17.7354 67.6277 15.0303 69.8345 12.8662C72.0413 10.7021 74.7891 9.62006 78.0779 9.62006C80.1566 9.62006 81.9719 10.0685 83.5238 10.9655C85.0899 11.8624 86.3072 13.1581 87.1757 14.8523L70.0694 24.9537C70.8809 26.5199 71.9843 27.73 73.3796 28.5843C74.7749 29.4385 76.341 29.8657 78.0779 29.8657C79.459 29.8657 80.8258 29.5809 82.1783 29.0114C83.5309 28.4277 85.0472 27.4738 86.7272 26.1497V29.289Z" fill="black"/>
<path d="M88.5211 29.1182L90.3577 27.367C91.1408 28.2639 92.0021 28.9402 92.9418 29.3958C93.8957 29.8514 94.9137 30.0792 95.9957 30.0792C97.3483 30.0792 98.4517 29.7019 99.3059 28.9473C100.16 28.1928 100.587 27.2175 100.587 26.0216C100.587 24.9537 100.274 24.1137 99.6476 23.5015C99.0212 22.8893 97.9035 22.3839 96.2947 21.9852C93.5611 21.3019 91.696 20.4974 90.6994 19.572C89.7028 18.6323 89.2045 17.3367 89.2045 15.6852C89.2045 13.9482 89.8808 12.4889 91.2333 11.3072C92.5859 10.1112 94.3015 9.51328 96.3801 9.51328C97.6188 9.51328 98.7863 9.71972 99.8825 10.1326C100.979 10.5455 101.99 11.1577 102.915 11.9692L101.377 13.9767C100.552 13.2648 99.7117 12.7238 98.8574 12.3536C98.0032 11.9835 97.1632 11.7984 96.3374 11.7984C94.9706 11.7984 93.8672 12.1472 93.0272 12.8448C92.2015 13.5425 91.7886 14.4608 91.7886 15.5998C91.7886 17.3225 93.2906 18.5469 96.2947 19.273C96.9212 19.4154 97.391 19.5364 97.7042 19.6361C99.5551 20.1629 100.943 20.9317 101.869 21.9425C102.794 22.9534 103.257 24.2063 103.257 25.7012C103.257 27.666 102.552 29.2962 101.143 30.5918C99.733 31.8874 97.9605 32.5352 95.8249 32.5352C94.3157 32.5352 92.9418 32.2504 91.7031 31.6809C90.4787 31.0972 89.418 30.2429 88.5211 29.1182Z" fill="black"/>
<path d="M105.264 29.1182L107.101 27.367C107.884 28.2639 108.745 28.9402 109.685 29.3958C110.639 29.8514 111.657 30.0792 112.739 30.0792C114.091 30.0792 115.195 29.7019 116.049 28.9473C116.903 28.1928 117.33 27.2175 117.33 26.0216C117.33 24.9537 117.017 24.1137 116.391 23.5015C115.764 22.8893 114.647 22.3839 113.038 21.9852C110.304 21.3019 108.439 20.4974 107.443 19.572C106.446 18.6323 105.948 17.3367 105.948 15.6852C105.948 13.9482 106.624 12.4889 107.977 11.3072C109.329 10.1112 111.045 9.51328 113.123 9.51328C114.362 9.51328 115.529 9.71972 116.626 10.1326C117.722 10.5455 118.733 11.1577 119.658 11.9692L118.121 13.9767C117.295 13.2648 116.455 12.7238 115.601 12.3536C114.746 11.9835 113.906 11.7984 113.081 11.7984C111.714 11.7984 110.61 12.1472 109.77 12.8448C108.945 13.5425 108.532 14.4608 108.532 15.5998C108.532 17.3225 110.034 18.5469 113.038 19.273C113.664 19.4154 114.134 19.5364 114.447 19.6361C116.298 20.1629 117.686 20.9317 118.612 21.9425C119.537 22.9534 120 24.2063 120 25.7012C120 27.666 119.295 29.2962 117.886 30.5918C116.476 31.8874 114.704 32.5352 112.568 32.5352C111.059 32.5352 109.685 32.2504 108.446 31.6809C107.222 31.0972 106.161 30.2429 105.264 29.1182Z" fill="black"/>
</svg>
