<svg width="234" height="220" viewBox="0 0 234 220" fill="none" xmlns="http://www.w3.org/2000/svg">
<path opacity="0.7" d="M3.7558 129.2C3.7558 129.2 9.21856 168.636 44.952 191.084C80.6855 213.533 126.543 209.925 163.73 207.971C200.916 206.017 227.077 181.664 227.98 149.394C228.882 117.174 199.663 111.211 180.519 76.937C161.374 42.6626 161.474 30.6366 126.693 12.2968C91.9618 -5.99284 42.6968 13.75 20.1942 54.9894C-2.35848 96.2288 3.7558 129.2 3.7558 129.2Z" fill="#FEEDC1"/>
<path d="M117 219.45C181.617 219.45 234 210.272 234 198.95C234 187.628 181.617 178.45 117 178.45C52.3827 178.45 0 187.628 0 198.95C0 210.272 52.3827 219.45 117 219.45Z" fill="#FEE099"/>
<path d="M60.9999 96.2283C60.9999 96.2283 60.9999 93.8939 57.7701 90.6158C54.5403 87.3376 52.436 85.4502 52.436 85.4502C52.436 85.4502 50.8211 90.8641 53.8062 94.1422C56.7914 97.4204 60.9509 100.45 60.9509 100.45V96.2283H60.9999Z" fill="#FCC232"/>
<path d="M55.9999 111.228C55.9999 111.228 55.9999 108.894 52.7701 105.616C49.5403 102.338 47.436 100.45 47.436 100.45C47.436 100.45 45.8211 105.864 48.8062 109.142C51.7914 112.42 55.951 115.45 55.951 115.45V111.228H55.9999Z" fill="#FCC232"/>
<path d="M60.4734 100.28C60.4734 100.28 60.7365 97.9467 64.5775 95.0176C68.4185 92.0885 70.8388 90.4502 70.8388 90.4502C70.8388 90.4502 71.9437 95.9608 68.3658 98.9396C64.7879 101.869 59.9999 104.45 59.9999 104.45L60.4734 100.28Z" fill="#FCC232"/>
<path d="M54.9212 117.284C54.9212 117.284 55.433 114.975 59.4253 112.415C63.4176 109.856 65.9767 108.45 65.9767 108.45C65.9767 108.45 66.4885 114.122 62.701 116.732C58.9135 119.342 53.9999 121.45 53.9999 121.45L54.9212 117.284Z" fill="#FCC232"/>
<path d="M55.9999 136.228C55.9999 136.228 55.9999 133.894 59.2297 130.616C62.4595 127.338 64.5637 125.45 64.5637 125.45C64.5637 125.45 66.1786 130.864 63.1935 134.142C60.1595 137.371 55.9999 140.45 55.9999 140.45V136.228Z" fill="#FCC232"/>
<path d="M55.9861 141.253C55.9861 141.253 56.3302 138.932 53.5775 135.277C50.8249 131.574 49.0062 129.45 49.0062 129.45C49.0062 129.45 46.6467 134.537 49.1536 138.191C51.6605 141.845 55.3963 145.45 55.3963 145.45L55.9861 141.253Z" fill="#FCC232"/>
<path d="M51.9999 155.228C51.9999 155.228 51.9999 152.894 55.5885 149.616C59.1772 146.338 61.5153 144.45 61.5153 144.45C61.5153 144.45 63.3096 149.864 59.9928 153.142C56.676 156.42 52.0543 159.45 52.0543 159.45V155.228H51.9999Z" fill="#FCC232"/>
<path d="M55.065 167.301C55.065 167.301 54.4953 164.974 56.7264 160.926C58.9575 156.828 60.4766 154.45 60.4766 154.45C60.4766 154.45 63.2773 159.358 61.2835 163.355C59.2423 167.352 56.1093 171.45 56.1093 171.45L55.065 167.301Z" fill="#FCC232"/>
<path fill-rule="evenodd" clip-rule="evenodd" d="M60.8835 95.4506C60.9531 95.4561 61.005 95.5162 60.9995 95.5848C60.797 98.0794 60.4931 100.726 60.0874 102.876L60.0873 102.876C59.4271 106.255 58.2717 109.033 57.121 111.719C57.0654 111.848 57.0099 111.978 56.9544 112.107C55.86 114.658 54.7925 117.146 54.1695 120.027C53.5182 123.04 54.1312 126.491 54.79 130.186L54.7918 130.197C55.4482 133.879 56.1461 137.795 55.638 141.702C55.2072 145.014 54.4011 147.714 53.6847 150.114C53.5574 150.54 53.433 150.957 53.314 151.366C52.5241 154.082 51.9756 156.451 52.4006 159.014C52.8289 161.596 54.2043 166.411 55.4756 170.588C56.1107 172.675 56.719 174.6 57.1685 176.003C57.3933 176.704 57.5783 177.275 57.7072 177.671C57.7716 177.869 57.822 178.023 57.8562 178.128L57.9084 178.286C57.9085 178.286 57.9086 178.287 57.7884 178.326C57.6682 178.364 57.6681 178.364 57.6681 178.364L57.6679 178.363L57.6156 178.204C57.5813 178.1 57.5309 177.945 57.4664 177.747C57.3374 177.351 57.1523 176.78 56.9274 176.078C56.4776 174.674 55.869 172.748 55.2334 170.66C53.9633 166.487 52.5825 161.655 52.151 159.054C51.7162 156.432 52.2803 154.016 53.0709 151.298C53.1906 150.886 53.3154 150.468 53.443 150.041C54.1592 147.641 54.9591 144.961 55.3871 141.67C55.89 137.804 55.1989 133.922 54.5409 130.23L54.5381 130.214C53.8829 126.538 53.2595 123.04 53.9222 119.975C54.5503 117.07 55.6265 114.562 56.7192 112.015C56.7754 111.884 56.8317 111.753 56.888 111.622C58.0384 108.936 59.1841 106.18 59.8389 102.83C60.2423 100.692 60.5453 98.0551 60.7474 95.5649C60.753 95.4963 60.8139 95.4451 60.8835 95.4506ZM57.8275 178.444C57.7611 178.465 57.6897 178.429 57.6681 178.364L57.7884 178.326L57.9086 178.287C57.9302 178.352 57.8939 178.423 57.8275 178.444Z" fill="#263238"/>
<path fill-rule="evenodd" clip-rule="evenodd" d="M63.9723 98.4987C64.0168 98.5532 64.0063 98.6317 63.9489 98.674L60.212 101.424C60.1546 101.466 60.0719 101.456 60.0274 101.402C59.9829 101.347 59.9934 101.269 60.0509 101.226L63.7877 98.4764C63.8452 98.4341 63.9278 98.4441 63.9723 98.4987Z" fill="#263238"/>
<path fill-rule="evenodd" clip-rule="evenodd" d="M59.0724 95.467C59.141 95.4318 59.2282 95.4537 59.2671 95.5158L60.9813 98.2572C61.0202 98.3193 60.996 98.3982 60.9274 98.4334C60.8587 98.4686 60.7715 98.4467 60.7327 98.3846L59.0184 95.6432C58.9796 95.5811 59.0037 95.5022 59.0724 95.467Z" fill="#263238"/>
<path fill-rule="evenodd" clip-rule="evenodd" d="M60.9736 115.494C61.0185 115.542 61.0044 115.608 60.9422 115.643C59.2484 116.579 57.5684 117.525 56.3117 118.238C55.6834 118.594 55.1609 118.892 54.7956 119.101C54.6129 119.205 54.4695 119.287 54.3718 119.343L54.2222 119.429L54.1388 119.344L54.0555 119.259L54.2054 119.173C54.3032 119.117 54.4467 119.035 54.6295 118.93C54.9951 118.721 55.5178 118.423 56.1464 118.067C57.4036 117.354 59.0847 116.407 60.7797 115.47C60.8419 115.436 60.9287 115.447 60.9736 115.494ZM54.0276 119.408C53.9816 119.361 53.9941 119.294 54.0555 119.259L54.1388 119.344L54.2222 119.429C54.1609 119.464 54.0737 119.455 54.0276 119.408Z" fill="#263238"/>
<path fill-rule="evenodd" clip-rule="evenodd" d="M50.0468 106.483C50.1034 106.434 50.1887 106.441 50.2374 106.497C51.7583 108.257 53.1953 110.447 54.2508 112.194C54.779 113.068 55.2123 113.833 55.5136 114.379C55.6643 114.652 55.782 114.87 55.8621 115.021C55.9022 115.096 55.9328 115.154 55.9535 115.193L55.9769 115.238L55.9829 115.25L55.9844 115.253L55.9848 115.253C55.9848 115.253 55.9849 115.254 55.8648 115.315L55.7447 115.377L55.7428 115.374L55.737 115.362L55.714 115.318C55.6936 115.279 55.6632 115.222 55.6234 115.147C55.5439 114.998 55.4268 114.781 55.2768 114.509C54.9768 113.965 54.5453 113.204 54.0193 112.333C52.9667 110.591 51.5388 108.416 50.0326 106.673C49.9839 106.616 49.9903 106.531 50.0468 106.483ZM55.9267 115.435C55.8604 115.469 55.7789 115.443 55.7447 115.377L55.8648 115.315L55.9848 115.253C56.019 115.32 55.9931 115.401 55.9267 115.435Z" fill="#263238"/>
<path fill-rule="evenodd" clip-rule="evenodd" d="M61.9676 131.489C62.0114 131.54 62.0105 131.621 61.9656 131.671C60.1322 133.694 58.694 135.872 57.7139 137.545C57.224 138.381 56.8489 139.091 56.5964 139.591C56.4702 139.841 56.3746 140.038 56.3107 140.173C56.2787 140.241 56.2547 140.293 56.2387 140.327C56.2307 140.345 56.2247 140.358 56.2207 140.367L56.2163 140.377L56.215 140.379L56.1135 140.322C56.0121 140.264 56.0121 140.264 56.0121 140.264L56.0125 140.263L56.0138 140.26L56.0185 140.249C56.0227 140.24 56.0289 140.227 56.0371 140.209C56.0535 140.173 56.078 140.12 56.1104 140.052C56.1752 139.915 56.2717 139.715 56.3991 139.463C56.6537 138.959 57.0314 138.244 57.5245 137.403C58.5103 135.72 59.9585 133.526 61.8069 131.487C61.8518 131.437 61.9238 131.438 61.9676 131.489ZM56.0622 140.436C56.0062 140.404 55.9838 140.327 56.0121 140.264L56.1135 140.322L56.215 140.379C56.1867 140.443 56.1183 140.468 56.0622 140.436Z" fill="#263238"/>
<path fill-rule="evenodd" clip-rule="evenodd" d="M50.0474 134.473C50.0985 134.434 50.1694 134.446 50.2059 134.501L50.2068 134.502L50.2091 134.506L50.2192 134.521C50.2286 134.536 50.2438 134.559 50.267 134.594C50.3133 134.665 50.3915 134.785 50.5194 134.983C50.7752 135.378 51.2299 136.084 52.0254 137.325C52.8254 138.572 53.5668 140.062 54.1075 141.238C54.3781 141.826 54.5988 142.337 54.7519 142.7C54.8285 142.882 54.8882 143.027 54.9288 143.127C54.949 143.177 54.9646 143.215 54.975 143.241L54.9869 143.271L54.9909 143.281C54.9909 143.281 54.991 143.281 54.8863 143.329L54.7816 143.376L54.7807 143.374L54.7777 143.366L54.7661 143.337C54.7558 143.311 54.7405 143.273 54.7204 143.224C54.6802 143.125 54.6209 142.981 54.5447 142.8C54.3925 142.438 54.1728 141.93 53.9036 141.345C53.3648 140.173 52.6289 138.696 51.838 137.462C51.0425 136.222 50.5881 135.517 50.3325 135.121C50.2047 134.924 50.1267 134.804 50.0807 134.733C50.0577 134.698 50.0427 134.675 50.0334 134.661L50.0237 134.647L50.0216 134.643L50.0211 134.643C50.0211 134.643 50.0211 134.643 50.0211 134.643M50.0474 134.473C49.9963 134.512 49.9846 134.588 50.0211 134.643L50.0474 134.473ZM54.8863 143.329L54.7816 143.376C54.806 143.438 54.8727 143.467 54.9305 143.441C54.9883 143.414 55.0153 143.343 54.9909 143.281L54.8863 143.329Z" fill="#263238"/>
<path fill-rule="evenodd" clip-rule="evenodd" d="M58.7649 149.489C58.8159 149.44 58.9018 149.437 58.9566 149.483C59.0115 149.529 59.0146 149.606 58.9635 149.655L58.8642 149.572L58.7649 149.489ZM52.1356 159.328C52.0093 159.284 52.0093 159.284 52.0093 159.284L52.0132 159.275L52.0246 159.249C52.0346 159.226 52.0495 159.193 52.069 159.15C52.108 159.064 52.1654 158.938 52.2394 158.779C52.3874 158.463 52.6017 158.017 52.8669 157.497C53.3971 156.458 54.1324 155.124 54.9507 153.947C55.7689 152.77 56.7225 151.655 57.4706 150.836C57.8449 150.426 58.1681 150.09 58.3979 149.856C58.5128 149.739 58.6044 149.647 58.6673 149.585C58.6988 149.554 58.7231 149.53 58.7396 149.514L58.7583 149.495L58.7632 149.491L58.7649 149.489C58.7649 149.489 58.7649 149.489 58.8642 149.572L58.9635 149.655L58.9621 149.657L58.9575 149.661L58.9393 149.679C58.9232 149.695 58.8993 149.718 58.8682 149.749C58.8061 149.81 58.7154 149.901 58.6014 150.017C58.3733 150.249 58.0522 150.584 57.6803 150.991C56.9362 151.806 55.9905 152.911 55.1808 154.076C54.3713 155.24 53.6415 156.564 53.1135 157.599C52.8497 158.115 52.6366 158.559 52.4895 158.874C52.416 159.031 52.359 159.156 52.3204 159.242C52.3011 159.284 52.2864 159.317 52.2766 159.339L52.2655 159.365L52.2618 159.373L52.1356 159.328ZM52.1356 159.328L52.0093 159.284C51.9819 159.346 52.0162 159.417 52.0859 159.442C52.1556 159.466 52.2344 159.436 52.2618 159.373L52.1356 159.328Z" fill="#263238"/>
<path fill-rule="evenodd" clip-rule="evenodd" d="M59.936 159.462C59.992 159.492 60.0157 159.566 59.9888 159.627C59.8362 159.976 59.6252 160.478 59.3754 161.071C58.7453 162.569 57.8687 164.652 57.0626 166.352C56.5099 167.518 56.3096 168.784 56.2483 169.763C56.2177 170.252 56.2219 170.667 56.2337 170.96C56.2396 171.106 56.2474 171.222 56.2537 171.301C56.2568 171.34 56.2596 171.37 56.2615 171.39L56.2638 171.413L56.2644 171.418L56.2645 171.419L56.1529 171.435M56.1529 171.435C56.0413 171.45 56.0413 171.45 56.0413 171.45L56.0412 171.45L56.0411 171.448L56.0403 171.441L56.0378 171.416C56.0357 171.395 56.0328 171.363 56.0296 171.322C56.023 171.24 56.015 171.121 56.0089 170.971C55.9968 170.671 55.9926 170.246 56.0239 169.746C56.0863 168.748 56.2909 167.445 56.8631 166.238C57.6666 164.543 58.5378 162.473 59.1675 160.976C59.4186 160.38 59.6313 159.874 59.786 159.52C59.8128 159.459 59.88 159.433 59.936 159.462" fill="#263238"/>
<path d="M39.0128 127.608C39.0128 127.608 38.7647 126.029 40.4516 123.503C42.1384 120.924 43.2795 119.45 43.2795 119.45C43.2795 119.45 44.8671 122.818 43.3291 125.397C41.7911 127.924 39.4593 130.45 39.4593 130.45L39.0128 127.608Z" fill="#FCC232"/>
<path d="M44.0128 136.608C44.0128 136.608 43.7648 135.029 45.4516 132.503C47.1384 129.924 48.2795 128.45 48.2795 128.45C48.2795 128.45 49.8671 131.818 48.3291 134.397C46.7911 136.924 44.4593 139.45 44.4593 139.45L44.0128 136.608Z" fill="#FCC232"/>
<path d="M39.25 130.132C39.25 130.132 38.85 128.814 36.25 127.495C33.6501 126.177 32.0001 125.45 32.0001 125.45C32.0001 125.45 31.9501 128.723 34.4 130.086C36.85 131.45 40 132.45 40 132.45L39.25 130.132Z" fill="#FCC232"/>
<path d="M44.9714 140.288C44.9714 140.288 44.4057 139.053 41.5772 138.038C38.7486 137.023 37 136.45 37 136.45C37 136.45 37.3086 139.626 39.9829 140.685C42.6572 141.744 46 142.45 46 142.45L44.9714 140.288Z" fill="#FCC232"/>
<path d="M46.5129 152.644C46.5129 152.644 46.2694 151.056 43.8827 149.256C41.4959 147.456 40.0347 146.45 40.0347 146.45C40.0347 146.45 39.5963 150.262 41.8369 152.062C44.0775 153.915 47 155.45 47 155.45L46.5129 152.644Z" fill="#FCC232"/>
<path d="M47.0647 155.865C47.0647 155.865 46.6601 154.395 47.8739 151.708C49.0878 149.021 49.897 147.45 49.897 147.45C49.897 147.45 51.7402 150.441 50.6612 153.077C49.5823 155.713 47.829 158.45 47.829 158.45L47.0647 155.865Z" fill="#FCC232"/>
<path d="M51.3635 167.77C51.3635 167.77 51.5193 166.253 53.9601 164.383C56.4009 162.512 57.9069 161.45 57.9069 161.45C57.9069 161.45 58.582 165.04 56.297 166.911C54.012 168.781 51 170.45 51 170.45L51.3635 167.77Z" fill="#FCC232"/>
<path d="M50.5129 163.644C50.5129 163.644 50.2694 162.056 47.8826 160.256C45.4959 158.456 44.0347 157.45 44.0347 157.45C44.0347 157.45 43.5963 161.262 45.8369 163.062C48.0775 164.915 51 166.45 51 166.45L50.5129 163.644Z" fill="#FCC232"/>
<path d="M50.9971 171.763C50.9971 171.763 51.1625 170.271 49.0113 168.032C46.9152 165.793 45.5362 164.45 45.5362 164.45C45.5362 164.45 44.0468 167.783 46.0326 170.022C47.9632 172.261 50.7764 174.45 50.7764 174.45L50.9971 171.763Z" fill="#FCC232"/>
<path fill-rule="evenodd" clip-rule="evenodd" d="M39.09 127.454C39.1542 127.437 39.2197 127.477 39.2362 127.544C39.6199 129.093 40.0507 130.687 40.5284 132.031C41.2675 134.068 42.2332 135.67 43.1989 137.232C43.2502 137.315 43.3015 137.398 43.3528 137.481C44.2656 138.955 45.1688 140.414 45.8552 142.178C46.5858 144.055 46.584 146.332 46.578 148.713L46.5779 148.761C46.5719 151.137 46.5656 153.625 47.2507 155.988C47.857 158.009 48.6079 159.601 49.2801 161.026C49.4025 161.285 49.5222 161.539 49.6381 161.789C50.3887 163.41 50.9755 164.869 51 166.573L51 166.575C51 168.259 50.687 171.454 50.3752 174.221C50.2191 175.606 50.063 176.886 49.946 177.82C49.8875 178.287 49.8387 178.667 49.8045 178.931C49.7875 179.063 49.774 179.166 49.7649 179.235L49.7509 179.342C49.7509 179.342 49.7509 179.342 49.632 179.325C49.5131 179.308 49.5131 179.308 49.5131 179.308L49.5271 179.202C49.5362 179.132 49.5496 179.029 49.5667 178.898C49.6008 178.634 49.6495 178.254 49.708 177.788C49.825 176.854 49.9809 175.575 50.1368 174.192C50.4489 171.422 50.7599 168.242 50.76 166.576C50.7362 164.931 50.1711 163.515 49.4219 161.898C49.3071 161.65 49.188 161.398 49.066 161.139C48.3935 159.714 47.6337 158.103 47.0215 156.062L47.0211 156.061C46.3254 153.662 46.3318 151.142 46.3378 148.777L46.338 148.712C46.344 146.318 46.3422 144.095 45.6328 142.272C44.9551 140.531 44.0632 139.09 43.1483 137.612C43.0979 137.531 43.0475 137.449 42.9971 137.368C42.0308 135.805 41.0526 134.183 40.3038 132.119L40.3035 132.118C39.8213 130.762 39.3881 129.157 39.0038 127.606C38.9873 127.539 39.0259 127.471 39.09 127.454ZM49.632 179.325L49.5131 179.308C49.5041 179.376 49.5499 179.439 49.6155 179.449C49.6812 179.458 49.7418 179.41 49.7509 179.342L49.632 179.325Z" fill="#263238"/>
<path fill-rule="evenodd" clip-rule="evenodd" d="M37.0164 129.532C37.0522 129.456 37.1349 129.428 37.2012 129.469L39.9284 131.156C39.9947 131.197 40.0194 131.292 39.9836 131.368C39.9478 131.444 39.8651 131.472 39.7988 131.431L37.0716 129.744C37.0053 129.703 36.9806 129.608 37.0164 129.532Z" fill="#263238"/>
<path fill-rule="evenodd" clip-rule="evenodd" d="M39.9071 127.457C39.9795 127.479 40.0175 127.546 39.9921 127.608L39.2699 129.37C39.2445 129.432 39.1652 129.465 39.0929 129.443C39.0205 129.421 38.9825 129.353 39.0079 129.291L39.7301 127.53C39.7555 127.468 39.8348 127.435 39.9071 127.457Z" fill="#263238"/>
<path fill-rule="evenodd" clip-rule="evenodd" d="M41.0141 139.538C41.0478 139.46 41.1309 139.428 41.1999 139.466C42.3954 140.123 43.5768 140.795 44.4592 141.303C44.9004 141.557 45.2669 141.77 45.5232 141.92C45.6513 141.994 45.7519 142.053 45.8205 142.093L45.9252 142.155L45.8612 142.294L45.7967 142.432L45.692 142.371C45.6237 142.33 45.5233 142.272 45.3953 142.197C45.1394 142.048 44.7733 141.835 44.3326 141.581C43.4511 141.074 42.2714 140.402 41.078 139.747C41.009 139.709 40.9805 139.615 41.0141 139.538ZM45.9842 142.366C45.9486 142.443 45.8647 142.472 45.7967 142.432L45.8612 142.294L45.9252 142.155C45.9931 142.195 46.0198 142.29 45.9842 142.366Z" fill="#263238"/>
<path fill-rule="evenodd" clip-rule="evenodd" d="M46.9322 133.468C46.9981 133.504 47.0197 133.582 46.9804 133.642C46.2084 134.828 45.5311 136.257 45.046 137.392C44.8037 137.959 44.6099 138.452 44.4767 138.803C44.4101 138.978 44.3586 139.118 44.3239 139.214C44.3065 139.262 44.2933 139.299 44.2845 139.324L44.2745 139.352L44.272 139.359L44.2713 139.361L44.1389 139.323C44.0066 139.284 44.0066 139.284 44.0066 139.284L44.0075 139.282L44.0101 139.274L44.0203 139.245C44.0293 139.22 44.0427 139.182 44.0602 139.134C44.0954 139.037 44.1472 138.896 44.2143 138.719C44.3485 138.366 44.5435 137.87 44.7873 137.3C45.2745 136.16 45.9582 134.716 46.7418 133.512C46.781 133.452 46.8663 133.432 46.9322 133.468ZM44.0968 139.444C44.0237 139.423 43.9833 139.351 44.0066 139.284L44.1389 139.323L44.2713 139.361C44.248 139.428 44.1699 139.465 44.0968 139.444Z" fill="#263238"/>
<path fill-rule="evenodd" clip-rule="evenodd" d="M42.0217 149.505C42.06 149.447 42.1356 149.433 42.1906 149.473C43.6316 150.525 44.8273 151.718 45.6623 152.647C46.08 153.111 46.4079 153.51 46.6315 153.794C46.7434 153.935 46.8292 154.048 46.8872 154.125C46.9161 154.164 46.9382 154.194 46.953 154.214L46.9699 154.238L46.9742 154.244L46.9757 154.246C46.9757 154.246 46.9758 154.246 46.8787 154.322L46.9757 154.246C47.0159 154.302 47.0052 154.382 46.9515 154.424C46.8979 154.467 46.8218 154.455 46.7816 154.399M46.7816 154.399L46.7804 154.397L46.7765 154.392L46.7605 154.37C46.7462 154.35 46.7248 154.321 46.6964 154.283C46.6396 154.207 46.5552 154.096 46.4448 153.957C46.2239 153.677 45.8995 153.282 45.4859 152.822C44.6583 151.901 43.4752 150.722 42.0521 149.682C41.9971 149.642 41.9835 149.563 42.0217 149.505" fill="#263238"/>
<path fill-rule="evenodd" clip-rule="evenodd" d="M55.767 164.496C55.8153 164.44 55.8993 164.434 55.9546 164.484C56.0099 164.533 56.0155 164.619 55.9671 164.675L55.9664 164.676L55.9645 164.678L55.9577 164.686C55.9517 164.693 55.9429 164.703 55.9313 164.716C55.9082 164.742 55.8741 164.78 55.8298 164.828C55.7412 164.923 55.6117 165.059 55.4471 165.221C55.1183 165.543 54.6484 165.968 54.0839 166.38C53.5636 166.779 52.8539 167.53 52.2687 168.189C51.9772 168.518 51.7187 168.821 51.5331 169.042C51.4403 169.152 51.3658 169.242 51.3145 169.304C51.2888 169.336 51.269 169.36 51.2556 169.376L51.2404 169.395L51.2356 169.401L51.133 169.314L51.0306 169.227L51.036 169.221L51.0515 169.202C51.0651 169.185 51.0852 169.161 51.111 169.129C51.1628 169.067 51.2379 168.976 51.3313 168.865C51.518 168.643 51.7781 168.338 52.0717 168.007C52.6562 167.349 53.3821 166.578 53.9255 166.162L53.928 166.16C54.48 165.757 54.9405 165.341 55.263 165.024C55.4242 164.867 55.5506 164.734 55.6366 164.641C55.6796 164.595 55.7124 164.558 55.7344 164.533C55.7454 164.521 55.7536 164.512 55.7591 164.505L55.7652 164.498L55.7666 164.497L55.767 164.496ZM51.133 169.314L51.0306 169.227C50.9838 169.285 50.9915 169.371 51.0481 169.419C51.1046 169.467 51.1887 169.458 51.2356 169.401L51.133 169.314Z" fill="#263238"/>
<path fill-rule="evenodd" clip-rule="evenodd" d="M46.0263 160.498C46.0679 160.443 46.1443 160.434 46.1968 160.478L46.1214 160.578L46.046 160.679C45.9934 160.635 45.9846 160.554 46.0263 160.498ZM50.8788 166.322L50.776 166.39L50.7753 166.389L50.7731 166.385L50.764 166.37C50.756 166.357 50.7441 166.337 50.7285 166.311C50.6973 166.26 50.6514 166.184 50.5929 166.09C50.4758 165.901 50.308 165.634 50.1054 165.324C49.7 164.704 49.1569 163.914 48.6027 163.226C48.0247 162.54 47.3856 161.903 46.8902 161.437C46.6426 161.204 46.4312 161.014 46.2818 160.883C46.2072 160.817 46.148 160.766 46.1077 160.731C46.0875 160.714 46.0719 160.701 46.0615 160.692L46.0498 160.682L46.0469 160.679L46.046 160.679L46.1214 160.578L46.1968 160.478L46.1979 160.479L46.2011 160.481L46.2134 160.492C46.2242 160.501 46.24 160.514 46.2606 160.532C46.3018 160.567 46.3617 160.619 46.4372 160.686C46.5883 160.819 46.8017 161.01 47.0516 161.245C47.5511 161.715 48.1981 162.36 48.785 163.057L48.7867 163.059C49.3487 163.756 49.8975 164.555 50.3051 165.178C50.509 165.49 50.678 165.759 50.796 165.949C50.855 166.045 50.9013 166.121 50.9329 166.173C50.9487 166.199 50.9608 166.219 50.969 166.233L50.9783 166.248L50.9813 166.253L50.8788 166.322ZM50.8788 166.322L50.776 166.39C50.8117 166.45 50.8866 166.468 50.9434 166.43C51.0001 166.393 51.017 166.313 50.9813 166.253L50.8788 166.322Z" fill="#263238"/>
<path fill-rule="evenodd" clip-rule="evenodd" d="M46.0505 167.472C46.1046 167.434 46.1799 167.446 46.2185 167.5C46.3657 167.703 46.573 168.005 46.8185 168.362C47.3869 169.189 48.1602 170.313 48.8662 171.21L48.8675 171.212C49.3866 171.896 49.6689 172.674 49.8217 173.278C49.8983 173.581 49.9427 173.841 49.968 174.026C49.9807 174.119 49.9886 174.193 49.9934 174.244C49.9958 174.269 49.9973 174.289 49.9984 174.303L49.9994 174.318L49.9997 174.323L49.9998 174.324L49.9998 174.324C49.9998 174.324 49.9998 174.324 49.8821 174.331L49.9998 174.324C50.0035 174.39 49.9526 174.446 49.8862 174.45C49.8198 174.453 49.7629 174.403 49.7592 174.338M48.6753 171.356C47.9648 170.453 47.1799 169.311 46.6104 168.483C46.368 168.131 46.1645 167.835 46.0225 167.638C45.9838 167.585 45.9963 167.51 46.0505 167.472" fill="#263238"/>
<path d="M63.4211 195.45H44.5275C43.6618 195.45 42.9998 194.747 42.9998 193.942V177.45H64.9998V193.892C64.9488 194.747 64.2359 195.45 63.4211 195.45Z" fill="#263238"/>
<path d="M148.239 91.4825C148.937 91.7323 149.699 91.3367 149.889 90.6287C150.439 88.5881 151.507 84.663 152.078 82.5704C152.597 80.6859 153.104 78.8015 153.622 76.9066C153.855 76.0633 154.088 75.2096 154.31 74.3663C154.426 73.9394 154.617 73.5854 154.775 73.1794C155.177 72.1591 155.389 71.0867 155.96 70.1393C156.552 69.1606 157.377 68.3173 158.361 67.7343C158.498 67.651 158.636 67.5573 158.752 67.4427C159.429 66.7764 158.562 66.6619 158.033 66.6723C157.409 66.6827 156.806 66.8701 156.224 67.0471C156.034 67.0992 155.844 67.1512 155.643 67.12C155.442 67.0888 155.262 66.943 155.23 66.7556C155.22 66.6515 155.241 66.537 155.156 66.4745C155.082 66.4224 154.987 66.4641 154.913 66.5057C153.136 67.474 152.364 69.3584 151.475 71.0555C150.301 73.2939 149.127 75.5427 147.943 77.7812C146.589 80.3736 145.225 82.9556 143.871 85.548C143.215 86.787 140.656 92.2112 140 93.4502L148.239 91.4825Z" fill="#ECC0B0"/>
<path d="M93.1451 80.7863C92.2799 80.1955 91.8426 79.1176 92.0517 78.0812L95.1131 62.9389C95.3889 61.5916 96.6724 58.161 95.6075 57.0727C95.1607 56.6167 94.5617 56.3783 94.0863 55.9534C93.2497 55.2072 92.9549 53.9738 93.0025 52.8441C93.012 52.6887 93.0215 52.5125 93.2307 52.4606C93.3542 52.4295 93.4778 52.471 93.5824 52.5436C94.8659 53.5385 96.1495 54.5231 97.433 55.5181C98.0034 55.9638 98.5834 56.4094 99.0207 56.9898C99.9239 58.2025 99.5627 60.1199 99.5912 61.5916C99.6197 63.2188 99.6482 64.8356 99.6767 66.4628C99.7433 70.1629 99.8003 73.8733 99.8669 77.5733C99.9144 80.1955 99.9525 82.828 100 85.4502L93.1451 80.7863Z" fill="#ECC0B0"/>
<path d="M118 81.5643L117.043 80.4502C117.043 80.4502 115.507 80.4502 113.383 82.3634C111.259 84.2766 111 85.4357 111 85.4357L112.007 87.4502L118 81.5643Z" fill="#455A64"/>
<path d="M159 103.817L142.955 85.5295L123.424 98.5678L115.247 95.6297C115.247 95.6297 106.636 88.6139 100.006 75.4502L78 88.2166L95.8912 112.014L92.8079 124.812L124.806 128.45L126.249 120.755C142.161 116.447 159 103.817 159 103.817Z" fill="#FCC232"/>
<path d="M118.772 85.6781C118.772 85.6781 123.393 81.4057 121.578 80.5728C120.096 79.8966 116.028 82.2386 116.028 82.2386C116.028 82.2386 107.485 87.442 110.739 89.3626C110.75 89.3626 112.659 90.3523 118.772 85.6781Z" fill="white"/>
<path d="M120 97.4502C119.898 97.1214 118.284 92.1578 118.284 92.1578C118.284 92.1578 119.99 92.4441 119.574 90.3017C119.168 88.1593 117.289 83.4502 117.289 83.4502L114 85.4017L114.132 96.9093L120 97.4502Z" fill="#ECC0B0"/>
<path d="M92.8242 124.45C92.8242 124.45 80.5022 160.951 75.6823 190.098C76.2167 190.626 73 199.814 73 199.814L87.9939 198.498L106.739 150.179C106.739 150.179 136.192 193.827 142.081 201.45C142.081 201.45 153.931 195.277 155 194.759C155 194.759 136.988 163.054 133.51 153.338C130.031 143.623 125.169 128.044 125.169 128.044L92.8242 124.45Z" fill="#263238"/>
<path d="M147.38 198.45C147.38 198.45 151.929 208.853 153.6 210.34C155.27 211.826 159 215.45 159 215.45C159 215.45 151.161 215.012 148.333 213.066L142 201.423L147.38 198.45Z" fill="#ECC0B0"/>
<path d="M73.7362 200.033L70.9055 209.534L64 215.45L74.0576 214.295L74.9597 211.121L82 199.45L73.7362 200.033Z" fill="#ECC0B0"/>
<path d="M118.162 92.4502L116 92.6098L119 95.4502L118.162 92.4502Z" fill="#C2A397"/>
<path d="M113.809 85.4502L111 89.4502C111 89.4502 112.622 89.3673 114 88.4554L113.809 85.4502Z" fill="#455A64"/>
<path d="M114 110.879L115.467 109.45L116 111.736L114.8 112.45L114 110.879Z" fill="#263238"/>
<path d="M113 118.5L114.833 117.45L116 119.4L114.167 120.45L113 118.5Z" fill="#263238"/>
<path fill-rule="evenodd" clip-rule="evenodd" d="M113.389 90.9091C113.967 91.5154 113.961 92.4921 113.375 93.0906C112.282 94.208 110.886 96.1094 109.468 98.1678C108.903 98.9878 108.325 99.8467 107.773 100.67C110.019 100.174 112.229 99.5009 114.379 98.6568C114.9 98.4523 115.487 98.5656 115.902 98.9503L123.27 105.787L124.031 99.3684C124.132 98.5229 124.875 97.9216 125.692 98.0255C126.508 98.1294 127.089 98.8991 126.989 99.7447L125.879 109.096C125.811 109.666 125.443 110.15 124.924 110.352C124.404 110.554 123.82 110.44 123.406 110.056L114.581 101.868C111.376 103.054 108.054 103.888 104.686 104.352C104.095 104.433 103.513 104.141 103.209 103.61C102.904 103.079 102.935 102.411 103.287 101.912C103.818 101.161 104.429 100.248 105.104 99.2403C105.704 98.3458 106.354 97.3759 107.042 96.3762C108.45 94.3336 109.982 92.2243 111.282 90.895C111.868 90.2965 112.811 90.3028 113.389 90.9091Z" fill="#263238"/>
<path d="M178.258 16.5009L90.1895 0.450195L80.6669 52.6994L168.735 68.7501L178.258 16.5009Z" fill="#1B1A18"/>
<path d="M98.4915 19.8921L103.376 20.8901C105.944 21.4148 107.585 20.3545 107.957 18.5348C108.302 16.8434 107.3 15.5744 106.012 15.2472L106.035 15.1356C107.278 15.1106 108.327 14.4467 108.602 13.1015C108.952 11.3878 107.928 9.91082 105.405 9.39528L100.827 8.46001L98.4915 19.8921ZM101.312 18.4099L101.933 15.3733L103.959 15.7873C105.12 16.0245 105.703 16.8415 105.511 17.7849C105.335 18.6445 104.634 19.0886 103.283 18.8125L101.312 18.4099ZM102.267 13.7377L102.845 10.9076L104.682 11.2829C105.754 11.5018 106.249 12.1788 106.08 13.0049C105.895 13.9092 105.047 14.3057 104.059 14.1038L102.267 13.7377Z" fill="#FCC232"/>
<path d="M117.81 11.93L116.335 19.1476C116.068 20.4538 114.96 21.2101 113.553 20.9227C112.152 20.6364 111.424 19.5048 111.691 18.1986L113.165 10.981L110.748 10.4871L109.231 17.9113C108.72 20.4121 110.266 22.4666 113.119 23.0495C115.96 23.63 118.199 22.3488 118.71 19.848L120.227 12.4238L117.81 11.93Z" fill="#FCC232"/>
<path d="M119.408 24.1659L121.825 24.6598L122.653 20.6072L124.417 20.9676L125.755 25.4627L128.423 26.0079L126.903 21.0684C128.317 20.776 129.269 19.79 129.588 18.227C130.052 15.9551 128.85 14.1858 126.254 13.6554L121.744 12.7338L119.408 24.1659ZM123.05 18.6646L123.757 15.2037L125.387 15.5368C126.782 15.8219 127.331 16.5795 127.099 17.7183C126.867 18.8514 126.075 19.2828 124.691 18.9999L123.05 18.6646Z" fill="#FCC232"/>
<path d="M129.252 26.1773L136.57 27.6726L136.977 25.6798L132.076 24.6784L134.005 15.2391L131.588 14.7452L129.252 26.1773Z" fill="#FCC232"/>
<path d="M137.699 27.9033L145.425 29.4819L145.832 27.4891L140.523 26.4044L141.081 23.6748L145.971 24.6739L146.378 22.6811L141.488 21.682L142.045 18.9579L147.331 20.038L147.738 18.0452L140.035 16.4712L137.699 27.9033Z" fill="#FCC232"/>
<path d="M154.718 22.8965L157.035 23.3699C157.418 21.3256 156.03 19.5767 153.485 19.0566C150.979 18.5445 148.859 19.5536 148.446 21.6324C148.096 23.3171 149.088 24.5257 150.924 25.3837L152.105 25.9506C153.289 26.5064 153.908 27.0051 153.756 27.7765C153.579 28.6127 152.67 29.0201 151.442 28.7692C150.186 28.5126 149.401 27.7473 149.556 26.587L147.217 26.1091C146.774 28.5945 148.282 30.2343 151.056 30.8012C153.847 31.3715 155.761 30.3727 156.194 28.2806C156.578 26.3759 155.349 25.0724 153.453 24.2198L152.477 23.7644C151.53 23.3325 150.773 22.7941 150.958 21.977C151.108 21.2401 151.872 20.8321 153.055 21.0739C154.211 21.31 154.813 21.9796 154.718 22.8965Z" fill="#FCC232"/>
<path d="M164.547 24.9048L166.864 25.3782C167.246 23.3339 165.859 21.585 163.314 21.0649C160.807 20.5528 158.688 21.5619 158.275 23.6407C157.925 25.3254 158.917 26.534 160.753 27.392L161.934 27.9589C163.117 28.5147 163.737 29.0134 163.585 29.7848C163.408 30.621 162.499 31.0284 161.271 30.7775C160.015 30.5209 159.229 29.7556 159.385 28.5953L157.046 28.1174C156.602 30.6028 158.111 32.2426 160.885 32.8095C163.676 33.3798 165.59 32.381 166.023 30.2889C166.406 28.3842 165.178 27.0807 163.282 26.2281L162.305 25.7727C161.358 25.3408 160.602 24.8024 160.786 23.9853C160.937 23.2484 161.701 22.8404 162.884 23.0822C164.04 23.3183 164.641 23.9879 164.547 24.9048Z" fill="#FCC232"/>
<path d="M128.313 28.0056L125.896 27.5118L123.56 38.9439L125.977 39.4377L128.313 28.0056Z" fill="white"/>
<path d="M135.36 32.8706L137.676 33.344C138.059 31.2997 136.672 29.5508 134.127 29.0307C131.62 28.5186 129.501 29.5277 129.088 31.6065C128.738 33.2912 129.729 34.4998 131.566 35.3578L132.747 35.9247C133.93 36.4805 134.549 36.9792 134.398 37.7506C134.221 38.5868 133.312 38.9942 132.084 38.7433C130.828 38.4867 130.042 37.7214 130.198 36.5611L127.859 36.0832C127.415 38.5686 128.923 40.2084 131.698 40.7753C134.489 41.3456 136.402 40.3468 136.836 38.2547C137.219 36.35 135.991 35.0465 134.095 34.1939L133.118 33.7384C132.171 33.3066 131.415 32.7682 131.599 31.9511C131.75 31.2142 132.513 30.8062 133.697 31.048C134.852 31.2841 135.454 31.9537 135.36 32.8706Z" fill="white"/>
<path d="M105.138 37.5401L102.802 48.9722L105.147 49.4512L106.673 41.9824L106.768 42.0018L108.211 50.0193L109.808 50.3455L114.275 43.5649L114.37 43.5843L112.85 51.0252L115.194 51.5043L117.53 40.0722L114.549 39.4631L109.832 46.5008L109.698 46.4734L108.119 38.1492L105.138 37.5401Z" fill="#4CC689"/>
<path d="M128.388 48.2453C129.152 44.5053 127.265 41.8985 124.234 41.2792C121.186 40.6564 118.445 42.3177 117.681 46.0577C116.92 49.781 118.787 52.4011 121.834 53.0239C124.866 53.6432 127.623 51.9853 128.388 48.2453ZM125.937 47.7446C125.442 50.1672 124.024 51.2441 122.271 50.8859C120.513 50.5266 119.637 48.981 120.132 46.5584C120.627 44.1358 122.039 43.0578 123.797 43.4171C125.55 43.7752 126.432 45.322 125.937 47.7446Z" fill="#4CC689"/>
<path d="M128.538 54.2309L130.956 54.7247L131.784 50.6721L133.548 51.0326L134.885 55.5277L137.554 56.0729L136.033 51.1334C137.448 50.841 138.4 49.8549 138.719 48.292C139.183 46.02 137.98 44.2507 135.385 43.7204L130.874 42.7988L128.538 54.2309ZM132.181 48.7296L132.888 45.2687L134.518 45.6017C135.913 45.8869 136.462 46.6445 136.229 47.7833C135.998 48.9164 135.206 49.3478 133.822 49.0649L132.181 48.7296Z" fill="#4CC689"/>
<path d="M138.383 56.2423L146.108 57.8209L146.515 55.8281L141.207 54.7434L141.765 52.0137L146.654 53.0129L147.062 51.0201L142.172 50.0209L142.728 47.2969L148.015 48.377L148.422 46.3842L140.718 44.8102L138.383 56.2423Z" fill="#4CC689"/>
</svg>
