<svg width="78" height="30" viewBox="0 0 78 30" fill="none" xmlns="http://www.w3.org/2000/svg">
<path fill-rule="evenodd" clip-rule="evenodd" d="M1.32812 13.0792C1.32812 9.61293 4.13808 6.80298 7.60434 6.80298C11.0706 6.80298 13.8806 9.61293 13.8806 13.0792C13.8806 16.5454 11.0706 19.3554 7.60434 19.3554C4.13808 19.3554 1.32812 16.5454 1.32812 13.0792Z" fill="#43BA7F"/>
<path fill-rule="evenodd" clip-rule="evenodd" d="M43.9153 14.0138C42.9546 12.8192 44.3655 10.0898 47.0666 7.91754C49.7677 5.74524 53.7744 6.72295 54.7351 7.91754C55.6959 9.11214 53.2468 10.0713 50.5457 12.2435C47.8445 14.4158 44.876 15.2084 43.9153 14.0138Z" fill="#FCC232"/>
<path d="M1.59588 12.9891C1.59588 14.6451 2.16022 16.0375 3.28891 17.1661C4.42684 18.2856 5.81456 18.8453 7.45208 18.8453C9.07109 18.8453 10.4496 18.2763 11.5875 17.1384C12.7347 15.9912 13.3083 14.6081 13.3083 12.9891C13.3083 11.3701 12.7347 9.99161 11.5875 8.85368C10.4496 7.70649 9.07109 7.1329 7.45208 7.1329C5.83307 7.1329 4.44997 7.70649 3.30278 8.85368C2.16485 10.0009 1.59588 11.3793 1.59588 12.9891ZM0 12.7671V0.194281L1.59588 0V8.72878C2.32675 7.71112 3.19177 6.93862 4.19093 6.41128C5.19009 5.8747 6.27714 5.6064 7.45208 5.6064C9.57992 5.6064 11.3608 6.31414 12.7948 7.72962C14.2288 9.13585 14.9458 10.889 14.9458 12.9891C14.9458 15.0892 14.2288 16.8516 12.7948 18.2763C11.3608 19.7011 9.57992 20.4134 7.45208 20.4134C5.26873 20.4134 3.47856 19.7057 2.08159 18.2902C0.693862 16.8747 0 15.0337 0 12.7671Z" fill="black"/>
<path d="M26.6443 17.8461C26.0522 18.7158 25.3722 19.368 24.6043 19.8028C23.8365 20.2284 22.9761 20.4412 22.0232 20.4412C20.4504 20.4412 19.2246 19.9647 18.3457 19.0118C17.4761 18.0497 17.0413 16.7036 17.0413 14.9735V5.9117L18.6177 5.73778L18.6371 14.1825C18.6371 15.8293 18.9471 17.0598 19.5669 17.8739C20.196 18.688 21.135 19.0951 22.384 19.0951C23.5312 19.0951 24.5257 18.6741 25.3676 17.8323C26.2187 16.9811 26.6443 15.9542 26.6443 14.7515V5.9117L28.2402 5.71742V20.0665L26.6443 20.2608V17.8461Z" fill="black"/>
<path d="M31.1822 20.2608V5.9117L32.7642 5.71742V8.78429C33.3378 7.67411 34.0362 6.84148 34.8596 6.28639C35.6923 5.7313 36.6544 5.45376 37.7461 5.45376H38.1347L37.4824 7.02188C35.8727 7.17916 34.6838 7.88227 33.916 9.13122C33.1481 10.3802 32.7642 12.2444 32.7642 14.7238V20.0665L31.1822 20.2608Z" fill="black"/>
<path d="M39.1754 20.2885V0.222036L40.7991 0V20.0665L39.1754 20.2885Z" fill="black"/>
<path d="M44.9623 14.2103L54.3155 8.64552C53.9177 8.15519 53.4135 7.78513 52.8029 7.53534C52.2016 7.28555 51.5123 7.16066 50.7352 7.16066C49.1069 7.16066 47.7285 7.72037 46.5998 8.8398C45.4711 9.95923 44.9067 11.3331 44.9067 12.9613C44.9067 13.2204 44.9114 13.447 44.9206 13.6413C44.9299 13.8264 44.9438 14.016 44.9623 14.2103ZM56.3555 18.3873C55.4211 19.0812 54.4959 19.5947 53.58 19.9277C52.6641 20.2515 51.7159 20.4134 50.7352 20.4134C48.5796 20.4134 46.7894 19.7057 45.3647 18.2902C43.94 16.8655 43.2276 15.0984 43.2276 12.9891C43.2276 10.8798 43.9446 9.12197 45.3786 7.71574C46.8126 6.30952 48.5981 5.6064 50.7352 5.6064C52.0859 5.6064 53.2655 5.89783 54.2739 6.48067C55.2915 7.06351 56.0826 7.9054 56.6469 9.00633L45.5312 15.5703C46.0586 16.5879 46.7756 17.3743 47.6822 17.9294C48.5888 18.4845 49.6065 18.762 50.7352 18.762C51.6326 18.762 52.5207 18.577 53.3996 18.2069C54.2785 17.8276 55.2638 17.2078 56.3555 16.3474V18.3873Z" fill="black"/>
<path d="M57.5212 18.2763L58.7146 17.1384C59.2234 17.7212 59.7832 18.1607 60.3937 18.4567C61.0136 18.7528 61.6751 18.9008 62.3782 18.9008C63.2571 18.9008 63.9741 18.6556 64.5292 18.1653C65.0843 17.675 65.3618 17.0413 65.3618 16.2641C65.3618 15.5703 65.1583 15.0244 64.7512 14.6266C64.3441 14.2288 63.6179 13.9004 62.5725 13.6413C60.7962 13.1973 59.5842 12.6745 58.9366 12.0732C58.289 11.4626 57.9652 10.6207 57.9652 9.54754C57.9652 8.41886 58.4047 7.47058 59.2836 6.70271C60.1625 5.92558 61.2773 5.53702 62.628 5.53702C63.4329 5.53702 64.1915 5.67116 64.9039 5.93946C65.6162 6.20775 66.2731 6.60557 66.8744 7.1329L65.8753 8.43736C65.3387 7.97479 64.7928 7.62323 64.2377 7.38269C63.6827 7.14215 63.1368 7.02188 62.6002 7.02188C61.7121 7.02188 60.9951 7.24854 60.4493 7.70187C59.9127 8.15519 59.6444 8.75191 59.6444 9.49203C59.6444 10.6115 60.6204 11.4071 62.5725 11.8789C62.9795 11.9714 63.2848 12.0501 63.4884 12.1148C64.6911 12.4571 65.5931 12.9567 66.1944 13.6136C66.7958 14.2704 67.0965 15.0846 67.0965 16.056C67.0965 17.3327 66.6385 18.392 65.7226 19.2339C64.8067 20.0757 63.6549 20.4967 62.2672 20.4967C61.2865 20.4967 60.3937 20.3117 59.5889 19.9416C58.7932 19.5623 58.104 19.0072 57.5212 18.2763Z" fill="black"/>
<path d="M68.4009 18.2763L69.5944 17.1384C70.1032 17.7212 70.6629 18.1607 71.2735 18.4567C71.8934 18.7528 72.5548 18.9008 73.2579 18.9008C74.1368 18.9008 74.8538 18.6556 75.4089 18.1653C75.964 17.675 76.2416 17.0413 76.2416 16.2641C76.2416 15.5703 76.038 15.0244 75.631 14.6266C75.2239 14.2288 74.4977 13.9004 73.4522 13.6413C71.6759 13.1973 70.464 12.6745 69.8164 12.0732C69.1688 11.4626 68.845 10.6207 68.845 9.54754C68.845 8.41886 69.2844 7.47058 70.1633 6.70271C71.0422 5.92558 72.157 5.53702 73.5077 5.53702C74.3126 5.53702 75.0712 5.67116 75.7836 5.93946C76.496 6.20775 77.1528 6.60557 77.7542 7.1329L76.755 8.43736C76.2184 7.97479 75.6726 7.62323 75.1175 7.38269C74.5624 7.14215 74.0166 7.02188 73.48 7.02188C72.5918 7.02188 71.8749 7.24854 71.329 7.70187C70.7924 8.15519 70.5241 8.75191 70.5241 9.49203C70.5241 10.6115 71.5002 11.4071 73.4522 11.8789C73.8593 11.9714 74.1646 12.0501 74.3681 12.1148C75.5708 12.4571 76.4728 12.9567 77.0742 13.6136C77.6755 14.2704 77.9762 15.0846 77.9762 16.056C77.9762 17.3327 77.5183 18.392 76.6024 19.2339C75.6865 20.0757 74.5347 20.4967 73.1469 20.4967C72.1663 20.4967 71.2735 20.3117 70.4686 19.9416C69.673 19.5623 68.9838 19.0072 68.4009 18.2763Z" fill="black"/>
<path d="M46.7056 24.6776C46.4933 24.6776 46.3174 24.6139 46.1779 24.4866C46.0445 24.3592 45.9778 24.1985 45.9778 24.0044C45.9778 23.8104 46.0445 23.6527 46.1779 23.5314C46.3174 23.404 46.4933 23.3403 46.7056 23.3403C46.9178 23.3403 47.0907 23.404 47.2241 23.5314C47.3636 23.6527 47.4333 23.8104 47.4333 24.0044C47.4333 24.1985 47.3636 24.3592 47.2241 24.4866C47.0907 24.6139 46.9178 24.6776 46.7056 24.6776ZM46.1233 29.8903V25.3781H47.2878V29.8903H46.1233Z" fill="black"/>
<path d="M50.1862 29.9995C49.7859 29.9995 49.4341 29.9358 49.1309 29.8085C48.8277 29.675 48.5851 29.4931 48.4031 29.2626C48.2212 29.0322 48.112 28.7653 48.0756 28.4621H49.2492C49.2855 28.6379 49.3826 28.7896 49.5403 28.9169C49.704 29.0382 49.9133 29.0989 50.168 29.0989C50.4227 29.0989 50.6077 29.0473 50.7229 28.9442C50.8442 28.8411 50.9049 28.7229 50.9049 28.5894C50.9049 28.3954 50.8199 28.265 50.6501 28.1983C50.4803 28.1255 50.2438 28.0557 49.9405 27.989C49.7465 27.9466 49.5494 27.895 49.3492 27.8344C49.1491 27.7737 48.9641 27.6979 48.7943 27.6069C48.6305 27.5099 48.4971 27.3886 48.394 27.243C48.2909 27.0914 48.2394 26.9064 48.2394 26.6881C48.2394 26.2878 48.3971 25.9512 48.7124 25.6783C49.0339 25.4054 49.4827 25.2689 50.0588 25.2689C50.5925 25.2689 51.0171 25.3933 51.3324 25.6419C51.6539 25.8906 51.8449 26.2332 51.9055 26.6699H50.8048C50.7381 26.3364 50.4864 26.1696 50.0497 26.1696C49.8314 26.1696 49.6616 26.212 49.5403 26.2969C49.425 26.3818 49.3674 26.488 49.3674 26.6153C49.3674 26.7488 49.4554 26.8549 49.6312 26.9337C49.8071 27.0126 50.0406 27.0854 50.3317 27.1521C50.6471 27.2248 50.9352 27.3067 51.196 27.3977C51.4628 27.4826 51.6751 27.613 51.8328 27.7889C51.9905 27.9587 52.0693 28.2043 52.0693 28.5258C52.0754 28.8047 52.0026 29.0564 51.851 29.2808C51.6993 29.5052 51.481 29.6811 51.196 29.8085C50.9109 29.9358 50.5743 29.9995 50.1862 29.9995Z" fill="black"/>
<path d="M54.9046 29.8903V25.3781H55.9326L56.0327 25.9876C56.1783 25.7693 56.3693 25.5964 56.6058 25.4691C56.8484 25.3357 57.1274 25.2689 57.4428 25.2689C58.1402 25.2689 58.6345 25.5388 58.9256 26.0786C59.0894 25.8299 59.3077 25.6328 59.5806 25.4873C59.8596 25.3417 60.1628 25.2689 60.4903 25.2689C61.0786 25.2689 61.5305 25.4448 61.8458 25.7966C62.1612 26.1483 62.3189 26.6639 62.3189 27.3431V29.8903H61.1544V27.4523C61.1544 27.0641 61.0786 26.767 60.927 26.5607C60.7815 26.3545 60.554 26.2514 60.2447 26.2514C59.9293 26.2514 59.6746 26.3667 59.4806 26.5971C59.2925 26.8276 59.1985 27.149 59.1985 27.5614V29.8903H58.0341V27.4523C58.0341 27.0641 57.9583 26.767 57.8067 26.5607C57.655 26.3545 57.4215 26.2514 57.1062 26.2514C56.7969 26.2514 56.5452 26.3667 56.3511 26.5971C56.1631 26.8276 56.0691 27.149 56.0691 27.5614V29.8903H54.9046Z" fill="black"/>
<path d="M65.4076 29.9995C64.9709 29.9995 64.5767 29.8994 64.225 29.6993C63.8793 29.4992 63.6033 29.2232 63.3971 28.8714C63.197 28.5136 63.0969 28.1012 63.0969 27.6342C63.0969 27.1672 63.2 26.7579 63.4062 26.4061C63.6124 26.0483 63.8884 25.7693 64.2341 25.5692C64.5858 25.369 64.98 25.2689 65.4167 25.2689C65.8473 25.2689 66.2355 25.369 66.5811 25.5692C66.9329 25.7693 67.2089 26.0483 67.409 26.4061C67.6152 26.7579 67.7183 27.1672 67.7183 27.6342C67.7183 28.1012 67.6152 28.5136 67.409 28.8714C67.2089 29.2232 66.9329 29.4992 66.5811 29.6993C66.2294 29.8994 65.8382 29.9995 65.4076 29.9995ZM65.4076 28.9897C65.7108 28.9897 65.9747 28.8775 66.1991 28.6531C66.4235 28.4226 66.5357 28.083 66.5357 27.6342C66.5357 27.1854 66.4235 26.8488 66.1991 26.6244C65.9747 26.394 65.7139 26.2787 65.4167 26.2787C65.1074 26.2787 64.8405 26.394 64.6161 26.6244C64.3978 26.8488 64.2886 27.1854 64.2886 27.6342C64.2886 28.083 64.3978 28.4226 64.6161 28.6531C64.8405 28.8775 65.1044 28.9897 65.4076 28.9897Z" fill="black"/>
<path d="M68.5775 29.8903V25.3781H69.6146L69.7237 26.2242C69.8875 25.933 70.1089 25.7026 70.3878 25.5328C70.6729 25.3569 71.0065 25.2689 71.3885 25.2689V26.4971H71.061C70.8063 26.4971 70.5789 26.5365 70.3787 26.6153C70.1786 26.6942 70.0209 26.8306 69.9057 27.0247C69.7965 27.2188 69.7419 27.4887 69.7419 27.8344V29.8903H68.5775Z" fill="black"/>
<path d="M74.1149 29.9995C73.6601 29.9995 73.2568 29.9025 72.905 29.7084C72.5532 29.5143 72.2773 29.2414 72.0772 28.8896C71.877 28.5379 71.7769 28.1315 71.7769 27.6706C71.7769 27.2036 71.874 26.7882 72.0681 26.4243C72.2682 26.0604 72.5411 25.7784 72.8868 25.5782C73.2386 25.372 73.651 25.2689 74.124 25.2689C74.5668 25.2689 74.9579 25.366 75.2976 25.5601C75.6372 25.7541 75.901 26.021 76.089 26.3606C76.2831 26.6942 76.3801 27.0672 76.3801 27.4796C76.3801 27.5463 76.3771 27.616 76.371 27.6888C76.371 27.7616 76.368 27.8374 76.3619 27.9162H72.9323C72.9566 28.268 73.0778 28.5439 73.2962 28.7441C73.5206 28.9442 73.7905 29.0443 74.1058 29.0443C74.3424 29.0443 74.5395 28.9927 74.6972 28.8896C74.8609 28.7805 74.9822 28.641 75.061 28.4712H76.2437C76.1588 28.7562 76.0163 29.017 75.8161 29.2535C75.622 29.484 75.3794 29.6659 75.0883 29.7994C74.8033 29.9328 74.4788 29.9995 74.1149 29.9995ZM74.124 26.2151C73.839 26.2151 73.5873 26.2969 73.369 26.4607C73.1506 26.6184 73.0111 26.861 72.9505 27.1885H75.1975C75.1793 26.8913 75.0701 26.6548 74.87 26.4789C74.6699 26.303 74.4212 26.2151 74.124 26.2151Z" fill="black"/>
</svg>
