<svg width="120" height="50" viewBox="0 0 120 50" fill="none" xmlns="http://www.w3.org/2000/svg">
<path fill-rule="evenodd" clip-rule="evenodd" d="M2.04443 20.1289C2.04443 14.7945 6.36876 10.4702 11.7031 10.4702C17.0374 10.4702 21.3617 14.7945 21.3617 20.1289C21.3617 25.4632 17.0374 29.7875 11.7031 29.7875C6.36876 29.7875 2.04443 25.4632 2.04443 20.1289Z" fill="#43BA7F"/>
<path fill-rule="evenodd" clip-rule="evenodd" d="M67.5833 21.5672C66.1048 19.7288 68.276 15.5284 72.4329 12.1854C76.5897 8.84239 82.7558 10.347 84.2342 12.1854C85.7127 14.0238 81.9438 15.4998 77.7869 18.8428C73.6301 22.1858 69.0617 23.4056 67.5833 21.5672Z" fill="#FCC232"/>
<path d="M2.45595 19.9893C2.45595 22.5378 3.32443 24.6805 5.0614 26.4175C6.8126 28.1402 8.94821 29.0016 11.4682 29.0016C13.9598 29.0016 16.0812 28.126 17.8324 26.3748C19.5978 24.6094 20.4805 22.4809 20.4805 19.9893C20.4805 17.4978 19.5978 15.3764 17.8324 13.6252C16.0812 11.8598 13.9598 10.977 11.4682 10.977C8.97669 10.977 6.84819 11.8598 5.08276 13.6252C3.33155 15.3906 2.45595 17.512 2.45595 19.9893ZM0 19.6476V0.298986L2.45595 0V13.433C3.58071 11.8669 4.91191 10.6781 6.44955 9.86652C7.98719 9.04075 9.66008 8.62787 11.4682 8.62787C14.7428 8.62787 17.4835 9.71703 19.6903 11.8954C21.8971 14.0594 23.0005 16.7574 23.0005 19.9893C23.0005 23.2212 21.8971 25.9334 19.6903 28.126C17.4835 30.3186 14.7428 31.4148 11.4682 31.4148C8.1082 31.4148 5.35327 30.3257 3.20342 28.1474C1.06781 25.969 0 23.1358 0 19.6476Z" fill="black"/>
<path d="M41.0037 27.464C40.0925 28.8023 39.0461 29.806 37.8644 30.4752C36.6827 31.1301 35.3586 31.4576 33.8922 31.4576C31.4718 31.4576 29.5853 30.7243 28.2328 29.2579C26.8945 27.7772 26.2253 25.7056 26.2253 23.0432V9.0977L28.6514 8.83004L28.6813 21.8259C28.6813 24.3602 29.1582 26.2538 30.1121 27.5067C31.0803 28.7596 32.5254 29.386 34.4474 29.386C36.2128 29.386 37.7434 28.7382 39.039 27.4426C40.3488 26.1328 41.0037 24.5524 41.0037 22.7015V9.0977L43.4597 8.79872V30.8809L41.0037 31.1799V27.464Z" fill="black"/>
<path d="M47.9872 31.1799V9.0977L50.4218 8.79872V13.5184C51.3045 11.8099 52.3794 10.5286 53.6466 9.67432C54.9279 8.82008 56.4086 8.39295 58.0886 8.39295H58.6866L57.6829 10.8062C55.2056 11.0482 53.376 12.1303 52.1943 14.0523C51.0126 15.9744 50.4218 18.8432 50.4218 22.6588V30.8809L47.9872 31.1799Z" fill="black"/>
<path d="M60.2883 31.2226V0.341698L62.787 0V30.8809L60.2883 31.2226Z" fill="black"/>
<path d="M69.1938 21.8687L83.5878 13.3049C82.9756 12.5503 82.1997 11.9808 81.26 11.5964C80.3346 11.212 79.2739 11.0198 78.0779 11.0198C75.5722 11.0198 73.4508 11.8811 71.7138 13.6038C69.9769 15.3266 69.1084 17.4408 69.1084 19.9466C69.1084 20.3453 69.1155 20.6941 69.1297 20.9931C69.144 21.2778 69.1653 21.5697 69.1938 21.8687ZM86.7272 28.2969C85.2892 29.3647 83.8655 30.1548 82.456 30.6674C81.0464 31.1657 79.5871 31.4148 78.0779 31.4148C74.7606 31.4148 72.0057 30.3257 69.8131 28.1474C67.6206 25.9548 66.5243 23.2355 66.5243 19.9893C66.5243 16.7432 67.6277 14.0381 69.8345 11.874C72.0413 9.70991 74.7891 8.62787 78.0779 8.62787C80.1566 8.62787 81.9719 9.07635 83.5238 9.9733C85.0899 10.8703 86.3072 12.1659 87.1757 13.8601L70.0694 23.9616C70.8809 25.5277 71.9843 26.7379 73.3796 27.5921C74.7749 28.4463 76.341 28.8735 78.0779 28.8735C79.459 28.8735 80.8258 28.5887 82.1783 28.0192C83.5309 27.4355 85.0472 26.4816 86.7272 25.1575V28.2969Z" fill="black"/>
<path d="M88.5211 28.126L90.3577 26.3748C91.1408 27.2718 92.0021 27.948 92.9418 28.4036C93.8957 28.8592 94.9137 29.087 95.9957 29.087C97.3483 29.087 98.4517 28.7097 99.3059 27.9552C100.16 27.2006 100.587 26.2253 100.587 25.0294C100.587 23.9616 100.274 23.1216 99.6476 22.5093C99.0212 21.8971 97.9035 21.3917 96.2947 20.9931C93.5611 20.3097 91.696 19.5053 90.6994 18.5798C89.7028 17.6402 89.2045 16.3445 89.2045 14.693C89.2045 12.956 89.8808 11.4967 91.2333 10.315C92.5859 9.11906 94.3015 8.52109 96.3801 8.52109C97.6188 8.52109 98.7863 8.72753 99.8825 9.14042C100.979 9.5533 101.99 10.1655 102.915 10.977L101.377 12.9845C100.552 12.2726 99.7117 11.7316 98.8574 11.3615C98.0032 10.9913 97.1632 10.8062 96.3374 10.8062C94.9706 10.8062 93.8672 11.155 93.0272 11.8526C92.2015 12.5503 91.7886 13.4686 91.7886 14.6076C91.7886 16.3303 93.2906 17.5547 96.2947 18.2808C96.9212 18.4232 97.391 18.5442 97.7042 18.6439C99.5551 19.1707 100.943 19.9395 101.869 20.9503C102.794 21.9612 103.257 23.2141 103.257 24.709C103.257 26.6738 102.552 28.304 101.143 29.5996C99.733 30.8952 97.9605 31.543 95.8249 31.543C94.3157 31.543 92.9418 31.2582 91.7031 30.6887C90.4787 30.105 89.418 29.2508 88.5211 28.126Z" fill="black"/>
<path d="M105.264 28.126L107.101 26.3748C107.884 27.2718 108.745 27.948 109.685 28.4036C110.639 28.8592 111.657 29.087 112.739 29.087C114.091 29.087 115.195 28.7097 116.049 27.9552C116.903 27.2006 117.33 26.2253 117.33 25.0294C117.33 23.9616 117.017 23.1216 116.391 22.5093C115.764 21.8971 114.647 21.3917 113.038 20.9931C110.304 20.3097 108.439 19.5053 107.443 18.5798C106.446 17.6402 105.948 16.3445 105.948 14.693C105.948 12.956 106.624 11.4967 107.977 10.315C109.329 9.11906 111.045 8.52109 113.123 8.52109C114.362 8.52109 115.529 8.72753 116.626 9.14042C117.722 9.5533 118.733 10.1655 119.658 10.977L118.121 12.9845C117.295 12.2726 116.455 11.7316 115.601 11.3615C114.746 10.9913 113.906 10.8062 113.081 10.8062C111.714 10.8062 110.61 11.155 109.77 11.8526C108.945 12.5503 108.532 13.4686 108.532 14.6076C108.532 16.3303 110.034 17.5547 113.038 18.2808C113.664 18.4232 114.134 18.5442 114.447 18.6439C116.298 19.1707 117.686 19.9395 118.612 20.9503C119.537 21.9612 120 23.2141 120 24.709C120 26.6738 119.295 28.304 117.886 29.5996C116.476 30.8952 114.704 31.543 112.568 31.543C111.059 31.543 109.685 31.2582 108.446 30.6887C107.222 30.105 106.161 29.2508 105.264 28.126Z" fill="black"/>
<path d="M71.876 37.978C71.5493 37.978 71.2787 37.88 71.064 37.684C70.8587 37.488 70.756 37.2407 70.756 36.942C70.756 36.6433 70.8587 36.4007 71.064 36.214C71.2787 36.018 71.5493 35.92 71.876 35.92C72.2027 35.92 72.4687 36.018 72.674 36.214C72.8887 36.4007 72.996 36.6433 72.996 36.942C72.996 37.2407 72.8887 37.488 72.674 37.684C72.4687 37.88 72.2027 37.978 71.876 37.978ZM70.98 46V39.056H72.772V46H70.98ZM77.2324 46.168C76.6164 46.168 76.0751 46.07 75.6084 45.874C75.1418 45.6687 74.7684 45.3887 74.4884 45.034C74.2084 44.6793 74.0404 44.2687 73.9844 43.802H75.7904C75.8464 44.0727 75.9958 44.306 76.2384 44.502C76.4904 44.6887 76.8124 44.782 77.2044 44.782C77.5964 44.782 77.8811 44.7027 78.0584 44.544C78.2451 44.3853 78.3384 44.2033 78.3384 43.998C78.3384 43.6993 78.2078 43.4987 77.9464 43.396C77.6851 43.284 77.3211 43.1767 76.8544 43.074C76.5558 43.0087 76.2524 42.9293 75.9444 42.836C75.6364 42.7427 75.3518 42.626 75.0904 42.486C74.8384 42.3367 74.6331 42.15 74.4744 41.926C74.3158 41.6927 74.2364 41.408 74.2364 41.072C74.2364 40.456 74.4791 39.938 74.9644 39.518C75.4591 39.098 76.1498 38.888 77.0364 38.888C77.8578 38.888 78.5111 39.0793 78.9964 39.462C79.4911 39.8447 79.7851 40.372 79.8784 41.044H78.1844C78.0818 40.5307 77.6944 40.274 77.0224 40.274C76.6864 40.274 76.4251 40.3393 76.2384 40.47C76.0611 40.6007 75.9724 40.764 75.9724 40.96C75.9724 41.1653 76.1078 41.3287 76.3784 41.45C76.6491 41.5713 77.0084 41.6833 77.4564 41.786C77.9418 41.898 78.3851 42.024 78.7864 42.164C79.1971 42.2947 79.5238 42.4953 79.7664 42.766C80.0091 43.0273 80.1304 43.4053 80.1304 43.9C80.1398 44.3293 80.0278 44.7167 79.7944 45.062C79.5611 45.4073 79.2251 45.678 78.7864 45.874C78.3478 46.07 77.8298 46.168 77.2324 46.168ZM84.4938 46V39.056H86.0758L86.2298 39.994C86.4538 39.658 86.7478 39.392 87.1118 39.196C87.4852 38.9907 87.9145 38.888 88.3998 38.888C89.4732 38.888 90.2338 39.3033 90.6818 40.134C90.9338 39.7513 91.2698 39.448 91.6898 39.224C92.1192 39 92.5858 38.888 93.0898 38.888C93.9952 38.888 94.6905 39.1587 95.1758 39.7C95.6612 40.2413 95.9038 41.0347 95.9038 42.08V46H94.1118V42.248C94.1118 41.6507 93.9952 41.1933 93.7618 40.876C93.5378 40.5587 93.1878 40.4 92.7118 40.4C92.2265 40.4 91.8345 40.5773 91.5358 40.932C91.2465 41.2867 91.1018 41.7813 91.1018 42.416V46H89.3098V42.248C89.3098 41.6507 89.1932 41.1933 88.9598 40.876C88.7265 40.5587 88.3672 40.4 87.8818 40.4C87.4058 40.4 87.0185 40.5773 86.7198 40.932C86.4305 41.2867 86.2858 41.7813 86.2858 42.416V46H84.4938ZM100.657 46.168C99.9852 46.168 99.3785 46.014 98.8372 45.706C98.3052 45.398 97.8805 44.9733 97.5632 44.432C97.2552 43.8813 97.1012 43.2467 97.1012 42.528C97.1012 41.8093 97.2598 41.1793 97.5772 40.638C97.8945 40.0873 98.3192 39.658 98.8512 39.35C99.3925 39.042 99.9992 38.888 100.671 38.888C101.334 38.888 101.931 39.042 102.463 39.35C103.004 39.658 103.429 40.0873 103.737 40.638C104.054 41.1793 104.213 41.8093 104.213 42.528C104.213 43.2467 104.054 43.8813 103.737 44.432C103.429 44.9733 103.004 45.398 102.463 45.706C101.922 46.014 101.32 46.168 100.657 46.168ZM100.657 44.614C101.124 44.614 101.53 44.4413 101.875 44.096C102.22 43.7413 102.393 43.2187 102.393 42.528C102.393 41.8373 102.22 41.3193 101.875 40.974C101.53 40.6193 101.128 40.442 100.671 40.442C100.195 40.442 99.7845 40.6193 99.4392 40.974C99.1032 41.3193 98.9352 41.8373 98.9352 42.528C98.9352 43.2187 99.1032 43.7413 99.4392 44.096C99.7845 44.4413 100.19 44.614 100.657 44.614ZM105.535 46V39.056H107.131L107.299 40.358C107.551 39.91 107.892 39.5553 108.321 39.294C108.76 39.0233 109.273 38.888 109.861 38.888V40.778H109.357C108.965 40.778 108.615 40.8387 108.307 40.96C107.999 41.0813 107.757 41.2913 107.579 41.59C107.411 41.8887 107.327 42.304 107.327 42.836V46H105.535ZM114.057 46.168C113.357 46.168 112.736 46.0187 112.195 45.72C111.654 45.4213 111.229 45.0013 110.921 44.46C110.613 43.9187 110.459 43.2933 110.459 42.584C110.459 41.8653 110.608 41.226 110.907 40.666C111.215 40.106 111.635 39.672 112.167 39.364C112.708 39.0467 113.343 38.888 114.071 38.888C114.752 38.888 115.354 39.0373 115.877 39.336C116.4 39.6347 116.806 40.0453 117.095 40.568C117.394 41.0813 117.543 41.6553 117.543 42.29C117.543 42.3927 117.538 42.5 117.529 42.612C117.529 42.724 117.524 42.8407 117.515 42.962H112.237C112.274 43.5033 112.461 43.928 112.797 44.236C113.142 44.544 113.558 44.698 114.043 44.698C114.407 44.698 114.71 44.6187 114.953 44.46C115.205 44.292 115.392 44.0773 115.513 43.816H117.333C117.202 44.2547 116.983 44.656 116.675 45.02C116.376 45.3747 116.003 45.6547 115.555 45.86C115.116 46.0653 114.617 46.168 114.057 46.168ZM114.071 40.344C113.632 40.344 113.245 40.47 112.909 40.722C112.573 40.9647 112.358 41.338 112.265 41.842H115.723C115.695 41.3847 115.527 41.0207 115.219 40.75C114.911 40.4793 114.528 40.344 114.071 40.344Z" fill="black"/>
</svg>
