<svg width="210" height="210" viewBox="0 0 210 210" fill="none" xmlns="http://www.w3.org/2000/svg">
<circle cx="108.105" cy="109.157" r="99" transform="rotate(-0.0599873 108.105 109.157)" fill="#181929" stroke="#C4A89E" stroke-width="2"/>
<path d="M47.7444 93.991C49.3904 93.093 50.8209 92.2002 52.0356 91.3128C53.2504 90.4253 54.2529 89.5722 55.043 88.7534C55.8309 87.9152 56.4088 87.1308 56.7766 86.4002C57.1443 85.6696 57.2957 85.0229 57.2307 84.4603C57.2083 84.2662 57.0855 84.0543 56.8624 83.8245C56.6392 83.5947 56.3116 83.3966 55.8795 83.2303C55.4667 83.0617 54.9518 82.9442 54.3347 82.8779C53.7153 82.7922 53.0078 82.7953 52.2123 82.8872C50.0781 83.1338 48.1293 83.6244 46.366 84.3589C44.6005 85.0741 43.0134 85.8867 41.6046 86.7966C40.1958 87.7065 38.9661 88.635 37.9156 89.5821C36.8627 90.5099 35.983 91.3193 35.2764 92.0105C34.834 92.4351 34.4497 92.8531 34.1237 93.2643C33.8148 93.6539 33.5025 94.0144 33.1869 94.3458C32.8885 94.6555 32.5553 94.9201 32.1874 95.1396C31.8196 95.359 31.364 95.5002 30.8208 95.5629C30.0059 95.6571 29.3432 95.537 28.8327 95.2028C28.3416 94.8663 28.0557 94.3488 27.975 93.6503C27.8786 92.8161 28.1064 91.8951 28.6585 90.8876C29.2083 89.8607 30.0115 88.8143 31.0681 87.7485C32.1246 86.6827 33.3904 85.6419 34.8656 84.626C36.3386 83.5907 37.9402 82.6487 39.6707 81.8C41.4205 80.949 43.2528 80.2162 45.1676 79.6018C47.1018 78.9851 49.0584 78.5624 51.0374 78.3337C53.0746 78.0984 54.8496 78.0604 56.3623 78.2199C57.8749 78.3793 59.1305 78.6963 60.1291 79.1708C61.1471 79.643 61.9251 80.2511 62.4633 80.995C63.0208 81.7367 63.3534 82.5732 63.461 83.5045C63.5686 84.4358 63.3703 85.4418 62.866 86.5224C62.3617 87.6031 61.5858 88.7151 60.5382 89.8585C59.51 90.9997 58.2155 92.1323 56.6545 93.2564C55.1107 94.3589 53.3444 95.4084 51.3558 96.4049C53.4909 96.8464 55.2425 97.3714 56.6104 97.9802C57.9956 98.5673 59.0941 99.2268 59.9062 99.9587C60.7354 100.669 61.3265 101.446 61.6796 102.29C62.0305 103.115 62.2586 103.983 62.364 104.895C62.5186 106.234 62.3024 107.595 61.7154 108.981C61.1283 110.366 60.2423 111.717 59.0575 113.033C57.8898 114.328 56.4609 115.575 54.7708 116.773C53.0979 117.949 51.2455 119.018 49.2136 119.98C47.1795 120.923 45.011 121.724 42.7082 122.384C40.4076 123.062 38.0544 123.541 35.6485 123.819C34.7948 123.917 33.9258 123.968 33.0415 123.972C32.1572 123.976 31.3318 123.895 30.5654 123.728C29.8184 123.558 29.1874 123.287 28.6724 122.914C28.1768 122.539 27.8898 122.012 27.8113 121.333C27.8024 121.255 27.7945 121.187 27.7878 121.129C27.7982 121.049 27.8076 120.959 27.8158 120.86C27.8754 120.696 27.9414 120.502 28.0138 120.277C28.0839 120.033 28.2812 119.784 28.6058 119.53C28.9304 119.276 29.4535 119.039 30.1751 118.818C30.9138 118.575 31.9817 118.373 33.3786 118.212C35.2906 113.489 36.8474 109.436 38.0491 106.053C39.2679 102.648 40.291 99.8461 41.1182 97.6467C41.9455 95.4474 42.6609 93.8115 43.2644 92.7391C43.8874 91.6644 44.5481 91.0867 45.2466 91.006C45.557 90.9701 45.8633 90.9839 46.1656 91.0472C46.4678 91.1106 46.7357 91.2173 46.9693 91.3673C47.2201 91.4956 47.428 91.678 47.5929 91.9145C47.7556 92.1317 47.8538 92.3858 47.8874 92.6768C47.7546 92.8887 47.6909 93.1026 47.6961 93.3182C47.6991 93.5145 47.7152 93.7387 47.7444 93.991ZM46.7859 99.7346C46.1415 101.815 45.522 103.685 44.9275 105.346C44.3524 107.005 43.8015 108.534 43.2749 109.932C42.746 111.31 42.2373 112.607 41.7487 113.824C41.2772 115.019 40.8132 116.193 40.3567 117.347C42.5849 116.893 44.6355 116.263 46.5085 115.456C48.3986 114.628 50.0111 113.695 51.346 112.656C52.7003 111.615 53.7221 110.504 54.4115 109.323C55.1202 108.14 55.4051 106.947 55.2661 105.744C55.2034 105.201 55.0111 104.643 54.6894 104.071C54.3871 103.496 53.9101 102.942 53.2586 102.408C52.607 101.874 51.7529 101.373 50.6961 100.905C49.6393 100.437 48.3359 100.047 46.7859 99.7346ZM96.3219 108.58C95.5803 109.649 94.6909 110.715 93.6538 111.779C92.6339 112.821 91.5639 113.77 90.4439 114.627C89.3239 115.484 88.2065 116.193 87.0917 116.754C85.9791 117.335 84.9572 117.679 84.0259 117.787C83.0946 117.894 82.3076 117.72 81.665 117.263C81.0224 116.807 80.6283 115.948 80.4826 114.687C80.3794 113.794 80.4147 112.738 80.5884 111.519C80.1714 112.334 79.6294 113.173 78.9624 114.036C78.2953 114.9 77.5138 115.708 76.6176 116.46C75.7215 117.213 74.6944 117.852 73.5363 118.379C72.3804 118.926 71.0943 119.281 69.678 119.444C69.0377 119.518 68.409 119.522 67.7918 119.456C67.1941 119.387 66.653 119.214 66.1686 118.936C65.6843 118.657 65.2749 118.262 64.9405 117.75C64.6039 117.219 64.3873 116.536 64.2909 115.702C64.2887 115.683 64.2939 115.387 64.3065 114.816C64.3168 114.224 64.4551 113.294 64.7213 112.025C65.0047 110.734 65.4698 109.058 66.1164 106.998C66.7631 104.937 67.7205 102.418 68.9887 99.4402C69.311 98.6558 69.7161 98.0782 70.2041 97.7072C70.7092 97.3146 71.2723 97.0824 71.8931 97.0107C72.1648 96.9793 72.4506 96.9856 72.7506 97.0296C73.0483 97.0542 73.3323 97.1295 73.6024 97.2556C73.8704 97.3622 74.0954 97.523 74.2775 97.7379C74.4574 97.9334 74.5641 98.1767 74.5978 98.4677C74.6202 98.6617 74.6124 98.8494 74.5743 99.0308C74.5154 99.3718 74.3525 99.833 74.0854 100.414C73.8355 100.974 73.5374 101.628 73.1913 102.376C72.8429 103.104 72.4721 103.894 72.079 104.746C71.7053 105.595 71.364 106.47 71.0552 107.371C70.7464 108.271 70.498 109.185 70.3101 110.111C70.1199 111.018 70.0537 111.89 70.1112 112.729C70.1516 113.078 70.2856 113.387 70.5132 113.656C70.7409 113.925 71.0778 114.033 71.5241 113.982C72.7852 113.836 73.9478 113.348 75.0118 112.517C76.0759 111.686 77.0335 110.701 77.8848 109.56C78.7339 108.4 79.4781 107.184 80.1174 105.911C80.7739 104.616 81.3069 103.443 81.7165 102.393C82.0089 101.691 82.2472 100.946 82.4314 100.158C82.635 99.3676 82.8647 98.6332 83.1206 97.9548C83.3765 97.2765 83.6932 96.6992 84.0707 96.223C84.4482 95.7469 84.9571 95.4718 85.5974 95.3978C86.2959 95.3171 86.8746 95.4763 87.3336 95.8755C87.7926 96.2747 88.058 96.7847 88.1297 97.4056C88.1701 97.7548 88.0903 98.2556 87.8904 98.9078C87.7077 99.5384 87.4585 100.275 87.143 101.118C86.8446 101.938 86.5142 102.822 86.1517 103.768C85.7891 104.715 85.4579 105.677 85.1581 106.655C84.8754 107.612 84.6498 108.552 84.4813 109.476C84.3299 110.379 84.298 111.208 84.3854 111.965C84.4661 112.663 84.9333 112.963 85.787 112.865C86.3885 112.795 87.1153 112.534 87.9674 112.082C88.8196 111.629 89.6948 111.037 90.5932 110.304C91.5088 109.549 92.4023 108.689 93.2737 107.723C94.1646 106.755 94.9312 105.733 95.5736 104.656L96.3219 108.58ZM101.335 97.8558C102.038 97.3027 102.765 96.7862 103.515 96.3062C104.285 95.824 105.033 95.4034 105.758 95.0443C106.481 94.6659 107.174 94.3598 107.835 94.1261C108.513 93.8708 109.124 93.7118 109.667 93.649C110.54 93.5481 111.234 93.6842 111.749 94.0573C112.281 94.4087 112.605 95.0791 112.719 96.0686C112.744 96.282 112.761 96.516 112.77 96.7705C112.778 97.0055 112.768 97.2622 112.741 97.5406C112.703 98.0563 112.48 98.6817 112.073 99.4168C111.667 100.152 111.176 100.926 110.602 101.74C110.047 102.551 109.435 103.379 108.765 104.223C108.113 105.045 107.504 105.814 106.938 106.528C106.389 107.22 105.928 107.824 105.554 108.339C105.201 108.852 105.034 109.196 105.054 109.37C105.072 109.525 105.094 109.631 105.12 109.687C105.147 109.743 105.237 109.762 105.392 109.744C106.389 109.177 107.491 108.509 108.7 107.74C109.926 106.949 111.141 106.15 112.345 105.343C113.55 104.535 114.688 103.755 115.761 103.002C116.832 102.229 117.738 101.564 118.48 101.006C118.643 100.889 118.809 100.791 118.977 100.713C119.162 100.613 119.332 100.554 119.487 100.536C119.837 100.496 120.141 100.579 120.401 100.784C120.66 100.99 120.813 101.287 120.858 101.675C120.909 102.122 120.775 102.658 120.454 103.285C120.15 103.89 119.588 104.555 118.767 105.279C118.137 105.784 117.427 106.358 116.636 107C115.862 107.62 115.043 108.275 114.179 108.965C113.332 109.633 112.465 110.293 111.577 110.946C110.709 111.597 109.862 112.187 109.039 112.714C108.215 113.242 107.431 113.687 106.686 114.048C105.958 114.388 105.313 114.59 104.751 114.655C103.412 114.81 102.366 114.606 101.613 114.044C100.879 113.48 100.454 112.694 100.338 111.685C100.32 111.529 100.316 111.412 100.326 111.332C100.364 110.463 100.52 109.609 100.797 108.771C101.074 107.933 101.404 107.128 101.786 106.356C102.169 105.585 102.576 104.849 103.006 104.151C103.434 103.433 103.82 102.769 104.162 102.159C104.522 101.528 104.809 100.954 105.025 100.438C105.241 99.9212 105.325 99.4592 105.278 99.0518C105.266 98.9548 105.236 98.86 105.186 98.7675C105.136 98.6749 105.043 98.6365 104.907 98.6522C104.674 98.6791 104.296 98.8113 103.773 99.0487C103.27 99.2838 102.734 99.5816 102.166 99.9422C101.598 100.303 101.065 100.708 100.567 101.159C100.066 101.591 99.7238 102.033 99.5403 102.487C99.2926 103.066 99.0133 103.796 98.7022 104.678C98.3912 105.559 98.0652 106.481 97.7243 107.445C97.4028 108.406 97.0899 109.357 96.7856 110.296C96.4813 111.236 96.2206 112.042 96.0035 112.716C95.8357 113.306 95.5836 113.846 95.2471 114.337C94.93 114.826 94.5663 115.252 94.1559 115.614C93.7455 115.976 93.3176 116.271 92.8721 116.499C92.4266 116.728 92.0099 116.864 91.6218 116.909C91.1756 116.961 90.8032 116.886 90.5046 116.684C90.2255 116.481 90.0557 116.117 89.9952 115.593C89.9705 115.379 89.9693 115.114 89.9917 114.797C90.0312 114.458 90.1352 114.082 90.3038 113.67C90.5768 112.97 90.8431 112.212 91.1027 111.395C91.3817 110.576 91.6968 109.645 92.0481 108.602C92.3972 107.539 92.7985 106.333 93.252 104.983C93.7227 103.611 94.2777 102.033 94.9169 100.249C94.6184 100.047 94.3531 99.793 94.121 99.4856C93.906 99.1565 93.7694 98.7398 93.7111 98.2353C93.6573 97.7696 93.7083 97.3607 93.8642 97.0084C94.0179 96.6368 94.2473 96.3252 94.5525 96.0737C94.8577 95.8221 95.2181 95.6232 95.6337 95.4769C96.0665 95.3089 96.5255 95.1969 97.0105 95.1408C97.515 95.0825 98.025 95.0728 98.5407 95.1115C99.0541 95.1308 99.5149 95.2054 99.9232 95.3352C100.351 95.4627 100.705 95.638 100.987 95.8611C101.268 96.0842 101.428 96.3606 101.466 96.6905C101.473 96.7487 101.462 96.8285 101.435 96.93C101.407 97.0315 101.371 97.1438 101.326 97.267C101.301 97.3879 101.274 97.4991 101.247 97.6006C101.219 97.7021 101.209 97.7819 101.215 97.8401C101.22 97.8789 101.232 97.8972 101.251 97.895L101.28 97.8916L101.335 97.8558ZM121.619 104.183C121.457 104.654 121.304 105.202 121.16 105.828C121.034 106.433 120.997 106.968 121.051 107.433C121.085 107.725 121.17 107.951 121.306 108.112C121.443 108.273 121.676 108.334 122.006 108.296C122.413 108.249 122.904 108.075 123.479 107.772C124.071 107.448 124.693 107.052 125.347 106.583C126.018 106.093 126.702 105.552 127.401 104.96C128.116 104.346 128.821 103.724 129.515 103.093C130.207 102.443 130.861 101.807 131.477 101.186C132.11 100.542 132.672 99.9565 133.161 99.4281C133.301 99.2743 133.474 99.156 133.681 99.0732C133.887 98.9903 134.068 98.9399 134.224 98.922C134.612 98.8771 134.948 98.976 135.231 99.2185C135.515 99.4609 135.682 99.8053 135.734 100.252C135.781 100.659 135.698 101.131 135.484 101.666C135.271 102.202 134.853 102.752 134.23 103.316C133.12 104.604 131.995 105.835 130.852 107.009C129.71 108.183 128.554 109.241 127.385 110.182C126.233 111.101 125.063 111.866 123.875 112.475C122.706 113.082 121.54 113.452 120.376 113.587C119.58 113.679 118.899 113.649 118.331 113.499C117.782 113.346 117.322 113.104 116.949 112.774C116.596 112.441 116.323 112.03 116.129 111.541C115.935 111.052 115.805 110.527 115.74 109.964C115.63 109.013 115.654 108.028 115.811 107.007C115.986 105.964 116.219 105.003 116.51 104.124C117.015 102.532 117.53 100.949 118.055 99.3744C118.581 97.7998 119.064 96.3579 119.502 95.049L126.152 75.2585C126.413 74.4614 126.817 73.8741 127.364 73.4964C127.929 73.1165 128.513 72.8918 129.114 72.8223C129.716 72.7528 130.278 72.8549 130.801 73.1287C131.344 73.4003 131.658 73.9047 131.743 74.642C131.783 74.9912 131.738 75.3699 131.609 75.7782C131.498 76.1841 131.343 76.6248 131.142 77.1002C130.762 78.0682 130.309 79.251 129.783 80.6488C129.275 82.0444 128.723 83.5631 128.127 85.205C127.549 86.8446 126.951 88.5554 126.331 90.3376C125.728 92.0981 125.131 93.8186 124.538 95.4993C123.965 97.1777 123.422 98.774 122.909 100.288C122.413 101.781 121.983 103.079 121.619 104.183ZM143.104 92.8234C143.005 92.8152 142.916 92.8156 142.839 92.8245C142.761 92.8335 142.674 92.8436 142.577 92.8548C141.839 92.94 141.167 93.1651 140.561 93.5301C139.954 93.8951 139.407 94.3515 138.92 94.8993C138.45 95.4255 138.036 96.014 137.679 96.6648C137.341 97.3133 137.042 97.9574 136.781 98.597C136.519 99.2171 136.302 99.8123 136.132 100.382C135.982 100.95 135.869 101.425 135.796 101.807C136.434 101.38 137.087 100.901 137.753 100.372C138.439 99.8407 139.078 99.3343 139.672 98.8529C140.265 98.3714 140.775 97.9389 141.203 97.5553C141.65 97.1694 141.963 96.907 142.144 96.7682C142.954 96.1241 143.498 95.5501 143.774 95.0463C144.047 94.5232 144.164 94.087 144.124 93.7377C144.09 93.4467 143.966 93.2251 143.752 93.0729C143.557 92.9184 143.341 92.8353 143.104 92.8234ZM143.688 88.6861C145.298 88.5 146.546 88.7491 147.431 89.4332C148.316 90.1174 148.838 91.1483 148.997 92.5258C149.091 93.3407 148.977 94.2191 148.653 95.1609C148.329 96.1027 147.697 97.0998 146.757 98.1522C145.815 99.1851 144.517 100.289 142.863 101.463C141.227 102.615 139.146 103.829 136.619 105.104C136.781 105.655 137.133 106.067 137.676 106.338C138.216 106.591 138.903 106.668 139.738 106.572C140.63 106.469 141.566 106.233 142.546 105.864C143.543 105.474 144.513 105.018 145.455 104.496C146.417 103.972 147.346 103.422 148.243 102.847C149.138 102.252 149.939 101.697 150.646 101.183C151.373 100.666 151.971 100.224 152.439 99.855C152.927 99.484 153.254 99.2496 153.42 99.1519C153.581 99.0153 153.728 98.9294 153.862 98.8943C154.015 98.857 154.15 98.8316 154.266 98.8182C154.499 98.7912 154.7 98.827 154.868 98.9255C155.035 99.0046 155.175 99.1161 155.29 99.2601C155.422 99.3825 155.518 99.5288 155.577 99.6989C155.634 99.8496 155.669 99.9832 155.682 100.1C155.702 100.274 155.708 100.49 155.698 100.747C155.686 100.984 155.572 101.272 155.356 101.612C155.27 101.72 154.97 102.02 154.457 102.512C153.963 103.002 153.313 103.588 152.507 104.271C151.701 104.954 150.754 105.692 149.667 106.487C148.596 107.259 147.442 107.992 146.205 108.686C144.987 109.377 143.7 109.978 142.343 110.488C140.989 111.018 139.633 111.362 138.274 111.519C137.11 111.653 136.046 111.55 135.083 111.209C134.139 110.866 133.303 110.353 132.575 109.67C131.867 108.986 131.291 108.167 130.847 107.216C130.402 106.265 130.118 105.246 129.992 104.159C129.896 103.325 129.955 102.394 130.171 101.366C130.384 100.319 130.743 99.2553 131.247 98.1747C131.751 97.094 132.395 96.0268 133.178 94.973C133.977 93.8975 134.897 92.9261 135.937 92.0588C136.978 91.1915 138.141 90.4574 139.428 89.8565C140.735 89.2533 142.155 88.8632 143.688 88.6861ZM160.016 91.6656C161.272 92.1497 162.411 92.7357 163.434 93.4236C164.457 94.1115 165.341 94.8647 166.084 95.6832C166.844 96.4801 167.442 97.3154 167.878 98.1892C168.332 99.0608 168.61 99.9331 168.711 100.806C168.839 101.912 168.634 102.948 168.097 103.915C167.577 104.86 166.838 105.702 165.882 106.442C164.942 107.16 163.831 107.75 162.548 108.213C161.286 108.693 159.985 109.01 158.647 109.165C157.638 109.282 156.644 109.278 155.667 109.155C154.691 109.052 153.779 108.813 152.93 108.439C152.1 108.063 151.362 107.549 150.717 106.896C150.069 106.224 149.57 105.397 149.221 104.415C149.164 104.264 149.13 104.14 149.119 104.043C149.058 103.519 149.191 103.052 149.517 102.64C149.841 102.21 150.226 101.969 150.672 101.917C150.886 101.892 151.123 101.904 151.384 101.953C151.665 101.999 151.889 102.15 152.056 102.406C152.362 102.843 152.759 103.219 153.248 103.536C153.756 103.851 154.308 104.112 154.902 104.319C155.493 104.506 156.109 104.641 156.747 104.725C157.403 104.787 158.032 104.783 158.634 104.713C159.255 104.641 159.84 104.515 160.389 104.333C160.957 104.15 161.441 103.907 161.838 103.606C162.255 103.302 162.568 102.941 162.775 102.524C162.982 102.107 163.054 101.617 162.989 101.054C162.874 100.065 162.546 99.1788 162.003 98.3961C161.46 97.6133 160.79 96.9142 159.991 96.2987C159.21 95.6615 158.328 95.0949 157.347 94.5987C156.383 94.081 155.422 93.5924 154.464 93.1328C154.361 93.0858 154.196 92.9377 153.971 92.6885C153.743 92.4199 153.612 92.1401 153.579 91.849C153.552 91.6162 153.589 91.4251 153.69 91.2759C153.953 90.8326 154.264 90.374 154.622 89.9C154.98 89.4261 155.372 88.9876 155.797 88.5846C156.22 88.1621 156.691 87.8128 157.209 87.5366C157.726 87.241 158.275 87.0596 158.857 86.9924C159.284 86.943 159.688 86.9553 160.07 87.0291C160.453 87.1029 160.781 87.2223 161.056 87.3872C161.328 87.5326 161.546 87.7139 161.708 87.9311C161.888 88.1266 161.989 88.3213 162.012 88.5153C162.043 88.787 162.005 89.0567 161.899 89.3247C161.792 89.5926 161.636 89.8564 161.43 90.1161C161.243 90.3736 161.018 90.6356 160.754 90.902C160.509 91.1663 160.263 91.4208 160.016 91.6656ZM177.827 89.6077C179.083 90.0918 180.222 90.6778 181.245 91.3657C182.268 92.0536 183.152 92.8068 183.895 93.6253C184.656 94.4222 185.254 95.2575 185.689 96.1313C186.143 97.0029 186.421 97.8752 186.522 98.7483C186.65 99.8542 186.445 100.89 185.908 101.857C185.388 102.802 184.65 103.644 183.693 104.384C182.754 105.102 181.642 105.692 180.359 106.155C179.097 106.635 177.797 106.952 176.458 107.107C175.449 107.224 174.456 107.22 173.478 107.097C172.503 106.994 171.59 106.755 170.741 106.381C169.911 106.006 169.173 105.491 168.528 104.838C167.88 104.166 167.381 103.339 167.032 102.357C166.975 102.206 166.941 102.082 166.93 101.985C166.87 101.461 167.002 100.994 167.328 100.583C167.652 100.152 168.037 99.9108 168.483 99.8592C168.697 99.8346 168.934 99.8465 169.195 99.8949C169.476 99.9412 169.7 100.092 169.867 100.348C170.173 100.785 170.57 101.161 171.059 101.479C171.568 101.793 172.119 102.054 172.713 102.261C173.305 102.448 173.92 102.583 174.559 102.667C175.215 102.729 175.843 102.725 176.445 102.655C177.066 102.584 177.651 102.457 178.2 102.276C178.769 102.092 179.252 101.849 179.649 101.548C180.067 101.244 180.379 100.883 180.586 100.466C180.794 100.049 180.865 99.5592 180.8 98.9965C180.685 98.007 180.357 97.1209 179.814 96.3382C179.272 95.5554 178.601 94.8563 177.802 94.2408C177.021 93.6036 176.14 93.0369 175.158 92.5408C174.194 92.0231 173.233 91.5344 172.276 91.0749C172.172 91.0279 172.007 90.8798 171.782 90.6306C171.554 90.362 171.424 90.0821 171.39 89.7911C171.363 89.5583 171.4 89.3672 171.501 89.218C171.764 88.7747 172.075 88.316 172.433 87.8421C172.791 87.3682 173.183 86.9297 173.608 86.5267C174.031 86.1042 174.502 85.7549 175.021 85.4787C175.537 85.1831 176.086 85.0017 176.668 84.9344C177.095 84.8851 177.5 84.8974 177.882 84.9712C178.264 85.045 178.592 85.1644 178.867 85.3293C179.139 85.4747 179.357 85.656 179.519 85.8732C179.699 86.0687 179.8 86.2634 179.823 86.4574C179.854 86.7291 179.817 86.9988 179.71 87.2668C179.603 87.5347 179.447 87.7985 179.241 88.0582C179.055 88.3157 178.829 88.5777 178.565 88.8441C178.32 89.1083 178.074 89.3629 177.827 89.6077Z" fill="#C4A89E"/>
<line x1="25.2279" y1="126.719" x2="192.132" y2="106.921" stroke="#C4A89E" stroke-width="3"/>
<path d="M83.5476 140.706L87.3841 140.246L86.1702 130.119L84.1804 130.357L81.703 131.367L81.8558 132.642L82.6236 132.997L83.5476 140.706ZM83.9299 129.275L84.3827 129.221L86.1844 127.011L86.1345 126.594L83.8628 124.884L83.4101 124.938L81.6903 127.126L81.7403 127.543L83.9299 129.275ZM92.1914 139.924C95.2654 139.555 96.6558 138.148 96.3626 135.701C96.2616 134.859 95.9669 134.182 95.4783 133.668C94.9897 133.155 94.2622 132.799 93.2957 132.6C93.1232 132.573 92.9184 132.545 92.6814 132.517C92.4434 132.481 92.259 132.455 92.1281 132.438C91.9963 132.414 91.8595 132.382 91.7178 132.342C91.5831 132.294 91.4832 132.233 91.418 132.161C91.352 132.08 91.3113 131.976 91.2961 131.849C91.2428 131.404 91.5934 131.136 92.348 131.046C93.2694 130.935 94.0232 131.107 94.6093 131.56L94.9293 129.794C94.9293 129.794 94.8498 129.735 94.6906 129.617C93.9872 129.194 92.9564 129.063 91.5981 129.226C90.8038 129.321 90.0988 129.523 89.483 129.83C88.8672 130.138 88.3837 130.574 88.0326 131.14C87.6804 131.698 87.5472 132.334 87.6329 133.049C87.8424 134.797 88.9058 135.838 90.8232 136.172C91.5638 136.301 92.1029 136.429 92.4407 136.558C92.7774 136.679 92.9582 136.843 92.9829 137.049C93.0087 137.263 92.9373 137.441 92.7689 137.582C92.6084 137.722 92.2899 137.821 91.8133 137.878C91.154 137.957 90.4952 137.939 89.8369 137.825C89.1866 137.71 88.7106 137.537 88.4092 137.307L88.3293 139.263C88.5723 139.475 89.0904 139.663 89.8834 139.826C90.6754 139.98 91.4448 140.013 92.1914 139.924ZM106.42 137.964L105.587 131.018C105.601 131 105.626 130.973 105.662 130.937C105.705 130.891 105.734 130.86 105.748 130.842C105.769 130.823 105.798 130.795 105.834 130.759C105.877 130.713 105.91 130.681 105.932 130.663C105.953 130.644 105.983 130.62 106.02 130.592C106.056 130.555 106.089 130.531 106.12 130.519C106.15 130.5 106.184 130.479 106.221 130.459C106.266 130.429 106.304 130.409 106.335 130.397C106.374 130.384 106.412 130.371 106.451 130.359C106.498 130.345 106.545 130.335 106.593 130.33C107.252 130.251 107.614 130.586 107.68 131.335L108.446 137.722L112.377 137.25L111.695 131.555C111.641 131.11 111.58 130.699 111.51 130.32C111.862 129.891 112.153 129.663 112.383 129.636C112.725 129.595 112.991 129.663 113.181 129.842C113.372 130.021 113.488 130.285 113.53 130.634L114.296 137.02L118.168 136.556L117.444 130.516C117.309 129.388 117.109 128.525 116.844 127.929C116.579 127.332 116.221 126.932 115.769 126.728C115.325 126.515 114.729 126.454 113.983 126.543C113.307 126.624 112.713 126.905 112.198 127.386C111.691 127.857 111.33 128.344 111.116 128.845C110.859 128.183 110.503 127.726 110.045 127.474C109.588 127.223 108.962 127.145 108.168 127.24C107.858 127.277 107.552 127.378 107.25 127.544C106.954 127.7 106.704 127.867 106.5 128.044C106.304 128.221 106.114 128.421 105.931 128.644C105.749 128.868 105.623 129.032 105.555 129.137C105.494 129.233 105.447 129.311 105.414 129.371L105.23 127.834L103.204 128.077L100.727 129.087L100.88 130.362L101.648 130.717L102.572 138.426L106.42 137.964ZM124.324 134.622C123.593 134.709 123.138 134.003 122.958 132.501L122.494 128.629C122.433 128.121 122.481 127.716 122.638 127.415C122.796 127.114 123.045 126.944 123.387 126.903C124.117 126.815 124.576 127.546 124.761 129.095L125.213 132.86C125.274 133.368 125.226 133.781 125.071 134.097C124.922 134.405 124.674 134.58 124.324 134.622ZM124.4 136.063C126.283 135.837 127.608 135.235 128.377 134.257C129.154 133.277 129.433 131.874 129.214 130.047C129.003 128.284 128.428 127.019 127.491 126.254C126.56 125.479 125.161 125.203 123.294 125.427C121.38 125.657 120.053 126.279 119.312 127.294C118.571 128.302 118.308 129.703 118.523 131.498C118.74 133.309 119.319 134.577 120.26 135.302C121.201 136.028 122.581 136.281 124.4 136.063ZM134.973 134.542L134.321 129.097C134.5 128.64 134.994 128.364 135.804 128.266C136.368 128.199 136.743 128.23 136.928 128.361L136.824 124.071C136.601 124.025 136.391 124.014 136.192 124.038C134.429 124.25 133.501 125.348 133.408 127.333L132.723 124.539L131.758 124.654L129.272 125.593L129.433 126.939L130.201 127.294L131.125 135.003L134.973 134.542ZM143.59 127.261L141.779 127.478L141.659 126.477C141.625 126.191 141.605 125.956 141.599 125.771C141.6 125.578 141.626 125.389 141.676 125.206C141.726 125.015 141.821 124.87 141.963 124.773C142.103 124.667 142.292 124.6 142.531 124.572C142.809 124.538 143.025 124.726 143.178 125.135C143.332 125.543 143.469 126.252 143.59 127.261ZM143.405 133.785C143.882 133.728 144.376 133.612 144.887 133.438C145.398 133.264 145.916 132.985 146.442 132.599C146.975 132.205 147.36 131.752 147.596 131.24L146.749 130.121C146.552 130.354 146.295 130.566 145.979 130.757C145.672 130.947 145.359 131.097 145.042 131.208C144.733 131.318 144.44 131.389 144.162 131.422C143.876 131.457 143.631 131.462 143.426 131.438C143.222 131.414 143.016 131.342 142.808 131.222C142.6 131.102 142.427 130.897 142.287 130.608C142.156 130.317 142.062 129.938 142.006 129.469L141.979 129.243L147.424 128.59L147.265 127.267C147.07 125.639 146.591 124.5 145.828 123.85C145.065 123.192 143.9 122.957 142.336 123.145C140.707 123.34 139.495 123.949 138.699 124.971C137.903 125.993 137.612 127.393 137.825 129.172C137.914 129.919 138.083 130.588 138.331 131.178C138.578 131.761 138.918 132.272 139.349 132.712C139.788 133.151 140.35 133.466 141.034 133.658C141.725 133.849 142.516 133.892 143.405 133.785Z" fill="#C4A89E"/>
</svg>
