<svg width="189" height="195" viewBox="0 0 189 195" fill="none" xmlns="http://www.w3.org/2000/svg">
<path d="M132.016 164.645C118.35 172.508 102.526 172.483 86.3758 172.061C84.878 172.022 83.3802 171.991 81.8847 171.961C74.9522 171.818 68.068 171.676 61.4602 170.713C53.4706 169.549 46.0896 167.205 39.8369 162.334C26.82 152.193 19.6991 135.384 16.8993 118.116C14.2708 101.905 18.7103 85.5685 25.0857 69.831C31.4301 54.1696 39.4799 39.3949 52.5557 30.0434C66.1316 20.3342 82.6019 15.2858 98.6348 16.9913C114.144 18.6411 127.324 28.3227 139.395 39.3957C151.091 50.1248 160.782 62.7216 165.114 78.0989C169.675 94.288 170.291 111.753 164.292 127.412C158.225 143.251 146.419 156.359 132.016 164.645Z" stroke="#FCC232" stroke-width="4"/>
</svg>
