<svg width="12" height="12" viewBox="0 0 12 12" fill="none" xmlns="http://www.w3.org/2000/svg">
<path d="M7.09938 5.99996L11.7719 1.32726C12.076 1.02332 12.076 0.531894 11.7719 0.227955C11.468 -0.0759849 10.9766 -0.0759849 10.6726 0.227955L5.99993 4.90065L1.32737 0.227955C1.02329 -0.0759849 0.532001 -0.0759849 0.228062 0.227955C-0.0760205 0.531894 -0.0760205 1.02332 0.228062 1.32726L4.90062 5.99996L0.228062 10.6727C-0.0760205 10.9766 -0.0760205 11.468 0.228062 11.772C0.379533 11.9236 0.578696 11.9997 0.777716 11.9997C0.976736 11.9997 1.17576 11.9236 1.32737 11.772L5.99993 7.09927L10.6726 11.772C10.8242 11.9236 11.0233 11.9997 11.2223 11.9997C11.4213 11.9997 11.6203 11.9236 11.7719 11.772C12.076 11.468 12.076 10.9766 11.7719 10.6727L7.09938 5.99996Z" fill="black"/>
</svg>
