<svg width="467" height="411" viewBox="0 0 467 411" fill="none" xmlns="http://www.w3.org/2000/svg">
<path d="M7.60182 246.964C7.60182 246.964 18.5018 325.664 89.8018 370.464C161.102 415.264 252.602 408.064 326.802 404.164C401.002 400.264 453.202 351.664 455.002 287.264C456.802 222.964 398.502 211.064 360.302 142.664C322.102 74.2635 322.302 50.2635 252.902 13.6635C183.602 -22.8365 85.3018 16.5635 40.4018 98.8635C-4.59818 181.164 7.60182 246.964 7.60182 246.964Z" fill="#F5F0E9"/>
<path d="M316.302 23.2637C308.402 32.2637 303.602 44.0637 303.602 56.9637H342.802L316.302 23.2637Z" stroke="#263238" stroke-miterlimit="10" stroke-linecap="round" stroke-linejoin="round"/>
<path d="M389.502 19.2637L363.702 56.9637H406.102C406.102 42.0637 399.702 28.5637 389.502 19.2637Z" stroke="#263238" stroke-miterlimit="10" stroke-linecap="round" stroke-linejoin="round"/>
<path d="M319.102 20.2636L347.802 56.9636H351.202V5.86365C338.702 6.76365 327.502 12.0636 319.102 20.2636Z" stroke="#263238" stroke-miterlimit="10" stroke-linecap="round" stroke-linejoin="round"/>
<path d="M348.602 199.164H302.602V256.664H348.602V199.164Z" stroke="#263238" stroke-miterlimit="10" stroke-linecap="round" stroke-linejoin="round"/>
<path d="M355.202 5.76367V56.9637H358.902L386.502 16.6637C377.802 9.86367 367.002 5.76367 355.202 5.76367Z" stroke="#263238" stroke-miterlimit="10" stroke-linecap="round" stroke-linejoin="round"/>
<path d="M406.102 65.2637H360.102V122.764H406.102V65.2637Z" stroke="#263238" stroke-miterlimit="10" stroke-linecap="round" stroke-linejoin="round"/>
<path d="M348.602 132.164H302.602V189.664H348.602V132.164Z" stroke="#263238" stroke-miterlimit="10" stroke-linecap="round" stroke-linejoin="round"/>
<path d="M406.102 132.164H360.102V189.664H406.102V132.164Z" stroke="#263238" stroke-miterlimit="10" stroke-linecap="round" stroke-linejoin="round"/>
<path d="M406.102 199.164H360.102V256.664H406.102V199.164Z" stroke="#263238" stroke-miterlimit="10" stroke-linecap="round" stroke-linejoin="round"/>
<path d="M348.602 65.2637H302.602V122.764H348.602V65.2637Z" stroke="#263238" stroke-miterlimit="10" stroke-linecap="round" stroke-linejoin="round"/>
<path d="M233.1 410.263C361.838 410.263 466.2 391.862 466.2 369.163C466.2 346.465 361.838 328.063 233.1 328.063C104.362 328.063 0 346.465 0 369.163C0 391.862 104.362 410.263 233.1 410.263Z" fill="#E7DED2"/>
<path d="M428.899 153.763C428.899 153.763 428.899 149.063 422.299 142.463C415.699 135.863 411.399 132.063 411.399 132.063C411.399 132.063 408.099 142.963 414.199 149.563C420.299 156.163 428.799 162.263 428.799 162.263V153.763H428.899Z" fill="#FCC232"/>
<path d="M419.299 183.263C419.299 183.263 419.299 178.563 412.699 171.963C406.099 165.363 401.799 161.563 401.799 161.563C401.799 161.563 398.499 172.463 404.599 179.063C410.699 185.663 419.199 191.763 419.199 191.763V183.263H419.299Z" fill="#FCC232"/>
<path d="M428.399 161.764C428.399 161.764 428.899 157.064 436.199 151.164C443.499 145.264 448.099 141.964 448.099 141.964C448.099 141.964 450.199 153.064 443.399 159.064C436.599 164.964 427.499 170.164 427.499 170.164L428.399 161.764Z" fill="#FCC232"/>
<path d="M416.899 196.564C416.899 196.564 417.899 191.964 425.699 186.864C433.499 181.764 438.499 178.964 438.499 178.964C438.499 178.964 439.499 190.264 432.099 195.464C424.699 200.664 415.099 204.864 415.099 204.864L416.899 196.564Z" fill="#FCC232"/>
<path d="M418.999 234.564C418.999 234.564 418.999 229.864 425.599 223.264C432.199 216.664 436.499 212.864 436.499 212.864C436.499 212.864 439.799 223.764 433.699 230.364C427.499 236.864 418.999 243.064 418.999 243.064V234.564Z" fill="#FCC232"/>
<path d="M418.899 243.764C418.899 243.764 419.599 239.064 413.999 231.664C408.399 224.164 404.699 219.864 404.699 219.864C404.699 219.864 399.899 230.164 404.999 237.564C410.099 244.964 417.699 252.264 417.699 252.264L418.899 243.764Z" fill="#FCC232"/>
<path d="M412.399 271.263C412.399 271.263 412.399 266.563 418.999 259.963C425.599 253.363 429.899 249.563 429.899 249.563C429.899 249.563 433.199 260.463 427.099 267.063C420.999 273.663 412.499 279.763 412.499 279.763V271.263H412.399Z" fill="#FCC232"/>
<path d="M416.799 296.163C416.799 296.163 415.599 291.563 420.299 283.563C424.999 275.463 428.199 270.763 428.199 270.763C428.199 270.763 434.099 280.463 429.899 288.363C425.599 296.263 418.999 304.363 418.999 304.363L416.799 296.163Z" fill="#FCC232"/>
<path d="M429.499 152.563C429.099 157.563 428.499 162.863 427.699 167.163C425.099 180.663 418.599 189.363 415.999 201.563C413.399 213.763 420.899 229.463 418.899 245.063C416.899 260.663 410.799 269.463 412.499 279.863C414.199 290.263 423.399 318.563 423.399 318.563" stroke="#263238" stroke-width="0.5" stroke-miterlimit="10" stroke-linecap="round" stroke-linejoin="round"/>
<path d="M428.399 164.964L435.499 159.464" stroke="#263238" stroke-width="0.5" stroke-miterlimit="10" stroke-linecap="round" stroke-linejoin="round"/>
<path d="M428.699 158.664L425.699 153.364" stroke="#263238" stroke-width="0.5" stroke-miterlimit="10" stroke-linecap="round" stroke-linejoin="round"/>
<path d="M416.299 201.063C416.299 201.063 422.299 196.563 428.399 192.163" stroke="#263238" stroke-width="0.5" stroke-miterlimit="10" stroke-linecap="round" stroke-linejoin="round"/>
<path d="M419.299 191.763C419.299 191.763 414.299 182.063 408.699 175.563" stroke="#263238" stroke-width="0.5" stroke-miterlimit="10" stroke-linecap="round" stroke-linejoin="round"/>
<path d="M419.299 241.263C419.299 241.263 423.899 232.163 431.999 224.263" stroke="#263238" stroke-width="0.5" stroke-miterlimit="10" stroke-linecap="round" stroke-linejoin="round"/>
<path d="M418.099 247.864C418.099 247.864 415.099 240.764 411.599 235.664C408.099 230.564 407.599 229.864 407.599 229.864" stroke="#263238" stroke-width="0.5" stroke-miterlimit="10" stroke-linecap="round" stroke-linejoin="round"/>
<path d="M412.399 279.864C412.399 279.864 414.799 273.764 417.799 268.964C420.799 264.164 424.799 259.864 424.799 259.864" stroke="#263238" stroke-width="0.5" stroke-miterlimit="10" stroke-linecap="round" stroke-linejoin="round"/>
<path d="M418.999 304.364C418.999 304.364 418.299 298.764 420.799 293.964C423.299 289.164 426.099 282.864 427.299 280.364" stroke="#263238" stroke-width="0.5" stroke-miterlimit="10" stroke-linecap="round" stroke-linejoin="round"/>
<path d="M385.599 216.763C385.599 216.763 385.099 213.763 388.499 208.963C391.899 204.063 394.199 201.263 394.199 201.263C394.199 201.263 397.399 207.663 394.299 212.563C391.199 217.363 386.499 222.163 386.499 222.163L385.599 216.763Z" fill="#FCC232"/>
<path d="M394.799 234.263C394.799 234.263 394.299 231.263 397.699 226.463C401.099 221.563 403.399 218.763 403.399 218.763C403.399 218.763 406.599 225.163 403.499 230.063C400.399 234.863 395.699 239.663 395.699 239.663L394.799 234.263Z" fill="#FCC232"/>
<path d="M386.699 221.764C386.699 221.764 385.899 218.864 380.699 215.964C375.499 213.064 372.199 211.464 372.199 211.464C372.199 211.464 372.099 218.664 376.999 221.664C381.899 224.664 388.199 226.864 388.199 226.864L386.699 221.764Z" fill="#FCC232"/>
<path d="M397.799 242.363C397.799 242.363 396.699 239.563 391.199 237.263C385.699 234.963 382.299 233.663 382.299 233.663C382.299 233.663 382.899 240.863 388.099 243.263C393.299 245.663 399.799 247.263 399.799 247.263L397.799 242.363Z" fill="#FCC232"/>
<path d="M400.499 266.363C400.499 266.363 399.999 263.363 395.099 259.963C390.199 256.563 387.199 254.663 387.199 254.663C387.199 254.663 386.299 261.863 390.899 265.263C395.499 268.763 401.499 271.663 401.499 271.663L400.499 266.363Z" fill="#FCC232"/>
<path d="M401.599 272.163C401.599 272.163 400.699 269.263 403.399 263.963C406.099 258.663 407.899 255.563 407.899 255.563C407.899 255.563 411.999 261.463 409.599 266.663C407.199 271.863 403.299 277.263 403.299 277.263L401.599 272.163Z" fill="#FCC232"/>
<path d="M409.899 296.063C409.899 296.063 410.199 293.063 414.899 289.363C419.599 285.663 422.499 283.563 422.499 283.563C422.499 283.563 423.799 290.663 419.399 294.363C414.999 298.063 409.199 301.363 409.199 301.363L409.899 296.063Z" fill="#FCC232"/>
<path d="M408.699 288.664C408.699 288.664 408.199 285.664 403.299 282.264C398.399 278.864 395.399 276.964 395.399 276.964C395.399 276.964 394.499 284.164 399.099 287.564C403.699 291.064 409.699 293.964 409.699 293.964L408.699 288.664Z" fill="#FCC232"/>
<path d="M408.599 304.763C408.599 304.763 408.899 301.763 404.999 297.263C401.199 292.763 398.699 290.063 398.699 290.063C398.699 290.063 395.999 296.763 399.599 301.263C403.099 305.763 408.199 310.163 408.199 310.163L408.599 304.763Z" fill="#FCC232"/>
<path d="M385.099 216.063C385.899 219.163 386.799 222.363 387.799 225.063C390.899 233.263 395.899 237.963 398.899 245.363C401.899 252.763 398.899 263.363 401.799 272.963C404.799 282.563 409.499 287.363 409.599 294.063C409.599 300.763 406.999 319.563 406.999 319.563" stroke="#263238" stroke-width="0.5" stroke-miterlimit="10" stroke-linecap="round" stroke-linejoin="round"/>
<path d="M387.099 223.763L382.099 221.063" stroke="#263238" stroke-width="0.5" stroke-miterlimit="10" stroke-linecap="round" stroke-linejoin="round"/>
<path d="M386.199 219.863L387.499 216.163" stroke="#263238" stroke-width="0.5" stroke-miterlimit="10" stroke-linecap="round" stroke-linejoin="round"/>
<path d="M398.599 245.063C398.599 245.063 394.399 242.863 390.099 240.763" stroke="#263238" stroke-width="0.5" stroke-miterlimit="10" stroke-linecap="round" stroke-linejoin="round"/>
<path d="M395.699 239.563C395.699 239.563 397.799 232.963 400.599 228.263" stroke="#263238" stroke-width="0.5" stroke-miterlimit="10" stroke-linecap="round" stroke-linejoin="round"/>
<path d="M401.099 270.563C401.099 270.563 397.199 265.363 391.299 261.263" stroke="#263238" stroke-width="0.5" stroke-miterlimit="10" stroke-linecap="round" stroke-linejoin="round"/>
<path d="M402.599 274.663C402.599 274.663 403.699 269.863 405.299 266.263C406.899 262.663 407.199 262.163 407.199 262.163" stroke="#263238" stroke-width="0.5" stroke-miterlimit="10" stroke-linecap="round" stroke-linejoin="round"/>
<path d="M409.399 299.263C409.399 299.263 412.799 295.163 414.799 293.663C416.899 292.163 418.299 290.563 418.299 290.563" stroke="#263238" stroke-width="0.5" stroke-miterlimit="10" stroke-linecap="round" stroke-linejoin="round"/>
<path d="M409.599 294.064C409.599 294.064 407.399 290.564 405.099 287.864C402.699 285.164 399.799 282.864 399.799 282.864" stroke="#263238" stroke-width="0.5" stroke-miterlimit="10" stroke-linecap="round" stroke-linejoin="round"/>
<path d="M408.099 310.164C408.099 310.164 407.899 306.564 405.799 303.764C403.699 301.064 401.299 297.364 400.299 295.964" stroke="#263238" stroke-width="0.5" stroke-miterlimit="10" stroke-linecap="round" stroke-linejoin="round"/>
<path d="M433.699 352.164H396.599C394.899 352.164 393.599 350.764 393.599 349.164V316.364H436.799V349.064C436.699 350.764 435.299 352.164 433.699 352.164Z" fill="#263238"/>
<path d="M340.501 282.363C340.501 282.363 345.701 269.263 342.401 242.063C340.901 230.163 342.001 205.663 325.701 204.863C308.301 204.063 301.201 205.763 283.801 205.963C220.901 206.663 174.601 212.963 136.301 209.263C105.501 206.263 78.9008 201.363 67.9008 212.363C56.9008 223.363 57.9008 246.663 58.8008 251.163C59.8008 255.663 66.9008 286.663 66.9008 286.663L338.901 285.463L340.501 282.363Z" fill="#999999" stroke="#263238" stroke-miterlimit="10" stroke-linecap="round" stroke-linejoin="round"/>
<path d="M70.5008 274.563C70.5008 274.563 65.3008 253.563 56.7008 247.863C48.1008 242.163 36.9008 248.363 27.6008 257.363C18.3008 266.463 15.7008 277.163 19.5008 295.063C23.3008 312.963 34.5008 339.363 37.8008 351.263C41.1008 363.163 41.1008 369.363 52.3008 373.163C63.5008 376.963 74.2008 377.263 81.1008 367.663C88.0008 358.163 86.1008 314.263 80.6008 297.863C75.2008 281.463 70.5008 274.563 70.5008 274.563Z" fill="#B2B2B2" stroke="#263238" stroke-miterlimit="10" stroke-linecap="round" stroke-linejoin="round"/>
<path d="M69.5008 366.963C64.7008 357.863 50.4008 293.363 50.7008 284.463C50.9008 275.663 43.8008 260.863 35.0008 259.663C27.7008 258.663 21.9008 265.663 20.1008 268.063C17.3008 275.063 17.1008 283.563 19.5008 294.863C23.3008 312.763 22.8008 339.763 26.2008 351.663C29.5008 363.563 29.5008 369.763 40.7008 373.563C48.1008 376.063 66.9008 376.463 72.9008 374.163C72.1008 372.063 70.8008 369.563 69.5008 366.963Z" fill="#8A8A8A" stroke="#263238" stroke-miterlimit="10" stroke-linecap="round" stroke-linejoin="round"/>
<path d="M326.201 274.163C326.201 274.163 331.701 253.163 340.801 247.463C349.901 241.763 361.701 247.963 371.501 256.963C381.301 266.063 384.101 276.763 380.101 294.663C376.101 312.563 364.201 338.963 360.701 350.863C357.201 362.763 357.201 368.963 345.301 372.763C333.501 376.563 322.101 376.863 314.801 367.263C307.501 357.763 309.501 313.863 315.301 297.463C321.201 281.063 326.201 274.163 326.201 274.163Z" fill="#B2B2B2" stroke="#263238" stroke-miterlimit="10" stroke-linecap="round" stroke-linejoin="round"/>
<path d="M327.201 367.963C332.201 358.763 347.301 293.463 347.101 284.463C346.801 275.563 354.401 260.563 363.701 259.363C371.401 258.363 377.501 265.363 379.401 267.863C382.401 274.963 382.601 283.563 380.001 295.063C376.001 313.163 369.801 339.963 366.301 351.963C362.801 364.063 362.801 370.263 350.901 374.163C343.101 376.663 329.901 377.663 323.501 375.263C324.501 372.963 325.801 370.463 327.201 367.963Z" fill="#8A8A8A" stroke="#263238" stroke-miterlimit="10" stroke-linecap="round" stroke-linejoin="round"/>
<path d="M347.201 314.763C347.201 314.763 341.201 351.763 337.401 364.163C333.601 376.563 334.801 376.563 328.301 377.063C321.901 377.563 77.8009 376.863 70.1009 375.663C62.5009 374.463 58.4009 368.763 56.3009 360.663C54.2009 352.563 52.0009 315.763 52.0009 315.763L336.801 314.763H347.201Z" fill="#999999" stroke="#263238" stroke-miterlimit="10" stroke-linecap="round" stroke-linejoin="round"/>
<path d="M52.1008 321.663C52.1008 321.663 53.5008 325.763 58.5008 326.663C63.5008 327.563 192.601 328.963 196.701 328.963C200.801 328.963 306.101 328.963 323.001 327.563C339.901 326.163 348.501 323.963 347.201 314.763C345.901 305.563 346.301 312.863 346.301 312.863L49.4008 316.563L52.1008 321.663Z" fill="#263238"/>
<path d="M71.2008 273.363C71.2008 273.363 52.9008 285.763 47.6008 291.463C42.4008 297.163 45.2008 301.663 45.7008 305.963C46.2008 310.263 48.3008 319.763 54.5008 323.163C60.7008 326.463 137.701 325.063 182.501 326.463C227.301 327.863 323.601 326.163 335.601 323.363C347.501 320.463 350.301 305.763 351.101 297.363C351.801 289.063 343.301 277.363 338.501 275.963C333.701 274.563 294.101 274.363 250.001 275.263C205.901 276.263 185.701 280.063 135.401 279.063C85.0008 278.163 82.6008 271.163 71.2008 273.363Z" fill="#B2B2B2"/>
<path d="M45.7008 305.963C46.2008 310.263 48.3008 319.763 54.5008 323.163C60.7008 326.463 137.701 325.063 182.501 326.463C227.301 327.863 323.601 326.163 335.601 323.363C347.501 320.463 354.701 309.063 355.401 300.763C355.501 299.663 355.301 298.363 355.001 297.063C353.301 298.763 350.101 296.963 346.301 296.363C337.801 295.163 248.501 300.663 181.601 300.663C109.001 300.663 85.3008 300.663 49.4008 293.763C44.0008 292.763 47.7008 291.463 47.7008 291.463C42.3008 297.163 45.2008 301.663 45.7008 305.963Z" fill="#999999"/>
<path d="M71.2008 273.363C71.2008 273.363 52.9008 285.763 47.6008 291.463C42.4008 297.163 45.2008 301.663 45.7008 305.963C46.2008 310.263 48.3008 319.763 54.5008 323.163C60.7008 326.463 137.701 325.063 182.501 326.463C227.301 327.863 323.601 326.163 335.601 323.363C347.501 320.463 350.301 305.763 351.101 297.363C351.801 289.063 343.301 277.363 338.501 275.963C333.701 274.563 294.101 274.363 250.001 275.263C205.901 276.263 185.701 280.063 135.401 279.063C85.0008 278.163 82.6008 271.163 71.2008 273.363Z" stroke="#263238" stroke-miterlimit="10" stroke-linecap="round" stroke-linejoin="round"/>
<path d="M200.901 210.163L200.501 277.663C200.501 277.663 197.501 296.063 197.901 298.663C198.301 301.263 198.301 326.363 198.301 326.363" stroke="#263238" stroke-miterlimit="10" stroke-linecap="round" stroke-linejoin="round"/>
<path d="M80.8008 241.263C80.8008 241.263 82.4008 241.063 85.8008 237.063C89.2008 233.063 93.0008 230.063 96.6008 230.263C100.201 230.463 93.6008 233.063 93.6008 233.063C93.6008 233.063 99.8008 231.463 104.201 233.663C108.601 235.863 102.401 237.863 102.401 237.863C102.401 237.863 109.601 240.063 109.201 243.063C108.801 246.063 107.401 245.263 98.8008 245.263C90.2008 245.263 85.8008 247.463 82.2008 246.263C78.6008 245.063 76.2008 244.663 80.8008 241.263Z" fill="#263238" stroke="#263238" stroke-miterlimit="10" stroke-linecap="round" stroke-linejoin="round"/>
<path d="M68.8008 202.464C68.8008 202.464 74.6008 205.564 76.5008 208.564C78.4008 211.664 76.5008 214.264 80.9008 214.764C83.3008 215.064 86.6008 214.964 86.6008 217.364C86.6008 219.764 86.4008 220.664 86.4008 220.664C86.4008 220.664 88.5008 229.164 88.3008 231.064C88.1008 232.964 80.1008 235.264 80.1008 235.264C80.1008 235.264 79.6008 238.364 81.3008 240.464C82.9008 242.563 90.7008 248.964 91.9008 249.864C93.1008 250.764 69.1008 253.664 69.1008 253.664C69.1008 253.664 63.7008 242.364 56.4008 238.364C49.1008 234.364 45.6008 234.564 45.3008 230.564C45.1008 226.564 51.9008 211.964 58.3008 207.264C64.4008 202.564 68.8008 202.464 68.8008 202.464Z" fill="white" stroke="#263238" stroke-miterlimit="10" stroke-linecap="round" stroke-linejoin="round"/>
<path d="M77.1009 217.263C76.7009 217.463 76.3009 217.663 76.0009 217.763C76.0009 217.863 76.0009 217.863 76.1009 217.963C76.4009 218.763 77.0009 219.363 77.3009 219.163C77.6009 219.063 77.6009 218.263 77.3009 217.463C77.2009 217.363 77.2009 217.263 77.1009 217.263Z" fill="#263238"/>
<path d="M75.2008 219.263C75.2008 219.263 76.7008 219.463 78.2008 218.663L75.2008 219.263Z" fill="white"/>
<path d="M75.2008 219.263C75.2008 219.263 76.7008 219.463 78.2008 218.663" stroke="#263238" stroke-width="0.5" stroke-miterlimit="10" stroke-linecap="round" stroke-linejoin="round"/>
<path d="M80.0008 235.364C80.0008 235.364 74.6008 236.664 70.2008 235.964C70.2008 235.964 77.1008 240.264 80.2008 239.864L80.0008 235.364Z" fill="#263238" stroke="#263238" stroke-miterlimit="10" stroke-linecap="round" stroke-linejoin="round"/>
<path d="M75.8008 214.763L77.1008 216.863C77.1008 216.863 75.1008 218.463 73.3008 218.763" fill="white"/>
<path d="M75.8008 214.763L77.1008 216.863C77.1008 216.863 75.1008 218.463 73.3008 218.763" stroke="#263238" stroke-miterlimit="10" stroke-linecap="round" stroke-linejoin="round"/>
<path d="M78.7008 224.964C78.7008 224.964 79.6008 226.964 83.4008 225.464L78.7008 224.964Z" fill="white"/>
<path d="M78.7008 224.964C78.7008 224.964 79.6008 226.964 83.4008 225.464" stroke="#263238" stroke-miterlimit="10" stroke-linecap="round" stroke-linejoin="round"/>
<path d="M74.1008 211.164C74.1008 211.164 71.2008 210.664 69.8008 214.064L74.1008 211.164Z" fill="white"/>
<path d="M74.1008 211.164C74.1008 211.164 71.2008 210.664 69.8008 214.064" stroke="#263238" stroke-miterlimit="10" stroke-linecap="round" stroke-linejoin="round"/>
<path d="M71.8008 200.464C71.8008 200.464 69.8008 211.764 67.8008 218.664C65.7008 225.564 63.2008 229.764 62.6008 232.364C61.9008 234.964 65.2008 241.464 64.2008 244.264C63.2008 246.964 62.2008 242.964 56.3008 239.564C50.3008 236.164 45.4008 232.964 42.5008 230.964C30.0008 222.464 51.3008 199.464 60.9008 198.364C70.3008 197.364 72.4008 197.664 71.8008 200.464Z" fill="#263238"/>
<path d="M72.4008 198.163C72.4008 198.163 65.9008 228.663 45.3008 236.163" stroke="#666666" stroke-miterlimit="10" stroke-linecap="round" stroke-linejoin="round"/>
<path d="M68.0008 196.663C68.0008 196.663 59.0008 224.063 40.6008 230.563" stroke="#666666" stroke-miterlimit="10" stroke-linecap="round" stroke-linejoin="round"/>
<path d="M50.6008 201.263C50.6008 201.263 50.0008 221.163 39.1008 229.263" stroke="#666666" stroke-miterlimit="10" stroke-linecap="round" stroke-linejoin="round"/>
<path d="M71.8008 200.464C71.8008 200.464 69.8008 211.764 67.8008 218.664C65.7008 225.564 63.2008 229.764 62.6008 232.364C61.9008 234.964 65.2008 241.464 64.2008 244.264C63.2008 246.964 62.2008 242.964 56.3008 239.564C50.3008 236.164 45.4008 232.964 42.5008 230.964C30.0008 222.464 51.3008 199.464 60.9008 198.364C70.3008 197.364 72.4008 197.664 71.8008 200.464Z" stroke="#263238" stroke-miterlimit="10" stroke-linecap="round" stroke-linejoin="round"/>
<path d="M66.0008 229.263C66.0008 229.263 61.6007 225.363 58.8007 226.563C56.1007 227.763 58.3008 232.663 60.0008 233.063C61.7008 233.463 63.5008 233.863 65.5008 232.963" fill="white"/>
<path d="M66.0008 229.263C66.0008 229.263 61.6007 225.363 58.8007 226.563C56.1007 227.763 58.3008 232.663 60.0008 233.063C61.7008 233.463 63.5008 233.863 65.5008 232.963" stroke="#263238" stroke-miterlimit="10" stroke-linecap="round" stroke-linejoin="round"/>
<path opacity="0.3" d="M35.3007 254.563C35.3007 254.563 48.0008 260.563 50.5008 267.063C53.0008 273.563 53.5007 280.563 58.0007 283.063C62.5007 285.563 70.5008 290.063 80.0008 292.063C89.5008 294.063 97.0008 293.563 97.0008 293.563C97.0008 293.563 114.501 294.563 127.501 294.563C140.501 294.563 160.501 290.563 160.501 290.563C160.501 290.563 175.001 292.063 184.001 274.063C193.001 256.063 226.501 231.063 229.001 212.063C229.001 212.063 188.501 231.563 182.501 240.063C176.501 248.563 136.001 270.563 115.001 270.563C94.0007 270.563 69.5007 254.563 56.0007 245.563C42.5007 236.563 34.6007 245.563 35.3007 254.563Z" fill="black"/>
<path d="M80.6008 272.363C80.6008 272.363 72.4008 255.963 66.3008 246.963C60.2008 237.963 54.8008 233.663 48.1008 230.163C41.5008 226.663 37.7008 225.463 34.4008 223.863C31.1008 222.263 30.1008 223.063 29.7008 229.963C29.3008 236.763 27.7008 248.763 35.2008 254.563C42.6008 260.463 45.9008 260.263 50.4008 262.363C54.9008 264.463 57.2008 270.363 61.0008 277.963C64.7008 285.563 76.2008 285.563 80.7008 285.163C85.3008 284.863 83.4008 276.863 80.6008 272.363Z" fill="white" stroke="#263238" stroke-miterlimit="10" stroke-linecap="round" stroke-linejoin="round"/>
<path d="M158.201 248.564C158.201 248.564 167.801 219.364 171.501 216.564C175.101 213.664 208.501 204.064 221.301 201.164C234.101 198.264 250.701 185.764 252.601 183.964C254.401 182.164 258.601 180.064 257.301 185.264C256.001 190.464 254.701 193.064 252.101 196.164C249.501 199.264 251.101 201.864 249.501 204.764C247.901 207.664 245.101 207.664 240.601 205.064C236.201 202.464 234.301 202.464 229.101 206.364C223.901 210.264 214.201 219.664 203.801 222.764C193.401 225.864 190.001 226.364 190.001 226.364C190.001 226.364 185.301 248.464 179.101 258.164C172.801 267.764 170.501 272.263 160.301 270.363C150.101 268.563 154.601 252.864 155.101 251.364C155.601 249.864 158.201 248.564 158.201 248.564Z" fill="#263238" stroke="#263238" stroke-miterlimit="10" stroke-linecap="round" stroke-linejoin="round"/>
<path d="M249.401 204.764C251.001 201.864 249.401 199.264 252.001 196.164C254.601 193.064 255.901 190.464 257.201 185.264C258.501 180.064 254.301 182.164 252.501 183.964C251.001 185.464 239.701 193.964 228.701 198.664C229.901 200.364 231.101 202.364 231.901 204.464C235.101 202.564 237.001 202.964 240.501 205.064C245.001 207.664 247.801 207.664 249.401 204.764Z" fill="white" stroke="#263238" stroke-miterlimit="10" stroke-linecap="round" stroke-linejoin="round"/>
<path d="M252.501 183.964C252.301 184.164 252.101 184.364 251.701 184.664C252.701 185.764 254.201 187.064 256.601 187.464C256.801 186.764 257.001 186.064 257.201 185.264C258.501 180.064 254.401 182.164 252.501 183.964Z" fill="#A8A8A8" stroke="#263238" stroke-miterlimit="10" stroke-linecap="round" stroke-linejoin="round"/>
<path d="M138.401 287.363C138.401 287.363 165.801 292.363 175.901 288.663C186.101 285.063 190.201 273.763 193.101 265.763C196.001 257.663 196.501 242.563 198.101 238.163C199.701 233.763 200.201 232.463 200.201 232.463C200.201 232.463 212.201 226.963 219.201 223.363C226.201 219.763 232.001 205.663 236.101 202.563C240.301 199.463 240.801 203.563 243.101 201.263C245.401 198.963 249.601 189.563 250.401 183.563C251.201 177.563 247.501 174.163 246.001 174.163C244.501 174.163 244.701 177.263 242.101 181.163C239.501 185.063 235.601 192.863 231.701 195.463C227.801 198.063 209.301 208.763 202.301 212.663C195.301 216.563 186.101 218.663 181.501 226.763C176.801 234.863 169.001 251.763 168.001 253.563C167.001 255.363 165.401 257.463 165.401 257.463C165.401 257.463 162.301 258.763 156.801 260.363C151.301 261.963 144.801 261.163 141.701 264.263C138.401 267.363 138.401 287.363 138.401 287.363Z" fill="#263238" stroke="#263238" stroke-miterlimit="10" stroke-linecap="round" stroke-linejoin="round"/>
<path d="M169.801 250.064C169.801 250.064 183.201 222.064 185.401 221.564C187.601 221.064 216.101 205.464 216.101 205.464" stroke="white" stroke-miterlimit="10" stroke-linecap="round" stroke-linejoin="round"/>
<path d="M156.901 265.563C156.901 265.563 160.501 272.863 161.301 277.263" stroke="white" stroke-miterlimit="10" stroke-linecap="round" stroke-linejoin="round"/>
<path d="M159.001 266.263C159.001 266.263 161.601 267.063 164.001 273.063" stroke="white" stroke-miterlimit="10" stroke-linecap="round" stroke-linejoin="round"/>
<path d="M164.701 274.864C164.701 274.864 165.201 276.964 165.701 278.264" stroke="white" stroke-miterlimit="10" stroke-linecap="round" stroke-linejoin="round"/>
<path d="M246.001 174.063C244.401 174.063 244.701 177.163 242.101 181.063C239.501 184.963 235.601 192.763 231.701 195.363C230.901 195.863 229.501 196.763 227.801 197.763C229.801 198.663 231.801 200.863 233.301 205.663C234.301 204.163 235.301 203.063 236.201 202.363C240.401 199.263 240.901 203.363 243.201 201.063C245.501 198.763 249.701 189.363 250.501 183.363C251.201 177.463 247.601 174.063 246.001 174.063Z" fill="white" stroke="#263238" stroke-miterlimit="10" stroke-linecap="round" stroke-linejoin="round"/>
<path d="M246.001 174.063C244.701 174.063 244.701 176.063 243.301 178.963C244.901 179.563 247.901 180.863 250.501 182.863C251.001 177.263 247.501 174.063 246.001 174.063Z" fill="#A8A8A8" stroke="#263238" stroke-miterlimit="10" stroke-linecap="round" stroke-linejoin="round"/>
<path d="M122.001 241.864C122.001 241.864 118.801 243.564 117.401 245.264C116.001 246.964 112.401 253.564 112.401 253.564L118.001 259.464L122.101 245.364L124.201 243.864L122.001 241.864Z" fill="#FCC232" stroke="#263238" stroke-miterlimit="10" stroke-linecap="round" stroke-linejoin="round"/>
<path d="M71.3008 247.163C71.3008 247.163 85.2008 244.463 93.8008 244.263C102.401 244.063 105.101 242.863 108.101 245.663C111.001 248.363 118.801 256.763 120.201 258.163C121.601 259.563 146.201 256.763 146.201 256.763C146.201 256.763 148.501 262.663 147.001 272.363C145.401 282.163 139.401 287.563 139.401 287.563C139.401 287.563 123.001 289.963 112.001 289.163C91.0008 287.563 83.3008 280.063 78.0008 273.563C72.7008 267.163 68.5008 253.163 68.3008 250.663C68.1008 248.163 71.3008 247.163 71.3008 247.163Z" fill="#FCC232" stroke="#263238" stroke-miterlimit="10" stroke-linecap="round" stroke-linejoin="round"/>
<path d="M123.601 246.263C123.601 246.263 113.401 247.563 112.401 250.463C111.401 253.363 116.601 273.363 118.101 274.463C119.701 275.463 123.601 272.863 123.601 272.863C123.601 272.863 132.701 274.163 146.001 273.363C159.301 272.563 163.701 266.363 165.301 266.063C166.901 265.763 171.001 264.763 170.801 263.463C170.501 262.163 166.601 249.663 160.901 245.263C155.201 240.863 146.301 239.763 138.201 242.363C130.101 244.963 123.601 246.263 123.601 246.263Z" fill="white" stroke="#263238" stroke-miterlimit="10" stroke-linecap="round" stroke-linejoin="round"/>
<path d="M119.501 245.964L121.701 256.064L153.101 252.064L146.901 242.864L119.501 245.964Z" fill="white" stroke="#263238" stroke-miterlimit="10" stroke-linecap="round" stroke-linejoin="round"/>
<path d="M137.001 246.564L137.501 248.064L139.501 247.764L139.001 246.364L137.001 246.564Z" fill="#263238"/>
<path d="M139.701 248.263L137.701 248.463L138.401 250.263L140.301 249.963L139.701 248.263Z" fill="#263238"/>
<path d="M127.901 251.663L129.501 251.463L128.901 249.763L127.401 249.963L127.901 251.663Z" fill="#263238"/>
<path d="M139.501 246.264L140.001 247.664L141.901 247.364L141.401 245.964L139.501 246.264Z" fill="#263238"/>
<path d="M128.801 247.664L129.301 249.164L131.501 248.864L131.001 247.364L128.801 247.664Z" fill="#263238"/>
<path d="M134.301 246.963L134.801 248.363L137.001 248.063L136.501 246.663L134.301 246.963Z" fill="#263238"/>
<path d="M131.501 247.363L132.001 248.763L134.301 248.463L133.801 247.063L131.501 247.363Z" fill="#263238"/>
<path d="M137.901 250.263L137.201 248.563L135.001 248.863L135.701 250.563L137.901 250.263Z" fill="#263238"/>
<path d="M141.001 250.363L141.301 251.263L143.201 250.963L142.901 250.063L141.001 250.363Z" fill="#263238"/>
<path d="M144.401 247.563L142.601 247.763L143.201 249.563L145.201 249.263L144.401 247.563Z" fill="#263238"/>
<path d="M140.201 248.164L140.801 249.864L142.701 249.664L142.101 247.864L140.201 248.164Z" fill="#263238"/>
<path d="M146.301 250.664L148.701 250.364L148.201 249.364L145.901 249.664L146.301 250.664Z" fill="#263238"/>
<path d="M130.201 251.863L130.401 252.563L132.701 252.263L132.501 251.563L130.201 251.863Z" fill="#263238"/>
<path d="M131.701 249.364L129.401 249.664L130.001 251.364L132.301 251.064L131.701 249.364Z" fill="#263238"/>
<path d="M134.501 248.964L132.201 249.264L132.801 250.964L135.201 250.664L134.501 248.964Z" fill="#263238"/>
<path d="M135.901 251.063L136.201 251.863L138.401 251.563L138.101 250.763L135.901 251.063Z" fill="#263238"/>
<path d="M141.701 245.463L143.401 245.163L143.201 244.663L141.501 244.863L141.701 245.463Z" fill="#263238"/>
<path d="M131.401 246.863L133.601 246.563L133.401 246.063L131.201 246.363L131.401 246.863Z" fill="#263238"/>
<path d="M136.801 246.164L138.801 245.864L138.601 245.364L136.601 245.564L136.801 246.164Z" fill="#263238"/>
<path d="M134.101 246.463L136.301 246.163L136.101 245.663L133.901 245.963L134.101 246.463Z" fill="#263238"/>
<path d="M128.601 247.264L130.801 246.964L130.701 246.464L128.501 246.764L128.601 247.264Z" fill="#263238"/>
<path d="M128.101 247.264L128.001 246.864L126.501 247.064L126.601 247.464L128.101 247.264Z" fill="#263238"/>
<path d="M129.901 252.664L129.701 251.964L128.001 252.164L128.201 252.864L129.901 252.664Z" fill="#263238"/>
<path d="M144.001 245.164L145.801 244.864L145.501 244.364L143.701 244.564L144.001 245.164Z" fill="#263238"/>
<path d="M127.201 249.463L128.801 249.263L128.301 247.763L126.801 247.963L127.201 249.463Z" fill="#263238"/>
<path d="M145.401 249.763L143.401 250.063L143.701 250.963L145.801 250.663L145.401 249.763Z" fill="#263238"/>
<path d="M139.301 245.764L141.201 245.464L141.001 244.964L139.101 245.264L139.301 245.764Z" fill="#263238"/>
<path d="M135.401 251.163L133.001 251.463L133.201 252.163L135.701 251.863L135.401 251.163Z" fill="#263238"/>
<path d="M140.501 250.464L138.601 250.664L138.901 251.464L140.801 251.264L140.501 250.464Z" fill="#263238"/>
<path d="M141.901 245.963L142.401 247.363L144.201 247.063L143.701 245.663L141.901 245.963Z" fill="#263238"/>
<path d="M147.001 247.163L144.901 247.463L145.701 249.163L148.001 248.863L147.001 247.163Z" fill="#263238"/>
<path d="M144.701 246.964L146.801 246.764L146.001 245.364L144.201 245.664L144.701 246.964Z" fill="#263238"/>
<path d="M153.101 252.063L154.901 223.163L148.101 219.163L146.901 242.863L153.101 252.063Z" fill="white" stroke="#263238" stroke-miterlimit="10" stroke-linecap="round" stroke-linejoin="round"/>
<path d="M149.101 221.964L148.201 242.564L151.701 247.564L153.001 224.564L149.101 221.964Z" fill="#FCC232" stroke="#263238" stroke-width="0.5" stroke-miterlimit="10" stroke-linecap="round" stroke-linejoin="round"/>
<path d="M135.201 238.463C135.201 238.463 136.301 237.963 137.701 239.063C139.101 240.163 142.001 242.563 141.601 243.163C141.201 243.763 140.701 243.763 140.001 243.063C139.301 242.363 135.201 238.463 135.201 238.463Z" fill="white" stroke="#263238" stroke-miterlimit="10" stroke-linecap="round" stroke-linejoin="round"/>
<path d="M132.101 238.463C132.101 238.463 134.301 237.663 135.201 238.463C136.001 239.263 141.501 243.663 141.101 244.463C140.701 245.263 140.001 244.563 139.101 244.563C138.301 244.663 132.101 238.463 132.101 238.463Z" fill="white" stroke="#263238" stroke-miterlimit="10" stroke-linecap="round" stroke-linejoin="round"/>
<path d="M120.901 244.463C120.901 244.463 119.401 243.363 122.601 241.363C125.801 239.363 129.701 237.763 131.101 237.863C132.501 237.963 139.101 244.563 139.101 244.563C139.101 244.563 139.401 245.363 138.501 245.663C137.701 245.963 132.301 242.063 131.401 242.063C130.401 242.063 127.201 244.063 126.201 244.263C125.301 244.663 123.001 246.263 120.901 244.463Z" fill="white" stroke="#263238" stroke-miterlimit="10" stroke-linecap="round" stroke-linejoin="round"/>
<path d="M126.501 242.364C126.501 242.364 133.901 245.164 134.301 245.164C134.701 245.164 134.201 246.264 132.901 246.464C131.601 246.564 128.601 244.964 127.401 245.464C126.301 246.064 124.001 245.864 122.401 245.764C120.701 245.664 120.701 243.764 120.701 243.764" fill="white"/>
<path d="M126.501 242.364C126.501 242.364 133.901 245.164 134.301 245.164C134.701 245.164 134.201 246.264 132.901 246.464C131.601 246.564 128.601 244.964 127.401 245.464C126.301 246.064 124.001 245.864 122.401 245.764C120.701 245.664 120.701 243.764 120.701 243.764" stroke="#263238" stroke-miterlimit="10" stroke-linecap="round" stroke-linejoin="round"/>
<path d="M81.6008 247.963C81.6008 247.963 75.2008 243.463 68.7008 245.463C62.3008 247.463 63.8008 256.163 68.5008 265.363C73.2008 274.563 92.1008 292.563 95.3008 294.463C98.5008 296.363 101.401 294.463 103.701 290.763C106.001 287.063 111.301 264.963 112.901 261.463C114.501 257.963 115.201 255.763 115.201 255.763C115.201 255.763 118.301 254.963 120.101 253.663C121.901 252.263 124.601 250.163 124.601 250.163C124.601 250.163 131.601 247.263 132.201 246.863C132.801 246.463 132.001 245.863 131.201 245.863C130.401 245.863 126.301 245.863 122.401 245.863C118.501 245.863 113.401 250.163 111.701 252.163C109.901 254.163 97.6008 276.763 97.6008 276.763L81.8008 255.063" fill="#FCC232"/>
<path d="M81.6008 247.963C81.6008 247.963 75.2008 243.463 68.7008 245.463C62.3008 247.463 63.8008 256.163 68.5008 265.363C73.2008 274.563 92.1008 292.563 95.3008 294.463C98.5008 296.363 101.401 294.463 103.701 290.763C106.001 287.063 111.301 264.963 112.901 261.463C114.501 257.963 115.201 255.763 115.201 255.763C115.201 255.763 118.301 254.963 120.101 253.663C121.901 252.263 124.601 250.163 124.601 250.163C124.601 250.163 131.601 247.263 132.201 246.863C132.801 246.463 132.001 245.863 131.201 245.863C130.401 245.863 126.301 245.863 122.401 245.863C118.501 245.863 113.401 250.163 111.701 252.163C109.901 254.163 97.6008 276.763 97.6008 276.763L81.8008 255.063" stroke="#263238" stroke-miterlimit="10" stroke-linecap="round" stroke-linejoin="round"/>
<path d="M124.601 250.063C124.601 250.063 131.601 247.163 132.201 246.763C132.801 246.363 132.001 245.763 131.201 245.763C130.401 245.763 126.301 245.763 122.401 245.763C118.501 245.763 113.401 250.063 111.701 252.063C111.101 252.763 109.201 255.963 107.001 259.763L112.701 261.863C112.801 261.663 112.801 261.563 112.901 261.463C114.501 257.963 115.201 255.763 115.201 255.763C115.201 255.763 118.301 254.963 120.101 253.663C121.901 252.263 124.601 250.063 124.601 250.063Z" fill="white" stroke="#263238" stroke-miterlimit="10" stroke-linecap="round" stroke-linejoin="round"/>
<path d="M326.998 116.9H23.3984C20.8984 116.9 18.8984 114.9 18.8984 112.4V81.5C18.8984 79 20.8984 77 23.3984 77H326.998C329.498 77 331.498 79 331.498 81.5V112.4C331.498 114.9 329.498 116.9 326.998 116.9Z" fill="white" stroke="#263238" stroke-miterlimit="10" stroke-linecap="round" stroke-linejoin="round"/>
<path d="M326.998 117.364H286.998V77.4639H326.998C329.498 77.4639 331.498 79.4639 331.498 81.9639V112.864C331.498 115.364 329.498 117.364 326.998 117.364Z" fill="#263238" stroke="#263238" stroke-miterlimit="10" stroke-linecap="round" stroke-linejoin="round"/>
<path d="M322.098 108.364L312.398 97.7639C312.298 97.6639 312.098 97.5639 311.998 97.4639C313.198 95.7639 313.898 93.7639 313.898 91.5639C313.898 86.0639 309.398 81.4639 303.798 81.4639C298.298 81.4639 293.698 85.9639 293.698 91.5639C293.698 97.0639 298.198 101.664 303.798 101.664C305.598 101.664 307.198 101.164 308.698 100.364C308.798 100.564 308.898 100.664 308.998 100.864L318.698 111.464C319.098 111.964 319.798 112.164 320.398 112.164C320.898 112.164 321.498 111.964 321.898 111.564C322.898 110.764 322.898 109.364 322.098 108.364ZM295.998 91.5639C295.998 87.2639 299.498 83.7639 303.798 83.7639C308.098 83.7639 311.598 87.2639 311.598 91.5639C311.598 95.8639 308.098 99.3639 303.798 99.3639C299.498 99.3639 295.998 95.8639 295.998 91.5639Z" fill="white"/>
<path d="M32.2912 104H34.5668V102.453H34.701C35.0653 103.169 35.826 104.173 37.5135 104.173C39.8274 104.173 41.5597 102.338 41.5597 99.1037C41.5597 95.831 39.7763 94.054 37.5071 94.054C35.7749 94.054 35.0526 95.0959 34.701 95.8054H34.6051V90.9091H32.2912V104ZM34.5604 99.0909C34.5604 97.1861 35.3786 95.9524 36.8679 95.9524C38.4084 95.9524 39.201 97.2628 39.201 99.0909C39.201 100.932 38.3956 102.274 36.8679 102.274C35.3913 102.274 34.5604 100.996 34.5604 99.0909ZM49.2446 99.8707C49.2446 101.366 48.1772 102.108 47.1544 102.108C46.0422 102.108 45.3007 101.322 45.3007 100.075V94.1818H42.9868V100.433C42.9868 102.792 44.3291 104.128 46.2595 104.128C47.7297 104.128 48.7652 103.354 49.2127 102.255H49.3149V104H51.5585V94.1818H49.2446V99.8707ZM53.398 104H55.7119V98.228C55.7119 96.9815 56.6515 96.0994 57.9236 96.0994C58.3135 96.0994 58.7993 96.1697 58.9974 96.2337V94.1051C58.7865 94.0668 58.4221 94.0412 58.1664 94.0412C57.0414 94.0412 56.1018 94.6804 55.7439 95.8182H55.6416V94.1818H53.398V104ZM62.3086 90.9091H59.9947V104H62.3086V90.9091ZM68.4947 104.192C70.783 104.192 72.3554 103.073 72.7645 101.366L70.604 101.124C70.2908 101.955 69.5238 102.389 68.5266 102.389C67.0309 102.389 66.0401 101.405 66.0209 99.7237H72.8604V99.0142C72.8604 95.5689 70.7894 94.054 68.3732 94.054C65.5607 94.054 63.7262 96.1186 63.7262 99.1484C63.7262 102.229 65.5351 104.192 68.4947 104.192ZM66.0273 98.1641C66.0976 96.9112 67.0245 95.8565 68.4052 95.8565C69.7347 95.8565 70.6296 96.8281 70.6424 98.1641H66.0273ZM82.0379 96.777C81.7183 95.1151 80.3888 94.054 78.0876 94.054C75.7226 94.054 74.1118 95.2173 74.1182 97.0327C74.1118 98.4645 74.9939 99.4105 76.8795 99.8004L78.5543 100.152C79.4555 100.35 79.8774 100.714 79.8774 101.271C79.8774 101.942 79.1487 102.447 78.0493 102.447C76.9882 102.447 76.2979 101.987 76.0997 101.104L73.8433 101.322C74.131 103.124 75.6459 104.192 78.0557 104.192C80.5102 104.192 82.2425 102.92 82.2489 101.06C82.2425 99.6598 81.3412 98.8033 79.4875 98.4006L77.8128 98.0426C76.8156 97.8189 76.4193 97.4737 76.4257 96.9048C76.4193 96.2401 77.1544 95.7798 78.1196 95.7798C79.1871 95.7798 79.7496 96.3615 79.9286 97.0071L82.0379 96.777ZM91.3768 96.777C91.0572 95.1151 89.7277 94.054 87.4265 94.054C85.0615 94.054 83.4507 95.2173 83.4571 97.0327C83.4507 98.4645 84.3328 99.4105 86.2185 99.8004L87.8932 100.152C88.7944 100.35 89.2163 100.714 89.2163 101.271C89.2163 101.942 88.4876 102.447 87.3882 102.447C86.3271 102.447 85.6368 101.987 85.4386 101.104L83.1822 101.322C83.4699 103.124 84.9848 104.192 87.3946 104.192C89.8491 104.192 91.5814 102.92 91.5878 101.06C91.5814 99.6598 90.6801 98.8033 88.8264 98.4006L87.1517 98.0426C86.1545 97.8189 85.7582 97.4737 85.7646 96.9048C85.7582 96.2401 86.4933 95.7798 87.4585 95.7798C88.526 95.7798 89.0885 96.3615 89.2675 97.0071L91.3768 96.777ZM94.3812 104.141C95.1355 104.141 95.7811 103.514 95.7875 102.734C95.7811 101.967 95.1355 101.341 94.3812 101.341C93.6014 101.341 92.9686 101.967 92.975 102.734C92.9686 103.514 93.6014 104.141 94.3812 104.141ZM101.919 104.192C104.386 104.192 105.959 102.728 106.125 100.644H103.913C103.715 101.699 102.955 102.306 101.938 102.306C100.494 102.306 99.5605 101.098 99.5605 99.0909C99.5605 97.1094 100.513 95.9205 101.938 95.9205C103.051 95.9205 103.735 96.6364 103.913 97.5824H106.125C105.965 95.4538 104.303 94.054 101.906 94.054C99.03 94.054 97.2146 96.1314 97.2146 99.1293C97.2146 102.102 98.9852 104.192 101.919 104.192ZM111.768 104.192C114.644 104.192 116.472 102.165 116.472 99.1293C116.472 96.0866 114.644 94.054 111.768 94.054C108.891 94.054 107.063 96.0866 107.063 99.1293C107.063 102.165 108.891 104.192 111.768 104.192ZM111.781 102.338C110.189 102.338 109.409 100.919 109.409 99.1229C109.409 97.3267 110.189 95.8885 111.781 95.8885C113.347 95.8885 114.127 97.3267 114.127 99.1229C114.127 100.919 113.347 102.338 111.781 102.338ZM117.896 104H120.21V98.0298C120.21 96.8217 121.016 96.0036 122.013 96.0036C122.991 96.0036 123.662 96.6619 123.662 97.6719V104H125.931V97.8764C125.931 96.7706 126.59 96.0036 127.708 96.0036C128.641 96.0036 129.383 96.5533 129.383 97.7678V104H131.703V97.4098C131.703 95.2173 130.438 94.054 128.635 94.054C127.21 94.054 126.123 94.7571 125.688 95.8501H125.586C125.209 94.7379 124.256 94.054 122.933 94.054C121.617 94.054 120.632 94.7315 120.223 95.8501H120.108V94.1818H117.896V104ZM138.854 90.2955H136.828L132.609 105.969H134.636L138.854 90.2955Z" fill="#1B1A18"/>
<path d="M141.229 107.682C143.032 107.682 144.074 106.755 144.63 105.189L148.574 94.1946L146.1 94.1818L143.831 101.597H143.728L141.466 94.1818H139.011L142.571 104.205L142.373 104.735C141.945 105.854 141.268 105.93 140.258 105.636L139.721 107.439C140.034 107.567 140.596 107.682 141.229 107.682ZM153.588 104.192C156.465 104.192 158.293 102.165 158.293 99.1293C158.293 96.0866 156.465 94.054 153.588 94.054C150.712 94.054 148.884 96.0866 148.884 99.1293C148.884 102.165 150.712 104.192 153.588 104.192ZM153.601 102.338C152.009 102.338 151.23 100.919 151.23 99.1229C151.23 97.3267 152.009 95.8885 153.601 95.8885C155.167 95.8885 155.947 97.3267 155.947 99.1229C155.947 100.919 155.167 102.338 153.601 102.338ZM165.975 99.8707C165.975 101.366 164.907 102.108 163.884 102.108C162.772 102.108 162.031 101.322 162.031 100.075V94.1818H159.717V100.433C159.717 102.792 161.059 104.128 162.99 104.128C164.46 104.128 165.495 103.354 165.943 102.255H166.045V104H168.289V94.1818H165.975V99.8707ZM170.128 104H172.442V98.228C172.442 96.9815 173.382 96.0994 174.654 96.0994C175.043 96.0994 175.529 96.1697 175.727 96.2337V94.1051C175.516 94.0668 175.152 94.0412 174.896 94.0412C173.771 94.0412 172.832 94.6804 172.474 95.8182H172.372V94.1818H170.128V104ZM182.254 97.5952H176.36V99.5H182.254V97.5952ZM186.462 90.9091H184.148V104H186.462V90.9091ZM192.584 104.192C195.46 104.192 197.288 102.165 197.288 99.1293C197.288 96.0866 195.46 94.054 192.584 94.054C189.707 94.054 187.879 96.0866 187.879 99.1293C187.879 102.165 189.707 104.192 192.584 104.192ZM192.596 102.338C191.005 102.338 190.225 100.919 190.225 99.1229C190.225 97.3267 191.005 95.8885 192.596 95.8885C194.162 95.8885 194.942 97.3267 194.942 99.1229C194.942 100.919 194.162 102.338 192.596 102.338ZM201.026 98.2472C201.026 96.8281 201.883 96.0099 203.103 96.0099C204.299 96.0099 205.015 96.7962 205.015 98.1065V104H207.329V97.7486C207.335 95.3963 205.993 94.054 203.966 94.054C202.496 94.054 201.486 94.7571 201.039 95.8501H200.924V94.1818H198.712V104H201.026V98.2472ZM213.411 107.886C216.063 107.886 218.019 106.672 218.019 104.16V94.1818H215.737V95.8054H215.61C215.258 95.0959 214.523 94.054 212.791 94.054C210.522 94.054 208.738 95.831 208.738 99.0589C208.738 102.261 210.522 103.859 212.784 103.859C214.465 103.859 215.252 102.958 215.61 102.236H215.725V104.096C215.725 105.54 214.766 106.135 213.449 106.135C212.056 106.135 211.442 105.477 211.161 104.901L209.077 105.406C209.499 106.781 210.911 107.886 213.411 107.886ZM213.43 102.044C211.902 102.044 211.097 100.855 211.097 99.0462C211.097 97.2628 211.889 95.9524 213.43 95.9524C214.919 95.9524 215.737 97.1861 215.737 99.0462C215.737 100.919 214.906 102.044 213.43 102.044ZM225.802 97.5952H219.908V99.5H225.802V97.5952ZM230.01 90.9091H227.696V104H230.01V90.9091ZM231.849 104H234.163V94.1818H231.849V104ZM233.012 92.7884C233.747 92.7884 234.348 92.2259 234.348 91.5355C234.348 90.8388 233.747 90.2763 233.012 90.2763C232.271 90.2763 231.67 90.8388 231.67 91.5355C231.67 92.2259 232.271 92.7884 233.012 92.7884ZM238.316 98.2472C238.316 96.8281 239.173 96.0099 240.394 96.0099C241.589 96.0099 242.305 96.7962 242.305 98.1065V104H244.619V97.7486C244.625 95.3963 243.283 94.054 241.257 94.054C239.786 94.054 238.776 94.7571 238.329 95.8501H238.214V94.1818H236.002V104H238.316V98.2472ZM246.431 104H248.745V100.702L249.589 99.8004L252.593 104H255.361L251.334 98.4197L255.137 94.1818H252.433L248.905 98.1257H248.745V90.9091H246.431V104Z" fill="#43BA7F"/>
<path d="M150.698 118.364V203.364" stroke="#263238" stroke-miterlimit="10" stroke-linecap="round" stroke-linejoin="round"/>
</svg>
