<svg width="5" height="5" viewBox="0 0 5 5" fill="none" xmlns="http://www.w3.org/2000/svg">
<path d="M4.45639 2.32929C4.32399 2.32929 4.20813 2.21344 4.20813 2.08103V1.08798C4.20813 0.955577 4.32399 0.839722 4.45639 0.839722C4.5888 0.839722 4.70465 0.955577 4.70465 1.08798V2.08103C4.70465 2.21344 4.5888 2.32929 4.45639 2.32929Z" fill="#A7B0B7"/>
<path d="M4.45591 2.32972H3.46286C3.33046 2.32972 3.2146 2.21386 3.2146 2.08145C3.2146 1.94905 3.33046 1.83319 3.46286 1.83319H4.45591C4.58832 1.83319 4.70417 1.94905 4.70417 2.08145C4.70417 2.21386 4.58832 2.32972 4.45591 2.32972Z" fill="#A7B0B7"/>
<path d="M2.73439 4.81149C1.64203 4.81149 0.748291 3.91774 0.748291 2.82539C0.748291 1.73304 1.64203 0.839294 2.73439 0.839294C3.39642 0.839294 4.0088 1.17031 4.38947 1.71649C4.47222 1.83234 4.43912 1.9813 4.32326 2.06405C4.20741 2.14681 4.05845 2.11371 3.9757 1.99785C3.69433 1.58408 3.23091 1.33582 2.73439 1.33582C1.90685 1.33582 1.24482 1.99785 1.24482 2.82539C1.24482 3.65293 1.90685 4.31496 2.73439 4.31496C3.33022 4.31496 3.87638 3.95085 4.10809 3.40467C4.15775 3.27226 4.3067 3.22261 4.43911 3.27226C4.57152 3.32192 4.62118 3.47087 4.57152 3.60328C4.25706 4.34807 3.54538 4.81149 2.73439 4.81149Z" fill="#A7B0B7"/>
</svg>
