<svg width="356" height="154" viewBox="0 0 356 154" fill="none" xmlns="http://www.w3.org/2000/svg">
<path d="M356 152.95C356 153.117 276.294 153.45 178 153.45C79.6537 153.45 0 153.284 0 152.95C0 152.617 79.7062 152.45 178 152.45C276.294 152.45 356 152.617 356 152.95Z" fill="#263238"/>
<path fill-rule="evenodd" clip-rule="evenodd" d="M300.68 2.55655H76.32C73.993 2.55655 72.1067 4.44264 72.1067 6.76925V139.131C72.1067 141.458 73.993 143.344 76.32 143.344H300.68C303.007 143.344 304.893 141.458 304.893 139.131V6.76926C304.893 4.44264 303.007 2.55655 300.68 2.55655ZM76.32 0.450195C72.8296 0.450195 70 3.27933 70 6.76925V139.131C70 142.621 72.8296 145.45 76.32 145.45H300.68C304.17 145.45 307 142.621 307 139.131V6.76926C307 3.27934 304.17 0.450195 300.68 0.450195H76.32Z" fill="black"/>
<path d="M76 9.60435C76 7.86236 77.4122 6.4502 79.1542 6.4502H297.846C299.588 6.4502 301 7.86236 301 9.60435V136.296C301 138.038 299.588 139.45 297.846 139.45H79.1542C77.4122 139.45 76 138.038 76 136.296V9.60435Z" fill="#FEEDC1"/>
<path d="M202.934 62.5343H162.349L172.882 50.3287C173.945 49.1476 173.848 47.2773 172.592 46.1946C171.432 45.1118 169.596 45.2103 168.533 46.4898L153.748 63.5185C153.748 63.6169 153.652 63.6169 153.652 63.7154C153.555 63.8138 153.555 63.8138 153.459 63.9123C153.362 64.0106 153.362 64.1092 153.362 64.2075C153.362 64.3059 153.266 64.3059 153.266 64.4044C153.266 64.5028 153.169 64.6013 153.169 64.6996C153.169 64.798 153.169 64.798 153.072 64.8965C152.976 65.2903 152.976 65.6841 153.072 65.9793C153.072 66.0776 153.072 66.0776 153.169 66.1762C153.169 66.2745 153.266 66.3731 153.266 66.4714C153.266 66.5697 153.362 66.5697 153.362 66.6683C153.362 66.7666 153.459 66.8652 153.459 66.9635C153.459 67.0619 153.555 67.0619 153.652 67.1604C153.652 67.2587 153.748 67.2587 153.748 67.3573L168.436 84.4844C169.016 85.1734 169.789 85.4688 170.659 85.4688C171.335 85.4688 172.012 85.2719 172.592 84.7798C173.751 83.697 173.944 81.8269 172.881 80.6456L162.349 68.44H202.934C211.341 68.44 218.202 75.4287 218.202 83.9923C218.202 92.5558 211.341 99.5445 202.934 99.5445H159.836C158.193 99.5445 156.937 100.824 156.937 102.497C156.937 104.171 158.194 105.45 159.836 105.45H202.934C214.53 105.45 224 95.8039 224 83.9921C224 72.1802 214.53 62.5343 202.934 62.5343Z" fill="#FFAC07" fill-opacity="0.56"/>
<path d="M202.934 60.2496H162.349L172.882 48.2474C173.945 47.086 173.848 45.2469 172.592 44.1822C171.432 43.1174 169.596 43.2143 168.533 44.4725L153.748 61.2174C153.748 61.3141 153.652 61.3141 153.652 61.411C153.555 61.5077 153.555 61.5077 153.459 61.6046C153.362 61.7013 153.362 61.7982 153.362 61.8949C153.362 61.9916 153.266 61.9916 153.266 62.0885C153.266 62.1852 153.169 62.2821 153.169 62.3788C153.169 62.4755 153.169 62.4755 153.072 62.5724C152.976 62.9596 152.976 63.3468 153.072 63.6371C153.072 63.7338 153.072 63.7338 153.169 63.8307C153.169 63.9274 153.266 64.0243 153.266 64.121C153.266 64.2178 153.362 64.2178 153.362 64.3146C153.362 64.4114 153.459 64.5083 153.459 64.605C153.459 64.7017 153.555 64.7017 153.652 64.7986C153.652 64.8953 153.748 64.8953 153.748 64.9922L168.436 81.8338C169.016 82.5113 169.789 82.8018 170.659 82.8018C171.335 82.8018 172.012 82.6082 172.592 82.1243C173.751 81.0596 173.944 79.2206 172.881 78.059L162.349 66.0569H202.934C211.341 66.0569 218.202 72.9291 218.202 81.3499C218.202 89.7707 211.341 96.6429 202.934 96.6429H159.836C158.193 96.6429 156.937 97.9012 156.937 99.5466C156.937 101.192 158.194 102.45 159.836 102.45H202.934C214.53 102.45 224 92.9647 224 81.3497C224 69.7347 214.53 60.2496 202.934 60.2496Z" fill="#1B1A18"/>
<path d="M76 9.5862C76 7.85423 77.4138 6.4502 79.1579 6.4502H297.842C299.586 6.4502 301 7.85423 301 9.5862V20.4502H76V9.5862Z" fill="white"/>
<path d="M82.5 14.4502C83.3284 14.4502 84 14.0025 84 13.4502C84 12.8979 83.3284 12.4502 82.5 12.4502C81.6716 12.4502 81 12.8979 81 13.4502C81 14.0025 81.6716 14.4502 82.5 14.4502Z" fill="#FA5252"/>
<path d="M87 14.4502C87.5523 14.4502 88 14.0025 88 13.4502C88 12.8979 87.5523 12.4502 87 12.4502C86.4477 12.4502 86 12.8979 86 13.4502C86 14.0025 86.4477 14.4502 87 14.4502Z" fill="#FAE269"/>
<path d="M91.5 14.4502C92.3284 14.4502 93 14.0025 93 13.4502C93 12.8979 92.3284 12.4502 91.5 12.4502C90.6716 12.4502 90 12.8979 90 13.4502C90 14.0025 90.6716 14.4502 91.5 14.4502Z" fill="#61D45B"/>
<path d="M121 12.9502C121 10.4649 123.023 8.4502 125.519 8.4502H251.481C253.977 8.4502 256 10.4649 256 12.9502C256 15.4355 253.977 17.4502 251.481 17.4502H125.519C123.023 17.4502 121 15.4355 121 12.9502Z" fill="white"/>
<path fill-rule="evenodd" clip-rule="evenodd" d="M251.481 8.9752H125.519C123.314 8.9752 121.527 10.7549 121.527 12.9502C121.527 15.1455 123.314 16.9252 125.519 16.9252H251.481C253.686 16.9252 255.473 15.1455 255.473 12.9502C255.473 10.7549 253.686 8.9752 251.481 8.9752ZM125.519 8.4502C123.023 8.4502 121 10.4649 121 12.9502C121 15.4355 123.023 17.4502 125.519 17.4502H251.481C253.977 17.4502 256 15.4355 256 12.9502C256 10.4649 253.977 8.4502 251.481 8.4502H125.519Z" fill="#EBEEF5"/>
<path d="M96 12.9502C96 10.4649 98.0296 8.4502 100.533 8.4502H108.467C110.97 8.4502 113 10.4649 113 12.9502C113 15.4355 110.97 17.4502 108.467 17.4502H100.533C98.0296 17.4502 96 15.4355 96 12.9502Z" fill="white"/>
<path fill-rule="evenodd" clip-rule="evenodd" d="M108.467 8.9752H100.533C98.3217 8.9752 96.5289 10.7549 96.5289 12.9502C96.5289 15.1455 98.3217 16.9252 100.533 16.9252H108.467C110.678 16.9252 112.471 15.1455 112.471 12.9502C112.471 10.7549 110.678 8.9752 108.467 8.9752ZM100.533 8.4502C98.0296 8.4502 96 10.4649 96 12.9502C96 15.4355 98.0296 17.4502 100.533 17.4502H108.467C110.97 17.4502 113 15.4355 113 12.9502C113 10.4649 110.97 8.4502 108.467 8.4502H100.533Z" fill="#EBEEF5"/>
<path d="M100.266 12.9471L100.96 11.767C101.004 11.6924 101.004 11.5806 100.96 11.5061C100.916 11.4316 100.85 11.4316 100.807 11.5061L100.033 12.8229C99.9891 12.8974 99.9891 13.0092 100.033 13.0837L100.807 14.4005C100.828 14.4378 100.858 14.4502 100.887 14.4502C100.916 14.4502 100.945 14.4378 100.967 14.4005C101.011 14.326 101.011 14.2142 100.967 14.1396L100.266 12.9471Z" fill="#A7B0B7"/>
<path d="M108.932 12.8286L107.375 11.5063C107.286 11.4315 107.154 11.4315 107.066 11.5063C106.978 11.5812 106.978 11.6934 107.066 11.7683L108.462 12.9533L107.066 14.1383C106.978 14.2132 106.978 14.3255 107.066 14.4003C107.11 14.4377 107.169 14.4502 107.228 14.4502C107.286 14.4502 107.345 14.4377 107.389 14.4003L108.947 13.0781C109.02 13.0157 109.02 12.9034 108.932 12.8286Z" fill="#A7B0B7"/>
<path d="M104.344 10.574L104.004 10.5762L104.039 16.0612L104.379 16.0591L104.344 10.574Z" fill="#EDF3F7"/>
<path d="M287.5 15.4502C287.233 15.4502 287 15.3724 287 15.2835V12.6169C287 12.528 287.233 12.4502 287.5 12.4502C287.767 12.4502 288 12.528 288 12.6169V15.2835C288 15.3724 287.767 15.4502 287.5 15.4502Z" fill="#A7B0B7"/>
<path d="M295.571 14.4502H294.429C294.19 14.4502 294 14.2597 294 14.0216V12.8788C294 12.6407 294.19 12.4502 294.429 12.4502H295.571C295.81 12.4502 296 12.6407 296 12.8788V14.0216C296 14.2597 295.81 14.4502 295.571 14.4502ZM294.429 12.7359C294.352 12.7359 294.286 12.8026 294.286 12.8788V14.0216C294.286 14.0978 294.352 14.1645 294.429 14.1645H295.571C295.648 14.1645 295.714 14.0978 295.714 14.0216V12.8788C295.714 12.8026 295.648 12.7359 295.571 12.7359H294.429Z" fill="#A7B0B7"/>
<path d="M295.867 14.4502H294.133C294.056 14.4502 294 14.3946 294 14.3169V12.5835C294 12.5058 294.056 12.4502 294.133 12.4502H295.867C295.944 12.4502 296 12.5058 296 12.5835V14.3169C296 14.3946 295.944 14.4502 295.867 14.4502Z" fill="#EBEEF5"/>
<path d="M295.357 15.4502H293.643C293.286 15.4502 293 15.1645 293 14.8073V13.0931C293 12.7359 293.286 12.4502 293.643 12.4502H295.357C295.714 12.4502 296 12.7359 296 13.0931V14.8073C296 15.1645 295.714 15.4502 295.357 15.4502ZM293.643 12.8788C293.529 12.8788 293.429 12.9788 293.429 13.0931V14.8073C293.429 14.9216 293.529 15.0216 293.643 15.0216H295.357C295.471 15.0216 295.571 14.9216 295.571 14.8073V13.0931C295.571 12.9788 295.471 12.8788 295.357 12.8788H293.643Z" fill="#A7B0B7"/>
<path d="M261.833 13.4502H261.167C261.078 13.4502 261 13.2169 261 12.9502C261 12.6835 261.078 12.4502 261.167 12.4502H261.833C261.922 12.4502 262 12.6835 262 12.9502C262 13.2169 261.922 13.4502 261.833 13.4502Z" fill="#A7B0B7"/>
<path d="M260.551 14.4502C259.698 14.4502 259 14.0002 259 13.4502C259 12.9002 259.698 12.4502 260.551 12.4502C261.068 12.4502 261.546 12.6169 261.843 12.8919C261.908 12.9502 261.882 13.0252 261.791 13.0669C261.701 13.1085 261.585 13.0919 261.52 13.0335C261.3 12.8252 260.938 12.7002 260.551 12.7002C259.905 12.7002 259.388 13.0335 259.388 13.4502C259.388 13.8669 259.905 14.2002 260.551 14.2002C261.016 14.2002 261.442 14.0169 261.623 13.7419C261.662 13.6752 261.778 13.6502 261.882 13.6752C261.985 13.7002 262.024 13.7752 261.985 13.8419C261.74 14.2169 261.184 14.4502 260.551 14.4502Z" fill="#A7B0B7"/>
<path d="M142 152.45L162 152.254L160.404 145.677L142.585 144.45L142 152.45Z" fill="#ECC1B0"/>
<path d="M151.319 144.131L160.574 144.716C160.574 144.716 164.298 135.503 166 135.45L165.468 153.45L151 153.077L151.319 144.131Z" fill="#FCC232"/>
<path d="M160.03 149.685C160.107 150.213 160.373 150.514 160.602 150.439C160.869 150.363 161.059 149.761 160.983 149.308C160.945 148.781 160.602 148.329 160.373 148.48C160.145 148.63 159.916 149.308 160.03 149.761" fill="#E0E0E0"/>
<path d="M165.421 153.45L164 153.344L165.053 136.15C165.053 136.15 165.421 135.354 166 135.46L165.421 153.45Z" fill="#E0E0E0"/>
<path d="M161.065 144.45C161.168 144.45 161.168 144.703 161.426 144.988C161.685 145.242 162.047 145.4 161.995 145.432C161.995 145.495 161.478 145.4 161.168 145.083C160.91 144.767 161.013 144.45 161.065 144.45Z" fill="#263238"/>
<path d="M162.018 142.45C162.096 142.45 162.175 142.753 162.45 143.012C162.725 143.271 163 143.357 163 143.4C163 143.487 162.646 143.487 162.293 143.185C161.979 142.882 161.979 142.45 162.018 142.45Z" fill="#263238"/>
<path d="M164 141.319C164 141.442 163.432 141.565 162.794 141.257C162.155 141.011 161.942 140.52 162.013 140.458C162.084 140.397 162.439 140.704 162.936 140.95C163.503 141.196 164 141.257 164 141.319Z" fill="#263238"/>
<path d="M158.833 144.455C158.972 144.51 158.694 144.897 158.694 145.45C158.694 145.947 159.11 146.39 158.972 146.445C158.833 146.5 158 146.113 158 145.505C158 144.842 158.694 144.4 158.833 144.455Z" fill="#263238"/>
<path d="M156.926 144.454C156.993 144.454 157.059 144.723 156.86 145.108C156.793 145.3 156.661 145.531 156.461 145.8C156.328 145.916 156.262 146.031 156.129 146.185C156.063 146.262 155.996 146.3 155.864 146.377C155.731 146.454 155.465 146.493 155.266 146.377C155.066 146.3 155 146.185 155 146.108C155 146.031 155.066 145.954 155.066 145.877C155.133 145.723 155.199 145.608 155.332 145.493C155.531 145.262 155.797 145.031 156.063 144.915C156.528 144.608 156.993 144.531 156.993 144.531C157.059 144.569 156.661 144.685 156.262 144.992C156.063 145.146 155.864 145.339 155.664 145.569C155.598 145.685 155.531 145.8 155.465 145.954C155.399 146.108 155.399 146.223 155.465 146.262C155.531 146.262 155.531 146.262 155.598 146.262C155.664 146.223 155.731 146.185 155.797 146.108C155.93 145.993 156.063 145.877 156.129 145.762C156.328 145.531 156.461 145.339 156.594 145.146C156.86 144.685 156.86 144.415 156.926 144.454Z" fill="#263238"/>
<path d="M157 144.169C157 144.239 156.654 144.45 156.077 144.45C155.788 144.45 155.385 144.38 155.038 144.239C154.865 144.169 154.635 144.028 154.462 143.888C154.288 143.747 154 143.536 154 143.114C154 142.903 154.173 142.692 154.288 142.622C154.404 142.552 154.519 142.552 154.635 142.481C154.865 142.411 155.096 142.481 155.269 142.481C155.673 142.552 156.019 142.763 156.25 143.044C156.769 143.536 156.827 144.028 156.827 144.028C156.769 144.099 156.596 143.677 156.135 143.255C155.904 143.044 155.615 142.903 155.212 142.833C155.038 142.833 154.865 142.833 154.635 142.833C154.404 142.833 154.231 142.974 154.288 143.044C154.288 143.185 154.462 143.395 154.577 143.466C154.75 143.606 154.923 143.677 155.096 143.747C155.442 143.888 155.788 143.958 156.077 144.028C156.596 144.169 156.942 144.099 157 144.169Z" fill="#263238"/>
<path d="M19 147.45L17.5128 152.45L1 152.314C1 152.314 3.25641 150.814 11.5641 150.905L12.3846 147.45H19Z" fill="#ECC1B0"/>
<path d="M36.4637 68.4502C35.9782 67.4955 35.4927 66.4878 35.223 65.427C34.9533 64.3662 34.8993 63.2524 35.223 62.2447C35.6006 61.2369 36.4097 60.3353 37.4886 60.0701C38.1359 59.9109 38.8911 59.964 39.4844 59.6988C40.1857 59.3806 40.6712 58.6911 41.2106 58.1607C42.0737 57.3121 43.2065 56.7286 44.4472 56.5165C45.0945 56.4104 45.7418 56.4104 46.3351 56.6756C46.9285 56.9408 47.414 57.4712 47.5219 58.1076C48.2771 57.8424 49.0323 57.5242 49.7875 57.4712C50.5966 57.3651 51.4057 57.5242 52.0531 58.0016C52.7004 58.4789 53.024 59.3806 52.7004 60.0701C53.3477 59.6458 54.2647 59.9109 54.6962 60.4944C55.1278 61.0778 55.0738 61.9795 54.6962 62.5629C54.3186 63.1994 53.2937 63.7828 52.5925 63.8889C51.8373 64.048 50.9742 64.1541 50.2729 63.9419" fill="#263238"/>
<path d="M44.4454 91.4009C47.4879 91.0408 49.6386 88.3149 49.2714 85.3833C49.0615 83.7374 48.9042 82.3488 48.9042 82.3488C48.9042 82.3488 53.1531 81.4744 52.9957 77.257C52.8384 73.0395 51.5794 63.3703 51.5794 63.3703C46.4912 61.5187 40.7735 62.4959 36.6295 65.9933L36 66.5076L38.2031 86.6177C38.5703 89.6007 41.3505 91.8123 44.4454 91.4009Z" fill="#ECC1B0"/>
<path d="M48.9545 82.4998C48.9545 82.4998 46.5909 82.7938 44 81.4502C44 81.4502 45.2727 83.8854 49 83.3816L48.9545 82.4998Z" fill="#AA6550"/>
<path d="M37.5298 70.567C37.4635 70.5086 33.7482 69.7495 34.0136 73.0195C34.3453 76.2894 37.9943 75.3551 37.9943 75.2384C38.0606 75.18 37.5298 70.567 37.5298 70.567Z" fill="#ECC1B0"/>
<path d="M37 74.0074C37 74.0074 36.9242 74.0683 36.7727 74.1292C36.6211 74.1901 36.4695 74.2509 36.2422 74.1901C35.7875 74.0683 35.3328 73.5203 35.2571 72.9115C35.1813 72.607 35.2571 72.3026 35.4086 72.0591C35.4844 71.8155 35.7117 71.6329 35.9391 71.572C36.1664 71.5111 36.318 71.6329 36.3938 71.6937C36.4695 71.8155 36.4695 71.8764 36.4695 71.8764C36.4695 71.8764 36.5453 71.8155 36.4695 71.6937C36.4695 71.6329 36.3938 71.572 36.318 71.5111C36.2422 71.4502 36.0906 71.4502 35.8633 71.4502C35.5602 71.5111 35.2571 71.7546 35.1813 72.0591C35.0297 72.3635 34.9539 72.6679 35.0297 73.0332C35.1055 73.703 35.636 74.3118 36.2422 74.4336C36.5453 74.4945 36.7727 74.3727 36.9242 74.3118C37 74.1292 37 74.0683 37 74.0074Z" fill="#AA6550"/>
<path d="M50.9947 69.9021C51.036 70.1733 50.8298 70.4444 50.5412 70.4444C50.2939 70.4896 50.0465 70.2636 50.0053 69.9925C49.964 69.7213 50.1702 69.4502 50.4588 69.4502C50.7474 69.4502 50.9947 69.631 50.9947 69.9021Z" fill="#263238"/>
<path d="M52 69.3014C51.9351 69.4433 51.2866 68.9467 50.5083 69.0177C49.6651 69.0177 49.0814 69.5142 49.0165 69.4433C48.9517 69.3723 49.0814 69.2305 49.3408 68.9467C49.6003 68.7339 49.9894 68.5211 50.5083 68.4502C51.0271 68.4502 51.4811 68.5921 51.7406 68.8049C51.9351 69.0886 52 69.2305 52 69.3014Z" fill="#263238"/>
<path d="M44.9895 70.354C45.072 70.8963 44.6597 71.4386 44.0825 71.4386C43.5877 71.529 43.093 71.0771 43.0105 70.5348C42.928 69.9925 43.3403 69.4502 43.9175 69.4502C44.4948 69.4502 44.9895 69.8117 44.9895 70.354Z" fill="#263238"/>
<path d="M45 69.3014C44.9568 69.4433 44.5244 68.9467 44.0055 69.0177C43.4434 69.0177 43.0543 69.5142 43.011 69.4433C42.9678 69.3723 43.0543 69.2305 43.2272 68.9467C43.4002 68.7339 43.6596 68.5211 44.0055 68.4502C44.3514 68.4502 44.6541 68.5921 44.827 68.8049C44.9568 69.0177 45 69.2305 45 69.3014Z" fill="#263238"/>
<path d="M47.5645 74.4266C47.5645 74.3697 47.9389 74.3128 48.5005 74.1421C48.6409 74.1421 48.7813 74.0852 48.8281 73.9145C48.8749 73.8007 48.7813 73.5731 48.6877 73.4023C48.5473 72.9471 48.3601 72.4919 48.1729 72.0366C47.4709 70.1019 46.9562 68.5086 47.003 68.4517C47.0498 68.3948 47.7049 69.9881 48.4069 71.9228C48.5941 72.3781 48.7345 72.8902 48.8749 73.2885C48.9217 73.5162 49.0621 73.7438 48.9685 74.0283C48.9217 74.1421 48.8281 74.2559 48.7345 74.3128C48.6409 74.3697 48.5473 74.3697 48.5005 74.3697C47.9389 74.4266 47.5645 74.4835 47.5645 74.4266Z" fill="#263238"/>
<path d="M46.0846 74.4588C46.1758 74.4588 46.2214 75.1933 46.7687 75.7583C47.3159 76.2668 48 76.1538 48 76.2668C48 76.3233 47.8632 76.4363 47.5896 76.4363C47.3159 76.4928 46.9055 76.3798 46.5863 76.0408C46.267 75.7018 46.0846 75.3063 46.039 74.9673C45.9478 74.6283 46.039 74.4023 46.0846 74.4588Z" fill="#263238"/>
<path d="M50.9878 68.2874C50.8939 68.4967 50.4716 68.2874 50.0024 68.3572C49.5331 68.3572 49.1108 68.5665 49.0169 68.3572C48.97 68.2874 49.0169 68.0781 49.2046 67.8688C49.3923 67.6595 49.6739 67.52 50.0024 67.4502C50.3308 67.4502 50.6593 67.5897 50.8001 67.799C50.9409 68.0083 51.0347 68.2176 50.9878 68.2874Z" fill="#263238"/>
<path d="M43.9794 67.286C43.9202 67.4054 43.6836 67.3457 43.4469 67.3457C43.2103 67.286 42.8553 67.286 42.5004 67.286C42.1454 67.286 41.8496 67.3457 41.5538 67.4054C41.3171 67.4651 41.1397 67.4651 41.0213 67.4054C40.9622 67.3457 41.0213 67.1069 41.258 66.8681C41.4946 66.6293 41.9679 66.4502 42.4412 66.4502C42.9736 66.4502 43.3878 66.6293 43.6836 66.8681C43.9794 66.9875 44.0385 67.1666 43.9794 67.286Z" fill="#263238"/>
<path d="M52 64.0479C52 64.0479 49.2308 65.1273 45.8462 64.0479C43.6411 63.3284 41.1283 63.1742 40.6668 63.6882C40.2053 64.2021 40.4104 66.3094 38.4617 67.2859C38.4617 67.2859 39.2309 71.3462 37.5899 71.449C35.9489 71.5518 36.0002 65.0759 36.0002 65.0759L39.6412 62.5574L43.8462 61.0669L47.8975 60.4502L51.8462 61.0155L52 64.0479Z" fill="#263238"/>
<path d="M58.4002 91.2878L71.2689 103.416L91.618 89.4502L98 96.8007L78.3832 112.552C76.3954 114.337 73.8844 115.334 71.2689 115.439C67.6594 115.597 64.2068 114.022 61.9051 111.239L55 105.411L58.4002 91.2878Z" fill="#FCC232"/>
<path d="M46.6948 85.4502L58.7419 90.6957L58.3211 94.0338L63.8975 116.394L70 120.897L64.9497 128.368C63.7923 130.064 62.3193 131.441 60.5832 132.501L48.5887 139.707C46.2739 140.555 43.6435 139.442 42.644 137.164L32.0172 112.897L21.3379 146.224C20.654 148.397 18.497 149.721 16.2875 149.403L12.0789 148.767C10.6585 148.556 9.71156 147.125 10.0798 145.694L22.0218 98.9614C22.6531 96.5241 23.7052 94.1927 25.073 92.1263C27.6508 88.2054 32.0172 85.8211 36.6993 85.7151L46.6948 85.4502Z" fill="#FCC232"/>
<path d="M50.8943 86.3146L50.4833 84.1894L38 83.4502V86.2684C38.1027 87.0538 39.5412 86.8228 40.8768 87.331L46.9901 88.4398C48.4798 88.5322 51.6135 88.024 50.8943 86.3146Z" fill="#FCC232"/>
<path d="M63.9856 116.45C63.9856 116.45 63.82 116.139 63.6543 115.62C63.4334 115.101 63.1573 114.271 62.826 113.285C62.1633 111.313 61.2798 108.615 60.4514 105.554C59.6231 102.493 58.9604 99.7426 58.5739 97.7191C58.353 96.7332 58.1873 95.903 58.1321 95.3323C58.0217 94.7615 57.9664 94.4502 58.0217 94.4502C58.0217 94.4502 58.1321 94.7615 58.2426 95.3323C58.4082 95.9549 58.5739 96.7332 58.7948 97.7191C59.2365 99.7426 59.9544 102.493 60.7828 105.554C61.6111 108.615 62.4394 111.313 63.0469 113.285C63.323 114.219 63.5991 115.049 63.7648 115.62C63.9304 116.139 64.0409 116.45 63.9856 116.45Z" fill="#263238"/>
<path d="M35.9918 102.45C36.0456 102.45 35.8304 103.07 35.4538 104.103C35.0771 105.187 34.5929 106.478 34.0548 107.976C33.5168 109.474 33.0325 110.765 32.6559 111.849C32.2792 112.83 32.064 113.45 32.0102 113.45C31.9564 113.45 32.1178 112.83 32.4406 111.798C32.7635 110.765 33.2477 109.422 33.7858 107.873C34.3238 106.375 34.8619 104.981 35.2923 103.999C35.7228 103.07 35.9918 102.45 35.9918 102.45Z" fill="#263238"/>
<path opacity="0.2" d="M32 112.846C33.028 115.194 34.1102 117.543 35.1382 119.945C35.3005 120.319 35.4629 120.693 35.7875 121.013C36.058 121.333 36.4909 121.493 36.9238 121.44C37.6813 121.28 37.8977 120.266 37.9518 119.465C38.1141 114.287 37.9518 109.002 36.1121 104.198C36.0039 103.824 35.7334 103.45 35.3546 103.45C35.03 103.504 34.8677 103.877 34.7595 104.198C33.8938 107.24 33.028 110.23 32.2164 113.273" fill="black"/>
<path opacity="0.2" d="M65.3628 113.45C65.7876 113.249 66 112.747 66 112.295C66 111.843 65.7876 111.391 65.6283 110.989C64.2478 107.875 62.3363 105.012 60 102.45L62.5487 110.989L65.3628 113.45Z" fill="black"/>
<path d="M25.0158 109.45C24.9351 109.45 25.1772 106.528 25.4193 102.95C25.7421 99.3727 25.9842 96.4502 25.9842 96.4502C26.0649 96.4502 25.8228 99.3727 25.5807 102.95C25.3386 106.528 25.0158 109.45 25.0158 109.45Z" fill="#E0E0E0"/>
<path d="M27.95 99.4502C27.95 99.4502 27.95 99.5403 28 99.6754C28 99.8106 28 100.036 28 100.261C27.95 100.757 27.85 101.432 27.55 102.153C27.25 102.874 26.85 103.459 26.55 103.865C26.4 104.045 26.25 104.225 26.15 104.315C26.05 104.405 26 104.45 26 104.45C26 104.45 26.2 104.225 26.55 103.82C26.85 103.414 27.25 102.829 27.5 102.108C27.8 101.387 27.9 100.711 27.95 100.216C27.95 99.7655 27.9 99.4502 27.95 99.4502Z" fill="#E0E0E0"/>
<path d="M23 99.4502C23 99.4502 23.0698 99.766 23.2093 100.24C23.3488 100.713 23.5581 101.398 23.9767 102.134C24.3953 102.819 24.8837 103.45 25.3023 103.819C25.7209 104.24 26 104.45 26 104.45C26 104.45 25.9302 104.398 25.7907 104.292C25.6512 104.187 25.4419 104.029 25.2326 103.819C24.814 103.45 24.2558 102.819 23.8372 102.134C23.4186 101.398 23.2093 100.713 23.0698 100.24C23 99.9765 23 99.766 23 99.6607C23 99.5555 23 99.4502 23 99.4502Z" fill="#E0E0E0"/>
<path d="M27 97.4502C27 97.4502 27 97.5057 27 97.6724C27 97.7835 27 98.0057 27 98.228C26.9615 98.728 26.9231 99.3391 26.7692 100.061C26.6154 100.784 26.4231 101.395 26.2692 101.784C26.1923 102.006 26.1154 102.172 26.0769 102.284C26.0385 102.395 26 102.45 26 102.45C26 102.45 26.0769 102.172 26.2308 101.784C26.3846 101.339 26.5769 100.728 26.6923 100.061C26.8462 99.3391 26.9231 98.728 26.9615 98.228C27 97.7835 27 97.4502 27 97.4502Z" fill="#E0E0E0"/>
<path d="M24.0769 97.4502C24.0769 97.4502 24.0769 97.7963 24.0769 98.3733C24.0769 98.9502 24.1538 99.7002 24.4615 100.566C24.6923 101.431 25.0769 102.123 25.4615 102.643C25.7692 103.162 26 103.45 26 103.45C26 103.45 25.9231 103.393 25.7692 103.219C25.6154 103.104 25.4615 102.873 25.3077 102.643C24.9231 102.123 24.5385 101.373 24.3077 100.566C24.0769 99.7002 24 98.8925 24 98.3733C24 98.0848 24 97.854 24.0769 97.681C24 97.5656 24 97.4502 24.0769 97.4502Z" fill="#E0E0E0"/>
<path d="M25.2889 96.4502C25.2889 96.4502 25.2099 96.7042 25.1309 97.0216C25.0519 97.4026 25.0519 97.9105 25.2099 98.4819C25.5259 99.5613 26 100.45 26 100.45C26 100.45 25.842 100.26 25.684 99.8788C25.526 99.5613 25.2889 99.0534 25.1309 98.4819C24.9729 97.9105 24.9729 97.4026 25.0519 97.0216C25.1309 96.6407 25.2889 96.4502 25.2889 96.4502Z" fill="#E0E0E0"/>
<path d="M24 103.45C24.0286 103.45 24.1714 103.95 24.4571 104.496C24.7429 105.041 25 105.405 25 105.45C25 105.45 24.9143 105.359 24.8 105.223C24.6857 105.087 24.5429 104.859 24.4 104.541C24.2571 104.268 24.1429 103.996 24.0857 103.768C24.0286 103.587 24 103.45 24 103.45Z" fill="#E0E0E0"/>
<path d="M28 104.459C28 104.459 27.8667 104.591 27.6667 104.811C27.4667 105.031 27.0667 105.295 26.6667 105.559C26.2667 105.823 25.8667 106.087 25.5333 106.219C25.2 106.395 25 106.483 25 106.439C25 106.439 25.1333 106.307 25.4667 106.175C25.7333 105.999 26.1333 105.779 26.5333 105.471C26.9333 105.207 27.2667 104.943 27.5333 104.723C27.8 104.547 27.9333 104.415 28 104.459Z" fill="#E0E0E0"/>
<path d="M16.0158 143.45C15.9351 143.45 16.1772 140.528 16.4193 136.95C16.7421 133.373 16.9842 130.45 16.9842 130.45C17.0649 130.45 16.8228 133.373 16.5807 136.95C16.3386 140.578 16.0158 143.45 16.0158 143.45Z" fill="#E0E0E0"/>
<path d="M18.95 133.45C18.95 133.45 18.95 133.54 19 133.675C19 133.811 19 134.036 19 134.261C18.95 134.756 18.85 135.432 18.55 136.153C18.25 136.874 17.85 137.459 17.55 137.865C17.4 138.045 17.25 138.225 17.15 138.315C17.05 138.405 17 138.45 17 138.45C17 138.45 17.2 138.225 17.55 137.82C17.85 137.414 18.25 136.829 18.5 136.108C18.8 135.387 18.9 134.711 18.95 134.216C18.95 133.766 18.95 133.45 18.95 133.45Z" fill="#E0E0E0"/>
<path d="M14 133.45C14 133.45 14.0698 133.766 14.2093 134.24C14.3488 134.713 14.5581 135.398 14.9767 136.134C15.3953 136.819 15.8837 137.45 16.3023 137.819C16.7209 138.24 17 138.45 17 138.45C17 138.45 16.9302 138.398 16.7907 138.292C16.6512 138.187 16.4419 138.029 16.2326 137.819C15.814 137.45 15.2558 136.819 14.8372 136.134C14.4186 135.398 14.2093 134.713 14.0698 134.24C14 133.977 14 133.766 14 133.661C14 133.503 14 133.45 14 133.45Z" fill="#E0E0E0"/>
<path d="M18 131.45C18 131.45 18 131.506 18 131.672C18 131.784 18 132.006 18 132.228C17.9615 132.728 17.9231 133.339 17.7692 134.061C17.6154 134.784 17.4231 135.395 17.2692 135.784C17.1923 136.006 17.1154 136.172 17.0769 136.284C17.0385 136.395 17 136.45 17 136.45C17 136.45 17.0769 136.172 17.2308 135.784C17.3846 135.339 17.5769 134.728 17.6923 134.061C17.8462 133.339 17.9231 132.728 17.9615 132.228C17.9615 131.728 17.9615 131.45 18 131.45Z" fill="#E0E0E0"/>
<path d="M15.0769 131.45C15.0769 131.45 15.0769 131.796 15.0769 132.373C15.0769 132.95 15.1538 133.7 15.4615 134.566C15.6923 135.431 16.0769 136.123 16.4615 136.643C16.7692 137.162 17 137.45 17 137.45C17 137.45 16.9231 137.393 16.7692 137.219C16.6154 137.104 16.4615 136.873 16.3077 136.643C15.9231 136.123 15.5385 135.373 15.3077 134.566C15.0769 133.7 15 132.893 15 132.373C15 132.085 15 131.854 15.0769 131.681C15 131.508 15.0769 131.45 15.0769 131.45Z" fill="#E0E0E0"/>
<path d="M16.2889 130.45C16.2889 130.45 16.2099 130.641 16.1309 130.879C16.0519 131.164 16.0519 131.545 16.2099 131.974C16.5259 132.784 17 133.45 17 133.45C17 133.45 16.842 133.307 16.684 133.022C16.5259 132.784 16.2889 132.403 16.1309 131.974C15.9729 131.545 15.9729 131.164 16.0519 130.879C16.1309 130.593 16.2099 130.45 16.2889 130.45Z" fill="#E0E0E0"/>
<path d="M15.0151 137.45C15.0718 137.45 15.3554 137.95 15.9225 138.496C16.4896 139.041 17 139.405 17 139.45C17 139.45 16.8299 139.359 16.603 139.223C16.3762 139.087 16.0926 138.859 15.8091 138.541C15.5255 138.268 15.2986 137.996 15.1852 137.768C15.0718 137.587 14.9584 137.45 15.0151 137.45Z" fill="#E0E0E0"/>
<path d="M19 138.45C19 138.45 18.8667 138.583 18.6667 138.804C18.4667 139.025 18.0667 139.29 17.6667 139.555C17.2667 139.82 16.8667 140.085 16.5333 140.218C16.2 140.395 16 140.483 16 140.439C16 140.439 16.1333 140.306 16.4667 140.174C16.7333 139.997 17.1333 139.776 17.5333 139.467C17.9333 139.202 18.2667 138.936 18.5333 138.715C18.8 138.583 19 138.45 19 138.45Z" fill="#E0E0E0"/>
<path d="M37.95 89.4502C37.95 89.4502 37.95 89.5583 38 89.7205C38 89.8826 38 90.1529 38 90.4232C37.95 91.0178 37.85 91.8286 37.55 92.6934C37.25 93.5583 36.85 94.261 36.55 94.7475C36.4 94.9637 36.25 95.1799 36.15 95.288C36.05 95.3961 36 95.4502 36 95.4502C36 95.4502 36.2 95.1799 36.55 94.6934C36.85 94.207 37.25 93.5043 37.5 92.6394C37.8 91.7745 37.9 90.9637 37.95 90.3691C37.95 89.7745 37.95 89.4502 37.95 89.4502Z" fill="#E0E0E0"/>
<path d="M34 90.4502C34 90.4502 34.0465 90.7028 34.1395 91.0818C34.2326 91.4607 34.3721 92.0081 34.6512 92.5976C34.9302 93.1449 35.2558 93.6502 35.5349 93.9449C35.814 94.2818 36 94.4502 36 94.4502C36 94.4502 35.9535 94.4081 35.8605 94.3239C35.7674 94.2397 35.6279 94.1133 35.4884 93.9449C35.2093 93.6502 34.8372 93.1449 34.5581 92.5976C34.2791 92.0081 34.1395 91.4607 34.0465 91.0818C34 90.8712 34 90.7028 34 90.6186C34 90.4923 34 90.4502 34 90.4502Z" fill="#E0E0E0"/>
<path d="M38 87.4502C38 87.4502 38 87.5058 38 87.6724C38 87.7835 38 88.0058 38 88.228C37.9231 88.728 37.8462 89.3391 37.5385 90.0613C37.2308 90.7835 36.8462 91.3946 36.5385 91.7835C36.3846 92.0057 36.2308 92.1724 36.1538 92.2835C36.0769 92.3946 36 92.4502 36 92.4502C36 92.4502 36.1538 92.1724 36.4615 91.7835C36.7692 91.3391 37.1538 90.728 37.3846 90.0613C37.6923 89.3391 37.8462 88.728 37.9231 88.228C37.9231 87.7835 37.9231 87.4502 38 87.4502Z" fill="#E0E0E0"/>
<path d="M35.0385 88.4502C35.0385 88.4502 35.0385 88.7387 35.0385 89.2194C35.0385 89.7002 35.0769 90.3252 35.2308 91.0463C35.3462 91.7675 35.5385 92.3444 35.7308 92.7771C35.8846 93.2098 36 93.4502 36 93.4502C36 93.4502 35.9615 93.4021 35.8846 93.2579C35.8077 93.1617 35.7308 92.9694 35.6538 92.7771C35.4615 92.3444 35.2692 91.7194 35.1538 91.0463C35.0385 90.3252 35 89.6521 35 89.2194C35 88.979 35 88.7867 35.0385 88.6425C35 88.5464 35.0385 88.4502 35.0385 88.4502Z" fill="#E0E0E0"/>
<path d="M34.0151 93.4502C34.0718 93.4502 34.3554 94.2002 34.9225 95.0184C35.4896 95.8366 36 96.382 36 96.4502C36 96.4502 35.8299 96.3138 35.603 96.1093C35.3762 95.9047 35.0926 95.5638 34.8091 95.0866C34.5255 94.6775 34.2986 94.2684 34.1852 93.9275C34.0718 93.6547 33.9584 93.4502 34.0151 93.4502Z" fill="#E0E0E0"/>
<path d="M38 94.463C38 94.463 37.9111 94.661 37.7778 94.991C37.6444 95.3211 37.3778 95.7172 37.1111 96.1132C36.8444 96.5093 36.5778 96.9053 36.3556 97.1033C36.1333 97.3674 36 97.4994 36 97.4334C36 97.4334 36.0889 97.2353 36.3111 97.0373C36.4889 96.7733 36.7556 96.4432 37.0222 95.9812C37.2889 95.5851 37.5111 95.1891 37.6889 94.859C37.8667 94.595 38 94.397 38 94.463Z" fill="#E0E0E0"/>
<path d="M47.0158 97.4502C46.9351 97.4502 47.1772 94.5277 47.4193 90.9502C47.7421 87.3727 47.9842 84.4502 47.9842 84.4502C48.0649 84.4502 47.8228 87.3727 47.5807 90.9502C47.3386 94.5277 47.0158 97.4502 47.0158 97.4502Z" fill="#E0E0E0"/>
<path d="M49.925 87.4502C49.925 87.4502 49.925 87.5403 50 87.6754C50 87.8106 50 88.0358 50 88.261C49.925 88.7565 49.775 89.4322 49.325 90.1529C48.875 90.8736 48.275 91.4592 47.825 91.8646C47.6 92.0448 47.375 92.225 47.225 92.3151C47.075 92.4051 47 92.4502 47 92.4502C47 92.4502 47.3 92.225 47.825 91.8196C48.275 91.4142 48.875 90.8286 49.25 90.1078C49.7 89.3871 49.85 88.7115 49.925 88.216C49.925 87.7655 49.85 87.4502 49.925 87.4502Z" fill="#E0E0E0"/>
<path d="M45 87.4502C45 87.4502 45.0465 87.766 45.1395 88.2397C45.2326 88.7134 45.3721 89.3976 45.6512 90.1344C45.9302 90.8186 46.2558 91.4502 46.5349 91.8186C46.814 92.2397 47 92.4502 47 92.4502C47 92.4502 46.9535 92.3976 46.8605 92.2923C46.7674 92.187 46.6279 92.0292 46.4884 91.8186C46.2093 91.4502 45.8372 90.8186 45.5581 90.1344C45.2791 89.3976 45.1395 88.7134 45.0465 88.2397C45 87.9765 45 87.766 45 87.6607C45 87.5555 45 87.4502 45 87.4502Z" fill="#E0E0E0"/>
<path d="M49 85.4502C49 85.4502 49 85.5057 49 85.6724C49 85.7835 49 86.0057 49 86.228C48.9615 86.728 48.9231 87.3391 48.7692 88.0613C48.6154 88.7835 48.4231 89.3946 48.2692 89.7835C48.1923 90.0057 48.1154 90.1724 48.0769 90.2835C48.0385 90.3946 48 90.4502 48 90.4502C48 90.4502 48.0769 90.1724 48.2308 89.7835C48.3846 89.3391 48.5769 88.728 48.6923 88.0613C48.8462 87.3391 48.9231 86.728 48.9615 86.228C49 85.728 49 85.4502 49 85.4502Z" fill="#E0E0E0"/>
<path d="M46.0769 85.4502C46.0769 85.4502 46.0769 85.7963 46.0769 86.3733C46.0769 86.9502 46.1538 87.7002 46.4615 88.5656C46.6923 89.431 47.0769 90.1233 47.4615 90.6425C47.7692 91.1617 48 91.4502 48 91.4502C48 91.4502 47.9231 91.3925 47.7692 91.2194C47.6154 91.104 47.4615 90.8733 47.3077 90.6425C46.9231 90.1233 46.5385 89.3733 46.3077 88.5656C46.0769 87.7002 46 86.8925 46 86.3733C46 86.0848 46 85.854 46.0769 85.681C46 85.5079 46 85.4502 46.0769 85.4502Z" fill="#E0E0E0"/>
<path d="M47.2889 84.4502C47.2889 84.4502 47.2099 84.7042 47.1309 85.0216C47.0519 85.4026 47.0519 85.9105 47.2099 86.4819C47.5259 87.5613 48 88.4502 48 88.4502C48 88.4502 47.842 88.2597 47.684 87.8788C47.5259 87.5613 47.2889 87.0534 47.1309 86.4819C46.9729 85.9105 46.9729 85.4026 47.0519 85.0216C47.1309 84.6407 47.2889 84.4502 47.2889 84.4502Z" fill="#E0E0E0"/>
<path d="M45 91.4502C45.0571 91.4502 45.3429 91.9502 45.9143 92.4956C46.4857 93.0411 47 93.4047 47 93.4502C47 93.4502 46.8286 93.3593 46.6 93.2229C46.3714 93.0866 46.0857 92.8593 45.8 92.5411C45.5143 92.2684 45.2857 91.9957 45.1714 91.7684C45.0571 91.5866 45 91.4502 45 91.4502Z" fill="#E0E0E0"/>
<path d="M50 92.4502C50 92.4502 49.8667 92.5828 49.6667 92.8038C49.4667 93.0247 49.0667 93.2899 48.6667 93.555C48.2667 93.8202 47.8667 94.0854 47.5333 94.218C47.2 94.3947 47 94.4831 47 94.4389C47 94.4389 47.1333 94.3064 47.4667 94.1738C47.7333 93.997 48.1333 93.776 48.5333 93.4667C48.9333 93.2015 49.2667 92.9363 49.5333 92.7154C49.8 92.5828 49.9333 92.4502 50 92.4502Z" fill="#E0E0E0"/>
<path d="M53.95 97.4502C53.95 97.4502 53.95 97.5583 54 97.7205C54 97.8826 54 98.1529 54 98.4232C53.95 99.0178 53.85 99.8286 53.55 100.693C53.25 101.558 52.85 102.261 52.55 102.747C52.4 102.964 52.25 103.18 52.15 103.288C52.05 103.396 52 103.45 52 103.45C52 103.45 52.2 103.18 52.55 102.693C52.85 102.207 53.25 101.504 53.5 100.639C53.8 99.7745 53.9 98.9637 53.95 98.3691C53.95 97.7745 53.9 97.4502 53.95 97.4502Z" fill="#E0E0E0"/>
<path d="M50 98.4502C50 98.4502 50.0465 98.766 50.1395 99.2397C50.2326 99.7134 50.3721 100.398 50.6512 101.134C50.9302 101.819 51.2558 102.45 51.5349 102.819C51.814 103.24 52 103.45 52 103.45C52 103.45 51.9535 103.398 51.8605 103.292C51.7674 103.187 51.6279 103.029 51.4884 102.819C51.2093 102.45 50.8372 101.819 50.5581 101.134C50.2791 100.398 50.1395 99.7134 50.0465 99.2397C50 98.9765 50 98.766 50 98.6607C50 98.5028 50 98.4502 50 98.4502Z" fill="#E0E0E0"/>
<path d="M54 95.4502C54 95.4502 54 95.5058 54 95.6724C54 95.7835 54 96.0058 54 96.228C53.9231 96.728 53.8462 97.3391 53.5385 98.0613C53.2308 98.7835 52.8462 99.3947 52.5385 99.7835C52.3846 100.006 52.2308 100.172 52.1538 100.284C52.0769 100.395 52 100.45 52 100.45C52 100.45 52.1538 100.172 52.4615 99.7835C52.7692 99.3391 53.1538 98.728 53.3846 98.0613C53.6923 97.3391 53.8462 96.728 53.9231 96.228C54 95.7835 54 95.4502 54 95.4502Z" fill="#E0E0E0"/>
<path d="M51.0385 96.4502C51.0385 96.4502 51.0385 96.7387 51.0385 97.2194C51.0385 97.7002 51.0769 98.3252 51.2308 99.0463C51.3462 99.7675 51.5385 100.344 51.7308 100.777C51.8846 101.21 52 101.45 52 101.45C52 101.45 51.9615 101.402 51.8846 101.258C51.8077 101.162 51.7308 100.969 51.6538 100.777C51.4615 100.344 51.2692 99.7194 51.1538 99.0463C51.0385 98.3252 51 97.6521 51 97.2194C51 96.979 51 96.7867 51.0385 96.6425C51 96.5463 51.0385 96.4502 51.0385 96.4502Z" fill="#E0E0E0"/>
<path d="M50.0212 102.45C50.0777 102.45 50.3604 102.95 50.9258 103.496C51.4912 104.041 52 104.405 52 104.45C52 104.45 51.8304 104.359 51.6042 104.223C51.3781 104.087 51.0954 103.859 50.8127 103.541C50.53 103.268 50.3039 102.996 50.1908 102.768C50.0212 102.587 49.9647 102.45 50.0212 102.45Z" fill="#E0E0E0"/>
<path d="M54 102.463C54 102.463 53.9111 102.661 53.7778 102.991C53.6444 103.321 53.3778 103.717 53.1111 104.113C52.8444 104.509 52.5778 104.905 52.3556 105.103C52.1333 105.367 52 105.499 52 105.433C52 105.433 52.0889 105.235 52.3111 105.037C52.4889 104.773 52.7556 104.443 53.0222 103.981C53.2889 103.585 53.5111 103.189 53.6889 102.859C53.8667 102.595 54 102.397 54 102.463Z" fill="#E0E0E0"/>
<path d="M67.998 112.45C67.948 112.45 67.0485 109.544 65.949 105.95C64.8496 102.357 64 99.4502 64 99.4502C64.05 99.4502 64.9495 102.357 66.049 105.95C67.1484 109.544 68.048 112.45 67.998 112.45Z" fill="#E0E0E0"/>
<path d="M63 103.45C63 103.45 63.1641 103.724 63.4377 104.163C63.7113 104.601 64.149 105.204 64.6961 105.752C65.2432 106.3 65.8451 106.738 66.2828 107.012C66.7205 107.286 67.0487 107.45 66.994 107.45C66.994 107.45 66.9393 107.45 66.7752 107.395C66.611 107.341 66.4469 107.231 66.2281 107.121C65.7904 106.847 65.1338 106.409 64.5867 105.861C63.9848 105.258 63.6018 104.656 63.3283 104.217C63.2189 103.998 63.1094 103.779 63.0547 103.669C63.0547 103.56 63 103.505 63 103.45Z" fill="#E0E0E0"/>
<path d="M65 100.45C65 100.45 65.0876 100.503 65.1752 100.61C65.2628 100.716 65.3504 100.929 65.4381 101.142C65.6133 101.567 65.8761 102.206 65.9637 102.897C66.0513 103.588 65.9637 104.227 65.8761 104.706C65.7885 104.918 65.7885 105.131 65.7009 105.237C65.6133 105.344 65.6133 105.45 65.6133 105.45C65.6133 105.45 65.7009 105.184 65.7009 104.706C65.7885 104.227 65.7885 103.642 65.7009 102.95C65.6133 102.259 65.4381 101.62 65.2628 101.195C65.0876 100.716 65 100.45 65 100.45Z" fill="#E0E0E0"/>
<path d="M63 101.45C63 101.45 63.0984 101.787 63.2951 102.293C63.4918 102.799 63.7869 103.473 64.1803 104.203C64.5738 104.877 65.0656 105.495 65.4098 105.832C65.7541 106.225 66 106.45 66 106.45C66 106.45 65.9508 106.394 65.8033 106.338C65.7049 106.225 65.5574 106.113 65.3607 105.888C65.0164 105.495 64.5246 104.933 64.1311 104.259C63.7377 103.529 63.4426 102.855 63.2459 102.349C63.1475 102.068 63.0984 101.9 63.0492 101.731C63 101.506 63 101.45 63 101.45Z" fill="#E0E0E0"/>
<path d="M63.0282 100.45C63.0282 100.45 63.0282 100.664 63.1552 100.932C63.2186 101.254 63.4091 101.629 63.7265 102.057C64.3612 102.861 65.0594 103.397 64.996 103.45C64.996 103.45 64.8055 103.343 64.5516 103.129C64.2977 102.914 63.9169 102.593 63.5995 102.164C63.2821 101.736 63.0917 101.307 63.0282 101.039C62.9647 100.664 63.0282 100.45 63.0282 100.45Z" fill="#E0E0E0"/>
<path d="M64 107.45C64 107.45 64.625 107.726 65.4375 108.002C66.25 108.278 67 108.416 67 108.45C67 108.45 66.8125 108.45 66.5 108.381C66.1875 108.312 65.8125 108.209 65.375 108.071C64.9375 107.933 64.625 107.795 64.375 107.657C64.125 107.519 64 107.45 64 107.45Z" fill="#E0E0E0"/>
<path d="M68 106.45C68 106.45 68 106.657 67.92 106.916C67.84 107.226 67.76 107.588 67.6 108.002C67.48 108.416 67.32 108.778 67.2 109.036C67.08 109.295 67 109.45 67 109.45C67 109.45 67.04 109.295 67.16 109.036C67.28 108.778 67.4 108.416 67.56 108.002C67.68 107.588 67.8 107.226 67.88 106.916C67.92 106.605 67.96 106.45 68 106.45Z" fill="#E0E0E0"/>
<path d="M85 97.4511C85 97.4511 83.2331 99.9683 81.0245 102.978C78.8159 105.988 77 108.45 77 108.45C77 108.45 78.7669 105.988 80.9755 102.923C83.184 99.8589 85 97.3964 85 97.4511Z" fill="#E0E0E0"/>
<path d="M77 104.445C77 104.445 77.0505 104.356 77.101 104.267C77.202 104.132 77.303 103.998 77.5051 103.775C77.8586 103.372 78.4141 102.881 79.1212 102.478C79.8283 102.076 80.5354 101.763 81.0909 101.629C81.3434 101.54 81.596 101.495 81.7475 101.495C81.899 101.45 82 101.45 82 101.45C82 101.45 81.6465 101.54 81.1414 101.674C80.6364 101.853 79.9293 102.121 79.2222 102.523C78.5151 102.925 77.9596 103.417 77.6061 103.775C77.202 104.222 77.0505 104.49 77 104.445Z" fill="#E0E0E0"/>
<path d="M81 106.438C81 106.438 81.1231 106.195 81.2872 105.76C81.4513 105.324 81.6564 104.743 81.7795 104.017C81.9026 103.339 81.9436 102.661 81.9436 102.225C81.9436 101.741 81.9026 101.45 81.9026 101.45C81.9026 101.45 81.9026 101.499 81.9436 101.644C81.9436 101.789 81.9846 101.983 81.9846 102.177C82.0256 102.661 81.9846 103.29 81.8615 104.017C81.7385 104.743 81.5333 105.324 81.3282 105.76C81.2462 105.953 81.1641 106.147 81.082 106.244C81.041 106.389 81 106.486 81 106.438Z" fill="#E0E0E0"/>
<path d="M77 106.45C77 106.45 77.0533 106.397 77.1067 106.289C77.16 106.182 77.32 106.022 77.4267 105.861C77.7467 105.486 78.1733 105.057 78.76 104.629C79.3467 104.2 79.88 103.879 80.3067 103.718C80.52 103.611 80.68 103.557 80.7867 103.504C80.8933 103.45 81 103.45 81 103.45C81 103.45 80.7333 103.557 80.36 103.772C79.9333 103.986 79.4 104.307 78.8667 104.736C78.3333 105.164 77.8533 105.593 77.5333 105.914C77.2133 106.236 77.0533 106.45 77 106.45Z" fill="#E0E0E0"/>
<path d="M79 107.45C79 107.45 79.1905 107.198 79.4286 106.794C79.7143 106.39 80.0476 105.784 80.3333 105.127C80.619 104.42 80.7619 103.763 80.8571 103.258C80.9524 102.753 81 102.45 81 102.45C81 102.45 81 102.551 81 102.652C81 102.804 80.9524 103.006 80.9524 103.258C80.8571 103.763 80.7143 104.42 80.4286 105.127C80.1429 105.834 79.8095 106.44 79.5238 106.844C79.3809 107.046 79.2381 107.198 79.1905 107.299C79.0476 107.4 79 107.45 79 107.45Z" fill="#E0E0E0"/>
<path d="M78 108.45C78 108.45 78.1 108.345 78.2333 108.082C78.3667 107.871 78.5333 107.503 78.6333 107.082C78.8667 106.24 78.9667 105.45 79 105.45C79 105.45 79 105.661 78.9333 105.924C78.9 106.24 78.8333 106.661 78.7 107.082C78.5667 107.503 78.4 107.871 78.2667 108.082C78.1333 108.398 78 108.45 78 108.45Z" fill="#E0E0E0"/>
<path d="M51.875 124.45C51.875 124.45 51.875 124.554 51.9375 124.709C51.9375 124.864 52 125.123 52 125.381C52 125.95 51.9375 126.726 51.6875 127.605C51.375 128.433 51 129.157 50.625 129.674C50.4375 129.933 50.25 130.088 50.1875 130.243C50.0625 130.347 50 130.45 50 130.45C50 130.45 50.25 130.14 50.5625 129.674C50.9375 129.209 51.3125 128.485 51.625 127.657C51.875 126.83 52 126.054 52 125.485C51.9375 124.812 51.875 124.45 51.875 124.45Z" fill="#E0E0E0"/>
<path d="M47 124.45C47 124.45 47.0588 124.776 47.2353 125.265C47.4118 125.755 47.6471 126.461 48.0588 127.168C48.4706 127.874 48.9412 128.472 49.3529 128.852C49.7059 129.233 50 129.45 50 129.45C50 129.45 49.9412 129.396 49.8235 129.287C49.7059 129.178 49.5294 129.07 49.3529 128.852C48.9412 128.472 48.4706 127.874 48.0588 127.168C47.6471 126.461 47.4118 125.755 47.2353 125.265C47.1765 124.994 47.1176 124.776 47.1176 124.668C47 124.505 47 124.45 47 124.45Z" fill="#E0E0E0"/>
<path d="M50.9545 122.45C50.9545 122.45 50.9545 122.505 51 122.668C51 122.776 51 122.994 51 123.211C51 123.7 50.9545 124.352 50.8182 125.059C50.6818 125.765 50.5 126.363 50.3182 126.798C50.2273 127.015 50.1818 127.178 50.0909 127.287C50.0455 127.396 50 127.45 50 127.45C50 127.45 50.0909 127.178 50.2273 126.744C50.3636 126.309 50.5455 125.711 50.6818 125.005C50.8182 124.298 50.8636 123.646 50.8636 123.211C50.9091 122.776 50.9091 122.45 50.9545 122.45Z" fill="#E0E0E0"/>
<path d="M48.0606 122.45C48.0606 122.45 48.0606 122.8 48.1212 123.382C48.1818 123.965 48.303 124.722 48.6061 125.596C48.9091 126.411 49.2121 127.169 49.5152 127.635C49.8182 128.159 50 128.45 50 128.45C50 128.45 49.9394 128.392 49.8182 128.275C49.697 128.159 49.5758 127.926 49.3939 127.693C49.0909 127.227 48.7273 126.47 48.4242 125.654C48.1212 124.839 48 124.023 48 123.44C48 123.149 48 122.916 48 122.741C48.0606 122.567 48.0606 122.45 48.0606 122.45Z" fill="#E0E0E0"/>
<path d="M49.1557 121.45C49.1557 121.45 49.0958 121.712 49.0958 122.04C49.0958 122.434 49.0958 122.958 49.2756 123.483C49.5753 124.598 50.0548 125.45 49.9949 125.45C49.9949 125.45 49.875 125.253 49.6952 124.926C49.5154 124.598 49.3355 124.073 49.1557 123.549C48.9759 122.958 48.9759 122.434 49.0358 122.04C49.0358 121.647 49.0958 121.45 49.1557 121.45Z" fill="#E0E0E0"/>
<path d="M48 128.45C48.0525 128.45 48.3678 129.182 48.9458 130.06C49.4712 130.865 50.0492 131.45 49.9967 131.45C49.9967 131.45 49.839 131.377 49.6289 131.158C49.4187 130.938 49.156 130.572 48.8407 130.206C48.578 129.767 48.3153 129.401 48.2102 129.036C48.0525 128.67 48 128.45 48 128.45Z" fill="#E0E0E0"/>
<path d="M52 129.45C52 129.45 51.95 129.575 51.75 129.784C51.6 129.992 51.35 130.242 51.1 130.534C50.8 130.825 50.55 131.075 50.35 131.2C50.15 131.367 50 131.45 50 131.45C50 131.45 50.1 131.325 50.3 131.159C50.5 130.992 50.75 130.742 51.05 130.45C51.35 130.159 51.55 129.909 51.75 129.7C51.85 129.575 52 129.45 52 129.45Z" fill="#E0E0E0"/>
<path d="M62 124.45C61.95 124.45 61.05 121.544 59.95 117.95C58.85 114.357 58 111.45 58 111.45C58.05 111.45 58.95 114.357 60.05 117.95C61.15 121.544 62 124.45 62 124.45Z" fill="#E0E0E0"/>
<path d="M60 113.45C60 113.45 60.0714 113.501 60.1429 113.654C60.2143 113.806 60.3571 114.01 60.5 114.264C60.7143 114.823 61 115.586 61 116.45C61 117.315 60.8571 118.077 60.6429 118.637C60.5714 118.891 60.4286 119.145 60.3571 119.247C60.2857 119.399 60.2143 119.45 60.2143 119.45C60.2143 119.45 60.3571 119.094 60.5714 118.586C60.7857 118.026 60.9286 117.264 60.9286 116.45C60.9286 115.586 60.7143 114.823 60.5 114.315C60.2143 113.755 60 113.45 60 113.45Z" fill="#E0E0E0"/>
<path d="M56 115.45C56 115.45 56.1641 115.724 56.4377 116.163C56.7113 116.601 57.149 117.204 57.6961 117.752C58.2432 118.3 58.8451 118.738 59.2828 119.012C59.7205 119.286 60.0487 119.45 59.994 119.45C59.994 119.45 59.9393 119.45 59.7752 119.395C59.611 119.341 59.4469 119.231 59.2281 119.121C58.7904 118.847 58.1338 118.409 57.5867 117.861C56.9848 117.258 56.6018 116.656 56.3283 116.217C56.2189 115.998 56.1094 115.779 56.0547 115.669C56 115.505 56 115.45 56 115.45Z" fill="#E0E0E0"/>
<path d="M59.0228 111.45C59.0228 111.45 59.1084 111.503 59.194 111.61C59.2796 111.716 59.3652 111.929 59.4508 112.142C59.6221 112.567 59.8789 113.206 59.9645 113.897C60.0502 114.588 59.9645 115.227 59.8789 115.706C59.7933 115.918 59.7933 116.131 59.7077 116.237C59.6221 116.344 59.6221 116.45 59.6221 116.45C59.6221 116.45 59.7077 116.184 59.7077 115.706C59.7933 115.227 59.7933 114.642 59.7077 113.95C59.6221 113.259 59.4508 112.62 59.2796 112.195C59.1084 111.716 58.9372 111.45 59.0228 111.45Z" fill="#E0E0E0"/>
<path d="M57 113.45C57 113.45 57.0984 113.72 57.2951 114.124C57.4918 114.529 57.7869 115.068 58.1803 115.652C58.5738 116.192 59.0656 116.686 59.4098 116.956C59.7541 117.27 60 117.45 60 117.45C60 117.45 59.9508 117.405 59.8033 117.36C59.7049 117.27 59.5574 117.181 59.3607 117.001C59.0164 116.686 58.5246 116.237 58.1311 115.697C57.7377 115.113 57.4426 114.574 57.2459 114.169C57.1475 113.945 57.0984 113.81 57.0492 113.675C57 113.495 57 113.45 57 113.45Z" fill="#E0E0E0"/>
<path d="M57.0471 111.45C57.0471 111.45 57.0472 111.664 57.1729 111.932C57.2358 112.254 57.4243 112.629 57.7387 113.057C58.3673 113.861 59.0589 114.397 58.996 114.45C58.996 114.45 58.8074 114.343 58.5559 114.129C58.3045 113.914 57.9273 113.593 57.6129 113.164C57.2986 112.736 57.11 112.307 57.0471 112.039C56.9843 111.664 56.9843 111.45 57.0471 111.45Z" fill="#E0E0E0"/>
<path d="M58 118.45C58 118.45 58.4167 119.002 58.9583 119.554C59.5 120.105 60 120.381 60 120.45C60 120.45 59.875 120.45 59.6667 120.312C59.4583 120.174 59.2083 119.967 58.9167 119.692C58.625 119.416 58.4167 119.14 58.25 118.864C58.0833 118.588 58 118.45 58 118.45Z" fill="#E0E0E0"/>
<path d="M62 118.45C62 118.45 62 118.657 61.92 118.916C61.84 119.226 61.76 119.588 61.6 120.002C61.48 120.416 61.32 120.778 61.2 121.036C61.08 121.295 61 121.45 61 121.45C61 121.45 61.04 121.295 61.16 121.036C61.28 120.778 61.4 120.416 61.56 120.002C61.68 119.588 61.8 119.226 61.88 118.916C61.96 118.657 62 118.45 62 118.45Z" fill="#E0E0E0"/>
<path d="M26 128.45C25.95 128.45 25.05 125.544 23.95 121.95C22.85 118.357 22 115.45 22 115.45C22.05 115.45 22.95 118.357 24.05 121.95C25.15 125.491 26 128.45 26 128.45Z" fill="#E0E0E0"/>
<path d="M24 117.45C24 117.45 24.0714 117.501 24.1429 117.654C24.2143 117.806 24.3571 118.01 24.5 118.264C24.7143 118.823 25 119.586 25 120.45C25 121.315 24.8571 122.077 24.6429 122.637C24.5714 122.891 24.4286 123.145 24.3571 123.247C24.2857 123.399 24.2143 123.45 24.2143 123.45C24.2143 123.45 24.3571 123.094 24.5714 122.586C24.7857 122.026 24.9286 121.264 24.9286 120.45C24.9286 119.586 24.7143 118.823 24.5 118.315C24.2143 117.806 24 117.45 24 117.45Z" fill="#E0E0E0"/>
<path d="M20 119.45C20 119.45 20.1641 119.724 20.4377 120.163C20.7113 120.601 21.149 121.204 21.6961 121.752C22.2432 122.3 22.8451 122.738 23.2828 123.012C23.7205 123.286 24.0487 123.45 23.994 123.45C23.994 123.45 23.9393 123.45 23.7752 123.395C23.611 123.341 23.4469 123.231 23.2281 123.121C22.7904 122.847 22.1338 122.409 21.5867 121.861C20.9848 121.258 20.6018 120.656 20.3283 120.217C20.2189 119.998 20.1094 119.779 20.0547 119.669C20 119.505 20 119.45 20 119.45Z" fill="#E0E0E0"/>
<path d="M23.0228 116.45C23.0228 116.45 23.1084 116.503 23.194 116.61C23.2796 116.716 23.3652 116.929 23.4508 117.142C23.6221 117.567 23.8789 118.206 23.9645 118.897C24.0502 119.588 23.9645 120.227 23.8789 120.706C23.7933 120.918 23.7933 121.131 23.7077 121.237C23.6221 121.344 23.6221 121.45 23.6221 121.45C23.6221 121.45 23.7077 121.184 23.7077 120.706C23.7933 120.227 23.7933 119.642 23.7077 118.95C23.6221 118.259 23.4508 117.62 23.2796 117.195C23.1084 116.716 22.9372 116.45 23.0228 116.45Z" fill="#E0E0E0"/>
<path d="M21 117.45C21 117.45 21.0984 117.787 21.2951 118.293C21.4918 118.799 21.7869 119.473 22.1803 120.203C22.5738 120.877 23.0656 121.495 23.4098 121.832C23.7541 122.225 24 122.45 24 122.45C24 122.45 23.9508 122.394 23.8033 122.338C23.7049 122.225 23.5574 122.113 23.3607 121.888C23.0164 121.495 22.5246 120.933 22.1311 120.259C21.7377 119.529 21.4426 118.855 21.2459 118.349C21.1475 118.068 21.0984 117.9 21.0492 117.731C21 117.563 21 117.45 21 117.45Z" fill="#E0E0E0"/>
<path d="M21.0471 116.45C21.0471 116.45 21.0472 116.664 21.1729 116.932C21.2357 117.254 21.4243 117.629 21.7387 118.057C22.3673 118.861 23.0589 119.397 22.996 119.45C22.996 119.45 22.8074 119.343 22.5559 119.129C22.3045 118.914 21.9273 118.593 21.6129 118.164C21.2986 117.736 21.11 117.307 21.0471 117.039C20.9843 116.611 20.9843 116.45 21.0471 116.45Z" fill="#E0E0E0"/>
<path d="M22 123.45C22 123.45 22.625 123.726 23.4375 124.002C24.25 124.278 25 124.416 25 124.45C25 124.45 24.8125 124.45 24.5 124.381C24.1875 124.312 23.8125 124.209 23.375 124.071C22.9375 123.933 22.625 123.795 22.375 123.657C22.125 123.554 22 123.45 22 123.45Z" fill="#E0E0E0"/>
<path d="M26 122.45C26 122.45 26 122.657 25.92 122.916C25.84 123.226 25.76 123.588 25.6 124.002C25.48 124.416 25.32 124.778 25.2 125.036C25.08 125.295 25 125.45 25 125.45C25 125.45 25.04 125.295 25.16 125.036C25.28 124.778 25.4 124.416 25.56 124.002C25.68 123.588 25.8 123.226 25.88 122.916C25.96 122.605 26 122.45 26 122.45Z" fill="#E0E0E0"/>
<path d="M41.0158 117.45C40.9351 117.45 41.1772 114.528 41.4193 110.95C41.7421 107.373 41.9842 104.45 41.9842 104.45C42.0649 104.45 41.8228 107.373 41.5807 110.95C41.3386 114.528 41.0965 117.45 41.0158 117.45Z" fill="#E0E0E0"/>
<path d="M43.925 107.45C43.925 107.45 43.925 107.558 44 107.72C44 107.883 44 108.153 44 108.423C43.925 109.018 43.775 109.829 43.325 110.693C42.875 111.558 42.275 112.261 41.825 112.747C41.6 112.964 41.375 113.18 41.225 113.288C41.075 113.396 41 113.45 41 113.45C41 113.45 41.3 113.18 41.825 112.693C42.275 112.207 42.875 111.504 43.25 110.639C43.7 109.775 43.85 108.964 43.925 108.369C43.925 107.775 43.925 107.45 43.925 107.45Z" fill="#E0E0E0"/>
<path d="M39 107.45C39 107.45 39.0465 107.766 39.1395 108.24C39.2326 108.713 39.3721 109.398 39.6512 110.134C39.9302 110.819 40.2558 111.45 40.5349 111.819C40.814 112.24 41 112.45 41 112.45C41 112.45 40.9535 112.398 40.8605 112.292C40.7674 112.187 40.6279 112.029 40.4884 111.819C40.2093 111.45 39.8372 110.819 39.5581 110.134C39.2791 109.398 39.1395 108.713 39.0465 108.24C39 107.977 39 107.766 39 107.661C39 107.503 39 107.45 39 107.45Z" fill="#E0E0E0"/>
<path d="M43 105.45C43 105.45 43 105.506 43 105.672C43 105.784 43 106.006 43 106.228C42.9615 106.728 42.9231 107.339 42.7692 108.061C42.6154 108.784 42.4231 109.395 42.2692 109.784C42.1923 110.006 42.1154 110.172 42.0769 110.284C42.0385 110.395 42 110.45 42 110.45C42 110.45 42.0769 110.172 42.2308 109.784C42.3846 109.339 42.5769 108.728 42.6923 108.061C42.8462 107.339 42.9231 106.728 42.9615 106.228C42.9615 105.784 43 105.45 43 105.45Z" fill="#E0E0E0"/>
<path d="M40.0385 105.45C40.0385 105.45 40.0385 105.796 40.0385 106.373C40.0385 106.95 40.0769 107.7 40.2308 108.566C40.3462 109.431 40.5385 110.123 40.7308 110.642C40.8846 111.162 41 111.45 41 111.45C41 111.45 40.9615 111.392 40.8846 111.219C40.8077 111.104 40.7308 110.873 40.6538 110.642C40.4615 110.123 40.2692 109.373 40.1538 108.566C40.0385 107.7 40 106.893 40 106.373C40 106.085 40 105.854 40.0385 105.681C40.0385 105.566 40.0385 105.45 40.0385 105.45Z" fill="#E0E0E0"/>
<path d="M41.2889 104.45C41.2889 104.45 41.2099 104.704 41.1309 105.022C41.0519 105.403 41.0519 105.911 41.2099 106.482C41.5259 107.561 42 108.45 42 108.45C42 108.45 41.842 108.26 41.684 107.879C41.5259 107.561 41.2889 107.053 41.1309 106.482C40.9729 105.911 40.9729 105.403 41.0519 105.022C41.1309 104.704 41.2889 104.45 41.2889 104.45Z" fill="#E0E0E0"/>
<path d="M39 111.45C39.0571 111.45 39.3429 112.2 39.9143 113.018C40.4857 113.837 41 114.382 41 114.45C41 114.45 40.8286 114.314 40.6 114.109C40.3714 113.905 40.0857 113.564 39.8 113.087C39.5143 112.677 39.2857 112.268 39.1714 111.927C39.0571 111.655 39 111.45 39 111.45Z" fill="#E0E0E0"/>
<path d="M44 112.459C44 112.459 43.8667 112.591 43.6667 112.811C43.4667 113.031 43.0667 113.295 42.6667 113.559C42.2667 113.823 41.8667 114.087 41.5333 114.219C41.2 114.395 41 114.483 41 114.439C41 114.439 41.1333 114.307 41.4667 114.175C41.7333 113.999 42.1333 113.779 42.5333 113.471C42.9333 113.207 43.2667 112.943 43.5333 112.723C43.8667 112.547 44 112.415 44 112.459Z" fill="#E0E0E0"/>
<path opacity="0.3" d="M38 86.4502C40.0902 88.0515 42.5021 89.2912 45.0747 90.0144C46.1466 90.3243 47.3257 90.5826 48.4512 90.3759C49.5767 90.1693 50.6486 89.4462 50.9702 88.4131C51.0238 88.1548 51.0238 87.7932 50.8094 87.6899C50.5415 87.5866 50.2735 87.7932 50.0055 87.9998C49.2552 88.568 46.9505 88.6713 45.9858 88.568C42.8772 88.2065 40.8406 87.4833 38 86.4502Z" fill="black"/>
<path d="M57.3206 107.45C57.3206 107.45 57.3718 107.555 57.4231 107.711C57.4743 107.868 57.5255 108.129 57.628 108.443C57.7816 109.122 57.9353 110.062 57.9865 111.264C58.089 113.667 57.628 117.062 55.8863 120.301C54.1447 123.54 51.5322 125.734 49.4833 126.935C48.4588 127.51 47.588 127.928 46.9733 128.137C46.6659 128.241 46.4098 128.346 46.2561 128.398C46.1024 128.45 46 128.45 46 128.45C46 128.45 46.3586 128.293 46.922 128.032C47.5367 127.771 48.4075 127.353 49.3808 126.779C51.3786 125.577 53.8886 123.383 55.6302 120.196C57.3718 117.01 57.8329 113.667 57.7816 111.316C57.7816 110.114 57.628 109.174 57.5255 108.495C57.3718 107.816 57.2694 107.45 57.3206 107.45Z" fill="#263238"/>
<path opacity="0.2" d="M57.9462 111.45C58.0538 113.685 56.9784 115.972 55.204 117.375C54.0211 118.31 52.6231 118.882 51.4939 119.818C50.4186 120.701 49.612 121.844 49.1819 123.092C48.9668 123.767 48.8592 124.547 49.3432 125.067C49.8809 125.638 50.8487 125.482 51.6015 125.171C54.0211 124.183 55.7417 122 56.7095 119.61C57.6236 117.219 57.8387 114.672 58 112.126" fill="black"/>
<path d="M71.8286 109.449C71.7537 109.506 70.9299 107.958 71.0048 105.95C71.0048 103.943 71.9035 102.394 71.9784 102.452C72.1281 102.452 71.4541 104 71.3792 105.95C71.3044 107.9 71.9784 109.449 71.8286 109.449Z" fill="#263238"/>
<path d="M72.9933 108.448C72.9587 108.502 72.4042 107.324 72.127 105.61C71.8844 103.896 72.0577 102.45 72.0923 102.45C72.1616 102.45 72.0577 103.843 72.3002 105.556C72.5775 107.217 73.0626 108.395 72.9933 108.448Z" fill="#263238"/>
<path d="M99 93.4502C99 93.4502 98.8609 93.3514 98.5826 93.2033C98.3508 93.0551 97.9334 92.9564 97.4697 93.1045L97.2842 93.1539L97.377 92.9564C97.5161 92.7095 97.6088 92.3638 97.6552 92.0181C97.7479 91.2774 97.6088 90.586 97.377 90.1416C97.1915 89.6971 96.9596 89.4996 97.006 89.4502C97.006 89.4502 97.2842 89.5983 97.5161 90.0922C97.7479 90.5366 97.9798 91.2774 97.8407 92.0675C97.7943 92.4625 97.6552 92.7588 97.5161 93.0551L97.4233 92.907C97.9334 92.7588 98.3972 92.907 98.629 93.1045C98.9073 93.2527 99 93.4502 99 93.4502Z" fill="#AA6550"/>
<path d="M102.269 91.1781C102.735 90.0083 107.61 87.974 106.936 87.262C106.106 86.2957 102.009 89.6015 101.594 89.8558C101.231 90.1101 100.868 89.6015 101.179 89.398C101.698 89.0929 106.832 85.7871 106.003 84.8208C105.536 84.3122 104.706 85.1768 104.706 85.1768C104.706 85.1768 100.142 88.6352 99.7792 88.1774C99.4162 87.7197 102.009 85.5837 102.943 84.9225C103.876 84.2613 103.928 83.6002 103.306 83.3967C102.891 83.295 99.9867 85.2277 99.0532 85.8888C98.1197 86.55 95.6822 88.4317 96.1489 86.4991C96.6157 84.5665 96.2526 82.939 95.8896 82.583C95.4747 82.227 94.8005 82.6339 94.9043 83.2442C95.008 83.7528 94.9042 84.5665 94.8005 85.2277C94.6968 85.7362 94.4894 86.2448 94.2819 86.7534C94.0745 87.262 93.4521 88.4826 92 89.5506L97.1343 95.4502L97.8085 94.9925C100.35 93.3141 102.683 92.653 104.084 91.8901C106.625 90.4661 106.521 90.2118 106.314 89.9575C105.795 89.2455 101.802 92.3478 102.269 91.1781Z" fill="#ECC1B0"/>
<path d="M96 81.9085L97.6047 92.4502L103.873 92.3484L104.174 90.3622C104.174 90.3622 107.734 90.3622 107.985 87.3067C108.236 84.2511 105.227 84.2002 105.227 84.2002L105.678 81.4502L96 81.9085ZM104.324 89.2928L105.077 85.3715C105.077 85.3715 107.233 85.3206 107.032 87.103C106.882 88.8345 104.324 89.2928 104.324 89.2928Z" fill="#455A64"/>
<path d="M100.279 67.4502C100.279 67.4502 100.342 67.5012 100.405 67.5522C100.468 67.6031 100.594 67.7561 100.72 67.909C100.909 68.2659 101.034 68.8267 100.909 69.4894C100.783 70.1522 100.342 70.8659 99.9012 71.6306C99.6493 72.0384 99.4605 72.4463 99.3346 72.8541C99.2086 73.3129 99.2716 73.7718 99.4605 74.2306C99.9012 75.1482 100.72 75.811 101.475 76.4737C102.168 77.1365 102.734 77.7992 102.923 78.462C103.112 79.1247 102.923 79.6855 102.671 79.9914C102.546 80.1443 102.42 80.2463 102.357 80.3482C102.231 80.3992 102.231 80.4502 102.231 80.4502C102.231 80.4502 102.42 80.2972 102.608 79.9914C102.797 79.6855 102.923 79.1247 102.734 78.5129C102.546 77.9012 101.979 77.2384 101.286 76.6267C100.594 76.0149 99.6494 75.3012 99.2086 74.3325C98.9568 73.8227 98.9568 73.3129 99.0827 72.8541C99.2086 72.3953 99.3975 71.9365 99.6494 71.5286C100.153 70.7639 100.594 70.0502 100.72 69.4384C100.909 68.8267 100.783 68.2659 100.657 67.96C100.405 67.6031 100.216 67.4502 100.279 67.4502Z" fill="#263238"/>
<path d="M98.9592 67.4502C98.9592 67.4502 99.0064 67.5012 99.0537 67.5522C99.1009 67.6031 99.1953 67.7561 99.2898 67.909C99.4314 68.2659 99.5259 68.8267 99.4314 69.4894C99.337 70.1522 99.0064 70.8659 98.6759 71.6306C98.487 72.0384 98.3454 72.4463 98.2509 72.8541C98.1565 73.3129 98.2037 73.7718 98.3453 74.2306C98.6759 75.1482 99.2897 75.811 99.8564 76.4737C100.376 77.1365 100.801 77.7992 100.942 78.462C101.084 79.1247 100.942 79.6855 100.754 79.9914C100.659 80.1443 100.565 80.2463 100.517 80.3482C100.423 80.3992 100.423 80.4502 100.423 80.4502C100.423 80.4502 100.565 80.2973 100.706 79.9914C100.848 79.6855 100.942 79.1247 100.801 78.5129C100.659 77.9012 100.234 77.2384 99.7147 76.6267C99.1953 76.0149 98.487 75.3012 98.1565 74.3325C97.9676 73.8227 97.9676 73.3129 98.062 72.8541C98.1565 72.3953 98.2981 71.9365 98.487 71.5286C98.8648 70.7639 99.1953 70.0502 99.2898 69.4384C99.4314 68.8267 99.337 68.2659 99.2425 67.96C99.0537 67.6031 98.912 67.4502 98.9592 67.4502Z" fill="#263238"/>
<path d="M96 85.9822C96 85.9822 96 85.8264 96.2273 85.6706C96.4546 85.5147 96.8523 85.3589 97.3637 85.5147C97.8751 85.6186 98.3297 85.9822 98.7842 86.3978C99.2388 86.7614 99.807 87.2289 100.489 87.125C101.171 87.0211 101.739 86.6056 102.307 86.3978C102.591 86.2939 102.932 86.19 103.216 86.19C103.5 86.19 103.784 86.242 104.012 86.3458C104.466 86.5536 104.75 86.8134 104.864 87.0731C104.978 87.2809 105.035 87.4367 104.978 87.4367C104.978 87.4367 104.921 87.3328 104.75 87.125C104.58 86.9172 104.296 86.7095 103.898 86.5536C103.671 86.5017 103.444 86.4497 103.159 86.4497C102.875 86.4497 102.648 86.5536 102.364 86.6575C101.796 86.8653 101.284 87.3328 100.432 87.4367C100.034 87.4886 99.6365 87.3847 99.2956 87.2289C98.9547 87.0731 98.7274 86.8653 98.5001 86.6575C98.0456 86.242 97.6478 85.8784 97.1932 85.7745C96.7387 85.6706 96.3977 85.7225 96.1705 85.8784C96.0568 85.8784 96 85.9822 96 85.9822Z" fill="#FAFAFA"/>
<path d="M96 85.034C96 85.034 96 84.8836 96.2647 84.6831C96.4765 84.5328 96.9 84.3824 97.3765 84.4827C97.8529 84.5829 98.3294 84.9839 98.8059 85.3849C99.2294 85.7858 99.8118 86.2369 100.5 86.1367C101.188 86.0364 101.718 85.6355 102.3 85.3849C102.618 85.2345 102.882 85.1844 103.2 85.1342C103.518 85.1342 103.782 85.1844 103.994 85.2846C104.471 85.4851 104.735 85.7858 104.841 85.9863C105 86.2369 105 86.3372 105 86.3873C105 86.3873 104.947 86.2871 104.788 86.0866C104.629 85.8861 104.365 85.6355 103.941 85.4851C103.729 85.3849 103.465 85.3849 103.2 85.3849C102.935 85.3849 102.671 85.4851 102.406 85.6355C101.876 85.8861 101.294 86.3372 100.5 86.4374C100.129 86.4875 99.7059 86.3873 99.3882 86.1868C99.0706 86.0364 98.8059 85.7858 98.5941 85.5853C98.1706 85.1844 97.7471 84.8335 97.3235 84.6831C96.9 84.5328 96.5294 84.633 96.3177 84.7834C96.1059 84.9338 96.0529 85.034 96 85.034Z" fill="#FAFAFA"/>
<path d="M47 139.871L56.0523 152.45L155 152.398L154.948 141.269L104.924 136.558L63.3256 130.45L47 139.871Z" fill="#263238"/>
<path d="M63 131.093L70.0646 121.318L89.9932 96.641C92.7874 93.629 96.8469 92.0966 100.906 92.5194C105.915 93.0478 110.133 96.4296 111.82 101.185L125 141.45L107.549 138.702L98.6922 113.761L84.7211 133.313L63 131.093Z" fill="#263238"/>
<path d="M125 138.45C125 138.45 124.947 138.45 124.842 138.45C124.736 138.45 124.578 138.45 124.367 138.45C123.944 138.401 123.364 138.401 122.625 138.351C121.095 138.252 118.878 138.055 116.187 137.857C110.751 137.412 103.257 136.819 95.0237 136.176C90.9072 135.83 86.949 135.533 83.3603 135.237C81.566 135.088 79.8772 134.94 78.2939 134.792C76.7106 134.643 75.2329 134.396 73.9136 134.1C72.5942 133.803 71.3803 133.457 70.4304 132.962C69.4804 132.468 68.7416 131.924 68.2138 131.38C67.6861 130.837 67.4222 130.342 67.2111 129.996C67.0528 129.65 67 129.452 67 129.452C67.0528 129.403 67.2639 130.243 68.2666 131.282C68.7944 131.776 69.5332 132.369 70.4304 132.814C71.3803 133.309 72.5414 133.655 73.8608 133.902C75.1802 134.198 76.6579 134.396 78.2411 134.545C79.8244 134.693 81.5132 134.792 83.3076 134.94C86.8963 135.237 90.8544 135.533 94.9709 135.879C103.204 136.572 110.698 137.165 116.134 137.61C118.825 137.857 120.989 138.055 122.572 138.154C123.311 138.203 123.892 138.302 124.314 138.302C124.525 138.302 124.631 138.351 124.789 138.351C125 138.401 125 138.45 125 138.45Z" fill="#455A64"/>
<path d="M99.99 104.454C100.055 104.454 99.7946 104.928 99.4689 105.717C99.1433 106.506 98.8177 107.611 98.5572 108.873C98.2967 110.136 98.2967 111.241 98.2967 112.082C98.2967 112.924 98.3618 113.45 98.2967 113.45C98.2316 113.45 98.1013 112.924 98.0362 112.135C97.9711 111.293 97.9711 110.136 98.2316 108.873C98.4921 107.611 98.8828 106.506 99.2736 105.717C99.5992 104.875 99.9248 104.402 99.99 104.454Z" fill="#455A64"/>
<path d="M96.0119 108.45C96.0965 108.45 96.2232 109.677 96.7726 111.04C97.322 112.449 98.0405 113.403 97.9982 113.449C97.956 113.494 97.153 112.585 96.6036 111.131C96.0119 109.723 95.9697 108.45 96.0119 108.45Z" fill="#455A64"/>
<path d="M152.982 144.45C153.164 144.503 151.893 146.187 151.529 148.398C151.166 150.608 151.983 152.398 151.802 152.45C151.711 152.45 151.529 152.029 151.257 151.292C151.075 150.555 150.894 149.503 151.075 148.398C151.257 147.24 151.711 146.24 152.074 145.555C152.528 144.871 152.892 144.45 152.982 144.45Z" fill="#455A64"/>
<path d="M51 87.4412C51 87.4412 51 87.4824 50.8972 87.5235C50.8458 87.5646 50.7431 87.6469 50.5889 87.7292C50.332 87.8937 49.8696 88.0993 49.253 88.2638C48.0198 88.5518 46.2727 88.4695 44.4229 88.2638C42.5731 88.0171 40.9289 87.6058 39.7984 87.1945C39.2332 86.9888 38.7708 86.8243 38.4625 86.7009C38.1542 86.5775 38 86.4953 38 86.4541C38 86.413 38.7194 86.7009 39.8498 87.0299C40.9802 87.359 42.6245 87.7703 44.4743 88.0171C46.3241 88.2638 48.0198 88.3461 49.2016 88.0993C50.4348 87.8937 51 87.4001 51 87.4412Z" fill="#263238"/>
<path d="M329.82 111.43C332.144 110.383 334.857 110.288 337.459 110.621C338.842 110.811 340.282 111.192 341.223 112.048C342.164 112.951 342.33 114.52 341.278 115.281C340.614 115.757 339.728 115.804 338.898 115.804C336.905 115.804 334.635 115.471 333.03 116.517C332.089 117.136 331.48 118.087 330.373 118.372C329.321 118.657 328.104 118.134 327.495 117.278C326.941 116.422 326.886 115.424 327.163 114.473C327.218 114.52 327.495 112.428 329.82 111.43Z" fill="#FCC232"/>
<path d="M325.224 101.24C326.55 103.16 329.049 102.486 330.273 101.344C331.446 100.203 331.955 98.4902 332.414 96.8816C333.434 93.1974 334.505 89.3574 333.74 85.6213C333.485 84.5316 333.077 83.39 332.312 82.5597C331.548 81.7295 330.375 81.2625 329.253 81.5219C327.978 81.8851 327.162 83.1305 326.601 84.3759C324.918 87.9564 324 91.9001 324 95.8957C324 97.7638 324.204 99.7356 325.224 101.24Z" fill="#FCC232"/>
<path d="M321.569 104.462C323.047 102.682 323.311 100.094 322.677 97.8285C322.044 95.6174 320.566 93.676 318.825 92.166C316.819 90.3324 314.497 88.9302 311.963 88.0134C310.96 87.6359 309.905 87.3663 308.902 87.4742C307.846 87.582 306.791 88.1213 306.316 89.092C305.577 90.4942 306.263 92.2199 307.055 93.6221C308.374 96.1028 309.905 98.4217 311.541 100.633C312.913 102.412 314.444 104.192 316.502 104.947C318.561 105.756 320.725 105.648 321.78 104.192" fill="#FCC232"/>
<path d="M325.104 130.45C325.104 130.45 325.155 130.129 325.207 129.541C325.259 128.899 325.363 128.096 325.415 127.133C325.518 126.117 325.674 124.886 325.933 123.549C326.192 122.211 326.658 120.82 327.176 119.322C327.746 117.878 328.42 116.54 329.249 115.524C330.078 114.454 331.01 113.704 331.891 113.276C332.772 112.848 333.549 112.634 334.119 112.581C334.689 112.527 335 112.474 335 112.474C335 112.474 334.689 112.42 334.119 112.474C333.549 112.527 332.72 112.634 331.788 113.116C330.855 113.544 329.87 114.293 328.99 115.417C328.161 116.487 327.435 117.824 326.813 119.322C326.244 120.82 325.829 122.265 325.57 123.602C325.311 124.94 325.207 126.17 325.104 127.187C325.052 128.203 325 129.059 325 129.648C325.104 130.129 325.104 130.45 325.104 130.45Z" fill="#263238"/>
<path d="M325.179 128.45C325.179 128.45 325.179 128.294 325.179 128.034C325.179 127.722 325.179 127.358 325.179 126.89C325.179 125.902 325.179 124.446 325.224 122.678C325.313 119.142 325.582 115.294 326.074 109.886C326.566 104.79 327.192 98.9142 327.908 95.0662C328.042 94.1822 328.221 93.4022 328.355 92.7262C328.489 92.0502 328.579 91.4262 328.713 90.9582C328.803 90.4902 328.892 90.1262 328.937 89.8662C328.981 89.6062 329.026 89.4502 328.981 89.4502C328.981 89.4502 328.937 89.5542 328.847 89.8142C328.758 90.1262 328.668 90.4902 328.579 90.9062C328.445 91.3742 328.31 91.9982 328.176 92.6742C328.042 93.3502 327.863 94.1302 327.684 95.0142C327.013 98.4982 326.297 103.386 325.761 108.794C325.268 114.202 325 119.142 325 122.73C325 124.498 325 125.954 325.045 126.942C325.089 127.41 325.089 127.774 325.089 128.086C325.179 128.294 325.179 128.45 325.179 128.45Z" fill="#263238"/>
<path d="M325 118.45C325 118.45 325 118.043 325 117.28C324.947 116.517 324.84 115.449 324.626 114.126C324.412 112.804 324.037 111.227 323.556 109.497C323.342 108.734 322.807 106.852 321.523 104.004C319.811 100.189 317.565 97.0856 315.532 95.1526C315.05 94.644 314.515 94.2879 314.141 93.9318C313.927 93.7792 313.713 93.5757 313.553 93.4231C313.339 93.2705 313.178 93.1688 313.018 93.0671C312.376 92.6601 312.001 92.4058 312.001 92.4566C311.948 92.5075 313.499 93.3723 315.425 95.3561C317.351 97.2891 319.597 100.392 321.256 104.156C322.165 106.191 322.86 108.022 323.288 109.599C323.823 111.278 324.198 112.855 324.465 114.177C324.733 115.5 324.893 116.568 324.947 117.331C324.893 118.043 324.947 118.45 325 118.45Z" fill="#263238"/>
<path d="M316 135.45L317.006 149.45H334.047L335 135.45H316Z" fill="#263238"/>
<path d="M337 130.45H314V135.45H337V130.45Z" fill="#263238"/>
<path d="M314 148.45V149.45H315.043H336V148.45H314Z" fill="#455A64"/>
<path d="M316.036 152.45L315 149.45H335L333.808 152.45H316.036Z" fill="#455A64"/>
<path d="M334 140.014C334 140.014 334 140.056 333.896 140.098C333.844 140.183 333.741 140.267 333.637 140.352C333.378 140.605 333.066 140.943 332.651 141.366L332.599 141.408L332.548 141.366C331.925 140.69 331.095 139.76 330.161 138.661H330.317C329.591 139.464 328.813 140.394 327.983 141.366L327.931 141.45L327.827 141.366C326.945 140.521 326.012 139.591 325.026 138.661H325.182C325.13 138.704 325.078 138.746 325.026 138.83C324.144 139.718 323.314 140.563 322.536 141.366L322.432 141.45L322.38 141.366C321.55 140.394 320.72 139.464 320.046 138.661H320.202C319.061 139.76 318.075 140.647 317.297 141.366L317.245 141.408L317.193 141.366C316.83 140.859 316.519 140.436 316.259 140.14C316.156 140.014 316.104 139.887 316.052 139.802C316 139.718 316 139.676 316 139.676C316 139.676 316.052 139.718 316.104 139.76C316.156 139.845 316.259 139.929 316.363 140.098C316.571 140.394 316.934 140.816 317.297 141.323H317.193C317.919 140.605 318.905 139.676 320.046 138.577L320.098 138.492L320.15 138.577C320.876 139.38 321.654 140.309 322.536 141.281H322.38C323.158 140.478 323.988 139.591 324.87 138.704C324.922 138.661 324.974 138.577 325.026 138.535L325.13 138.45L325.233 138.535C326.219 139.507 327.153 140.394 328.035 141.239H327.879C328.761 140.267 329.539 139.338 330.265 138.535L330.317 138.45L330.369 138.535C331.303 139.633 332.133 140.563 332.703 141.281H332.599C333.014 140.859 333.378 140.521 333.637 140.309C333.741 140.225 333.844 140.14 333.896 140.056C334 140.056 334 140.014 334 140.014Z" fill="#E0E0E0"/>
</svg>
