<svg width="678" height="291" viewBox="0 0 678 291" fill="none" xmlns="http://www.w3.org/2000/svg">
<path d="M678 290.2C678 290.3 526.2 290.5 339 290.5C151.7 290.5 0 290.4 0 290.2C0 290 151.8 289.9 339 289.9C526.2 289.9 678 290 678 290.2Z" fill="#263238"/>
<rect x="136" y="2" width="446" height="271.357" rx="10" stroke="black" stroke-width="4"/>
<path d="M145 17C145 13.6863 147.686 11 151 11H567C570.314 11 573 13.6863 573 17V258C573 261.314 570.314 264 567 264H151C147.686 264 145 261.314 145 258V17Z" fill="#FEEDC1"/>
<path d="M145.249 17.2491C145.249 13.9354 147.935 11.2491 151.249 11.2491H566.749C570.063 11.2491 572.749 13.9354 572.749 17.2491V38.0349H145.249V17.2491Z" fill="white"/>
<path d="M156.948 27.146C158.378 27.146 159.538 25.9861 159.538 24.5554C159.538 23.1247 158.378 21.9648 156.948 21.9648C155.517 21.9648 154.357 23.1247 154.357 24.5554C154.357 25.9861 155.517 27.146 156.948 27.146Z" fill="#FA5252"/>
<path d="M165.755 27.1455C167.185 27.1455 168.345 25.9856 168.345 24.5549C168.345 23.1242 167.185 21.9644 165.755 21.9644C164.324 21.9644 163.164 23.1242 163.164 24.5549C163.164 25.9856 164.324 27.1455 165.755 27.1455Z" fill="#FAE269"/>
<path d="M174.562 27.1455C175.993 27.1455 177.152 25.9856 177.152 24.5549C177.152 23.1242 175.993 21.9644 174.562 21.9644C173.131 21.9644 171.971 23.1242 171.971 24.5549C171.971 25.9856 173.131 27.1455 174.562 27.1455Z" fill="#61D45B"/>
<rect x="231.465" y="16.571" width="255.071" height="16.1429" rx="8.07143" fill="white" stroke="#EBEEF5"/>
<rect x="182.713" y="16.571" width="31.1429" height="16.1429" rx="8.07143" fill="white" stroke="#EBEEF5"/>
<path d="M191.038 24.4679L193.089 22.4171C193.219 22.2875 193.219 22.0933 193.089 21.9637C192.96 21.8342 192.765 21.8342 192.636 21.9637L190.348 24.2521C190.218 24.3816 190.218 24.5759 190.348 24.7054L192.636 26.9937C192.701 27.0585 192.787 27.0801 192.873 27.0801C192.96 27.0801 193.046 27.0585 193.111 26.9937C193.24 26.8642 193.24 26.6699 193.111 26.5404L191.038 24.4679Z" fill="#A7B0B7"/>
<path d="M206.71 24.23L204.422 21.9416C204.292 21.8121 204.098 21.8121 203.969 21.9416C203.839 22.0712 203.839 22.2654 203.969 22.395L206.02 24.4458L203.969 26.4967C203.839 26.6262 203.839 26.8205 203.969 26.95C204.033 27.0148 204.12 27.0364 204.206 27.0364C204.292 27.0364 204.379 27.0148 204.444 26.95L206.732 24.6617C206.84 24.5538 206.84 24.3595 206.71 24.23Z" fill="#A7B0B7"/>
<path d="M198.694 19.2849L198.046 19.2891L198.113 29.7377L198.76 29.7335L198.694 19.2849Z" fill="#EDF3F7"/>
<path d="M549.861 25.2026H544.68C544.507 25.2026 544.356 25.0515 544.356 24.8788C544.356 24.706 544.507 24.5549 544.68 24.5549H549.861C550.034 24.5549 550.185 24.706 550.185 24.8788C550.185 25.0515 550.034 25.2026 549.861 25.2026Z" fill="#A7B0B7"/>
<path d="M547.271 27.7931C547.098 27.7931 546.947 27.642 546.947 27.4693V22.2882C546.947 22.1155 547.098 21.9644 547.271 21.9644C547.443 21.9644 547.595 22.1155 547.595 22.2882V27.4693C547.595 27.642 547.443 27.7931 547.271 27.7931Z" fill="#A7B0B7"/>
<path d="M563.57 26.4966H560.98C560.44 26.4966 560.008 26.0649 560.008 25.5252V22.9346C560.008 22.3949 560.44 21.9631 560.98 21.9631H563.57C564.11 21.9631 564.542 22.3949 564.542 22.9346V25.5252C564.542 26.0649 564.11 26.4966 563.57 26.4966ZM560.98 22.6108C560.807 22.6108 560.656 22.7619 560.656 22.9346V25.5252C560.656 25.6979 560.807 25.849 560.98 25.849H563.57C563.743 25.849 563.894 25.6979 563.894 25.5252V22.9346C563.894 22.7619 563.743 22.6108 563.57 22.6108H560.98Z" fill="#A7B0B7"/>
<path d="M562.664 27.4684H559.296C559.145 27.4684 559.037 27.3604 559.037 27.2093V23.8416C559.037 23.6905 559.145 23.5825 559.296 23.5825H562.664C562.815 23.5825 562.923 23.6905 562.923 23.8416V27.2093C562.923 27.3604 562.815 27.4684 562.664 27.4684Z" fill="#EBEEF5"/>
<path d="M562.276 27.792H559.685C559.146 27.792 558.714 27.3603 558.714 26.8206V24.23C558.714 23.6903 559.146 23.2585 559.685 23.2585H562.276C562.816 23.2585 563.247 23.6903 563.247 24.23V26.8206C563.247 27.3603 562.816 27.792 562.276 27.792ZM559.685 23.9062C559.513 23.9062 559.362 24.0573 559.362 24.23V26.8206C559.362 26.9933 559.513 27.1444 559.685 27.1444H562.276C562.449 27.1444 562.6 26.9933 562.6 26.8206V24.23C562.6 24.0573 562.449 23.9062 562.276 23.9062H559.685Z" fill="#A7B0B7"/>
<path d="M498.507 23.9073C498.335 23.9073 498.184 23.7562 498.184 23.5835V22.2882C498.184 22.1155 498.335 21.9644 498.507 21.9644C498.68 21.9644 498.831 22.1155 498.831 22.2882V23.5835C498.831 23.7562 498.68 23.9073 498.507 23.9073Z" fill="#A7B0B7"/>
<path d="M498.506 23.9072H497.211C497.038 23.9072 496.887 23.756 496.887 23.5833C496.887 23.4106 497.038 23.2595 497.211 23.2595H498.506C498.679 23.2595 498.83 23.4106 498.83 23.5833C498.83 23.756 498.679 23.9072 498.506 23.9072Z" fill="#A7B0B7"/>
<path d="M496.262 27.146C494.837 27.146 493.671 25.9802 493.671 24.5554C493.671 23.1306 494.837 21.9648 496.262 21.9648C497.125 21.9648 497.924 22.3966 498.421 23.109C498.529 23.2601 498.485 23.4544 498.334 23.5624C498.183 23.6703 497.989 23.6271 497.881 23.476C497.514 22.9363 496.909 22.6125 496.262 22.6125C495.182 22.6125 494.319 23.476 494.319 24.5554C494.319 25.6348 495.182 26.4983 496.262 26.4983C497.039 26.4983 497.751 26.0234 498.054 25.311C498.118 25.1383 498.313 25.0735 498.485 25.1383C498.658 25.203 498.723 25.3973 498.658 25.57C498.248 26.5415 497.32 27.146 496.262 27.146Z" fill="#A7B0B7"/>
<path d="M269.998 289.7L307.598 289.3L304.598 275.9L271.098 273.4L269.998 289.7Z" fill="#ECC1B0"/>
<path d="M288.998 273L306.398 274.1C306.398 274.1 313.398 256.8 316.598 256.7L315.598 290.5L288.398 289.8L288.998 273Z" fill="#FCC232"/>
<path d="M304.598 284.5C304.798 285.2 305.498 285.6 306.098 285.5C306.798 285.4 307.298 284.6 307.098 284C306.998 283.3 306.098 282.7 305.498 282.9C304.898 283.1 304.298 284 304.598 284.6" fill="#E0E0E0"/>
<path d="M315.598 290.5L312.898 290.3L314.898 257.9C314.898 257.9 315.598 256.4 316.698 256.6L315.598 290.5Z" fill="#E0E0E0"/>
<path d="M306.198 273.5C306.398 273.5 306.398 274.3 306.898 275.2C307.398 276 308.098 276.5 307.998 276.6C307.998 276.8 306.998 276.5 306.398 275.5C305.898 274.5 306.098 273.5 306.198 273.5Z" fill="#263238"/>
<path d="M307.798 270C307.998 270 308.198 270.7 308.898 271.3C309.598 271.9 310.298 272.1 310.298 272.2C310.298 272.4 309.398 272.4 308.498 271.7C307.698 271 307.698 270 307.798 270Z" fill="#263238"/>
<path d="M312.098 268.1C312.098 268.3 311.298 268.5 310.398 268C309.498 267.6 309.198 266.8 309.298 266.7C309.398 266.6 309.898 267.1 310.598 267.5C311.398 267.9 312.098 268 312.098 268.1Z" fill="#263238"/>
<path d="M302.198 273.7C302.298 273.8 302.098 274.5 302.098 275.5C302.098 276.4 302.398 277.2 302.298 277.3C302.198 277.4 301.598 276.7 301.598 275.6C301.598 274.4 302.098 273.6 302.198 273.7Z" fill="#263238"/>
<path d="M298.698 273.6C298.798 273.6 298.898 274.3 298.598 275.3C298.498 275.8 298.298 276.4 297.998 277.1C297.798 277.4 297.698 277.7 297.498 278.1C297.398 278.3 297.298 278.4 297.098 278.6C296.898 278.8 296.498 278.9 296.198 278.6C295.898 278.4 295.798 278.1 295.798 277.9C295.798 277.7 295.898 277.5 295.898 277.3C295.998 276.9 296.098 276.6 296.298 276.3C296.598 275.7 296.998 275.1 297.398 274.8C298.098 274 298.798 273.8 298.798 273.8C298.898 273.9 298.298 274.2 297.698 275C297.398 275.4 297.098 275.9 296.798 276.5C296.698 276.8 296.598 277.1 296.498 277.5C296.398 277.9 296.398 278.2 296.498 278.3C296.598 278.3 296.598 278.3 296.698 278.3C296.798 278.2 296.898 278.1 296.998 277.9C297.198 277.6 297.398 277.3 297.498 277C297.798 276.4 297.998 275.9 298.198 275.4C298.598 274.2 298.598 273.5 298.698 273.6Z" fill="#263238"/>
<path d="M298.998 273.8C298.998 273.9 298.398 274.2 297.398 274.2C296.898 274.2 296.198 274.1 295.598 273.9C295.298 273.8 294.898 273.6 294.598 273.4C294.298 273.2 293.798 272.9 293.798 272.3C293.798 272 294.098 271.7 294.298 271.6C294.498 271.5 294.698 271.5 294.898 271.4C295.298 271.3 295.698 271.4 295.998 271.4C296.698 271.5 297.298 271.8 297.698 272.2C298.598 272.9 298.698 273.6 298.698 273.6C298.598 273.7 298.298 273.1 297.498 272.5C297.098 272.2 296.598 272 295.898 271.9C295.598 271.9 295.298 271.9 294.898 271.9C294.498 271.9 294.198 272.1 294.298 272.2C294.298 272.4 294.598 272.7 294.798 272.8C295.098 273 295.398 273.1 295.698 273.2C296.298 273.4 296.898 273.5 297.398 273.6C298.298 273.8 298.898 273.7 298.998 273.8Z" fill="#263238"/>
<path d="M36.4984 279.2L33.5984 290.2L1.39844 289.9C1.39844 289.9 5.79844 286.6 21.9984 286.8L23.5984 279.2H36.4984Z" fill="#ECC1B0"/>
<path d="M69.4984 130.2C68.5984 128.4 67.6984 126.5 67.1984 124.5C66.6984 122.5 66.5984 120.4 67.1984 118.5C67.8984 116.6 69.3984 114.9 71.3984 114.4C72.5984 114.1 73.9984 114.2 75.0984 113.7C76.3984 113.1 77.2985 111.8 78.2985 110.8C79.8985 109.2 81.9985 108.1 84.2985 107.7C85.4985 107.5 86.6985 107.5 87.7985 108C88.8985 108.5 89.7984 109.5 89.9984 110.7C91.3984 110.2 92.7984 109.6 94.1984 109.5C95.6984 109.3 97.1984 109.6 98.3984 110.5C99.5984 111.4 100.198 113.1 99.5984 114.4C100.798 113.6 102.498 114.1 103.298 115.2C104.098 116.3 103.998 118 103.298 119.1C102.598 120.3 100.698 121.4 99.3984 121.6C97.9984 121.9 96.3984 122.1 95.0984 121.7" fill="#263238"/>
<path d="M85.3985 173.6C91.1985 172.9 95.2985 167.6 94.5985 161.9C94.1985 158.7 93.8985 156 93.8985 156C93.8985 156 101.998 154.3 101.698 146.1C101.398 137.9 98.9985 119.1 98.9985 119.1C89.2985 115.5 78.3985 117.4 70.4985 124.2L69.2985 125.2L73.4985 164.3C74.1985 170.1 79.4985 174.4 85.3985 173.6Z" fill="#ECC1B0"/>
<path d="M93.8984 155.9C93.8984 155.9 88.6984 156.6 82.9984 153.4C82.9984 153.4 85.7984 159.2 93.9984 158L93.8984 155.9Z" fill="#AA6550"/>
<path d="M70.7984 133.6C70.6984 133.5 65.0984 132.2 65.4984 137.8C65.9984 143.4 71.4984 141.8 71.4984 141.6C71.5984 141.5 70.7984 133.6 70.7984 133.6Z" fill="#ECC1B0"/>
<path d="M69.6984 139.6C69.6984 139.6 69.5984 139.7 69.3984 139.8C69.1984 139.9 68.9984 140 68.6984 139.9C68.0984 139.7 67.4984 138.8 67.3984 137.8C67.2984 137.3 67.3984 136.8 67.5984 136.4C67.6984 136 67.9984 135.7 68.2984 135.6C68.5984 135.5 68.7984 135.7 68.8984 135.8C68.9984 136 68.9984 136.1 68.9984 136.1C68.9984 136.1 69.0984 136 68.9984 135.8C68.9984 135.7 68.8984 135.6 68.7984 135.5C68.6984 135.4 68.4984 135.4 68.1984 135.4C67.7984 135.5 67.3984 135.9 67.2984 136.4C67.0984 136.9 66.9984 137.4 67.0984 138C67.1984 139.1 67.8984 140.1 68.6984 140.3C69.0984 140.4 69.3984 140.2 69.5984 140.1C69.6984 139.8 69.6984 139.7 69.6984 139.6Z" fill="#AA6550"/>
<path d="M97.0984 132.6C97.1984 133.2 96.6984 133.8 95.9984 133.8C95.3984 133.9 94.7984 133.4 94.6984 132.8C94.5984 132.2 95.0984 131.6 95.7984 131.6C96.4984 131.6 97.0984 132 97.0984 132.6Z" fill="#263238"/>
<path d="M98.0984 130.7C97.9984 130.9 96.9984 130.2 95.7984 130.3C94.4984 130.3 93.5984 131 93.4984 130.9C93.3984 130.8 93.5984 130.6 93.9984 130.2C94.3984 129.9 94.9984 129.6 95.7984 129.5C96.5984 129.5 97.2984 129.7 97.6984 130C97.9984 130.4 98.0984 130.6 98.0984 130.7Z" fill="#263238"/>
<path d="M85.0984 133.2C85.1984 133.8 84.6984 134.4 83.9984 134.4C83.3984 134.5 82.7984 134 82.6984 133.4C82.5984 132.8 83.0984 132.2 83.7984 132.2C84.4984 132.2 85.0984 132.6 85.0984 133.2Z" fill="#263238"/>
<path d="M85.6984 131.6C85.5984 131.8 84.5984 131.1 83.3984 131.2C82.0984 131.2 81.1984 131.9 81.0984 131.8C80.9984 131.7 81.1984 131.5 81.5984 131.1C81.9984 130.8 82.5984 130.5 83.3984 130.4C84.1984 130.4 84.8984 130.6 85.2984 130.9C85.5984 131.2 85.6984 131.5 85.6984 131.6Z" fill="#263238"/>
<path d="M90.6984 140.7C90.6984 140.6 91.4984 140.5 92.6984 140.2C92.9984 140.2 93.2984 140.1 93.3984 139.8C93.4984 139.6 93.2984 139.2 93.0984 138.9C92.7984 138.1 92.3984 137.3 91.9984 136.5C90.4984 133.1 89.3984 130.3 89.4984 130.2C89.5984 130.1 90.9984 132.9 92.4984 136.3C92.8984 137.1 93.1984 138 93.4984 138.7C93.5984 139.1 93.8984 139.5 93.6984 140C93.5984 140.2 93.3984 140.4 93.1984 140.5C92.9984 140.6 92.7984 140.6 92.6984 140.6C91.4984 140.7 90.6984 140.8 90.6984 140.7Z" fill="#263238"/>
<path d="M87.0984 141.8C87.2984 141.8 87.3984 143.1 88.5984 144.1C89.7984 145 91.2984 144.8 91.2984 145C91.2984 145.1 90.9984 145.3 90.3984 145.3C89.7984 145.4 88.8984 145.2 88.1984 144.6C87.4984 144 87.0984 143.3 86.9984 142.7C86.7984 142.1 86.9984 141.7 87.0984 141.8Z" fill="#263238"/>
<path d="M97.4985 128.5C97.2985 128.8 96.3985 128.5 95.3985 128.6C94.3985 128.6 93.4985 128.9 93.2985 128.6C93.1985 128.5 93.2985 128.2 93.6985 127.9C94.0985 127.6 94.6985 127.4 95.3985 127.3C96.0985 127.3 96.7985 127.5 97.0985 127.8C97.3985 128.1 97.5985 128.4 97.4985 128.5Z" fill="#263238"/>
<path d="M83.7985 127.1C83.6985 127.3 83.2985 127.2 82.8985 127.2C82.4985 127.1 81.8985 127.1 81.2985 127.1C80.6985 127.1 80.1985 127.2 79.6985 127.3C79.2985 127.4 78.9985 127.4 78.7985 127.3C78.6985 127.2 78.7985 126.8 79.1985 126.4C79.5985 126 80.3985 125.7 81.1985 125.7C82.0985 125.7 82.7985 126 83.2985 126.4C83.7985 126.6 83.8985 126.9 83.7985 127.1Z" fill="#263238"/>
<path d="M99.5984 121.6C99.5984 121.6 94.1984 123.7 87.5984 121.6C83.2984 120.2 78.3984 119.9 77.4984 120.9C76.5984 121.9 76.9984 126 73.1984 127.9C73.1984 127.9 74.6984 135.8 71.4984 136C68.2984 136.2 68.3984 123.6 68.3984 123.6L75.4984 118.7L83.6984 115.8L91.5984 114.6L99.2984 115.7L99.5984 121.6Z" fill="#263238"/>
<path d="M111.598 172.7L136.198 195.8L175.098 169.2L187.298 183.2L149.798 213.2C145.998 216.6 141.198 218.5 136.198 218.7C129.298 219 122.698 216 118.298 210.7L105.098 199.6L111.598 172.7Z" fill="#FCC232"/>
<path d="M88.6984 162.8L111.598 172.7L110.798 179L121.398 221.2L132.998 229.7L123.398 243.8C121.198 247 118.398 249.6 115.098 251.6L92.2984 265.2C87.8984 266.8 82.8984 264.7 80.9984 260.4L60.7984 214.6L40.4984 277.5C39.1984 281.6 35.0984 284.1 30.8984 283.5L22.8984 282.3C20.1984 281.9 18.3984 279.2 19.0984 276.5L41.7984 188.3C42.9984 183.7 44.9984 179.3 47.5984 175.4C52.4984 168 60.7984 163.5 69.6984 163.3L88.6984 162.8Z" fill="#FCC232"/>
<path d="M96.7984 163.5L95.9984 158.9L71.6984 157.3V163.4C71.8984 165.1 74.6984 164.6 77.2984 165.7L89.1984 168.1C92.0984 168.3 98.1984 167.2 96.7984 163.5Z" fill="#FCC232"/>
<path d="M121.698 221.5C121.698 221.5 121.398 220.9 121.098 219.9C120.698 218.9 120.198 217.3 119.598 215.4C118.398 211.6 116.798 206.4 115.298 200.5C113.798 194.6 112.598 189.3 111.898 185.4C111.498 183.5 111.198 181.9 111.098 180.8C110.898 179.7 110.798 179.1 110.898 179.1C110.898 179.1 111.098 179.7 111.298 180.8C111.598 182 111.898 183.5 112.298 185.4C113.098 189.3 114.398 194.6 115.898 200.5C117.398 206.4 118.898 211.6 119.998 215.4C120.498 217.2 120.998 218.8 121.298 219.9C121.598 220.9 121.798 221.5 121.698 221.5Z" fill="#263238"/>
<path d="M68.1984 193.7C68.2984 193.7 67.8984 194.9 67.1984 196.9C66.4984 199 65.5984 201.5 64.5984 204.4C63.5984 207.3 62.6984 209.8 61.9984 211.9C61.2984 213.8 60.8984 215 60.7984 215C60.6984 215 60.9984 213.8 61.5984 211.8C62.1984 209.8 63.0984 207.2 64.0984 204.2C65.0984 201.3 66.0984 198.6 66.8984 196.7C67.6984 194.9 68.1984 193.7 68.1984 193.7Z" fill="#263238"/>
<g opacity="0.2">
<g opacity="0.2">
<path opacity="0.2" d="M60.7985 214.7C62.6985 219.1 64.6985 223.5 66.5985 228C66.8985 228.7 67.1985 229.4 67.7985 230C68.2985 230.6 69.0985 230.9 69.8985 230.8C71.2985 230.5 71.6985 228.6 71.7985 227.1C72.0985 217.4 71.7985 207.5 68.3985 198.5C68.1985 197.8 67.6985 197.1 66.9985 197.1C66.3985 197.2 66.0985 197.9 65.8985 198.5C64.2985 204.2 62.6985 209.8 61.1985 215.5" fill="black"/>
</g>
</g>
<g opacity="0.2">
<g opacity="0.2">
<path opacity="0.2" d="M123.798 215.6C124.598 215.2 124.998 214.2 124.998 213.3C124.998 212.4 124.598 211.5 124.298 210.7C121.698 204.5 118.098 198.8 113.698 193.7L118.498 210.7L123.798 215.6Z" fill="black"/>
</g>
</g>
<path d="M48.0984 208C47.9984 208 48.2984 202.2 48.5984 195.1C48.9984 188 49.2984 182.2 49.2984 182.2C49.3984 182.2 49.0984 188 48.7984 195.1C48.4984 202.2 48.0984 208 48.0984 208Z" fill="#E0E0E0"/>
<path d="M52.5984 187.9C52.5984 187.9 52.5984 188.1 52.6984 188.4C52.6984 188.7 52.6984 189.2 52.6984 189.7C52.5984 190.8 52.3984 192.3 51.7984 193.9C51.1984 195.5 50.3984 196.8 49.7984 197.7C49.4984 198.1 49.1984 198.5 48.9984 198.7C48.7984 198.9 48.6984 199 48.6984 199C48.6984 199 49.0984 198.5 49.7984 197.6C50.3984 196.7 51.1984 195.4 51.6984 193.8C52.2984 192.2 52.4984 190.7 52.5984 189.6C52.5984 188.6 52.4984 187.9 52.5984 187.9Z" fill="#E0E0E0"/>
<path d="M44.3984 188.7C44.3984 188.7 44.4984 189.3 44.6984 190.2C44.8984 191.1 45.1984 192.4 45.7984 193.8C46.3984 195.1 47.0984 196.3 47.6984 197C48.2984 197.8 48.6984 198.2 48.6984 198.2C48.6984 198.2 48.5984 198.1 48.3984 197.9C48.1984 197.7 47.8984 197.4 47.5984 197C46.9984 196.3 46.1984 195.1 45.5984 193.8C44.9984 192.4 44.6984 191.1 44.4984 190.2C44.3984 189.7 44.3984 189.3 44.3984 189.1C44.3984 188.9 44.3984 188.7 44.3984 188.7Z" fill="#E0E0E0"/>
<path d="M51.4984 184.5C51.4984 184.5 51.4984 184.6 51.4984 184.9C51.4984 185.1 51.4984 185.5 51.4984 185.9C51.3984 186.8 51.2984 187.9 50.8984 189.2C50.4984 190.5 49.9984 191.6 49.5984 192.3C49.3984 192.7 49.1984 193 49.0984 193.2C48.9984 193.4 48.8984 193.5 48.8984 193.5C48.8984 193.5 49.0984 193 49.4984 192.3C49.8984 191.5 50.3984 190.4 50.6984 189.2C51.0984 187.9 51.2984 186.8 51.3984 185.9C51.4984 185.1 51.4984 184.5 51.4984 184.5Z" fill="#E0E0E0"/>
<path d="M46.2984 185.2C46.2984 185.2 46.2984 185.8 46.2984 186.8C46.2984 187.8 46.3984 189.1 46.7984 190.6C47.0984 192.1 47.5984 193.3 48.0984 194.2C48.4984 195.1 48.7984 195.6 48.7984 195.6C48.7984 195.6 48.6984 195.5 48.4984 195.2C48.2984 195 48.0984 194.6 47.8984 194.2C47.3984 193.3 46.8984 192 46.5984 190.6C46.2984 189.1 46.1984 187.7 46.1984 186.8C46.1984 186.3 46.1984 185.9 46.2984 185.6C46.1984 185.4 46.1984 185.2 46.2984 185.2Z" fill="#E0E0E0"/>
<path d="M47.8985 183.3C47.8985 183.3 47.7985 183.7 47.6985 184.2C47.5985 184.8 47.5985 185.6 47.7985 186.5C48.1985 188.2 48.7985 189.6 48.7985 189.6C48.7985 189.6 48.5985 189.3 48.3985 188.7C48.1985 188.2 47.8985 187.4 47.6985 186.5C47.4985 185.6 47.4985 184.8 47.5985 184.2C47.6985 183.6 47.8985 183.3 47.8985 183.3Z" fill="#E0E0E0"/>
<path d="M44.7985 196.4C44.8985 196.4 45.3985 197.5 46.3985 198.7C47.3985 199.9 48.2985 200.7 48.2985 200.8C48.2985 200.8 47.9985 200.6 47.5985 200.3C47.1985 200 46.6985 199.5 46.1985 198.8C45.6985 198.2 45.2985 197.6 45.0985 197.1C44.8985 196.7 44.7985 196.4 44.7985 196.4Z" fill="#E0E0E0"/>
<path d="M52.6984 197.8C52.6984 197.8 52.4984 198.1 52.1984 198.6C51.8984 199.1 51.2984 199.7 50.6984 200.3C50.0984 200.9 49.4984 201.5 48.9984 201.8C48.4984 202.2 48.1984 202.4 48.1984 202.3C48.1984 202.3 48.3984 202 48.8984 201.7C49.2984 201.3 49.8984 200.8 50.4984 200.1C51.0984 199.5 51.5984 198.9 51.9984 198.4C52.3984 198 52.5984 197.7 52.6984 197.8Z" fill="#E0E0E0"/>
<path d="M31.0984 272.6C30.9984 272.6 31.2984 266.8 31.5984 259.7C31.9984 252.6 32.2984 246.8 32.2984 246.8C32.3984 246.8 32.0984 252.6 31.7984 259.7C31.4984 266.9 31.0984 272.6 31.0984 272.6Z" fill="#E0E0E0"/>
<path d="M35.5984 252.6C35.5984 252.6 35.5984 252.8 35.6984 253.1C35.6984 253.4 35.6984 253.9 35.6984 254.4C35.5984 255.5 35.3984 257 34.7984 258.6C34.1984 260.2 33.3984 261.5 32.7984 262.4C32.4984 262.8 32.1984 263.2 31.9984 263.4C31.7984 263.6 31.6984 263.7 31.6984 263.7C31.6984 263.7 32.0984 263.2 32.7984 262.3C33.3984 261.4 34.1984 260.1 34.6984 258.5C35.2984 256.9 35.4984 255.4 35.5984 254.3C35.5984 253.3 35.5984 252.6 35.5984 252.6Z" fill="#E0E0E0"/>
<path d="M27.3984 253.4C27.3984 253.4 27.4984 254 27.6984 254.9C27.8984 255.8 28.1984 257.1 28.7984 258.5C29.3984 259.8 30.0984 261 30.6984 261.7C31.2984 262.5 31.6984 262.9 31.6984 262.9C31.6984 262.9 31.5984 262.8 31.3984 262.6C31.1984 262.4 30.8984 262.1 30.5984 261.7C29.9984 261 29.1984 259.8 28.5984 258.5C27.9984 257.1 27.6984 255.8 27.4984 254.9C27.3984 254.4 27.3984 254 27.3984 253.8C27.3984 253.5 27.3984 253.4 27.3984 253.4Z" fill="#E0E0E0"/>
<path d="M34.5984 249.2C34.5984 249.2 34.5984 249.3 34.5984 249.6C34.5984 249.8 34.5984 250.2 34.5984 250.6C34.4984 251.5 34.3984 252.6 33.9984 253.9C33.5984 255.2 33.0984 256.3 32.6984 257C32.4984 257.4 32.2984 257.7 32.1984 257.9C32.0984 258.1 31.9984 258.2 31.9984 258.2C31.9984 258.2 32.1984 257.7 32.5984 257C32.9984 256.2 33.4984 255.1 33.7984 253.9C34.1984 252.6 34.3984 251.5 34.4984 250.6C34.4984 249.7 34.4984 249.2 34.5984 249.2Z" fill="#E0E0E0"/>
<path d="M29.2984 249.9C29.2984 249.9 29.2984 250.5 29.2984 251.5C29.2984 252.5 29.3984 253.8 29.7984 255.3C30.0984 256.8 30.5984 258 31.0984 258.9C31.4984 259.8 31.7984 260.3 31.7984 260.3C31.7984 260.3 31.6984 260.2 31.4984 259.9C31.2984 259.7 31.0984 259.3 30.8984 258.9C30.3984 258 29.8984 256.7 29.5984 255.3C29.2984 253.8 29.1984 252.4 29.1984 251.5C29.1984 251 29.1984 250.6 29.2984 250.3C29.1984 250 29.2984 249.9 29.2984 249.9Z" fill="#E0E0E0"/>
<path d="M30.9984 248C30.9984 248 30.8984 248.4 30.7984 248.9C30.6984 249.5 30.6984 250.3 30.8984 251.2C31.2984 252.9 31.8984 254.3 31.8984 254.3C31.8984 254.3 31.6984 254 31.4984 253.4C31.2984 252.9 30.9984 252.1 30.7984 251.2C30.5984 250.3 30.5984 249.5 30.6984 248.9C30.7984 248.3 30.8984 248 30.9984 248Z" fill="#E0E0E0"/>
<path d="M27.8984 261.1C27.9984 261.1 28.4984 262.2 29.4984 263.4C30.4984 264.6 31.3984 265.4 31.3984 265.5C31.3984 265.5 31.0984 265.3 30.6984 265C30.2984 264.7 29.7984 264.2 29.2984 263.5C28.7984 262.9 28.3984 262.3 28.1984 261.8C27.9984 261.4 27.7984 261.1 27.8984 261.1Z" fill="#E0E0E0"/>
<path d="M35.6984 262.4C35.6984 262.4 35.4984 262.7 35.1984 263.2C34.8984 263.7 34.2984 264.3 33.6984 264.9C33.0984 265.5 32.4984 266.1 31.9984 266.4C31.4984 266.8 31.1984 267 31.1984 266.9C31.1984 266.9 31.3984 266.6 31.8984 266.3C32.2984 265.9 32.8984 265.4 33.4984 264.7C34.0984 264.1 34.5984 263.5 34.9984 263C35.3984 262.7 35.6984 262.4 35.6984 262.4Z" fill="#E0E0E0"/>
<path d="M68.0984 189.7C67.9984 189.7 68.2984 183.9 68.5984 176.8C68.9984 169.7 69.2984 163.9 69.2984 163.9C69.3984 163.9 69.0984 169.7 68.7984 176.8C68.4984 183.9 68.0984 189.7 68.0984 189.7Z" fill="#E0E0E0"/>
<path d="M72.5984 169.7C72.5984 169.7 72.5984 169.9 72.6984 170.2C72.6984 170.5 72.6984 171 72.6984 171.5C72.5984 172.6 72.3984 174.1 71.7984 175.7C71.1984 177.3 70.3984 178.6 69.7984 179.5C69.4984 179.9 69.1984 180.3 68.9984 180.5C68.7984 180.7 68.6984 180.8 68.6984 180.8C68.6984 180.8 69.0984 180.3 69.7984 179.4C70.3984 178.5 71.1984 177.2 71.6984 175.6C72.2984 174 72.4984 172.5 72.5984 171.4C72.5984 170.3 72.5984 169.7 72.5984 169.7Z" fill="#E0E0E0"/>
<path d="M64.3984 170.5C64.3984 170.5 64.4984 171.1 64.6984 172C64.8984 172.9 65.1984 174.2 65.7984 175.6C66.3984 176.9 67.0984 178.1 67.6984 178.8C68.2984 179.6 68.6984 180 68.6984 180C68.6984 180 68.5984 179.9 68.3984 179.7C68.1984 179.5 67.8984 179.2 67.5984 178.8C66.9984 178.1 66.1984 176.9 65.5984 175.6C64.9984 174.2 64.6984 172.9 64.4984 172C64.3984 171.5 64.3984 171.1 64.3984 170.9C64.3984 170.6 64.3984 170.5 64.3984 170.5Z" fill="#E0E0E0"/>
<path d="M71.5984 166.2C71.5984 166.2 71.5984 166.3 71.5984 166.6C71.5984 166.8 71.5984 167.2 71.5984 167.6C71.4984 168.5 71.3984 169.6 70.9984 170.9C70.5984 172.2 70.0984 173.3 69.6984 174C69.4984 174.4 69.2984 174.7 69.1984 174.9C69.0984 175.1 68.9984 175.2 68.9984 175.2C68.9984 175.2 69.1984 174.7 69.5984 174C69.9984 173.2 70.4984 172.1 70.7984 170.9C71.1984 169.6 71.3984 168.5 71.4984 167.6C71.4984 166.8 71.4984 166.2 71.5984 166.2Z" fill="#E0E0E0"/>
<path d="M66.2984 166.9C66.2984 166.9 66.2984 167.5 66.2984 168.5C66.2984 169.5 66.3984 170.8 66.7984 172.3C67.0984 173.8 67.5984 175 68.0984 175.9C68.4984 176.8 68.7984 177.3 68.7984 177.3C68.7984 177.3 68.6984 177.2 68.4984 176.9C68.2984 176.7 68.0984 176.3 67.8984 175.9C67.3984 175 66.8984 173.7 66.5984 172.3C66.2984 170.8 66.1984 169.4 66.1984 168.5C66.1984 168 66.1984 167.6 66.2984 167.3C66.1984 167.1 66.2984 166.9 66.2984 166.9Z" fill="#E0E0E0"/>
<path d="M67.9984 165C67.9984 165 67.8984 165.4 67.7984 165.9C67.6984 166.5 67.6984 167.3 67.8984 168.2C68.2984 169.9 68.8984 171.3 68.8984 171.3C68.8984 171.3 68.6984 171 68.4984 170.4C68.2984 169.9 67.9984 169.1 67.7984 168.2C67.5984 167.3 67.5984 166.5 67.6984 165.9C67.7984 165.4 67.8984 165 67.9984 165Z" fill="#E0E0E0"/>
<path d="M64.8984 178.1C64.9984 178.1 65.4984 179.2 66.4984 180.4C67.4984 181.6 68.3984 182.4 68.3984 182.5C68.3984 182.5 68.0984 182.3 67.6984 182C67.2984 181.7 66.7984 181.2 66.2984 180.5C65.7984 179.9 65.3984 179.3 65.1984 178.8C64.9984 178.4 64.7984 178.1 64.8984 178.1Z" fill="#E0E0E0"/>
<path d="M72.6984 179.5C72.6984 179.5 72.4984 179.8 72.1984 180.3C71.8984 180.8 71.2984 181.4 70.6984 182C70.0984 182.6 69.4984 183.2 68.9984 183.5C68.4984 183.9 68.1984 184.1 68.1984 184C68.1984 184 68.3984 183.7 68.8984 183.4C69.2984 183 69.8984 182.5 70.4984 181.8C71.0984 181.2 71.5984 180.6 71.9984 180.1C72.3984 179.7 72.6984 179.4 72.6984 179.5Z" fill="#E0E0E0"/>
<path d="M89.7984 185.1C89.6984 185.1 89.9984 179.3 90.2984 172.2C90.6984 165.1 90.9984 159.3 90.9984 159.3C91.0984 159.3 90.7984 165.1 90.4984 172.2C90.1984 179.3 89.7984 185.1 89.7984 185.1Z" fill="#E0E0E0"/>
<path d="M94.2984 165C94.2984 165 94.2984 165.2 94.3984 165.5C94.3984 165.8 94.3984 166.3 94.3984 166.8C94.2984 167.9 94.0984 169.4 93.4984 171C92.8984 172.6 92.0984 173.9 91.4984 174.8C91.1984 175.2 90.8984 175.6 90.6984 175.8C90.4984 176 90.3984 176.1 90.3984 176.1C90.3984 176.1 90.7984 175.6 91.4984 174.7C92.0984 173.8 92.8984 172.5 93.3984 170.9C93.9984 169.3 94.1984 167.8 94.2984 166.7C94.2984 165.7 94.1984 165 94.2984 165Z" fill="#E0E0E0"/>
<path d="M86.0984 165.8C86.0984 165.8 86.1985 166.4 86.3985 167.3C86.5985 168.2 86.8985 169.5 87.4985 170.9C88.0985 172.2 88.7985 173.4 89.3985 174.1C89.9985 174.9 90.3985 175.3 90.3985 175.3C90.3985 175.3 90.2984 175.2 90.0984 175C89.8984 174.8 89.5985 174.5 89.2985 174.1C88.6985 173.4 87.8985 172.2 87.2985 170.9C86.6985 169.5 86.3984 168.2 86.1984 167.3C86.0984 166.8 86.0984 166.4 86.0984 166.2C86.0984 166 86.0984 165.8 86.0984 165.8Z" fill="#E0E0E0"/>
<path d="M93.1984 161.6C93.1984 161.6 93.1984 161.7 93.1984 162C93.1984 162.2 93.1984 162.6 93.1984 163C93.0984 163.9 92.9984 165 92.5984 166.3C92.1984 167.6 91.6985 168.7 91.2985 169.4C91.0985 169.8 90.8985 170.1 90.7985 170.3C90.6985 170.5 90.5984 170.6 90.5984 170.6C90.5984 170.6 90.7984 170.1 91.1984 169.4C91.5984 168.6 92.0985 167.5 92.3985 166.3C92.7985 165 92.9984 163.9 93.0984 163C93.1984 162.1 93.1984 161.6 93.1984 161.6Z" fill="#E0E0E0"/>
<path d="M87.9984 162.3C87.9984 162.3 87.9984 162.9 87.9984 163.9C87.9984 164.9 88.0984 166.2 88.4984 167.7C88.7984 169.2 89.2984 170.4 89.7984 171.3C90.1984 172.2 90.4984 172.7 90.4984 172.7C90.4984 172.7 90.3984 172.6 90.1984 172.3C89.9984 172.1 89.7984 171.7 89.5984 171.3C89.0984 170.4 88.5984 169.1 88.2984 167.7C87.9984 166.2 87.8984 164.8 87.8984 163.9C87.8984 163.4 87.8984 163 87.9984 162.7C87.8984 162.4 87.8984 162.3 87.9984 162.3Z" fill="#E0E0E0"/>
<path d="M89.5984 160.4C89.5984 160.4 89.4984 160.8 89.3984 161.3C89.2984 161.9 89.2984 162.7 89.4984 163.6C89.8984 165.3 90.4984 166.7 90.4984 166.7C90.4984 166.7 90.2984 166.4 90.0984 165.8C89.8984 165.3 89.5984 164.5 89.3984 163.6C89.1984 162.7 89.1984 161.9 89.2984 161.3C89.3984 160.7 89.5984 160.4 89.5984 160.4Z" fill="#E0E0E0"/>
<path d="M86.4984 173.5C86.5984 173.5 87.0984 174.6 88.0984 175.8C89.0984 177 89.9984 177.8 89.9984 177.9C89.9984 177.9 89.6984 177.7 89.2984 177.4C88.8984 177.1 88.3984 176.6 87.8984 175.9C87.3984 175.3 86.9984 174.7 86.7984 174.2C86.5984 173.8 86.4984 173.5 86.4984 173.5Z" fill="#E0E0E0"/>
<path d="M94.3984 174.8C94.3984 174.8 94.1984 175.1 93.8984 175.6C93.5984 176.1 92.9984 176.7 92.3984 177.3C91.7984 177.9 91.1984 178.5 90.6984 178.8C90.1984 179.2 89.8984 179.4 89.8984 179.3C89.8984 179.3 90.0984 179 90.5984 178.7C90.9984 178.3 91.5984 177.8 92.1984 177.1C92.7984 176.5 93.2984 175.9 93.6984 175.4C94.0984 175.1 94.2984 174.8 94.3984 174.8Z" fill="#E0E0E0"/>
<path d="M98.6984 205.3C98.5984 205.3 98.8984 199.5 99.1984 192.4C99.5984 185.3 99.8985 179.5 99.8985 179.5C99.9985 179.5 99.6985 185.3 99.3985 192.4C99.0985 199.5 98.6984 205.3 98.6984 205.3Z" fill="#E0E0E0"/>
<path d="M103.198 185.3C103.198 185.3 103.198 185.5 103.298 185.8C103.298 186.1 103.298 186.6 103.298 187.1C103.198 188.2 102.998 189.7 102.398 191.3C101.798 192.9 100.998 194.2 100.398 195.1C100.098 195.5 99.7985 195.9 99.5985 196.1C99.3985 196.3 99.2985 196.4 99.2985 196.4C99.2985 196.4 99.6985 195.9 100.398 195C100.998 194.1 101.798 192.8 102.298 191.2C102.898 189.6 103.098 188.1 103.198 187C103.198 185.9 103.098 185.3 103.198 185.3Z" fill="#E0E0E0"/>
<path d="M94.9984 186.1C94.9984 186.1 95.0984 186.7 95.2984 187.6C95.4984 188.5 95.7984 189.8 96.3984 191.2C96.9984 192.5 97.6984 193.7 98.2984 194.4C98.8984 195.2 99.2984 195.6 99.2984 195.6C99.2984 195.6 99.1984 195.5 98.9984 195.3C98.7984 195.1 98.4984 194.8 98.1984 194.4C97.5984 193.7 96.7984 192.5 96.1984 191.2C95.5984 189.8 95.2984 188.5 95.0984 187.6C94.9984 187.1 94.9984 186.7 94.9984 186.5C94.9984 186.2 94.9984 186.1 94.9984 186.1Z" fill="#E0E0E0"/>
<path d="M102.098 181.8C102.098 181.8 102.098 181.9 102.098 182.2C102.098 182.4 102.098 182.8 102.098 183.2C101.998 184.1 101.898 185.2 101.498 186.5C101.098 187.8 100.598 188.9 100.198 189.6C99.9984 190 99.7984 190.3 99.6984 190.5C99.5984 190.7 99.4984 190.8 99.4984 190.8C99.4984 190.8 99.6984 190.3 100.098 189.6C100.498 188.8 100.998 187.7 101.298 186.5C101.698 185.2 101.898 184.1 101.998 183.2C102.098 182.4 102.098 181.8 102.098 181.8Z" fill="#E0E0E0"/>
<path d="M96.8985 182.5C96.8985 182.5 96.8985 183.1 96.8985 184.1C96.8985 185.1 96.9985 186.4 97.3985 187.9C97.6985 189.4 98.1985 190.6 98.6985 191.5C99.0985 192.4 99.3985 192.9 99.3985 192.9C99.3985 192.9 99.2985 192.8 99.0985 192.5C98.8985 192.3 98.6985 191.9 98.4985 191.5C97.9985 190.6 97.4985 189.3 97.1985 187.9C96.8985 186.4 96.7985 185 96.7985 184.1C96.7985 183.6 96.7985 183.2 96.8985 182.9C96.7985 182.7 96.8985 182.5 96.8985 182.5Z" fill="#E0E0E0"/>
<path d="M98.4984 180.6C98.4984 180.6 98.3984 181 98.2984 181.5C98.1984 182.1 98.1984 182.9 98.3984 183.8C98.7984 185.5 99.3984 186.9 99.3984 186.9C99.3984 186.9 99.1984 186.6 98.9984 186C98.7984 185.5 98.4984 184.7 98.2984 183.8C98.0984 182.9 98.0984 182.1 98.1984 181.5C98.2984 181 98.4984 180.6 98.4984 180.6Z" fill="#E0E0E0"/>
<path d="M95.4984 193.7C95.5984 193.7 96.0984 194.8 97.0984 196C98.0984 197.2 98.9984 198 98.9984 198.1C98.9984 198.1 98.6984 197.9 98.2984 197.6C97.8984 197.3 97.3984 196.8 96.8984 196.1C96.3984 195.5 95.9984 194.9 95.7984 194.4C95.4984 194 95.3984 193.7 95.4984 193.7Z" fill="#E0E0E0"/>
<path d="M103.298 195.1C103.298 195.1 103.098 195.4 102.798 195.9C102.498 196.4 101.898 197 101.298 197.6C100.698 198.2 100.098 198.8 99.5985 199.1C99.0985 199.5 98.7985 199.7 98.7985 199.6C98.7985 199.6 98.9985 199.3 99.4985 199C99.8985 198.6 100.498 198.1 101.098 197.4C101.698 196.8 102.198 196.2 102.598 195.7C102.998 195.3 103.298 195 103.298 195.1Z" fill="#E0E0E0"/>
<path d="M129.598 213.3C129.498 213.3 127.698 207.8 125.498 201C123.298 194.2 121.598 188.7 121.598 188.7C121.698 188.7 123.498 194.2 125.698 201C127.898 207.8 129.698 213.3 129.598 213.3Z" fill="#E0E0E0"/>
<path d="M126.698 193C126.698 193 126.798 193.1 126.898 193.4C126.998 193.7 127.198 194.1 127.398 194.6C127.698 195.7 128.098 197.2 128.098 198.9C128.098 200.6 127.898 202.1 127.598 203.2C127.498 203.7 127.298 204.2 127.198 204.4C127.098 204.7 126.998 204.8 126.998 204.8C126.998 204.8 127.198 204.1 127.498 203.1C127.798 202 127.998 200.5 127.998 198.9C127.998 197.2 127.698 195.7 127.398 194.7C126.898 193.6 126.698 193 126.698 193Z" fill="#E0E0E0"/>
<path d="M119.298 196.6C119.298 196.6 119.598 197.1 120.098 197.9C120.598 198.7 121.398 199.8 122.398 200.8C123.398 201.8 124.498 202.6 125.298 203.1C126.098 203.6 126.698 203.9 126.598 203.9C126.598 203.9 126.498 203.9 126.198 203.8C125.898 203.7 125.598 203.5 125.198 203.3C124.398 202.8 123.198 202 122.198 201C121.098 199.9 120.398 198.8 119.898 198C119.698 197.6 119.498 197.2 119.398 197C119.398 196.8 119.298 196.7 119.298 196.6Z" fill="#E0E0E0"/>
<path d="M124.498 190.2C124.498 190.2 124.598 190.3 124.698 190.5C124.798 190.7 124.898 191.1 124.998 191.5C125.198 192.3 125.498 193.5 125.598 194.8C125.698 196.1 125.598 197.3 125.498 198.2C125.398 198.6 125.398 199 125.298 199.2C125.198 199.4 125.198 199.6 125.198 199.6C125.198 199.6 125.298 199.1 125.298 198.2C125.398 197.3 125.398 196.2 125.298 194.9C125.198 193.6 124.998 192.4 124.798 191.6C124.598 190.7 124.498 190.2 124.498 190.2Z" fill="#E0E0E0"/>
<path d="M119.798 192.7C119.798 192.7 119.998 193.3 120.398 194.2C120.798 195.1 121.398 196.3 122.198 197.6C122.998 198.8 123.998 199.9 124.698 200.5C125.398 201.2 125.898 201.6 125.898 201.6C125.898 201.6 125.798 201.5 125.498 201.4C125.298 201.2 124.998 201 124.598 200.6C123.898 199.9 122.898 198.9 122.098 197.7C121.298 196.4 120.698 195.2 120.298 194.3C120.098 193.8 119.998 193.5 119.898 193.2C119.798 192.8 119.798 192.7 119.798 192.7Z" fill="#E0E0E0"/>
<path d="M120.698 190.3C120.698 190.3 120.698 190.7 120.898 191.2C120.998 191.8 121.298 192.5 121.798 193.3C122.798 194.8 123.898 195.8 123.798 195.9C123.798 195.9 123.498 195.7 123.098 195.3C122.698 194.9 122.098 194.3 121.598 193.5C121.098 192.7 120.798 191.9 120.698 191.4C120.598 190.7 120.698 190.3 120.698 190.3Z" fill="#E0E0E0"/>
<path d="M122.498 203.7C122.498 203.7 123.498 204.5 124.798 205.3C126.098 206.1 127.298 206.5 127.298 206.6C127.298 206.6 126.998 206.6 126.498 206.4C125.998 206.2 125.398 205.9 124.698 205.5C123.998 205.1 123.498 204.7 123.098 204.3C122.698 203.9 122.498 203.7 122.498 203.7Z" fill="#E0E0E0"/>
<path d="M130.298 202.1C130.298 202.1 130.298 202.5 130.098 203C129.898 203.6 129.698 204.3 129.298 205.1C128.998 205.9 128.598 206.6 128.298 207.1C127.998 207.6 127.798 207.9 127.798 207.9C127.798 207.9 127.898 207.6 128.198 207.1C128.498 206.6 128.798 205.9 129.198 205.1C129.498 204.3 129.798 203.6 129.998 203C130.098 202.4 130.198 202.1 130.298 202.1Z" fill="#E0E0E0"/>
<path d="M162.598 185.1C162.598 185.1 158.998 189.7 154.498 195.2C149.998 200.7 146.298 205.2 146.298 205.2C146.298 205.2 149.898 200.7 154.398 195.1C158.898 189.5 162.598 185 162.598 185.1Z" fill="#E0E0E0"/>
<path d="M147.098 198.5C147.098 198.5 147.198 198.3 147.298 198.1C147.498 197.8 147.698 197.5 148.098 197C148.798 196.1 149.898 195 151.298 194.1C152.698 193.2 154.098 192.5 155.198 192.2C155.698 192 156.198 191.9 156.498 191.9C156.798 191.8 156.998 191.8 156.998 191.8C156.998 191.8 156.298 192 155.298 192.3C154.298 192.7 152.898 193.3 151.498 194.2C150.098 195.1 148.998 196.2 148.298 197C147.498 198 147.198 198.6 147.098 198.5Z" fill="#E0E0E0"/>
<path d="M154.198 202.7C154.198 202.7 154.498 202.2 154.898 201.3C155.298 200.4 155.798 199.2 156.098 197.7C156.398 196.3 156.498 194.9 156.498 194C156.498 193 156.398 192.4 156.398 192.4C156.398 192.4 156.398 192.5 156.498 192.8C156.498 193.1 156.598 193.5 156.598 193.9C156.698 194.9 156.598 196.2 156.298 197.7C155.998 199.2 155.498 200.4 154.998 201.3C154.798 201.7 154.598 202.1 154.398 202.3C154.298 202.6 154.198 202.8 154.198 202.7Z" fill="#E0E0E0"/>
<path d="M145.898 201.9C145.898 201.9 145.998 201.8 146.098 201.6C146.198 201.4 146.498 201.1 146.698 200.8C147.298 200.1 148.098 199.3 149.198 198.5C150.298 197.7 151.298 197.1 152.098 196.8C152.498 196.6 152.798 196.5 152.998 196.4C153.198 196.3 153.398 196.3 153.398 196.3C153.398 196.3 152.898 196.5 152.198 196.9C151.398 197.3 150.398 197.9 149.398 198.7C148.398 199.5 147.498 200.3 146.898 200.9C146.298 201.5 145.998 201.9 145.898 201.9Z" fill="#E0E0E0"/>
<path d="M150.598 204.5C150.598 204.5 150.998 204 151.498 203.2C152.098 202.4 152.798 201.2 153.398 199.9C153.998 198.5 154.298 197.2 154.498 196.2C154.698 195.2 154.798 194.6 154.798 194.6C154.798 194.6 154.798 194.8 154.798 195C154.798 195.3 154.698 195.7 154.698 196.2C154.498 197.2 154.198 198.5 153.598 199.9C152.998 201.3 152.298 202.5 151.698 203.3C151.398 203.7 151.098 204 150.998 204.2C150.698 204.4 150.598 204.5 150.598 204.5Z" fill="#E0E0E0"/>
<path d="M148.098 205C148.098 205 148.398 204.8 148.798 204.3C149.198 203.9 149.698 203.2 149.998 202.4C150.698 200.8 150.998 199.3 151.098 199.3C151.098 199.3 151.098 199.7 150.898 200.2C150.798 200.8 150.598 201.6 150.198 202.4C149.798 203.2 149.298 203.9 148.898 204.3C148.498 204.9 148.098 205 148.098 205Z" fill="#E0E0E0"/>
<path d="M158.398 196.3C158.298 196.3 158.498 195 158.498 193.5C158.398 192 158.198 190.7 158.198 190.7C158.198 190.7 158.298 191 158.398 191.5C158.498 192 158.598 192.7 158.598 193.5C158.598 194.3 158.598 195 158.498 195.5C158.498 196 158.398 196.3 158.398 196.3Z" fill="#E0E0E0"/>
<path d="M152.898 190.6C152.898 190.6 153.198 190.4 153.798 190.3C154.398 190.1 155.098 189.9 155.998 189.8C156.898 189.7 157.698 189.6 158.198 189.6C158.798 189.6 159.098 189.6 159.098 189.6C159.098 189.6 158.698 189.7 158.198 189.7C157.598 189.8 156.798 189.9 155.998 190C155.098 190.1 154.398 190.3 153.798 190.4C153.198 190.5 152.898 190.6 152.898 190.6Z" fill="#E0E0E0"/>
<path d="M95.4984 255.8C95.3984 255.8 95.1984 250 95.0984 242.9C94.8984 235.8 94.7984 230 94.8984 230C94.9984 230 95.1984 235.8 95.2984 242.9C95.3984 250 95.4984 255.8 95.4984 255.8Z" fill="#E0E0E0"/>
<path d="M98.3984 235.5C98.3984 235.5 98.3984 235.7 98.4984 236C98.4984 236.3 98.5984 236.8 98.5984 237.3C98.5984 238.4 98.4984 239.9 98.0984 241.6C97.5984 243.2 96.9984 244.6 96.3984 245.6C96.0984 246.1 95.7984 246.4 95.6984 246.7C95.4984 246.9 95.3984 247.1 95.3984 247.1C95.3984 247.1 95.7984 246.5 96.2984 245.6C96.8984 244.7 97.4984 243.3 97.9984 241.7C98.3984 240.1 98.5984 238.6 98.5984 237.5C98.4984 236.2 98.3984 235.5 98.3984 235.5Z" fill="#E0E0E0"/>
<path d="M90.2985 236.9C90.2985 236.9 90.3985 237.5 90.6985 238.4C90.9985 239.3 91.3985 240.6 92.0985 241.9C92.7985 243.2 93.5985 244.3 94.2985 245C94.8985 245.7 95.3985 246.1 95.3985 246.1C95.3985 246.1 95.2985 246 95.0985 245.8C94.8985 245.6 94.5985 245.4 94.2985 245C93.5985 244.3 92.7985 243.2 92.0985 241.9C91.3985 240.6 90.9985 239.3 90.6985 238.4C90.5985 237.9 90.4985 237.5 90.4985 237.3C90.2985 237 90.2985 236.9 90.2985 236.9Z" fill="#E0E0E0"/>
<path d="M97.1984 232.1C97.1984 232.1 97.1985 232.2 97.2985 232.5C97.2985 232.7 97.2985 233.1 97.2985 233.5C97.2985 234.4 97.1985 235.6 96.8985 236.9C96.5985 238.2 96.1985 239.3 95.7985 240.1C95.5985 240.5 95.4985 240.8 95.2985 241C95.1985 241.2 95.0984 241.3 95.0984 241.3C95.0984 241.3 95.2984 240.8 95.5984 240C95.8984 239.2 96.2984 238.1 96.5984 236.8C96.8984 235.5 96.9985 234.3 96.9985 233.5C97.0985 232.7 97.0984 232.1 97.1984 232.1Z" fill="#E0E0E0"/>
<path d="M91.8985 233.2C91.8985 233.2 91.8985 233.8 91.9985 234.8C92.0985 235.8 92.2985 237.1 92.7985 238.6C93.2985 240 93.7985 241.3 94.2985 242.1C94.7985 243 95.0985 243.5 95.0985 243.5C95.0985 243.5 94.9985 243.4 94.7985 243.2C94.5985 243 94.3985 242.6 94.0985 242.2C93.5985 241.4 92.9985 240.1 92.4985 238.7C91.9985 237.3 91.7985 235.9 91.7985 234.9C91.7985 234.4 91.7985 234 91.7985 233.7C91.8985 233.4 91.8985 233.2 91.8985 233.2Z" fill="#E0E0E0"/>
<path d="M93.4985 231.2C93.4985 231.2 93.3985 231.6 93.3985 232.1C93.3985 232.7 93.3984 233.5 93.6984 234.3C94.1984 236 94.9985 237.3 94.8985 237.3C94.8985 237.3 94.6985 237 94.3985 236.5C94.0985 236 93.7985 235.2 93.4985 234.4C93.1985 233.5 93.1985 232.7 93.2985 232.1C93.2985 231.5 93.3985 231.2 93.4985 231.2Z" fill="#E0E0E0"/>
<path d="M91.3984 244.5C91.4984 244.5 92.0984 245.5 93.1984 246.7C94.1984 247.8 95.2984 248.6 95.1984 248.6C95.1984 248.6 94.8984 248.5 94.4984 248.2C94.0984 247.9 93.5984 247.4 92.9984 246.9C92.4984 246.3 91.9984 245.8 91.7984 245.3C91.4984 244.8 91.3984 244.5 91.3984 244.5Z" fill="#E0E0E0"/>
<path d="M99.2985 245.2C99.2985 245.2 99.1985 245.5 98.7985 246C98.4985 246.5 97.9985 247.1 97.4985 247.8C96.8985 248.5 96.3985 249.1 95.9985 249.4C95.5985 249.8 95.2985 250 95.2985 250C95.2985 250 95.4985 249.7 95.8985 249.3C96.2985 248.9 96.7985 248.3 97.3985 247.6C97.9985 246.9 98.3985 246.3 98.7985 245.8C98.9985 245.5 99.2985 245.2 99.2985 245.2Z" fill="#E0E0E0"/>
<path d="M117.498 235.3C117.398 235.3 115.598 229.8 113.398 223C111.198 216.2 109.498 210.7 109.498 210.7C109.598 210.7 111.398 216.2 113.598 223C115.798 229.8 117.498 235.3 117.498 235.3Z" fill="#E0E0E0"/>
<path d="M114.498 215C114.498 215 114.598 215.1 114.698 215.4C114.798 215.7 114.998 216.1 115.198 216.6C115.498 217.7 115.898 219.2 115.898 220.9C115.898 222.6 115.698 224.1 115.398 225.2C115.298 225.7 115.098 226.2 114.998 226.4C114.898 226.7 114.798 226.8 114.798 226.8C114.798 226.8 114.998 226.1 115.298 225.1C115.598 224 115.798 222.5 115.798 220.9C115.798 219.2 115.498 217.7 115.198 216.7C114.798 215.6 114.498 215 114.498 215Z" fill="#E0E0E0"/>
<path d="M107.198 218.7C107.198 218.7 107.498 219.2 107.998 220C108.498 220.8 109.298 221.9 110.298 222.9C111.298 223.9 112.398 224.7 113.198 225.2C113.998 225.7 114.598 226 114.498 226C114.498 226 114.398 226 114.098 225.9C113.798 225.8 113.498 225.6 113.098 225.4C112.298 224.9 111.098 224.1 110.098 223.1C108.998 222 108.298 220.9 107.798 220.1C107.598 219.7 107.398 219.3 107.298 219.1C107.198 218.8 107.198 218.7 107.198 218.7Z" fill="#E0E0E0"/>
<path d="M112.398 212.2C112.398 212.2 112.498 212.3 112.598 212.5C112.698 212.7 112.798 213.1 112.898 213.5C113.098 214.3 113.398 215.5 113.498 216.8C113.598 218.1 113.498 219.3 113.398 220.2C113.298 220.6 113.298 221 113.198 221.2C113.098 221.4 113.098 221.6 113.098 221.6C113.098 221.6 113.198 221.1 113.198 220.2C113.298 219.3 113.298 218.2 113.198 216.9C113.098 215.6 112.898 214.4 112.698 213.6C112.498 212.7 112.298 212.2 112.398 212.2Z" fill="#E0E0E0"/>
<path d="M107.698 214.7C107.698 214.7 107.898 215.3 108.298 216.2C108.698 217.1 109.298 218.3 110.098 219.6C110.898 220.8 111.898 221.9 112.598 222.5C113.298 223.2 113.798 223.6 113.798 223.6C113.798 223.6 113.698 223.5 113.398 223.4C113.198 223.2 112.898 223 112.498 222.6C111.798 221.9 110.798 220.9 109.998 219.7C109.198 218.4 108.598 217.2 108.198 216.3C107.998 215.8 107.898 215.5 107.798 215.2C107.698 214.8 107.698 214.7 107.698 214.7Z" fill="#E0E0E0"/>
<path d="M108.598 212.3C108.598 212.3 108.598 212.7 108.798 213.2C108.898 213.8 109.198 214.5 109.698 215.3C110.698 216.8 111.798 217.8 111.698 217.9C111.698 217.9 111.398 217.7 110.998 217.3C110.598 216.9 109.998 216.3 109.498 215.5C108.998 214.7 108.698 213.9 108.598 213.4C108.498 212.7 108.498 212.3 108.598 212.3Z" fill="#E0E0E0"/>
<path d="M110.298 225.7C110.298 225.7 111.298 226.5 112.598 227.3C113.898 228.1 115.098 228.5 115.098 228.6C115.098 228.6 114.798 228.6 114.298 228.4C113.798 228.2 113.198 227.9 112.498 227.5C111.798 227.1 111.298 226.7 110.898 226.3C110.498 225.9 110.298 225.7 110.298 225.7Z" fill="#E0E0E0"/>
<path d="M118.098 224.1C118.098 224.1 118.098 224.5 117.898 225C117.698 225.6 117.498 226.3 117.098 227.1C116.798 227.9 116.398 228.6 116.098 229.1C115.798 229.6 115.598 229.9 115.598 229.9C115.598 229.9 115.698 229.6 115.998 229.1C116.298 228.6 116.598 227.9 116.998 227.1C117.298 226.3 117.598 225.6 117.798 225C117.998 224.5 118.098 224.1 118.098 224.1Z" fill="#E0E0E0"/>
<path d="M49.1984 243.4C49.0984 243.4 47.2984 237.9 45.0984 231.1C42.8984 224.3 41.1984 218.8 41.1984 218.8C41.2984 218.8 43.0984 224.3 45.2984 231.1C47.4984 237.8 49.1984 243.4 49.1984 243.4Z" fill="#E0E0E0"/>
<path d="M46.1984 223C46.1984 223 46.2984 223.1 46.3984 223.4C46.4984 223.7 46.6984 224.1 46.8984 224.6C47.1984 225.7 47.5984 227.2 47.5984 228.9C47.5984 230.6 47.3984 232.1 47.0984 233.2C46.9984 233.7 46.7984 234.2 46.6984 234.4C46.5984 234.7 46.4984 234.8 46.4984 234.8C46.4984 234.8 46.6984 234.1 46.9984 233.1C47.2984 232 47.4984 230.5 47.4984 228.9C47.4984 227.2 47.1984 225.7 46.8984 224.7C46.4984 223.7 46.1984 223 46.1984 223Z" fill="#E0E0E0"/>
<path d="M38.8984 226.7C38.8984 226.7 39.1984 227.2 39.6984 228C40.1984 228.8 40.9984 229.9 41.9984 230.9C42.9984 231.9 44.0984 232.7 44.8984 233.2C45.6984 233.7 46.2984 234 46.1984 234C46.1984 234 46.0984 234 45.7984 233.9C45.4984 233.8 45.1984 233.6 44.7984 233.4C43.9984 232.9 42.7984 232.1 41.7984 231.1C40.6984 230 39.9984 228.9 39.4984 228.1C39.2984 227.7 39.0984 227.3 38.9984 227.1C38.8984 226.8 38.8984 226.7 38.8984 226.7Z" fill="#E0E0E0"/>
<path d="M44.0984 220.2C44.0984 220.2 44.1984 220.3 44.2984 220.5C44.3984 220.7 44.4984 221.1 44.5984 221.5C44.7984 222.3 45.0984 223.5 45.1984 224.8C45.2984 226.1 45.1984 227.3 45.0984 228.2C44.9984 228.6 44.9984 229 44.8984 229.2C44.7984 229.4 44.7984 229.6 44.7984 229.6C44.7984 229.6 44.8984 229.1 44.8984 228.2C44.9984 227.3 44.9984 226.2 44.8984 224.9C44.7984 223.6 44.5984 222.4 44.3984 221.6C44.1984 220.7 43.9984 220.2 44.0984 220.2Z" fill="#E0E0E0"/>
<path d="M39.3984 222.7C39.3984 222.7 39.5984 223.3 39.9984 224.2C40.3984 225.1 40.9984 226.3 41.7984 227.6C42.5984 228.8 43.5984 229.9 44.2984 230.5C44.9984 231.2 45.4984 231.6 45.4984 231.6C45.4984 231.6 45.3984 231.5 45.0984 231.4C44.8984 231.2 44.5984 231 44.1984 230.6C43.4984 229.9 42.4984 228.9 41.6984 227.7C40.8984 226.4 40.2984 225.2 39.8984 224.3C39.6984 223.8 39.5984 223.5 39.4984 223.2C39.3984 222.9 39.3984 222.7 39.3984 222.7Z" fill="#E0E0E0"/>
<path d="M40.2984 220.4C40.2984 220.4 40.2985 220.8 40.4985 221.3C40.5985 221.9 40.8985 222.6 41.3985 223.4C42.3985 224.9 43.4985 225.9 43.3985 226C43.3985 226 43.0985 225.8 42.6985 225.4C42.2985 225 41.6985 224.4 41.1985 223.6C40.6985 222.8 40.3984 222 40.2984 221.5C40.1984 220.7 40.1984 220.4 40.2984 220.4Z" fill="#E0E0E0"/>
<path d="M41.9984 233.7C41.9984 233.7 42.9984 234.5 44.2984 235.3C45.5984 236.1 46.7984 236.5 46.7984 236.6C46.7984 236.6 46.4984 236.6 45.9984 236.4C45.4984 236.2 44.8984 235.9 44.1984 235.5C43.4984 235.1 42.9984 234.7 42.5984 234.3C42.1984 234 41.9984 233.7 41.9984 233.7Z" fill="#E0E0E0"/>
<path d="M49.7985 232.2C49.7985 232.2 49.7985 232.6 49.5985 233.1C49.3985 233.7 49.1985 234.4 48.7985 235.2C48.4985 236 48.0985 236.7 47.7985 237.2C47.4985 237.7 47.2985 238 47.2985 238C47.2985 238 47.3985 237.7 47.6985 237.2C47.9985 236.7 48.2985 236 48.6985 235.2C48.9985 234.4 49.2985 233.7 49.4985 233.1C49.6985 232.5 49.7985 232.2 49.7985 232.2Z" fill="#E0E0E0"/>
<path d="M78.1984 223.6C78.0984 223.6 78.3984 217.8 78.6984 210.7C79.0984 203.6 79.3985 197.8 79.3985 197.8C79.4985 197.8 79.1985 203.6 78.8985 210.7C78.5985 217.8 78.2984 223.6 78.1984 223.6Z" fill="#E0E0E0"/>
<path d="M82.6985 203.6C82.6985 203.6 82.6985 203.8 82.7985 204.1C82.7985 204.4 82.7985 204.9 82.7985 205.4C82.6985 206.5 82.4985 208 81.8985 209.6C81.2985 211.2 80.4985 212.5 79.8985 213.4C79.5985 213.8 79.2985 214.2 79.0985 214.4C78.8985 214.6 78.7985 214.7 78.7985 214.7C78.7985 214.7 79.1985 214.2 79.8985 213.3C80.4985 212.4 81.2985 211.1 81.7985 209.5C82.3985 207.9 82.5985 206.4 82.6985 205.3C82.6985 204.2 82.6985 203.6 82.6985 203.6Z" fill="#E0E0E0"/>
<path d="M74.4984 204.4C74.4984 204.4 74.5984 205 74.7984 205.9C74.9984 206.8 75.2984 208.1 75.8984 209.5C76.4984 210.8 77.1984 212 77.7984 212.7C78.3984 213.5 78.7984 213.9 78.7984 213.9C78.7984 213.9 78.6984 213.8 78.4984 213.6C78.2984 213.4 77.9984 213.1 77.6984 212.7C77.0984 212 76.2984 210.8 75.6984 209.5C75.0984 208.1 74.7984 206.8 74.5984 205.9C74.4984 205.4 74.4984 205 74.4984 204.8C74.4984 204.5 74.4984 204.4 74.4984 204.4Z" fill="#E0E0E0"/>
<path d="M81.6984 200.1C81.6984 200.1 81.6984 200.2 81.6984 200.5C81.6984 200.7 81.6984 201.1 81.6984 201.5C81.5984 202.4 81.4984 203.5 81.0984 204.8C80.6984 206.1 80.1985 207.2 79.7985 207.9C79.5985 208.3 79.3985 208.6 79.2985 208.8C79.1985 209 79.0984 209.1 79.0984 209.1C79.0984 209.1 79.2984 208.6 79.6984 207.9C80.0984 207.1 80.5985 206 80.8985 204.8C81.2985 203.5 81.4984 202.4 81.5984 201.5C81.5984 200.7 81.6984 200.1 81.6984 200.1Z" fill="#E0E0E0"/>
<path d="M76.3985 200.8C76.3985 200.8 76.3985 201.4 76.3985 202.4C76.3985 203.4 76.4985 204.7 76.8985 206.2C77.1985 207.7 77.6985 208.9 78.1985 209.8C78.5985 210.7 78.8985 211.2 78.8985 211.2C78.8985 211.2 78.7985 211.1 78.5985 210.8C78.3985 210.6 78.1985 210.2 77.9985 209.8C77.4985 208.9 76.9985 207.6 76.6985 206.2C76.3985 204.7 76.2985 203.3 76.2985 202.4C76.2985 201.9 76.2985 201.5 76.3985 201.2C76.3985 201 76.3985 200.8 76.3985 200.8Z" fill="#E0E0E0"/>
<path d="M78.0984 198.9C78.0984 198.9 77.9984 199.3 77.8984 199.8C77.7984 200.4 77.7984 201.2 77.9984 202.1C78.3984 203.8 78.9984 205.2 78.9984 205.2C78.9984 205.2 78.7984 204.9 78.5984 204.3C78.3984 203.8 78.0984 203 77.8984 202.1C77.6984 201.2 77.6984 200.4 77.7984 199.8C77.8984 199.3 78.0984 198.9 78.0984 198.9Z" fill="#E0E0E0"/>
<path d="M74.9984 212C75.0984 212 75.5984 213.1 76.5984 214.3C77.5984 215.5 78.4984 216.3 78.4984 216.4C78.4984 216.4 78.1984 216.2 77.7984 215.9C77.3984 215.6 76.8984 215.1 76.3984 214.4C75.8984 213.8 75.4984 213.2 75.2984 212.7C75.0984 212.3 74.9984 212 74.9984 212Z" fill="#E0E0E0"/>
<path d="M82.7985 213.4C82.7985 213.4 82.5985 213.7 82.2985 214.2C81.9985 214.7 81.3985 215.3 80.7985 215.9C80.1985 216.5 79.5985 217.1 79.0985 217.4C78.5985 217.8 78.2985 218 78.2985 217.9C78.2985 217.9 78.4985 217.6 78.9985 217.3C79.3985 216.9 79.9985 216.4 80.5985 215.7C81.1985 215.1 81.6985 214.5 82.0985 214C82.5985 213.6 82.7985 213.3 82.7985 213.4Z" fill="#E0E0E0"/>
<g opacity="0.3">
<g opacity="0.3">
<path opacity="0.3" d="M72.3984 163.9C76.2984 167 80.7984 169.4 85.5984 170.8C87.5984 171.4 89.7984 171.9 91.8984 171.5C93.9984 171.1 95.9984 169.7 96.5984 167.7C96.6984 167.2 96.6984 166.5 96.2984 166.3C95.7984 166.1 95.2984 166.5 94.7984 166.9C93.3984 168 89.0984 168.2 87.2984 168C81.4984 167.3 77.6984 165.9 72.3984 163.9Z" fill="black"/>
</g>
</g>
<path d="M109.998 204.5C109.998 204.5 110.098 204.7 110.198 205C110.298 205.3 110.398 205.8 110.598 206.4C110.898 207.7 111.198 209.5 111.298 211.8C111.498 216.4 110.598 222.9 107.198 229.1C103.798 235.3 98.6984 239.5 94.6984 241.8C92.6984 242.9 90.9984 243.7 89.7984 244.1C89.1984 244.3 88.6984 244.5 88.3984 244.6C88.0984 244.7 87.8984 244.7 87.8984 244.7C87.8984 244.7 88.5984 244.4 89.6984 243.9C90.8984 243.4 92.5984 242.6 94.4984 241.5C98.3984 239.2 103.298 235 106.698 228.9C110.098 222.8 110.998 216.4 110.898 211.9C110.898 209.6 110.598 207.8 110.398 206.5C110.098 205.2 109.898 204.5 109.998 204.5Z" fill="#263238"/>
<g opacity="0.2">
<g opacity="0.2">
<path opacity="0.2" d="M110.798 211C110.998 215.3 108.998 219.7 105.698 222.4C103.498 224.2 100.898 225.3 98.7984 227.1C96.7984 228.8 95.2984 231 94.4984 233.4C94.0984 234.7 93.8984 236.2 94.7984 237.2C95.7984 238.3 97.5984 238 98.9984 237.4C103.498 235.5 106.698 231.3 108.498 226.7C110.198 222.1 110.598 217.2 110.898 212.3" fill="black"/>
</g>
</g>
<path d="M136.098 207.3C135.998 207.4 134.898 204.7 134.998 201.2C134.998 197.7 136.198 195 136.298 195.1C136.498 195.1 135.598 197.8 135.498 201.2C135.398 204.6 136.298 207.3 136.098 207.3Z" fill="#263238"/>
<path d="M139.098 206.1C138.998 206.2 137.398 204 136.598 200.8C135.898 197.6 136.398 194.9 136.498 194.9C136.698 194.9 136.398 197.5 137.098 200.7C137.898 203.8 139.298 206 139.098 206.1Z" fill="#263238"/>
<path d="M188.598 177.9C188.598 177.9 188.298 177.7 187.698 177.4C187.198 177.1 186.298 176.9 185.298 177.2L184.898 177.3L185.098 176.9C185.398 176.4 185.598 175.7 185.698 175C185.898 173.5 185.598 172.1 185.098 171.2C184.698 170.3 184.198 169.9 184.298 169.8C184.298 169.8 184.898 170.1 185.398 171.1C185.898 172 186.398 173.5 186.098 175.1C185.998 175.9 185.698 176.5 185.398 177.1L185.198 176.8C186.298 176.5 187.298 176.8 187.798 177.2C188.398 177.5 188.598 177.9 188.598 177.9Z" fill="#AA6550"/>
<path d="M195.298 173.5C196.198 171.2 205.598 167.2 204.298 165.8C202.698 163.9 194.798 170.4 193.998 170.9C193.298 171.4 192.598 170.4 193.198 170C194.198 169.4 204.098 162.9 202.498 161C201.598 160 199.998 161.7 199.998 161.7C199.998 161.7 191.198 168.5 190.498 167.6C189.798 166.7 194.798 162.5 196.598 161.2C198.398 159.9 198.498 158.6 197.298 158.2C196.498 158 190.898 161.8 189.098 163.1C187.298 164.4 182.598 168.1 183.498 164.3C184.398 160.5 183.698 157.3 182.998 156.6C182.198 155.9 180.898 156.7 181.098 157.9C181.298 158.9 181.098 160.5 180.898 161.8C180.698 162.8 180.298 163.8 179.898 164.8C179.498 165.8 178.298 168.2 175.498 170.3L185.398 181.9L186.698 181C191.598 177.7 196.098 176.4 198.798 174.9C203.698 172.1 203.498 171.6 203.098 171.1C202.098 169.7 194.398 175.8 195.298 173.5Z" fill="#ECC1B0"/>
<path d="M181.898 155.2L185.098 175.9L197.598 175.7L198.198 171.8C198.198 171.8 205.298 171.8 205.798 165.8C206.298 159.8 200.298 159.7 200.298 159.7L201.198 154.3L181.898 155.2ZM198.498 169.7L199.998 162C199.998 162 204.298 161.9 203.898 165.4C203.598 168.8 198.498 169.7 198.498 169.7Z" fill="#455A64"/>
<path d="M191.298 127.3C191.298 127.3 191.398 127.4 191.498 127.5C191.598 127.6 191.798 127.9 191.998 128.2C192.298 128.9 192.498 130 192.298 131.3C192.098 132.6 191.398 134 190.698 135.5C190.298 136.3 189.998 137.1 189.798 137.9C189.598 138.8 189.698 139.7 189.998 140.6C190.698 142.4 191.998 143.7 193.198 145C194.298 146.3 195.198 147.6 195.498 148.9C195.798 150.2 195.498 151.3 195.098 151.9C194.898 152.2 194.698 152.4 194.598 152.6C194.398 152.7 194.398 152.8 194.398 152.8C194.398 152.8 194.698 152.5 194.998 151.9C195.298 151.3 195.498 150.2 195.198 149C194.898 147.8 193.998 146.5 192.898 145.3C191.798 144.1 190.298 142.7 189.598 140.8C189.198 139.8 189.198 138.8 189.398 137.9C189.598 137 189.898 136.1 190.298 135.3C191.098 133.8 191.798 132.4 191.998 131.2C192.298 130 192.098 128.9 191.898 128.3C191.498 127.6 191.198 127.3 191.298 127.3Z" fill="#263238"/>
<path d="M187.998 127.4C187.998 127.4 188.098 127.5 188.198 127.6C188.298 127.7 188.498 128 188.698 128.3C188.998 129 189.198 130.1 188.998 131.4C188.798 132.7 188.098 134.1 187.398 135.6C186.998 136.4 186.698 137.2 186.498 138C186.298 138.9 186.398 139.8 186.698 140.7C187.398 142.5 188.698 143.8 189.898 145.1C190.998 146.4 191.898 147.7 192.198 149C192.498 150.3 192.198 151.4 191.798 152C191.598 152.3 191.398 152.5 191.298 152.7C191.098 152.8 191.098 152.9 191.098 152.9C191.098 152.9 191.398 152.6 191.698 152C191.998 151.4 192.198 150.3 191.898 149.1C191.598 147.9 190.698 146.6 189.598 145.4C188.498 144.2 186.998 142.8 186.298 140.9C185.898 139.9 185.898 138.9 186.098 138C186.298 137.1 186.598 136.2 186.998 135.4C187.798 133.9 188.498 132.5 188.698 131.3C188.998 130.1 188.798 129 188.598 128.4C188.198 127.7 187.898 127.4 187.998 127.4Z" fill="#263238"/>
<path d="M183.198 163.7C183.198 163.7 183.198 163.4 183.598 163.1C183.998 162.8 184.698 162.5 185.598 162.8C186.498 163 187.298 163.7 188.098 164.5C188.898 165.2 189.898 166.1 191.098 165.9C192.298 165.7 193.298 164.9 194.298 164.5C194.798 164.3 195.398 164.1 195.898 164.1C196.398 164.1 196.898 164.2 197.298 164.4C198.098 164.8 198.598 165.3 198.798 165.8C198.998 166.2 199.098 166.5 198.998 166.5C198.998 166.5 198.898 166.3 198.598 165.9C198.298 165.5 197.798 165.1 197.098 164.8C196.698 164.7 196.298 164.6 195.798 164.6C195.298 164.6 194.898 164.8 194.398 165C193.398 165.4 192.498 166.3 190.998 166.5C190.298 166.6 189.598 166.4 188.998 166.1C188.398 165.8 187.998 165.4 187.598 165C186.798 164.2 186.098 163.5 185.298 163.3C184.498 163.1 183.898 163.2 183.498 163.5C183.298 163.5 183.198 163.7 183.198 163.7Z" fill="#FAFAFA"/>
<path d="M182.698 161C182.698 161 182.698 160.7 183.198 160.3C183.598 160 184.398 159.7 185.298 159.9C186.198 160.1 187.098 160.9 187.998 161.7C188.798 162.5 189.898 163.4 191.198 163.2C192.498 163 193.498 162.2 194.598 161.7C195.198 161.4 195.698 161.3 196.298 161.2C196.898 161.2 197.398 161.3 197.798 161.5C198.698 161.9 199.198 162.5 199.398 162.9C199.698 163.4 199.698 163.6 199.698 163.7C199.698 163.7 199.598 163.5 199.298 163.1C198.998 162.7 198.498 162.2 197.698 161.9C197.298 161.7 196.798 161.7 196.298 161.7C195.798 161.7 195.298 161.9 194.798 162.2C193.798 162.7 192.698 163.6 191.198 163.8C190.498 163.9 189.698 163.7 189.098 163.3C188.498 163 187.998 162.5 187.598 162.1C186.798 161.3 185.998 160.6 185.198 160.3C184.398 160 183.698 160.2 183.298 160.5C182.898 160.8 182.798 161 182.698 161Z" fill="#FAFAFA"/>
<path d="M89.1984 265.8L106.498 290.1L295.598 290L295.498 268.5L199.898 259.4L120.398 247.6L89.1984 265.8Z" fill="#263238"/>
<path d="M119.698 248.3L133.098 229.8L170.898 183.1C176.198 177.4 183.898 174.5 191.598 175.3C201.098 176.3 209.098 182.7 212.298 191.7L237.298 267.9L204.198 262.7L187.398 215.5L160.898 252.5L119.698 248.3Z" fill="#263238"/>
<path d="M237.198 263C237.198 263 237.098 263 236.898 263C236.698 263 236.398 263 235.998 263C235.198 262.9 234.098 262.9 232.698 262.8C229.798 262.6 225.598 262.2 220.498 261.8C210.198 260.9 195.998 259.7 180.398 258.4C172.598 257.7 165.098 257.1 158.298 256.5C154.898 256.2 151.698 255.9 148.698 255.6C145.698 255.3 142.898 254.8 140.398 254.2C137.898 253.6 135.598 252.9 133.798 251.9C131.998 250.9 130.598 249.8 129.598 248.7C128.598 247.6 128.098 246.6 127.698 245.9C127.398 245.2 127.298 244.8 127.298 244.8C127.398 244.7 127.798 246.4 129.698 248.5C130.698 249.5 132.098 250.7 133.798 251.6C135.598 252.6 137.798 253.3 140.298 253.8C142.798 254.4 145.598 254.8 148.598 255.1C151.598 255.4 154.798 255.6 158.198 255.9C164.998 256.5 172.498 257.1 180.298 257.8C195.898 259.2 210.098 260.4 220.398 261.3C225.498 261.8 229.598 262.2 232.598 262.4C233.998 262.5 235.098 262.7 235.898 262.7C236.298 262.7 236.498 262.8 236.798 262.8C237.198 262.9 237.198 263 237.198 263Z" fill="#455A64"/>
<path d="M189.998 198.5C190.098 198.5 189.698 199.4 189.198 200.9C188.698 202.4 188.198 204.5 187.798 206.9C187.398 209.3 187.398 211.4 187.398 213C187.398 214.6 187.498 215.6 187.398 215.6C187.298 215.6 187.098 214.6 186.998 213.1C186.898 211.5 186.898 209.3 187.298 206.9C187.698 204.5 188.298 202.4 188.898 200.9C189.398 199.3 189.898 198.4 189.998 198.5Z" fill="#455A64"/>
<path d="M182.698 204.8C182.898 204.8 183.198 207.5 184.498 210.5C185.798 213.6 187.498 215.7 187.398 215.8C187.298 215.9 185.398 213.9 184.098 210.7C182.698 207.6 182.598 204.8 182.698 204.8Z" fill="#455A64"/>
<path d="M290.698 274.9C290.898 275 289.498 278.2 289.098 282.4C288.698 286.6 289.598 290 289.398 290.1C289.298 290.1 289.098 289.3 288.798 287.9C288.598 286.5 288.398 284.5 288.598 282.4C288.798 280.2 289.298 278.3 289.698 277C290.198 275.7 290.598 274.9 290.698 274.9Z" fill="#455A64"/>
<path d="M96.7984 165.7C96.7984 165.7 96.7984 165.8 96.5984 165.9C96.4984 166 96.2984 166.2 95.9984 166.4C95.4984 166.8 94.5984 167.3 93.3984 167.7C90.9984 168.4 87.5984 168.2 83.9984 167.7C80.3984 167.1 77.1984 166.1 74.9984 165.1C73.8984 164.6 72.9984 164.2 72.3984 163.9C71.7984 163.6 71.4984 163.4 71.4984 163.3C71.4984 163.2 72.8984 163.9 75.0984 164.7C77.2984 165.5 80.4984 166.5 84.0984 167.1C87.6984 167.7 90.9984 167.9 93.2984 167.3C95.6984 166.8 96.7984 165.6 96.7984 165.7Z" fill="#263238"/>
<path d="M628.501 210.7C632.701 208.5 637.601 208.3 642.301 209C644.801 209.4 647.401 210.2 649.101 212C650.801 213.9 651.101 217.2 649.201 218.8C648.001 219.8 646.401 219.9 644.901 219.9C641.301 219.9 637.201 219.2 634.301 221.4C632.601 222.7 631.501 224.7 629.501 225.3C627.601 225.9 625.401 224.8 624.301 223C623.301 221.2 623.201 219.1 623.701 217.1C623.801 217.2 624.301 212.8 628.501 210.7Z" fill="#FCC232"/>
<path d="M618.901 192.1C621.501 195.8 626.401 194.5 628.801 192.3C631.101 190.1 632.101 186.8 633.001 183.7C635.001 176.6 637.101 169.2 635.601 162C635.101 159.9 634.301 157.7 632.801 156.1C631.301 154.5 629.001 153.6 626.801 154.1C624.301 154.8 622.701 157.2 621.601 159.6C618.301 166.5 616.501 174.1 616.501 181.8C616.501 185.4 616.901 189.2 618.901 192.1Z" fill="#FCC232"/>
<path d="M611.901 197.4C614.701 194.1 615.201 189.3 614.001 185.1C612.801 181 610.001 177.4 606.701 174.6C602.901 171.2 598.501 168.6 593.701 166.9C591.801 166.2 589.801 165.7 587.901 165.9C585.901 166.1 583.901 167.1 583.001 168.9C581.601 171.5 582.901 174.7 584.401 177.3C586.901 181.9 589.801 186.2 592.901 190.3C595.501 193.6 598.401 196.9 602.301 198.3C606.201 199.8 610.301 199.6 612.301 196.9" fill="#FCC232"/>
<path d="M618.701 247.4C618.701 247.4 618.801 246.8 618.901 245.7C619.001 244.5 619.201 243 619.301 241.2C619.501 239.3 619.801 237 620.301 234.5C620.801 232 621.701 229.4 622.701 226.6C623.801 223.9 625.101 221.4 626.701 219.5C628.301 217.5 630.101 216.1 631.801 215.3C633.501 214.5 635.001 214.1 636.101 214C637.201 213.9 637.801 213.8 637.801 213.8C637.801 213.8 637.201 213.7 636.101 213.8C635.001 213.9 633.401 214.1 631.601 215C629.801 215.8 627.901 217.2 626.201 219.3C624.601 221.3 623.201 223.8 622.001 226.6C620.901 229.4 620.101 232.1 619.601 234.6C619.101 237.1 618.901 239.4 618.701 241.3C618.601 243.2 618.501 244.8 618.501 245.9C618.701 246.8 618.701 247.4 618.701 247.4Z" fill="#263238"/>
<path d="M619.001 243.9C619.001 243.9 619.001 243.6 619.001 243.1C619.001 242.5 619.001 241.8 619.001 240.9C619.001 239 619.001 236.2 619.101 232.8C619.301 226 619.901 218.6 621.001 208.2C622.101 198.4 623.501 187.1 625.101 179.7C625.401 178 625.801 176.5 626.101 175.2C626.401 173.9 626.601 172.7 626.901 171.8C627.101 170.9 627.301 170.2 627.401 169.7C627.501 169.2 627.601 168.9 627.501 168.9C627.501 168.9 627.401 169.1 627.201 169.6C627.001 170.2 626.801 170.9 626.601 171.7C626.301 172.6 626.001 173.8 625.701 175.1C625.401 176.4 625.001 177.9 624.601 179.6C623.101 186.3 621.501 195.7 620.301 206.1C619.201 216.5 618.601 226 618.601 232.9C618.601 236.3 618.601 239.1 618.701 241C618.801 241.9 618.801 242.6 618.801 243.2C619.001 243.6 619.001 243.9 619.001 243.9Z" fill="#263238"/>
<path d="M619.101 225.6C619.101 225.6 619.101 224.8 619.101 223.3C619.001 221.8 618.801 219.7 618.401 217.1C618.001 214.5 617.301 211.4 616.401 208C616.001 206.5 615.001 202.8 612.601 197.2C609.401 189.7 605.201 183.6 601.401 179.8C600.501 178.8 599.501 178.1 598.801 177.4C598.401 177.1 598.001 176.7 597.701 176.4C597.301 176.1 597.001 175.9 596.701 175.7C595.501 174.9 594.801 174.4 594.801 174.5C594.701 174.6 597.601 176.3 601.201 180.2C604.801 184 609.001 190.1 612.101 197.5C613.801 201.5 615.101 205.1 615.901 208.2C616.901 211.5 617.601 214.6 618.101 217.2C618.601 219.8 618.901 221.9 619.001 223.4C618.901 224.8 619.001 225.6 619.101 225.6Z" fill="#263238"/>
<path d="M601.401 257.8L603.301 282.9H635.501L637.301 257.8H601.401Z" fill="#263238"/>
<path d="M641.201 247.9H598.301V257.8H641.201V247.9Z" fill="#263238"/>
<path d="M598.301 282V284.7H600.301H640.501V282H598.301Z" fill="#455A64"/>
<path d="M602.301 289.6L600.301 284.7H638.901L636.601 289.6H602.301Z" fill="#455A64"/>
<path d="M636.701 266C636.701 266 636.701 266.1 636.501 266.2C636.401 266.4 636.201 266.6 636.001 266.8C635.501 267.4 634.901 268.2 634.101 269.2L634.001 269.3L633.901 269.2C632.701 267.6 631.101 265.4 629.301 262.8H629.601C628.201 264.7 626.701 266.9 625.101 269.2L625.001 269.4L624.801 269.2C623.101 267.2 621.301 265 619.401 262.8H619.701C619.601 262.9 619.501 263 619.401 263.2C617.701 265.3 616.101 267.3 614.601 269.2L614.401 269.4L614.301 269.2C612.701 266.9 611.101 264.7 609.801 262.8H610.101C607.901 265.4 606.001 267.5 604.501 269.2L604.401 269.3L604.301 269.2C603.601 268 603.001 267 602.501 266.3C602.301 266 602.201 265.7 602.101 265.5C602.001 265.3 602.001 265.2 602.001 265.2C602.001 265.2 602.101 265.3 602.201 265.4C602.301 265.6 602.501 265.8 602.701 266.2C603.101 266.9 603.801 267.9 604.501 269.1H604.301C605.701 267.4 607.601 265.2 609.801 262.6L609.901 262.4L610.001 262.6C611.401 264.5 612.901 266.7 614.601 269H614.301C615.801 267.1 617.401 265 619.101 262.9C619.201 262.8 619.301 262.6 619.401 262.5L619.601 262.3L619.801 262.5C621.701 264.8 623.501 266.9 625.201 268.9H624.901C626.601 266.6 628.101 264.4 629.501 262.5L629.601 262.3L629.701 262.5C631.501 265.1 633.101 267.3 634.201 269H634.001C634.801 268 635.501 267.2 636.001 266.7C636.201 266.5 636.401 266.3 636.501 266.1C636.701 266.1 636.701 266 636.701 266Z" fill="#E0E0E0"/>
<path d="M637.801 257.7C637.801 257.8 629.701 257.9 619.801 257.9C609.801 257.9 601.801 257.8 601.801 257.7C601.801 257.6 609.901 257.5 619.801 257.5C629.701 257.5 637.801 257.6 637.801 257.7Z" fill="#455A64"/>
<path d="M639.401 285C639.401 285.1 630.601 285.2 619.801 285.2C609.001 285.2 600.201 285.1 600.201 285C600.201 284.9 609.001 284.8 619.801 284.8C630.601 284.8 639.401 284.9 639.401 285Z" fill="#263238"/>
</svg>
