<svg width="499" height="87" viewBox="0 0 499 87" fill="none" xmlns="http://www.w3.org/2000/svg">
<path d="M6.27688 39.9121C5.44488 39.5281 4.78354 38.9628 4.29288 38.2161C4.69821 37.7041 5.18888 37.4481 5.76488 37.4481C6.04221 37.4481 6.34088 37.5014 6.66088 37.6081C7.00221 37.7148 7.22621 37.7894 7.33288 37.8321C7.95154 38.0454 8.60221 38.1521 9.28488 38.1521C10.3729 38.1521 11.3862 37.8961 12.3249 37.3841C13.2849 36.8721 13.9995 36.1788 14.4689 35.3041C15.6849 33.0428 16.2929 30.3974 16.2929 27.3681C16.2929 25.9814 16.1649 24.3601 15.9089 22.5041C15.3115 22.5254 14.7782 22.6321 14.3089 22.8241C13.8609 23.0161 13.2742 23.3254 12.5489 23.7521C12.0582 24.0294 11.5355 24.1681 10.9809 24.1681C10.6395 24.1681 10.3302 24.1254 10.0529 24.0401C9.81821 23.9761 9.57288 23.8694 9.31688 23.7201C9.08221 23.5494 8.92221 23.3681 8.83688 23.1761C8.77288 23.0481 8.74088 22.9094 8.74088 22.7601C8.74088 22.5468 8.81554 22.3441 8.96488 22.1521C9.11421 21.9601 9.29554 21.8108 9.50888 21.7041C11.1089 20.9361 12.6235 20.2854 14.0529 19.7521C14.3942 19.6454 14.8102 19.5708 15.3009 19.5281C15.7489 19.4854 16.0795 19.4321 16.2929 19.3681C16.9329 19.2188 17.4662 19.1441 17.8929 19.1441C18.7675 19.1441 19.5569 19.4534 20.2609 20.0721V21.8961C20.2822 22.4934 20.2929 23.4001 20.2929 24.6161V25.7361L20.2609 26.6321C20.2182 28.5308 20.1222 30.1414 19.9729 31.4641C19.8235 32.7654 19.5035 34.0454 19.0129 35.3041C18.4582 36.6908 17.7115 37.8108 16.7729 38.6641C15.8555 39.5174 14.6822 40.0828 13.2529 40.3601C12.1435 40.5948 11.0982 40.7121 10.1169 40.7121C8.75154 40.7121 7.47154 40.4454 6.27688 39.9121ZM25.2864 27.5601C25.8197 27.7094 26.193 27.8908 26.4064 28.1041C26.641 28.3174 26.7584 28.6054 26.7584 28.9681C26.7584 29.1388 26.7264 29.3628 26.6624 29.6401C26.4277 30.6001 26.2997 31.5601 26.2784 32.5201C26.257 33.6081 26.4277 34.6108 26.7904 35.5281C26.9184 35.8481 27.0357 36.0828 27.1424 36.2321C27.2704 36.3601 27.4197 36.4241 27.5904 36.4241C27.8037 36.4241 28.081 36.2321 28.4224 35.8481C29.2117 34.9094 29.7984 33.9708 30.1824 33.0321C30.5664 32.0934 30.801 31.1228 30.8864 30.1201C30.9504 29.4588 31.057 29.0428 31.2064 28.8721C31.2917 28.7868 31.4304 28.7334 31.6224 28.7121C31.8144 28.6908 32.0917 28.6801 32.4544 28.6801C33.0304 28.7228 33.425 28.7761 33.6384 28.8401C33.873 28.9041 34.033 29.0108 34.1184 29.1601C34.2037 29.3094 34.2464 29.5548 34.2464 29.8961L34.2144 31.4001C34.2144 31.7201 34.2037 32.1894 34.1824 32.8081C34.1184 34.7281 34.065 36.1574 34.0224 37.0961C34.001 37.8428 33.777 38.7814 33.3504 39.9121C33.3077 39.9761 33.1904 40.0721 32.9984 40.2001C32.8064 40.3068 32.6357 40.3708 32.4864 40.3921C32.4437 40.3921 32.3477 40.3281 32.1984 40.2001C32.0704 40.0508 31.9744 39.9228 31.9104 39.8161C31.761 39.4748 31.5904 39.0161 31.3984 38.4401L31.1424 37.8321L31.0784 37.6401L30.9824 37.7361L30.4704 38.0561C30.2144 38.2694 29.937 38.4401 29.6384 38.5681C29.1477 38.8668 28.561 39.0161 27.8784 39.0161C27.025 39.0161 26.2144 38.7814 25.4464 38.3121C24.6784 37.8214 24.0704 37.1601 23.6224 36.3281C22.897 35.0481 22.5344 33.5654 22.5344 31.8801C22.5344 31.0268 22.6517 29.9494 22.8864 28.6481C22.929 28.3281 23.1317 28.0508 23.4944 27.8161C23.8144 27.5814 24.1877 27.4641 24.6144 27.4641C24.8277 27.4641 25.0517 27.4961 25.2864 27.5601ZM39.4519 41.7041C37.6599 41.7041 36.5185 40.9361 36.0279 39.4001C36.1985 39.4001 36.4225 39.4108 36.6999 39.4321C36.9985 39.4321 37.2439 39.4534 37.4359 39.4961C37.7345 39.5388 37.9479 39.5601 38.0759 39.5601C39.0359 39.5601 39.8359 39.1334 40.4759 38.2801C40.9239 37.6614 41.1479 37.0321 41.1479 36.3921C41.1479 35.9654 41.0412 35.5494 40.8279 35.1441C40.3585 34.3121 39.7825 33.3948 39.0999 32.3921C38.6519 31.7308 38.2465 31.1014 37.8839 30.5041C37.4572 29.8214 37.2439 29.0641 37.2439 28.2321C37.2439 27.4641 37.4572 26.7921 37.8839 26.2161C38.3319 25.6188 38.9825 25.2454 39.8359 25.0961L40.8599 24.9041C41.9692 24.6908 42.8012 24.5841 43.3559 24.5841C44.2732 24.5841 45.0839 24.7974 45.7879 25.2241C45.9372 25.3308 46.0865 25.5228 46.2359 25.8001C46.4065 26.0561 46.5345 26.2588 46.6199 26.4081C46.4705 26.4721 46.2572 26.5788 45.9799 26.7281C45.7239 26.8561 45.4999 26.9308 45.3079 26.9521C45.0092 26.9948 44.5612 27.0161 43.9639 27.0161C43.3879 27.0161 42.9505 27.0268 42.6519 27.0481C41.9692 27.1121 41.4252 27.3468 41.0199 27.7521C40.6359 28.1361 40.4439 28.6054 40.4439 29.1601C40.4439 29.5868 40.5719 30.0241 40.8279 30.4721C41.4039 31.4321 42.2039 32.5308 43.2279 33.7681C43.9959 34.7281 44.3799 35.7201 44.3799 36.7441C44.3799 37.2988 44.2519 37.8854 43.9959 38.5041C43.1212 40.6374 41.6065 41.7041 39.4519 41.7041ZM46.2299 29.0641C46.0805 28.8934 45.9739 28.7121 45.9099 28.5201C45.8672 28.3281 45.8245 28.0614 45.7819 27.7201C45.9739 27.2721 46.3259 27.0481 46.8379 27.0481C47.0939 27.0908 47.2752 27.1121 47.3819 27.1121C47.8085 27.1121 48.0752 26.9841 48.1819 26.7281C48.2885 26.4721 48.3419 26.1734 48.3419 25.8321C48.3419 25.4908 48.3419 25.2241 48.3419 25.0321L48.4379 23.1121C48.4592 22.6854 48.4805 22.1628 48.5019 21.5441C48.5445 20.9041 48.5872 20.1681 48.6299 19.3361C48.6512 18.8881 48.7579 18.5574 48.9499 18.3441C49.1632 18.1308 49.4512 18.0241 49.8139 18.0241C50.0699 18.0241 50.2725 18.0454 50.4219 18.0881C51.2965 18.2801 51.8832 18.5574 52.1819 18.9201C52.4805 19.2828 52.6832 19.8268 52.7899 20.5521C52.8112 20.7014 52.7899 21.0108 52.7259 21.4801L52.1499 26.4721C52.1285 26.6001 52.0965 26.7601 52.0539 26.9521C52.0112 27.1228 51.9899 27.2508 51.9899 27.3361C51.9899 27.5281 52.0965 27.6561 52.3099 27.7201C52.5232 27.7841 52.9179 27.8054 53.4939 27.7841C54.4752 27.5708 55.2219 27.4321 55.7339 27.3681C55.8405 27.3468 56.0112 27.3361 56.2459 27.3361C56.5019 27.3361 56.6725 27.3681 56.7579 27.4321C56.8432 27.4748 56.9072 27.6028 56.9499 27.8161C57.0139 28.0081 57.0459 28.2321 57.0459 28.4881C57.0459 28.7228 57.0139 28.9361 56.9499 29.1281C56.9072 29.3201 56.8432 29.4268 56.7579 29.4481C56.1819 29.6188 55.4992 29.7574 54.7099 29.8641C53.7712 30.0348 53.0779 30.1841 52.6299 30.3121C52.3952 30.3761 52.1605 30.5361 51.9259 30.7921C51.6912 31.0481 51.5632 31.2828 51.5419 31.4961C51.4992 32.5414 51.4672 33.6081 51.4459 34.6961C51.4245 35.5281 51.4565 36.3601 51.5419 37.1921C51.6059 37.8961 51.7445 38.4081 51.9579 38.7281C52.1712 39.0268 52.4912 39.1761 52.9179 39.1761C53.2592 39.1761 53.7499 39.0588 54.3899 38.8241C54.7312 38.6748 55.0299 38.6001 55.2859 38.6001C55.6912 38.6001 55.9792 38.8241 56.1499 39.2721C56.2139 39.4214 56.2459 39.5708 56.2459 39.7201C56.2459 39.9974 56.1392 40.2214 55.9259 40.3921C55.7339 40.5628 55.4672 40.7121 55.1259 40.8401C54.4859 41.0748 53.8352 41.2028 53.1739 41.2241C52.2779 41.2241 51.4352 41.0108 50.6459 40.5841C49.8565 40.1361 49.2272 39.5174 48.7579 38.7281C48.3099 37.9388 48.1179 37.0321 48.1819 36.0081C48.2032 35.6028 48.2139 34.9628 48.2139 34.0881C48.2139 32.7014 48.1605 31.2934 48.0539 29.8641C48.0325 29.7361 47.9579 29.6508 47.8299 29.6081C47.7019 29.5441 47.4885 29.4801 47.1899 29.4161C46.6992 29.3308 46.3792 29.2134 46.2299 29.0641ZM75.4624 37.3841C75.4197 37.3414 75.185 37.0641 74.7584 36.5521C74.0544 38.1948 73.553 39.2934 73.2544 39.8481C72.785 40.8081 72.1557 41.2881 71.3664 41.2881C71.0037 41.2881 70.5664 41.1708 70.0544 40.9361C69.201 40.5094 68.5184 39.9334 68.0064 39.2081C67.4944 38.4828 67.089 37.6081 66.7904 36.5841C66.3637 35.1334 65.9797 33.6188 65.6384 32.0401C65.5957 31.8268 65.5744 31.6774 65.5744 31.5921C65.5744 31.0801 65.8304 30.6748 66.3424 30.3761C66.705 30.1841 67.025 30.0881 67.3024 30.0881C67.5797 30.0881 67.8997 30.1841 68.2624 30.3761C68.8384 30.6748 69.2544 31.0268 69.5104 31.4321C69.7877 31.8161 69.937 32.3281 69.9584 32.9681C69.9797 33.4374 70.129 34.1094 70.4064 34.9841C70.6837 35.8374 70.8544 36.2854 70.9184 36.3281C70.9824 36.2428 71.0997 36.1041 71.2704 35.9121C71.441 35.7201 71.569 35.5388 71.6544 35.3681L72.2304 34.1841C72.7424 33.1174 73.169 32.3388 73.5104 31.8481C73.7664 31.4641 74.065 31.1761 74.4064 30.9841C74.769 30.7921 75.1424 30.6961 75.5264 30.6961C76.209 30.6961 76.849 30.9948 77.4464 31.5921C77.617 31.7841 77.777 32.1894 77.9264 32.8081C77.9904 33.1068 78.065 33.5014 78.1504 33.9921C78.2997 34.9521 78.481 35.7308 78.6944 36.3281C78.8224 36.6908 79.0357 36.8721 79.3344 36.8721C79.6117 36.8721 79.857 36.7014 80.0704 36.3601C80.5824 35.4641 81.137 34.3761 81.7344 33.0961C82.097 32.2641 82.4597 31.5388 82.8224 30.9201C83.185 30.3014 83.7717 29.5228 84.5824 28.5841C84.7957 28.3281 85.0837 28.1148 85.4464 27.9441C85.809 27.7521 86.1397 27.6668 86.4384 27.6881C86.6517 27.7094 86.8224 27.9014 86.9504 28.2641C87.0784 28.6268 87.1424 29.0321 87.1424 29.4801C87.1424 29.6934 87.121 29.9281 87.0784 30.1841C86.9717 30.6961 86.833 31.1548 86.6624 31.5601C86.4917 31.9654 86.2464 32.5201 85.9264 33.2241C85.5424 34.0561 85.297 34.6001 85.1904 34.8561L84.7744 35.4961C83.985 36.7121 83.3984 37.5654 83.0144 38.0561C82.4597 38.7388 81.7557 39.3788 80.9024 39.9761C80.5824 40.2108 80.241 40.3281 79.8784 40.3281C79.5797 40.3281 79.2917 40.2748 79.0144 40.1681C78.737 40.0401 78.4704 39.9014 78.2144 39.7521C77.9584 39.5814 77.7664 39.4534 77.6384 39.3681C77.1904 39.1121 76.6357 38.6321 75.9744 37.9281C75.761 37.6721 75.5904 37.4908 75.4624 37.3841ZM91.9646 27.4321C92.0286 27.6454 92.0393 27.9761 91.9966 28.4241L91.6126 32.2001C91.7193 32.1148 91.8793 31.8161 92.0926 31.3041C92.306 30.7708 92.5086 30.3441 92.7006 30.0241C92.8926 29.6828 93.042 29.4588 93.1486 29.3521C94.1513 28.3921 95.282 27.8161 96.5406 27.6241C97.7993 27.4321 99.186 27.3468 100.701 27.3681C100.85 27.3681 101.01 27.4321 101.181 27.5601C101.373 27.6668 101.469 27.7628 101.469 27.8481C101.469 27.9121 101.405 28.0294 101.277 28.2001C101.149 28.3494 101.031 28.4454 100.925 28.4881C99.6446 28.9148 98.514 29.4054 97.5326 29.9601C96.5726 30.5148 95.7406 31.2401 95.0366 32.1361C93.3726 34.2481 92.4126 36.4241 92.1566 38.6641C92.0926 39.2614 91.9113 39.6668 91.6126 39.8801C91.314 40.0721 90.898 40.1681 90.3646 40.1681C89.7673 40.1681 89.234 39.9121 88.7646 39.4001C88.2953 38.8881 88.0606 38.3228 88.0606 37.7041C88.082 35.4428 88.0926 32.0508 88.0926 27.5281C88.0926 26.9094 88.2313 26.4828 88.5086 26.2481C88.786 25.9921 89.2873 25.8641 90.0126 25.8641C90.546 25.8641 90.994 26.0134 91.3566 26.3121C91.7406 26.6108 91.9433 26.9841 91.9646 27.4321ZM103.79 26.0881C103.747 26.2161 103.587 26.3548 103.31 26.5041C103.054 26.6534 102.841 26.7921 102.67 26.9201L101.774 26.4401C100.899 25.9708 100.302 25.5974 99.9819 25.3201C99.8112 25.1921 99.7259 25.0321 99.7259 24.8401C99.7259 24.7121 99.7685 24.6054 99.8539 24.5201C99.9605 24.4134 100.11 24.3601 100.302 24.3601C101.134 24.3601 102.147 24.5734 103.342 25.0001C103.47 25.0214 103.587 25.1708 103.694 25.4481C103.801 25.7041 103.833 25.9174 103.79 26.0881ZM100.91 32.0401C100.974 31.7628 101.017 31.5601 101.038 31.4321C101.059 31.3041 101.07 31.1654 101.07 31.0161C101.07 30.7174 101.155 30.4828 101.326 30.3121C101.518 30.1414 101.87 30.0561 102.382 30.0561C102.979 30.0561 103.502 30.2481 103.95 30.6321C104.419 30.9948 104.707 31.4748 104.814 32.0721C104.878 32.3708 104.921 32.7014 104.942 33.0641C104.963 33.4268 104.974 33.6614 104.974 33.7681L105.422 39.2401C105.486 39.8161 105.401 40.2641 105.166 40.5841C104.953 40.8828 104.537 41.0321 103.918 41.0321C103.385 41.0321 102.926 40.8828 102.542 40.5841C102.179 40.2854 101.955 39.9014 101.87 39.4321L101.038 32.6481L100.91 32.0401ZM106.655 29.0641C106.506 28.8934 106.399 28.7121 106.335 28.5201C106.292 28.3281 106.25 28.0614 106.207 27.7201C106.399 27.2721 106.751 27.0481 107.263 27.0481C107.519 27.0908 107.7 27.1121 107.807 27.1121C108.234 27.1121 108.5 26.9841 108.607 26.7281C108.714 26.4721 108.767 26.1734 108.767 25.8321C108.767 25.4908 108.767 25.2241 108.767 25.0321L108.863 23.1121C108.884 22.6854 108.906 22.1628 108.927 21.5441C108.97 20.9041 109.012 20.1681 109.055 19.3361C109.076 18.8881 109.183 18.5574 109.375 18.3441C109.588 18.1308 109.876 18.0241 110.239 18.0241C110.495 18.0241 110.698 18.0454 110.847 18.0881C111.722 18.2801 112.308 18.5574 112.607 18.9201C112.906 19.2828 113.108 19.8268 113.215 20.5521C113.236 20.7014 113.215 21.0108 113.151 21.4801L112.575 26.4721C112.554 26.6001 112.522 26.7601 112.479 26.9521C112.436 27.1228 112.415 27.2508 112.415 27.3361C112.415 27.5281 112.522 27.6561 112.735 27.7201C112.948 27.7841 113.343 27.8054 113.919 27.7841C114.9 27.5708 115.647 27.4321 116.159 27.3681C116.266 27.3468 116.436 27.3361 116.671 27.3361C116.927 27.3361 117.098 27.3681 117.183 27.4321C117.268 27.4748 117.332 27.6028 117.375 27.8161C117.439 28.0081 117.471 28.2321 117.471 28.4881C117.471 28.7228 117.439 28.9361 117.375 29.1281C117.332 29.3201 117.268 29.4268 117.183 29.4481C116.607 29.6188 115.924 29.7574 115.135 29.8641C114.196 30.0348 113.503 30.1841 113.055 30.3121C112.82 30.3761 112.586 30.5361 112.351 30.7921C112.116 31.0481 111.988 31.2828 111.967 31.4961C111.924 32.5414 111.892 33.6081 111.871 34.6961C111.85 35.5281 111.882 36.3601 111.967 37.1921C112.031 37.8961 112.17 38.4081 112.383 38.7281C112.596 39.0268 112.916 39.1761 113.343 39.1761C113.684 39.1761 114.175 39.0588 114.815 38.8241C115.156 38.6748 115.455 38.6001 115.711 38.6001C116.116 38.6001 116.404 38.8241 116.575 39.2721C116.639 39.4214 116.671 39.5708 116.671 39.7201C116.671 39.9974 116.564 40.2214 116.351 40.3921C116.159 40.5628 115.892 40.7121 115.551 40.8401C114.911 41.0748 114.26 41.2028 113.599 41.2241C112.703 41.2241 111.86 41.0108 111.071 40.5841C110.282 40.1361 109.652 39.5174 109.183 38.7281C108.735 37.9388 108.543 37.0321 108.607 36.0081C108.628 35.6028 108.639 34.9628 108.639 34.0881C108.639 32.7014 108.586 31.2934 108.479 29.8641C108.458 29.7361 108.383 29.6508 108.255 29.6081C108.127 29.5441 107.914 29.4801 107.615 29.4161C107.124 29.3308 106.804 29.2134 106.655 29.0641ZM124.188 36.0081C123.975 36.1361 123.666 36.2001 123.26 36.2001C123.111 36.2001 122.93 36.1894 122.716 36.1681C122.503 36.1468 122.322 36.1468 122.172 36.1681C122.343 36.8721 122.748 37.4481 123.388 37.8961C124.028 38.3228 124.743 38.5361 125.532 38.5361C126.215 38.5361 126.823 38.3868 127.356 38.0881C128.146 37.6828 128.828 37.2028 129.404 36.6481C129.81 36.2428 130.194 36.0401 130.556 36.0401C130.791 36.0401 130.994 36.1574 131.164 36.3921C131.335 36.6694 131.42 37.0108 131.42 37.4161C131.42 37.8428 131.335 38.1734 131.164 38.4081C130.61 39.2614 129.884 39.8481 128.988 40.1681C128.114 40.4881 127.09 40.6481 125.916 40.6481C124.7 40.6481 123.527 40.3814 122.396 39.8481C121.266 39.3148 120.295 38.5894 119.484 37.6721C118.695 36.7334 118.172 35.6988 117.916 34.5681C117.746 33.9068 117.66 33.2561 117.66 32.6161C117.66 31.6134 117.938 30.8028 118.492 30.1841C119.068 29.5654 119.986 28.9788 121.244 28.4241C122.396 27.9334 123.463 27.6881 124.444 27.6881C125.148 27.6881 125.831 27.7948 126.492 28.0081C128.54 28.6481 129.564 29.5228 129.564 30.6321C129.564 31.3361 129.148 32.1894 128.316 33.1921C127.911 33.6614 127.431 34.0774 126.876 34.4401C126.322 34.8028 125.778 35.1334 125.244 35.4321C124.732 35.7094 124.38 35.9014 124.188 36.0081ZM125.532 30.0881C125.511 29.9814 125.426 29.8961 125.276 29.8321C125.148 29.7468 125.074 29.6934 125.052 29.6721C124.476 29.6294 123.89 29.8001 123.292 30.1841C122.695 30.5468 122.194 31.0161 121.788 31.5921C121.404 32.1681 121.212 32.7228 121.212 33.2561L121.244 33.5121C121.266 33.5974 121.372 33.7041 121.564 33.8321C121.778 33.9601 121.906 34.0028 121.948 33.9601C123.463 32.8294 124.604 31.9228 125.372 31.2401C125.5 31.1121 125.564 30.8774 125.564 30.5361C125.564 30.3228 125.554 30.1734 125.532 30.0881ZM142.841 27.4961C142.841 27.9014 142.788 28.4561 142.681 29.1601C142.596 29.9708 142.542 30.6214 142.521 31.1121C142.777 31.0054 143.076 30.7601 143.417 30.3761C143.609 30.1628 143.801 29.9814 143.993 29.8321C144.932 29.1708 145.828 28.8401 146.681 28.8401C147.577 28.8401 148.526 29.2134 149.529 29.9601C151.044 31.0694 151.801 32.3708 151.801 33.8641C151.801 35.0374 151.31 36.2748 150.329 37.5761C148.921 39.4748 146.937 40.6161 144.377 41.0001C144.249 41.0214 144.057 41.0321 143.801 41.0321C143.396 41.0321 142.724 40.9468 141.785 40.7761C141.785 40.5628 141.753 40.3281 141.689 40.0721C141.838 40.0081 142.03 39.9228 142.265 39.8161C142.521 39.6881 142.745 39.6134 142.937 39.5921C143.598 39.5281 144.334 39.1868 145.145 38.5681C145.977 37.9281 146.702 37.1921 147.321 36.3601C147.94 35.5281 148.292 34.8028 148.377 34.1841C148.398 34.0988 148.42 33.9814 148.441 33.8321C148.462 33.6828 148.473 33.5014 148.473 33.2881C148.473 33.0748 148.441 32.8934 148.377 32.7441C148.036 31.9548 147.641 31.4321 147.193 31.1761C147.065 31.1121 146.841 31.1868 146.521 31.4001C146.201 31.5921 145.945 31.8054 145.753 32.0401C144.345 33.5761 143.513 35.3361 143.257 37.3201C143.172 38.0881 142.734 38.4614 141.945 38.4401C141.305 38.4401 140.718 38.1841 140.185 37.6721C139.652 37.1388 139.385 36.5521 139.385 35.9121C139.364 32.6908 139.353 27.8694 139.353 21.4481C139.353 20.9148 139.502 20.5521 139.801 20.3601C140.121 20.1468 140.58 19.9761 141.177 19.8481C141.433 19.7841 141.721 19.8374 142.041 20.0081C142.361 20.1788 142.638 20.4028 142.873 20.6801C143.108 20.9574 143.225 21.2348 143.225 21.5121C143.225 22.7708 143.129 24.3388 142.937 26.2161L142.841 27.4961ZM156.771 27.5601C157.305 27.7094 157.678 27.8908 157.891 28.1041C158.126 28.3174 158.243 28.6054 158.243 28.9681C158.243 29.1388 158.211 29.3628 158.147 29.6401C157.913 30.6001 157.785 31.5601 157.763 32.5201C157.742 33.6081 157.913 34.6108 158.275 35.5281C158.403 35.8481 158.521 36.0828 158.627 36.2321C158.755 36.3601 158.905 36.4241 159.075 36.4241C159.289 36.4241 159.566 36.2321 159.907 35.8481C160.697 34.9094 161.283 33.9708 161.667 33.0321C162.051 32.0934 162.286 31.1228 162.371 30.1201C162.435 29.4588 162.542 29.0428 162.691 28.8721C162.777 28.7868 162.915 28.7334 163.107 28.7121C163.299 28.6908 163.577 28.6801 163.939 28.6801C164.515 28.7228 164.91 28.7761 165.123 28.8401C165.358 28.9041 165.518 29.0108 165.603 29.1601C165.689 29.3094 165.731 29.5548 165.731 29.8961L165.699 31.4001C165.699 31.7201 165.689 32.1894 165.667 32.8081C165.603 34.7281 165.55 36.1574 165.507 37.0961C165.486 37.8428 165.262 38.7814 164.835 39.9121C164.793 39.9761 164.675 40.0721 164.483 40.2001C164.291 40.3068 164.121 40.3708 163.971 40.3921C163.929 40.3921 163.833 40.3281 163.683 40.2001C163.555 40.0508 163.459 39.9228 163.395 39.8161C163.246 39.4748 163.075 39.0161 162.883 38.4401L162.627 37.8321L162.563 37.6401L162.467 37.7361L161.955 38.0561C161.699 38.2694 161.422 38.4401 161.123 38.5681C160.633 38.8668 160.046 39.0161 159.363 39.0161C158.51 39.0161 157.699 38.7814 156.931 38.3121C156.163 37.8214 155.555 37.1601 155.107 36.3281C154.382 35.0481 154.019 33.5654 154.019 31.8801C154.019 31.0268 154.137 29.9494 154.371 28.6481C154.414 28.3281 154.617 28.0508 154.979 27.8161C155.299 27.5814 155.673 27.4641 156.099 27.4641C156.313 27.4641 156.537 27.4961 156.771 27.5601ZM173.066 27.4321C173.13 27.6454 173.141 27.9761 173.098 28.4241L172.714 32.2001C172.821 32.1148 172.981 31.8161 173.194 31.3041C173.407 30.7708 173.61 30.3441 173.802 30.0241C173.994 29.6828 174.143 29.4588 174.25 29.3521C175.253 28.3921 176.383 27.8161 177.642 27.6241C178.901 27.4321 180.287 27.3468 181.802 27.3681C181.951 27.3681 182.111 27.4321 182.282 27.5601C182.474 27.6668 182.57 27.7628 182.57 27.8481C182.57 27.9121 182.506 28.0294 182.378 28.2001C182.25 28.3494 182.133 28.4454 182.026 28.4881C180.746 28.9148 179.615 29.4054 178.634 29.9601C177.674 30.5148 176.842 31.2401 176.138 32.1361C174.474 34.2481 173.514 36.4241 173.258 38.6641C173.194 39.2614 173.013 39.6668 172.714 39.8801C172.415 40.0721 171.999 40.1681 171.466 40.1681C170.869 40.1681 170.335 39.9121 169.866 39.4001C169.397 38.8881 169.162 38.3228 169.162 37.7041C169.183 35.4428 169.194 32.0508 169.194 27.5281C169.194 26.9094 169.333 26.4828 169.61 26.2481C169.887 25.9921 170.389 25.8641 171.114 25.8641C171.647 25.8641 172.095 26.0134 172.458 26.3121C172.842 26.6108 173.045 26.9841 173.066 27.4321ZM186.563 39.5281C186.99 39.0161 187.299 38.6108 187.491 38.3121C187.726 37.9921 187.971 37.8321 188.227 37.8321C188.483 37.8321 188.675 37.9921 188.803 38.3121C189.102 39.1654 189.251 39.8374 189.251 40.3281C189.251 40.5414 189.24 40.7014 189.219 40.8081C189.134 41.2348 188.888 41.5334 188.483 41.7041C188.099 41.8748 187.64 41.9388 187.107 41.8961C186.915 41.8961 186.584 41.8961 186.115 41.8961C185.667 41.8961 185.272 41.8321 184.931 41.7041C184.611 41.5761 184.323 41.3628 184.067 41.0641C183.512 40.4028 183.235 39.7628 183.235 39.1441C183.235 34.1521 183.214 30.3974 183.171 27.8801L183.139 22.2481C183.139 21.5014 183.064 20.8188 182.915 20.2001C182.894 20.0934 182.883 19.9654 182.883 19.8161C182.883 19.0268 183.416 18.6321 184.483 18.6321C185.187 18.6321 185.774 18.8668 186.243 19.3361C186.734 19.7841 186.958 20.3814 186.915 21.1281C186.851 22.2588 186.766 23.9548 186.659 26.2161L186.467 30.0561C186.296 33.6828 186.179 36.4028 186.115 38.2161C186.094 38.4294 186.104 38.6641 186.147 38.9201C186.19 39.1761 186.222 39.3361 186.243 39.4001L186.563 39.5281ZM196.342 36.0081C196.129 36.1361 195.819 36.2001 195.414 36.2001C195.265 36.2001 195.083 36.1894 194.87 36.1681C194.657 36.1468 194.475 36.1468 194.326 36.1681C194.497 36.8721 194.902 37.4481 195.542 37.8961C196.182 38.3228 196.897 38.5361 197.686 38.5361C198.369 38.5361 198.977 38.3868 199.51 38.0881C200.299 37.6828 200.982 37.2028 201.558 36.6481C201.963 36.2428 202.347 36.0401 202.71 36.0401C202.945 36.0401 203.147 36.1574 203.318 36.3921C203.489 36.6694 203.574 37.0108 203.574 37.4161C203.574 37.8428 203.489 38.1734 203.318 38.4081C202.763 39.2614 202.038 39.8481 201.142 40.1681C200.267 40.4881 199.243 40.6481 198.07 40.6481C196.854 40.6481 195.681 40.3814 194.55 39.8481C193.419 39.3148 192.449 38.5894 191.638 37.6721C190.849 36.7334 190.326 35.6988 190.07 34.5681C189.899 33.9068 189.814 33.2561 189.814 32.6161C189.814 31.6134 190.091 30.8028 190.646 30.1841C191.222 29.5654 192.139 28.9788 193.398 28.4241C194.55 27.9334 195.617 27.6881 196.598 27.6881C197.302 27.6881 197.985 27.7948 198.646 28.0081C200.694 28.6481 201.718 29.5228 201.718 30.6321C201.718 31.3361 201.302 32.1894 200.47 33.1921C200.065 33.6614 199.585 34.0774 199.03 34.4401C198.475 34.8028 197.931 35.1334 197.398 35.4321C196.886 35.7094 196.534 35.9014 196.342 36.0081ZM197.686 30.0881C197.665 29.9814 197.579 29.8961 197.43 29.8321C197.302 29.7468 197.227 29.6934 197.206 29.6721C196.63 29.6294 196.043 29.8001 195.446 30.1841C194.849 30.5468 194.347 31.0161 193.942 31.5921C193.558 32.1681 193.366 32.7228 193.366 33.2561L193.398 33.5121C193.419 33.5974 193.526 33.7041 193.718 33.8321C193.931 33.9601 194.059 34.0028 194.102 33.9601C195.617 32.8294 196.758 31.9228 197.526 31.2401C197.654 31.1121 197.718 30.8774 197.718 30.5361C197.718 30.3228 197.707 30.1734 197.686 30.0881ZM207.217 41.7041C205.425 41.7041 204.284 40.9361 203.793 39.4001C203.964 39.4001 204.188 39.4108 204.465 39.4321C204.764 39.4321 205.009 39.4534 205.201 39.4961C205.5 39.5388 205.713 39.5601 205.841 39.5601C206.801 39.5601 207.601 39.1334 208.241 38.2801C208.689 37.6614 208.913 37.0321 208.913 36.3921C208.913 35.9654 208.806 35.5494 208.593 35.1441C208.124 34.3121 207.548 33.3948 206.865 32.3921C206.417 31.7308 206.012 31.1014 205.649 30.5041C205.222 29.8214 205.009 29.0641 205.009 28.2321C205.009 27.4641 205.222 26.7921 205.649 26.2161C206.097 25.6188 206.748 25.2454 207.601 25.0961L208.625 24.9041C209.734 24.6908 210.566 24.5841 211.121 24.5841C212.038 24.5841 212.849 24.7974 213.553 25.2241C213.702 25.3308 213.852 25.5228 214.001 25.8001C214.172 26.0561 214.3 26.2588 214.385 26.4081C214.236 26.4721 214.022 26.5788 213.745 26.7281C213.489 26.8561 213.265 26.9308 213.073 26.9521C212.774 26.9948 212.326 27.0161 211.729 27.0161C211.153 27.0161 210.716 27.0268 210.417 27.0481C209.734 27.1121 209.19 27.3468 208.785 27.7521C208.401 28.1361 208.209 28.6054 208.209 29.1601C208.209 29.5868 208.337 30.0241 208.593 30.4721C209.169 31.4321 209.969 32.5308 210.993 33.7681C211.761 34.7281 212.145 35.7201 212.145 36.7441C212.145 37.2988 212.017 37.8854 211.761 38.5041C210.886 40.6374 209.372 41.7041 207.217 41.7041ZM215.696 41.7041C213.904 41.7041 212.762 40.9361 212.272 39.4001C212.442 39.4001 212.666 39.4108 212.944 39.4321C213.242 39.4321 213.488 39.4534 213.68 39.4961C213.978 39.5388 214.192 39.5601 214.32 39.5601C215.28 39.5601 216.08 39.1334 216.72 38.2801C217.168 37.6614 217.392 37.0321 217.392 36.3921C217.392 35.9654 217.285 35.5494 217.072 35.1441C216.602 34.3121 216.026 33.3948 215.344 32.3921C214.896 31.7308 214.49 31.1014 214.128 30.5041C213.701 29.8214 213.488 29.0641 213.488 28.2321C213.488 27.4641 213.701 26.7921 214.128 26.2161C214.576 25.6188 215.226 25.2454 216.08 25.0961L217.104 24.9041C218.213 24.6908 219.045 24.5841 219.6 24.5841C220.517 24.5841 221.328 24.7974 222.032 25.2241C222.181 25.3308 222.33 25.5228 222.48 25.8001C222.65 26.0561 222.778 26.2588 222.864 26.4081C222.714 26.4721 222.501 26.5788 222.224 26.7281C221.968 26.8561 221.744 26.9308 221.552 26.9521C221.253 26.9948 220.805 27.0161 220.208 27.0161C219.632 27.0161 219.194 27.0268 218.896 27.0481C218.213 27.1121 217.669 27.3468 217.264 27.7521C216.88 28.1361 216.688 28.6054 216.688 29.1601C216.688 29.5868 216.816 30.0241 217.072 30.4721C217.648 31.4321 218.448 32.5308 219.472 33.7681C220.24 34.7281 220.624 35.7201 220.624 36.7441C220.624 37.2988 220.496 37.8854 220.24 38.5041C219.365 40.6374 217.85 41.7041 215.696 41.7041ZM226.765 40.4881C226.637 40.9148 226.391 41.2881 226.029 41.6081C225.687 41.9281 225.335 42.0881 224.973 42.0881C224.482 42.0668 224.002 41.8321 223.533 41.3841C223.085 40.9361 222.861 40.4454 222.861 39.9121C222.861 39.6561 222.935 39.4321 223.085 39.2401C223.255 39.0481 223.49 38.8561 223.789 38.6641C223.981 38.5361 224.077 38.4721 224.077 38.4721C224.119 38.4294 224.215 38.3334 224.365 38.1841C224.514 38.0348 224.653 37.9281 224.781 37.8641C224.93 37.7788 225.069 37.7361 225.197 37.7361C225.389 37.7361 225.591 37.8108 225.805 37.9601C226.082 38.1308 226.317 38.4401 226.509 38.8881C226.722 39.3148 226.829 39.7201 226.829 40.1041C226.829 40.1894 226.807 40.3174 226.765 40.4881ZM240.003 37.7361C239.363 38.4614 238.712 39.0374 238.051 39.4641C237.39 39.8694 236.654 40.0721 235.843 40.0721C235.672 40.0721 235.438 40.0508 235.139 40.0081L234.499 40.0401C231.811 40.0614 229.848 38.7814 228.611 36.2001C228.334 35.6028 228.195 34.8881 228.195 34.0561C228.195 33.3308 228.302 32.6374 228.515 31.9761C228.728 31.3148 229.027 30.7708 229.411 30.3441L230.019 29.6081C230.318 29.2241 230.552 28.9574 230.723 28.8081C231.47 28.0828 232.462 27.7201 233.699 27.7201C234.339 27.7201 234.968 27.8268 235.587 28.0401C236.206 28.2534 236.75 28.5414 237.219 28.9041C237.304 28.9681 237.39 29.1068 237.475 29.3201C237.56 29.5121 237.603 29.6721 237.603 29.8001C237.603 29.9708 237.475 30.1628 237.219 30.3761C236.963 30.5681 236.728 30.6534 236.515 30.6321C235.064 30.4614 233.902 30.8134 233.027 31.6881C232.152 32.5414 231.715 33.7148 231.715 35.2081C231.715 36.1894 231.918 36.8828 232.323 37.2881C232.75 37.6934 233.443 37.8961 234.403 37.8961C235 37.8961 235.566 37.7788 236.099 37.5441C236.632 37.2881 237.251 36.9361 237.955 36.4881L238.563 36.1041C238.776 35.9974 239.054 35.9334 239.395 35.9121C239.758 35.8694 240.035 35.8374 240.227 35.8161C240.206 36.0081 240.195 36.2001 240.195 36.3921C240.216 36.5628 240.227 36.7014 240.227 36.8081C240.227 37.2774 240.152 37.5868 240.003 37.7361ZM249.139 38.8561C248.477 39.2614 247.72 39.4641 246.867 39.4641C245.928 39.4641 245.021 39.2294 244.147 38.7601C243.293 38.2694 242.611 37.5761 242.099 36.6801C241.587 35.7841 241.373 34.7601 241.459 33.6081L241.619 32.8401C241.747 32.0721 241.853 31.5068 241.939 31.1441C242.131 30.3548 242.515 29.8001 243.091 29.4801C243.667 29.1601 244.435 28.9041 245.395 28.7121C246.013 28.5841 246.621 28.5201 247.219 28.5201C249.096 28.5201 250.675 29.1494 251.955 30.4081C252.637 31.0908 252.979 31.9228 252.979 32.9041C252.979 33.8641 252.627 34.8988 251.923 36.0081C251.112 37.2668 250.184 38.2161 249.139 38.8561ZM246.451 30.1521C246.109 30.9841 245.747 32.0188 245.363 33.2561L245.043 34.2161L245.267 34.3121C245.267 34.4614 245.267 34.6961 245.267 35.0161C245.288 35.3148 245.331 35.5708 245.395 35.7841C245.629 36.4454 245.896 36.8508 246.195 37.0001C246.323 37.0641 246.504 37.0321 246.739 36.9041C246.995 36.7761 247.219 36.6268 247.411 36.4561C247.709 36.2001 248.189 35.6668 248.851 34.8561C249.341 34.3014 249.587 33.6401 249.587 32.8721C249.587 32.2108 249.395 31.6134 249.011 31.0801C248.648 30.5468 248.136 30.1841 247.475 29.9921C247.411 29.9708 247.293 29.9601 247.123 29.9601C246.717 29.9601 246.493 30.0241 246.451 30.1521ZM270.516 32.6481C270.474 31.8374 270.132 31.2401 269.492 30.8561C268.98 30.9841 268.564 31.1441 268.244 31.3361C267.924 31.5281 267.69 31.7201 267.54 31.9121C267.391 32.0828 267.124 32.4241 266.74 32.9361C266.612 33.1068 266.474 33.3414 266.324 33.6401C266.196 33.9388 266.122 34.1201 266.1 34.1841C266.036 34.3334 266.004 34.4934 266.004 34.6641C266.004 34.7921 266.026 34.9948 266.068 35.2721C266.132 35.5281 266.154 35.7308 266.132 35.8801C266.111 36.2001 266.122 36.7014 266.164 37.3841L266.196 38.3761C266.196 38.6748 266.186 38.8988 266.164 39.0481C266.122 39.3894 266.015 39.6881 265.844 39.9441C265.674 40.2001 265.439 40.3281 265.14 40.3281C265.034 40.3281 264.895 40.2961 264.724 40.2321C264.575 40.1894 264.33 40.1148 263.988 40.0081C263.647 39.9014 263.38 39.7414 263.188 39.5281C262.996 39.2934 262.9 38.9628 262.9 38.5361C262.9 37.4268 262.794 35.7628 262.58 33.5441C262.538 33.3094 262.495 32.9148 262.452 32.3601C262.431 32.1254 262.324 31.9441 262.132 31.8161C261.94 31.6881 261.706 31.6241 261.428 31.6241C260.98 31.6241 260.639 31.7414 260.404 31.9761C259.423 32.5308 258.708 33.1601 258.26 33.8641C257.812 34.5681 257.588 35.4748 257.588 36.5841L257.62 37.6721C257.62 38.3761 257.439 39.0268 257.076 39.6241C256.97 39.8161 256.746 39.9868 256.404 40.1361C256.084 40.2641 255.807 40.3068 255.572 40.2641C255.359 40.2428 255.135 40.1041 254.9 39.8481C254.687 39.5708 254.58 39.3254 254.58 39.1121C254.516 37.3201 254.484 35.5388 254.484 33.7681C254.484 32.1681 254.506 30.9734 254.548 30.1841C254.57 29.7788 254.708 29.4588 254.964 29.2241C255.22 28.9894 255.53 28.8721 255.892 28.8721C256.362 28.8721 256.778 29.0428 257.14 29.3841C257.332 29.7468 257.492 30.0134 257.62 30.1841C257.748 30.3334 257.887 30.4081 258.036 30.4081C258.164 30.4081 258.314 30.3441 258.484 30.2161C258.655 30.0668 258.89 29.8321 259.188 29.5121C259.892 28.7441 260.628 28.3601 261.396 28.3601C262.228 28.3601 263.231 28.7761 264.404 29.6081C264.49 29.6721 264.607 29.7681 264.756 29.8961C264.906 30.0028 265.034 30.0561 265.14 30.0561C265.29 30.0561 265.524 29.8854 265.844 29.5441C267.039 28.4348 268.554 27.8268 270.388 27.7201C270.964 27.6988 271.54 27.9228 272.116 28.3921C272.714 28.8401 273.087 29.3841 273.236 30.0241C273.492 31.1121 273.674 32.3921 273.78 33.8641C273.908 36.0828 273.962 37.7468 273.94 38.8561C273.919 39.3681 273.78 39.7734 273.524 40.0721C273.268 40.3494 272.938 40.4881 272.532 40.4881C272.212 40.4881 271.871 40.3921 271.508 40.2001C271.359 40.1361 271.22 40.0188 271.092 39.8481C270.964 39.6774 270.9 39.5281 270.9 39.4001L270.708 36.0081C270.687 35.6454 270.666 35.1868 270.644 34.6321C270.623 34.0561 270.58 33.3948 270.516 32.6481ZM279.639 41.6081C279.425 42.3334 279.223 42.8348 279.031 43.1121C278.839 43.4108 278.593 43.5601 278.295 43.5601C277.868 43.5601 277.153 43.2401 276.151 42.6001L276.311 41.3201C276.46 40.1681 276.599 39.3041 276.727 38.7281C277.089 37.2988 277.537 35.6988 278.071 33.9281L279.127 30.2161C279.425 29.1281 279.681 27.9868 279.895 26.7921C280.023 26.1521 280.236 25.1921 280.535 23.9121L282.039 17.3841C282.38 15.8908 282.615 14.9094 282.743 14.4401C282.977 14.4401 283.191 14.4294 283.383 14.4081C283.575 14.3868 283.767 14.3761 283.959 14.3761C284.193 14.3761 284.428 14.4081 284.663 14.4721C285.324 14.6214 285.804 14.8241 286.103 15.0801C286.423 15.3148 286.583 15.6668 286.583 16.1361C286.583 16.3708 286.529 16.7014 286.423 17.1281L285.527 20.1681C284.972 22.0454 284.503 23.6348 284.119 24.9361C283.863 25.9601 283.468 27.5174 282.935 29.6081L281.719 34.2801C281.697 34.3868 281.665 34.5148 281.623 34.6641C281.58 34.7921 281.537 34.9308 281.495 35.0801C281.345 35.6134 281.079 36.5628 280.695 37.9281C280.311 39.2934 279.959 40.5201 279.639 41.6081ZM299.69 27.4961C299.69 27.9014 299.637 28.4561 299.53 29.1601C299.445 29.9708 299.391 30.6214 299.37 31.1121C299.626 31.0054 299.925 30.7601 300.266 30.3761C300.458 30.1628 300.65 29.9814 300.842 29.8321C301.781 29.1708 302.677 28.8401 303.53 28.8401C304.426 28.8401 305.375 29.2134 306.378 29.9601C307.893 31.0694 308.65 32.3708 308.65 33.8641C308.65 35.0374 308.159 36.2748 307.178 37.5761C305.77 39.4748 303.786 40.6161 301.226 41.0001C301.098 41.0214 300.906 41.0321 300.65 41.0321C300.245 41.0321 299.573 40.9468 298.634 40.7761C298.634 40.5628 298.602 40.3281 298.538 40.0721C298.687 40.0081 298.879 39.9228 299.114 39.8161C299.37 39.6881 299.594 39.6134 299.786 39.5921C300.447 39.5281 301.183 39.1868 301.994 38.5681C302.826 37.9281 303.551 37.1921 304.17 36.3601C304.789 35.5281 305.141 34.8028 305.226 34.1841C305.247 34.0988 305.269 33.9814 305.29 33.8321C305.311 33.6828 305.322 33.5014 305.322 33.2881C305.322 33.0748 305.29 32.8934 305.226 32.7441C304.885 31.9548 304.49 31.4321 304.042 31.1761C303.914 31.1121 303.69 31.1868 303.37 31.4001C303.05 31.5921 302.794 31.8054 302.602 32.0401C301.194 33.5761 300.362 35.3361 300.106 37.3201C300.021 38.0881 299.583 38.4614 298.794 38.4401C298.154 38.4401 297.567 38.1841 297.034 37.6721C296.501 37.1388 296.234 36.5521 296.234 35.9121C296.213 32.6908 296.202 27.8694 296.202 21.4481C296.202 20.9148 296.351 20.5521 296.65 20.3601C296.97 20.1468 297.429 19.9761 298.026 19.8481C298.282 19.7841 298.57 19.8374 298.89 20.0081C299.21 20.1788 299.487 20.4028 299.722 20.6801C299.957 20.9574 300.074 21.2348 300.074 21.5121C300.074 22.7708 299.978 24.3388 299.786 26.2161L299.69 27.4961ZM316.692 36.0081C316.479 36.1361 316.169 36.2001 315.764 36.2001C315.615 36.2001 315.433 36.1894 315.22 36.1681C315.007 36.1468 314.825 36.1468 314.676 36.1681C314.847 36.8721 315.252 37.4481 315.892 37.8961C316.532 38.3228 317.247 38.5361 318.036 38.5361C318.719 38.5361 319.327 38.3868 319.86 38.0881C320.649 37.6828 321.332 37.2028 321.908 36.6481C322.313 36.2428 322.697 36.0401 323.06 36.0401C323.295 36.0401 323.497 36.1574 323.668 36.3921C323.839 36.6694 323.924 37.0108 323.924 37.4161C323.924 37.8428 323.839 38.1734 323.668 38.4081C323.113 39.2614 322.388 39.8481 321.492 40.1681C320.617 40.4881 319.593 40.6481 318.42 40.6481C317.204 40.6481 316.031 40.3814 314.9 39.8481C313.769 39.3148 312.799 38.5894 311.988 37.6721C311.199 36.7334 310.676 35.6988 310.42 34.5681C310.249 33.9068 310.164 33.2561 310.164 32.6161C310.164 31.6134 310.441 30.8028 310.996 30.1841C311.572 29.5654 312.489 28.9788 313.748 28.4241C314.9 27.9334 315.967 27.6881 316.948 27.6881C317.652 27.6881 318.335 27.7948 318.996 28.0081C321.044 28.6481 322.068 29.5228 322.068 30.6321C322.068 31.3361 321.652 32.1894 320.82 33.1921C320.415 33.6614 319.935 34.0774 319.38 34.4401C318.825 34.8028 318.281 35.1334 317.748 35.4321C317.236 35.7094 316.884 35.9014 316.692 36.0081ZM318.036 30.0881C318.015 29.9814 317.929 29.8961 317.78 29.8321C317.652 29.7468 317.577 29.6934 317.556 29.6721C316.98 29.6294 316.393 29.8001 315.796 30.1841C315.199 30.5468 314.697 31.0161 314.292 31.5921C313.908 32.1681 313.716 32.7228 313.716 33.2561L313.748 33.5121C313.769 33.5974 313.876 33.7041 314.068 33.8321C314.281 33.9601 314.409 34.0028 314.452 33.9601C315.967 32.8294 317.108 31.9228 317.876 31.2401C318.004 31.1121 318.068 30.8774 318.068 30.5361C318.068 30.3228 318.057 30.1734 318.036 30.0881ZM329.679 30.9521C329.679 31.7201 329.711 32.2214 329.775 32.4561C329.86 32.6908 330.052 32.8081 330.351 32.8081C330.628 32.8081 331.066 32.7441 331.663 32.6161H332.399C333.615 32.6161 334.362 32.8828 334.639 33.4161C334.746 33.4588 334.852 33.5761 334.959 33.7681C335.066 33.9388 335.14 34.0561 335.183 34.1201C335.098 34.1841 334.97 34.2908 334.799 34.4401C334.628 34.5681 334.468 34.6428 334.319 34.6641C333.828 34.7708 333.092 34.9094 332.111 35.0801C331.919 35.1014 331.578 35.1548 331.087 35.2401C330.319 35.3894 329.935 35.8374 329.935 36.5841C329.935 36.6908 329.956 36.8934 329.999 37.1921C330.255 38.3441 330.468 39.3574 330.639 40.2321C330.81 41.0854 330.948 41.8001 331.055 42.3761L331.631 45.1921C331.844 46.2161 331.951 47.0054 331.951 47.5601C331.951 47.9654 331.855 48.2641 331.663 48.4561C331.471 48.6694 331.098 48.7761 330.543 48.7761C330.074 48.7761 329.722 48.6588 329.487 48.4241C329.252 48.1894 329.082 47.8161 328.975 47.3041C328.783 46.3228 328.452 44.8508 327.983 42.8881L326.959 37.5761C326.916 36.3388 326.308 35.7201 325.135 35.7201C324.751 35.7201 324.484 35.6561 324.335 35.5281C324.207 35.4214 324.09 35.3041 323.983 35.1761C323.876 35.0268 323.823 34.8881 323.823 34.7601C323.823 34.6534 323.887 34.5361 324.015 34.4081C324.164 34.2588 324.303 34.1734 324.431 34.1521C325.199 34.0454 325.711 33.8321 325.967 33.5121C326.244 33.1921 326.394 32.6908 326.415 32.0081L326.479 29.9601C326.5 29.0641 326.532 28.1468 326.575 27.2081C326.618 26.2694 326.692 25.4374 326.799 24.7121C326.884 24.0934 327.151 23.6454 327.599 23.3681C328.047 23.0694 328.666 22.9201 329.455 22.9201C329.796 22.9201 330.063 22.9308 330.255 22.9521C330.703 22.9948 331.215 23.2081 331.791 23.5921C332.367 23.9548 332.676 24.3494 332.719 24.7761C332.932 25.9921 332.484 26.6534 331.375 26.7601C330.65 26.6108 330.223 26.6961 330.095 27.0161C329.967 27.3361 329.882 27.7308 329.839 28.2001C329.839 28.4774 329.818 28.8721 329.775 29.3841C329.711 29.8961 329.679 30.4188 329.679 30.9521ZM343.021 38.8561C342.36 39.2614 341.602 39.4641 340.749 39.4641C339.81 39.4641 338.904 39.2294 338.029 38.7601C337.176 38.2694 336.493 37.5761 335.981 36.6801C335.469 35.7841 335.256 34.7601 335.341 33.6081L335.501 32.8401C335.629 32.0721 335.736 31.5068 335.821 31.1441C336.013 30.3548 336.397 29.8001 336.973 29.4801C337.549 29.1601 338.317 28.9041 339.277 28.7121C339.896 28.5841 340.504 28.5201 341.101 28.5201C342.978 28.5201 344.557 29.1494 345.837 30.4081C346.52 31.0908 346.861 31.9228 346.861 32.9041C346.861 33.8641 346.509 34.8988 345.805 36.0081C344.994 37.2668 344.066 38.2161 343.021 38.8561ZM340.333 30.1521C339.992 30.9841 339.629 32.0188 339.245 33.2561L338.925 34.2161L339.149 34.3121C339.149 34.4614 339.149 34.6961 339.149 35.0161C339.17 35.3148 339.213 35.5708 339.277 35.7841C339.512 36.4454 339.778 36.8508 340.077 37.0001C340.205 37.0641 340.386 37.0321 340.621 36.9041C340.877 36.7761 341.101 36.6268 341.293 36.4561C341.592 36.2001 342.072 35.6668 342.733 34.8561C343.224 34.3014 343.469 33.6401 343.469 32.8721C343.469 32.2108 343.277 31.6134 342.893 31.0801C342.53 30.5468 342.018 30.1841 341.357 29.9921C341.293 29.9708 341.176 29.9601 341.005 29.9601C340.6 29.9601 340.376 30.0241 340.333 30.1521ZM352.591 27.4321C352.655 27.6454 352.666 27.9761 352.623 28.4241L352.239 32.2001C352.346 32.1148 352.506 31.8161 352.719 31.3041C352.932 30.7708 353.135 30.3441 353.327 30.0241C353.519 29.6828 353.668 29.4588 353.775 29.3521C354.778 28.3921 355.908 27.8161 357.167 27.6241C358.426 27.4321 359.812 27.3468 361.327 27.3681C361.476 27.3681 361.636 27.4321 361.807 27.5601C361.999 27.6668 362.095 27.7628 362.095 27.8481C362.095 27.9121 362.031 28.0294 361.903 28.2001C361.775 28.3494 361.658 28.4454 361.551 28.4881C360.271 28.9148 359.14 29.4054 358.159 29.9601C357.199 30.5148 356.367 31.2401 355.663 32.1361C353.999 34.2481 353.039 36.4241 352.783 38.6641C352.719 39.2614 352.538 39.6668 352.239 39.8801C351.94 40.0721 351.524 40.1681 350.991 40.1681C350.394 40.1681 349.86 39.9121 349.391 39.4001C348.922 38.8881 348.687 38.3228 348.687 37.7041C348.708 35.4428 348.719 32.0508 348.719 27.5281C348.719 26.9094 348.858 26.4828 349.135 26.2481C349.412 25.9921 349.914 25.8641 350.639 25.8641C351.172 25.8641 351.62 26.0134 351.983 26.3121C352.367 26.6108 352.57 26.9841 352.591 27.4321ZM367.263 36.0081C367.05 36.1361 366.741 36.2001 366.335 36.2001C366.186 36.2001 366.005 36.1894 365.791 36.1681C365.578 36.1468 365.397 36.1468 365.247 36.1681C365.418 36.8721 365.823 37.4481 366.463 37.8961C367.103 38.3228 367.818 38.5361 368.607 38.5361C369.29 38.5361 369.898 38.3868 370.431 38.0881C371.221 37.6828 371.903 37.2028 372.479 36.6481C372.885 36.2428 373.269 36.0401 373.631 36.0401C373.866 36.0401 374.069 36.1574 374.239 36.3921C374.41 36.6694 374.495 37.0108 374.495 37.4161C374.495 37.8428 374.41 38.1734 374.239 38.4081C373.685 39.2614 372.959 39.8481 372.063 40.1681C371.189 40.4881 370.165 40.6481 368.991 40.6481C367.775 40.6481 366.602 40.3814 365.471 39.8481C364.341 39.3148 363.37 38.5894 362.559 37.6721C361.77 36.7334 361.247 35.6988 360.991 34.5681C360.821 33.9068 360.735 33.2561 360.735 32.6161C360.735 31.6134 361.013 30.8028 361.567 30.1841C362.143 29.5654 363.061 28.9788 364.319 28.4241C365.471 27.9334 366.538 27.6881 367.519 27.6881C368.223 27.6881 368.906 27.7948 369.567 28.0081C371.615 28.6481 372.639 29.5228 372.639 30.6321C372.639 31.3361 372.223 32.1894 371.391 33.1921C370.986 33.6614 370.506 34.0774 369.951 34.4401C369.397 34.8028 368.853 35.1334 368.319 35.4321C367.807 35.7094 367.455 35.9014 367.263 36.0081ZM368.607 30.0881C368.586 29.9814 368.501 29.8961 368.351 29.8321C368.223 29.7468 368.149 29.6934 368.127 29.6721C367.551 29.6294 366.965 29.8001 366.367 30.1841C365.77 30.5468 365.269 31.0161 364.863 31.5921C364.479 32.1681 364.287 32.7228 364.287 33.2561L364.319 33.5121C364.341 33.5974 364.447 33.7041 364.639 33.8321C364.853 33.9601 364.981 34.0028 365.023 33.9601C366.538 32.8294 367.679 31.9228 368.447 31.2401C368.575 31.1121 368.639 30.8774 368.639 30.5361C368.639 30.3228 368.629 30.1734 368.607 30.0881ZM392.188 39.3681C391.996 39.2828 391.804 39.2401 391.612 39.2401C391.42 39.2401 391.249 39.2934 391.1 39.4001C390.972 39.4854 390.823 39.6241 390.652 39.8161C390.396 40.0721 390.129 40.2854 389.852 40.4561C389.596 40.6054 389.127 40.7441 388.444 40.8721C388.145 40.9148 387.9 40.9361 387.708 40.9361C386.812 40.9361 385.873 40.7441 384.892 40.3601C383.932 39.9548 383.249 39.4748 382.844 38.9201C382.417 38.3228 382.215 37.6828 382.236 37.0001C382.257 35.9761 382.684 34.9521 383.516 33.9281C384.327 32.9468 385.063 32.2534 385.724 31.8481C386.407 31.4428 387.335 31.1868 388.508 31.0801C388.764 31.0801 389.127 31.0374 389.596 30.9521C390.087 30.8668 390.332 30.7494 390.332 30.6001C390.332 30.3014 390.193 30.0348 389.916 29.8001C389.66 29.5441 389.127 29.4161 388.316 29.4161C388.017 29.4161 387.569 29.4374 386.972 29.4801C386.375 29.5228 385.959 29.5441 385.724 29.5441C384.999 29.5441 384.476 29.4268 384.156 29.1921C384.071 29.1494 384.028 28.9468 384.028 28.5841C384.028 27.9441 384.252 27.5388 384.7 27.3681C385.617 27.0268 386.567 26.8454 387.548 26.8241C388.785 26.8241 389.927 27.1014 390.972 27.6561C392.039 28.1894 392.817 28.8614 393.308 29.6721C393.799 30.4828 394.119 31.6028 394.268 33.0321C394.439 34.6321 394.524 36.6694 394.524 39.1441C394.524 39.8268 394.428 40.2214 394.236 40.3281C394.065 40.4348 393.905 40.4881 393.756 40.4881C393.564 40.4881 393.383 40.4348 393.212 40.3281C393.063 40.2001 392.892 40.0294 392.7 39.8161C392.508 39.5814 392.337 39.4321 392.188 39.3681ZM387.132 38.9841C388.135 38.6854 389.116 38.2054 390.076 37.5441C390.289 37.3948 390.481 37.2028 390.652 36.9681C390.823 36.7334 390.929 36.5841 390.972 36.5201C391.015 36.4561 391.047 36.2748 391.068 35.9761C391.111 35.6561 391.121 35.4001 391.1 35.2081C391.079 35.1441 391.036 34.9734 390.972 34.6961C390.929 34.4188 390.855 34.1734 390.748 33.9601C390.641 33.7894 390.471 33.6294 390.236 33.4801C390.001 33.3308 389.788 33.2668 389.596 33.2881C389.191 33.3094 388.753 33.4588 388.284 33.7361C387.815 34.0134 387.377 34.3868 386.972 34.8561C386.567 35.3468 386.247 35.8481 386.012 36.3601C385.799 36.8508 385.692 37.3094 385.692 37.7361C385.735 38.3121 385.895 38.6961 386.172 38.8881C386.321 38.9948 386.503 39.0481 386.716 39.0481C386.887 39.0481 387.025 39.0268 387.132 38.9841ZM402.058 28.9361C402.058 29.0641 402.037 29.2348 401.994 29.4481C401.951 29.6401 401.941 29.7681 401.962 29.8321C403.434 29.5121 404.682 29.3521 405.706 29.3521C407.306 29.3521 408.511 30.1201 409.322 31.6561C409.983 32.9574 410.314 34.3974 410.314 35.9761C410.314 36.3814 410.271 36.9681 410.186 37.7361C410.122 38.2481 409.919 38.6641 409.578 38.9841C409.237 39.2828 408.831 39.4321 408.362 39.4321C407.871 39.4321 407.519 39.3468 407.306 39.1761C407.114 38.9841 406.997 38.7708 406.954 38.5361C406.933 38.3014 406.922 37.9281 406.922 37.4161L406.89 36.7441C406.847 35.4641 406.762 34.3548 406.634 33.4161C406.57 33.0321 406.421 32.7654 406.186 32.6161C405.973 32.4454 405.685 32.3601 405.322 32.3601C404.981 32.3601 404.575 32.4134 404.106 32.5201C403.381 32.7121 402.89 32.8614 402.634 32.9681C402.399 33.0748 402.047 33.2988 401.578 33.6401C401.429 33.7468 401.322 33.9601 401.258 34.2801C401.194 34.6001 401.162 34.7814 401.162 34.8241C400.885 36.1894 400.586 37.8214 400.266 39.7201C400.245 39.8054 400.202 40.0081 400.138 40.3281C400.074 40.6481 399.946 40.8721 399.754 41.0001C399.583 41.1494 399.327 41.2028 398.986 41.1601C397.642 40.9894 396.959 40.4241 396.938 39.4641C396.917 38.2268 397.013 36.7654 397.226 35.0801C397.375 33.8641 397.514 32.8828 397.642 32.1361C397.685 31.7948 397.738 31.3788 397.802 30.8881C397.887 30.3974 397.962 29.8321 398.026 29.1921C398.09 28.7014 398.154 28.3388 398.218 28.1041C398.282 27.8694 398.431 27.6774 398.666 27.5281C398.901 27.3574 399.263 27.2721 399.754 27.2721C400.373 27.2721 400.885 27.4108 401.29 27.6881C401.695 27.9654 401.951 28.3601 402.058 28.8721V28.9361ZM411.903 50.0241C412.053 49.9814 412.245 49.9174 412.479 49.8321C412.714 49.7681 412.917 49.7254 413.087 49.7041C414.623 49.6614 415.743 49.3414 416.447 48.7441C417.173 48.1468 417.631 47.0908 417.823 45.5761C418.015 44.0614 418.207 41.7894 418.399 38.7601L418.527 36.7121C418.549 36.2214 418.453 35.8481 418.239 35.5921C418.047 35.3148 417.685 35.1441 417.151 35.0801C415.999 34.9521 414.997 34.5041 414.143 33.7361C413.311 32.9681 412.735 31.9974 412.415 30.8241C412.309 30.4614 412.191 30.0348 412.063 29.5441C411.807 28.6054 411.626 27.9014 411.519 27.4321V27.3681C411.519 27.2401 411.562 27.1014 411.647 26.9521C411.733 26.7814 411.818 26.6641 411.903 26.6001C412.245 26.3654 412.639 26.2481 413.087 26.2481C413.685 26.2481 414.218 26.4614 414.687 26.8881C415.157 27.2934 415.423 27.8054 415.487 28.4241C415.594 29.3841 415.775 30.4294 416.031 31.5601C416.138 32.0081 416.341 32.2321 416.639 32.2321C416.874 32.2321 417.077 32.1148 417.247 31.8801C417.802 31.1761 418.229 30.4934 418.527 29.8321C418.89 29.0214 419.423 28.6161 420.127 28.6161C420.319 28.6161 420.458 28.6268 420.543 28.6481C421.653 28.8614 422.186 29.5441 422.143 30.6961L422.047 33.6721C421.962 36.3174 421.866 38.2908 421.759 39.5921L421.663 40.8721C421.535 42.6214 421.407 43.9761 421.279 44.9361C421.173 45.9174 420.991 46.8988 420.735 47.8801C420.415 49.1174 419.829 50.0348 418.975 50.6321C418.122 51.2508 417.119 51.5601 415.967 51.5601C415.05 51.5601 414.133 51.3788 413.215 51.0161C413.023 50.9308 412.799 50.8134 412.543 50.6641C412.287 50.5361 412.095 50.4294 411.967 50.3441L411.903 50.0241ZM450.891 32.0401C450.806 32.5734 450.635 33.9601 450.379 36.2001C450.23 37.4801 450.145 38.1414 450.123 38.1841L447.307 37.7361L447.883 30.8241L447.531 31.0801C447.339 31.2508 447.073 31.5174 446.731 31.8801C446.411 32.2214 446.123 32.5308 445.867 32.8081C445.035 33.9601 444.427 34.7388 444.043 35.1441C443.105 36.1254 442.241 36.9468 441.451 37.6081C440.683 38.2481 439.766 38.8348 438.699 39.3681C438.273 39.5814 437.75 39.6881 437.131 39.6881C436.598 39.6881 436.086 39.5921 435.595 39.4001C435.105 39.2081 434.689 38.9201 434.347 38.5361C432.662 36.7014 431.819 34.4828 431.819 31.8801C431.819 31.1334 431.883 30.3654 432.011 29.5761C432.182 28.5521 432.395 27.5494 432.651 26.5681C432.907 25.5654 433.259 24.2748 433.707 22.6961C433.857 22.2481 434.059 21.5761 434.315 20.6801C434.422 20.2534 434.582 20.0081 434.795 19.9441C434.881 19.9014 434.955 19.8801 435.019 19.8801C435.254 19.8801 435.531 19.9761 435.851 20.1681C436.555 20.5734 437.057 20.9681 437.355 21.3521C437.675 21.7361 437.835 22.1734 437.835 22.6641C437.835 23.2401 437.611 23.9974 437.163 24.9361C435.841 27.7521 435.179 30.3441 435.179 32.7121C435.179 33.3308 435.201 33.7894 435.243 34.0881C435.286 34.5788 435.531 35.0161 435.979 35.4001C436.427 35.7841 436.918 35.9761 437.451 35.9761C438.027 35.9761 438.529 35.7628 438.955 35.3361C441.174 33.1174 442.998 30.8668 444.427 28.5841C445.857 26.3014 446.977 23.7948 447.787 21.0641C447.873 20.7441 447.969 20.4348 448.075 20.1361L448.139 20.0721C449.398 20.2001 450.39 20.6908 451.115 21.5441C451.841 22.3761 452.161 23.4108 452.075 24.6481C451.499 28.0614 451.105 30.5254 450.891 32.0401ZM473.163 37.9281C473.227 38.1414 473.259 38.3441 473.259 38.5361C473.259 38.8774 473.152 39.1548 472.939 39.3681C472.747 39.5601 472.48 39.6561 472.139 39.6561C472.011 39.6561 471.904 39.6454 471.819 39.6241C470.859 39.4108 470.102 39.1761 469.547 38.9201C469.12 38.7281 468.331 38.2481 467.179 37.4801C466.304 36.9041 465.579 36.4561 465.003 36.1361C464.256 35.7308 463.456 35.4534 462.603 35.3041C462.219 35.2401 461.312 35.1334 459.883 34.9841C459.243 34.9414 458.774 34.8988 458.475 34.8561L457.899 39.5921L457.931 40.1041C457.931 40.8721 457.835 41.3841 457.643 41.6401C457.472 41.8961 457.11 42.0241 456.555 42.0241C455.979 42.0241 455.478 41.8428 455.051 41.4801C454.624 41.1174 454.411 40.6694 454.411 40.1361C454.411 38.5148 454.496 37.0748 454.667 35.8161C455.264 31.9548 456.64 27.9441 458.795 23.7841C460.011 21.4588 461.878 19.6668 464.395 18.4081C465.206 18.0028 466.027 17.8001 466.859 17.8001C467.712 17.8001 468.502 18.0241 469.227 18.4721C469.974 18.8988 470.592 19.5281 471.083 20.3601C471.531 21.1068 471.755 21.8321 471.755 22.5361C471.755 23.5174 471.371 24.5094 470.603 25.5121C469.686 26.7068 468.384 28.4028 466.699 30.6001L464.619 33.2881C464.64 33.2881 464.662 33.3201 464.683 33.3841C464.726 33.4268 464.768 33.4694 464.811 33.5121L465.515 33.8961C467.286 34.8561 468.587 35.6134 469.419 36.1681C470.23 36.6588 471.094 36.9041 472.011 36.9041C472.288 36.9041 472.502 36.8934 472.651 36.8721C472.715 36.9788 472.8 37.1388 472.907 37.3521C473.014 37.5654 473.099 37.7574 473.163 37.9281ZM461.323 31.5921C462.198 30.6108 463.072 29.5868 463.947 28.5201C464.843 27.4534 465.632 26.4508 466.315 25.5121C466.592 25.1281 466.827 24.7228 467.019 24.2961C467.211 23.8481 467.382 23.4001 467.531 22.9521C467.702 22.5041 467.819 22.1841 467.883 21.9921C467.904 21.9281 467.915 21.8214 467.915 21.6721C467.915 21.5014 467.894 21.2881 467.851 21.0321C467.808 20.7761 467.776 20.5948 467.755 20.4881C466.198 20.9574 464.779 21.9174 463.499 23.3681C462.219 24.8188 461.206 26.4294 460.459 28.2001C459.734 29.9708 459.36 31.4961 459.339 32.7761C459.766 32.8188 460.096 32.7441 460.331 32.5521C460.587 32.3601 460.918 32.0401 461.323 31.5921ZM481.436 39.3361C482.012 39.2294 483.206 38.9841 485.02 38.6001L487.484 38.0881C487.761 38.3654 487.996 38.6108 488.188 38.8241C488.38 39.0374 488.476 39.2188 488.476 39.3681C488.476 39.5388 488.39 39.7094 488.22 39.8801C488.049 40.0508 487.708 40.3281 487.196 40.7121C487.132 40.7548 487.057 40.8294 486.972 40.9361C486.908 41.0428 486.833 41.1068 486.748 41.1281L485.884 41.3521C485.158 41.5654 484.508 41.7254 483.932 41.8321C483.377 41.9601 482.812 42.0241 482.236 42.0241C480.188 42.0241 478.513 41.4161 477.212 40.2001C476.721 39.7521 476.337 39.3041 476.06 38.8561C475.804 38.3868 475.676 37.8854 475.676 37.3521C475.676 37.1174 475.686 36.9468 475.708 36.8401C476.049 34.7281 476.433 32.9361 476.86 31.4641C477.308 29.8428 478.118 27.0908 479.292 23.2081C479.548 22.2908 479.953 20.9148 480.508 19.0801C480.657 18.5894 480.86 18.2481 481.116 18.0561C481.393 17.8641 481.788 17.7894 482.3 17.8321C482.406 17.8321 482.502 17.8428 482.588 17.8641C482.694 17.8854 482.801 17.8961 482.908 17.8961C484.23 18.0028 484.892 18.6428 484.892 19.8161C484.892 20.1148 484.849 20.4241 484.764 20.7441C484.593 21.4268 484.273 22.3441 483.804 23.4961C482.076 27.8908 480.742 32.1254 479.804 36.2001C479.676 36.7121 479.612 37.2454 479.612 37.8001C479.612 38.8454 480.07 39.3681 480.988 39.3681C481.18 39.3681 481.329 39.3574 481.436 39.3361ZM82.3763 74.3681C82.1843 74.2828 81.9923 74.2401 81.8003 74.2401C81.6083 74.2401 81.4376 74.2934 81.2883 74.4001C81.1603 74.4854 81.0109 74.6241 80.8403 74.8161C80.5843 75.0721 80.3176 75.2854 80.0403 75.4561C79.7843 75.6054 79.3149 75.7441 78.6323 75.8721C78.3336 75.9148 78.0883 75.9361 77.8963 75.9361C77.0003 75.9361 76.0616 75.7441 75.0803 75.3601C74.1203 74.9548 73.4376 74.4748 73.0323 73.9201C72.6056 73.3228 72.4029 72.6828 72.4243 72.0001C72.4456 70.9761 72.8723 69.9521 73.7043 68.9281C74.5149 67.9468 75.2509 67.2534 75.9123 66.8481C76.5949 66.4428 77.5229 66.1868 78.6963 66.0801C78.9523 66.0801 79.3149 66.0374 79.7843 65.9521C80.2749 65.8668 80.5203 65.7494 80.5203 65.6001C80.5203 65.3014 80.3816 65.0348 80.1043 64.8001C79.8483 64.5441 79.3149 64.4161 78.5043 64.4161C78.2056 64.4161 77.7576 64.4374 77.1603 64.4801C76.5629 64.5228 76.1469 64.5441 75.9123 64.5441C75.1869 64.5441 74.6643 64.4268 74.3443 64.1921C74.2589 64.1494 74.2163 63.9468 74.2163 63.5841C74.2163 62.9441 74.4403 62.5388 74.8883 62.3681C75.8056 62.0268 76.7549 61.8454 77.7363 61.8241C78.9736 61.8241 80.1149 62.1014 81.1603 62.6561C82.2269 63.1894 83.0056 63.8614 83.4963 64.6721C83.9869 65.4828 84.3069 66.6028 84.4563 68.0321C84.6269 69.6321 84.7123 71.6694 84.7123 74.1441C84.7123 74.8268 84.6163 75.2214 84.4243 75.3281C84.2536 75.4348 84.0936 75.4881 83.9443 75.4881C83.7523 75.4881 83.5709 75.4348 83.4003 75.3281C83.2509 75.2001 83.0803 75.0294 82.8883 74.8161C82.6963 74.5814 82.5256 74.4321 82.3763 74.3681ZM77.3203 73.9841C78.3229 73.6854 79.3043 73.2054 80.2643 72.5441C80.4776 72.3948 80.6696 72.2028 80.8403 71.9681C81.0109 71.7334 81.1176 71.5841 81.1603 71.5201C81.2029 71.4561 81.2349 71.2748 81.2563 70.9761C81.2989 70.6561 81.3096 70.4001 81.2883 70.2081C81.2669 70.1441 81.2243 69.9734 81.1603 69.6961C81.1176 69.4188 81.0429 69.1734 80.9363 68.9601C80.8296 68.7894 80.6589 68.6294 80.4243 68.4801C80.1896 68.3308 79.9763 68.2668 79.7843 68.2881C79.3789 68.3094 78.9416 68.4588 78.4723 68.7361C78.0029 69.0134 77.5656 69.3868 77.1603 69.8561C76.7549 70.3468 76.4349 70.8481 76.2003 71.3601C75.9869 71.8508 75.8803 72.3094 75.8803 72.7361C75.9229 73.3121 76.0829 73.6961 76.3603 73.8881C76.5096 73.9948 76.6909 74.0481 76.9043 74.0481C77.0749 74.0481 77.2136 74.0268 77.3203 73.9841ZM92.2463 63.9361C92.2463 64.0641 92.2249 64.2348 92.1823 64.4481C92.1396 64.6401 92.1289 64.7681 92.1503 64.8321C93.6223 64.5121 94.8703 64.3521 95.8943 64.3521C97.4943 64.3521 98.6996 65.1201 99.5103 66.6561C100.172 67.9574 100.502 69.3974 100.502 70.9761C100.502 71.3814 100.46 71.9681 100.374 72.7361C100.31 73.2481 100.108 73.6641 99.7663 73.9841C99.4249 74.2828 99.0196 74.4321 98.5503 74.4321C98.0596 74.4321 97.7076 74.3468 97.4943 74.1761C97.3023 73.9841 97.1849 73.7708 97.1423 73.5361C97.1209 73.3014 97.1103 72.9281 97.1103 72.4161L97.0783 71.7441C97.0356 70.4641 96.9503 69.3548 96.8223 68.4161C96.7583 68.0321 96.6089 67.7654 96.3743 67.6161C96.1609 67.4454 95.8729 67.3601 95.5103 67.3601C95.1689 67.3601 94.7636 67.4134 94.2943 67.5201C93.5689 67.7121 93.0783 67.8614 92.8223 67.9681C92.5876 68.0748 92.2356 68.2988 91.7663 68.6401C91.6169 68.7468 91.5103 68.9601 91.4463 69.2801C91.3823 69.6001 91.3503 69.7814 91.3503 69.8241C91.0729 71.1894 90.7743 72.8214 90.4543 74.7201C90.4329 74.8054 90.3903 75.0081 90.3263 75.3281C90.2623 75.6481 90.1343 75.8721 89.9423 76.0001C89.7716 76.1494 89.5156 76.2028 89.1743 76.1601C87.8303 75.9894 87.1476 75.4241 87.1263 74.4641C87.1049 73.2268 87.2009 71.7654 87.4143 70.0801C87.5636 68.8641 87.7023 67.8828 87.8303 67.1361C87.8729 66.7948 87.9263 66.3788 87.9903 65.8881C88.0756 65.3974 88.1503 64.8321 88.2143 64.1921C88.2783 63.7014 88.3423 63.3388 88.4063 63.1041C88.4703 62.8694 88.6196 62.6774 88.8543 62.5281C89.0889 62.3574 89.4516 62.2721 89.9423 62.2721C90.5609 62.2721 91.0729 62.4108 91.4783 62.6881C91.8836 62.9654 92.1396 63.3601 92.2463 63.8721V63.9361ZM114.828 72.2561C114.87 72.6188 115.03 73.0881 115.308 73.6641C115.35 73.7708 115.393 73.8881 115.436 74.0161C115.5 74.1441 115.564 74.2934 115.628 74.4641C114.902 74.8694 114.326 75.0721 113.9 75.0721C113.58 75.0721 113.281 74.9761 113.004 74.7841C112.726 74.5708 112.417 74.2401 112.076 73.7921C111.82 73.4934 111.606 73.3441 111.436 73.3441C111.265 73.3441 111.084 73.4828 110.892 73.7601C110.465 74.4001 109.932 74.8801 109.292 75.2001C108.673 75.5201 108.012 75.6801 107.308 75.6801C106.518 75.6801 105.75 75.4988 105.004 75.1361C104.278 74.7521 103.713 74.2401 103.308 73.6001C102.881 72.9388 102.668 71.9574 102.668 70.6561C102.668 69.7174 102.796 68.7681 103.052 67.8081C103.308 66.8481 103.67 66.0588 104.14 65.4401C104.652 64.7361 105.26 64.1814 105.964 63.7761C106.668 63.3494 107.446 63.1361 108.3 63.1361C108.577 63.1361 108.79 63.1468 108.94 63.1681C109.004 63.1894 109.1 63.2001 109.228 63.2001C109.718 63.2001 109.964 62.9654 109.964 62.4961L109.932 62.2401C109.633 59.7868 109.366 57.9841 109.132 56.8321C109.11 56.7254 109.078 56.5548 109.036 56.3201C108.993 56.0854 108.972 55.8934 108.972 55.7441C108.972 55.4454 109.036 55.1894 109.164 54.9761C109.292 54.7414 109.516 54.5494 109.836 54.4001C109.964 54.3361 110.113 54.3041 110.284 54.3041C110.732 54.3041 111.201 54.4534 111.692 54.7521C112.182 55.0294 112.47 55.3494 112.556 55.7121C112.876 57.0348 113.174 58.7521 113.452 60.8641L114.028 65.7281C114.369 68.6294 114.636 70.8054 114.828 72.2561ZM106.284 68.2561C105.921 69.3014 105.74 70.2614 105.74 71.1361C105.74 72.3521 106.166 73.2481 107.02 73.8241C107.361 73.6321 107.628 73.4188 107.82 73.1841C108.033 72.9281 108.278 72.5654 108.556 72.0961L108.908 71.4881C109.398 70.7841 109.718 69.9948 109.868 69.1201C110.038 68.2454 110.145 67.1361 110.188 65.7921C110.209 65.6001 110.166 65.3868 110.06 65.1521C109.974 64.8961 109.878 64.7574 109.772 64.7361C109.601 64.6934 109.313 64.7468 108.908 64.8961C108.502 65.0241 108.246 65.1628 108.14 65.3121C107.649 65.8881 107.254 66.3894 106.956 66.8161C106.678 67.2428 106.454 67.7228 106.284 68.2561ZM132.556 73.4401C131.916 74.1228 131.222 74.4641 130.476 74.4641C129.857 74.4641 129.206 74.2614 128.524 73.8561L128.428 76.7681C128.321 78.9014 128.268 80.7574 128.268 82.3361C128.268 82.6348 128.289 83.1041 128.332 83.7441C128.374 84.3841 128.396 84.8534 128.396 85.1521C128.396 85.4721 128.385 85.7068 128.364 85.8561C128.342 86.0481 128.214 86.2508 127.98 86.4641C127.745 86.6988 127.51 86.8481 127.276 86.9121C127.105 86.9548 126.988 86.9761 126.924 86.9761C126.433 86.9761 125.953 86.7628 125.484 86.3361C125.036 85.9094 124.822 85.4614 124.844 84.9921C124.886 83.3921 124.972 81.0774 125.1 78.0481L125.324 71.0721C125.366 69.7921 125.292 68.7148 125.1 67.8401C125.057 67.5841 125.036 67.4134 125.036 67.3281C125.036 66.9868 125.132 66.7201 125.324 66.5281C125.537 66.3361 125.814 66.2188 126.156 66.1761C126.689 66.1334 127.116 65.9948 127.436 65.7601C127.756 65.5041 128.129 65.1094 128.556 64.5761C129.324 63.6161 130.166 63.1361 131.084 63.1361C132.108 63.1361 133.27 63.7654 134.572 65.0241C135.169 65.6001 135.468 66.3788 135.468 67.3601C135.468 67.7228 135.436 68.0854 135.372 68.4481C135.222 69.3441 134.902 70.1761 134.412 70.9441C133.942 71.7121 133.324 72.5441 132.556 73.4401ZM129.58 68.0961C129.11 69.3761 128.876 70.5174 128.876 71.5201C128.876 71.7548 128.886 71.9254 128.908 72.0321L129.292 72.2241C129.718 72.0961 130.166 71.7228 130.636 71.1041C131.105 70.4854 131.489 69.7921 131.788 69.0241C132.108 68.2348 132.268 67.5414 132.268 66.9441C132.268 66.6881 132.214 66.4321 132.108 66.1761C131.958 65.8988 131.734 65.7601 131.436 65.7601C131.052 65.7601 130.774 65.8988 130.604 66.1761C130.54 66.2614 130.39 66.4961 130.156 66.8801C129.921 67.2641 129.729 67.6694 129.58 68.0961ZM141.89 62.4321C141.954 62.6454 141.965 62.9761 141.922 63.4241L141.538 67.2001C141.645 67.1148 141.805 66.8161 142.018 66.3041C142.232 65.7708 142.434 65.3441 142.626 65.0241C142.818 64.6828 142.968 64.4588 143.074 64.3521C144.077 63.3921 145.208 62.8161 146.466 62.6241C147.725 62.4321 149.112 62.3468 150.626 62.3681C150.776 62.3681 150.936 62.4321 151.106 62.5601C151.298 62.6668 151.394 62.7628 151.394 62.8481C151.394 62.9121 151.33 63.0294 151.202 63.2001C151.074 63.3494 150.957 63.4454 150.85 63.4881C149.57 63.9148 148.44 64.4054 147.458 64.9601C146.498 65.5148 145.666 66.2401 144.962 67.1361C143.298 69.2481 142.338 71.4241 142.082 73.6641C142.018 74.2614 141.837 74.6668 141.538 74.8801C141.24 75.0721 140.824 75.1681 140.29 75.1681C139.693 75.1681 139.16 74.9121 138.69 74.4001C138.221 73.8881 137.986 73.3228 137.986 72.7041C138.008 70.4428 138.018 67.0508 138.018 62.5281C138.018 61.9094 138.157 61.4828 138.434 61.2481C138.712 60.9921 139.213 60.8641 139.938 60.8641C140.472 60.8641 140.92 61.0134 141.282 61.3121C141.666 61.6108 141.869 61.9841 141.89 62.4321ZM156.563 71.0081C156.349 71.1361 156.04 71.2001 155.635 71.2001C155.485 71.2001 155.304 71.1894 155.091 71.1681C154.877 71.1468 154.696 71.1468 154.547 71.1681C154.717 71.8721 155.123 72.4481 155.763 72.8961C156.403 73.3228 157.117 73.5361 157.907 73.5361C158.589 73.5361 159.197 73.3868 159.731 73.0881C160.52 72.6828 161.203 72.2028 161.779 71.6481C162.184 71.2428 162.568 71.0401 162.931 71.0401C163.165 71.0401 163.368 71.1574 163.539 71.3921C163.709 71.6694 163.795 72.0108 163.795 72.4161C163.795 72.8428 163.709 73.1734 163.539 73.4081C162.984 74.2614 162.259 74.8481 161.363 75.1681C160.488 75.4881 159.464 75.6481 158.291 75.6481C157.075 75.6481 155.901 75.3814 154.771 74.8481C153.64 74.3148 152.669 73.5894 151.859 72.6721C151.069 71.7334 150.547 70.6988 150.291 69.5681C150.12 68.9068 150.035 68.2561 150.035 67.6161C150.035 66.6134 150.312 65.8028 150.867 65.1841C151.443 64.5654 152.36 63.9788 153.619 63.4241C154.771 62.9334 155.837 62.6881 156.819 62.6881C157.523 62.6881 158.205 62.7948 158.867 63.0081C160.915 63.6481 161.939 64.5228 161.939 65.6321C161.939 66.3361 161.523 67.1894 160.691 68.1921C160.285 68.6614 159.805 69.0774 159.251 69.4401C158.696 69.8028 158.152 70.1334 157.619 70.4321C157.107 70.7094 156.755 70.9014 156.563 71.0081ZM157.907 65.0881C157.885 64.9814 157.8 64.8961 157.651 64.8321C157.523 64.7468 157.448 64.6934 157.427 64.6721C156.851 64.6294 156.264 64.8001 155.667 65.1841C155.069 65.5468 154.568 66.0161 154.163 66.5921C153.779 67.1681 153.587 67.7228 153.587 68.2561L153.619 68.5121C153.64 68.5974 153.747 68.7041 153.939 68.8321C154.152 68.9601 154.28 69.0028 154.323 68.9601C155.837 67.8294 156.979 66.9228 157.747 66.2401C157.875 66.1121 157.939 65.8774 157.939 65.5361C157.939 65.3228 157.928 65.1734 157.907 65.0881ZM167.437 76.7041C165.645 76.7041 164.504 75.9361 164.013 74.4001C164.184 74.4001 164.408 74.4108 164.685 74.4321C164.984 74.4321 165.229 74.4534 165.421 74.4961C165.72 74.5388 165.933 74.5601 166.061 74.5601C167.021 74.5601 167.821 74.1334 168.461 73.2801C168.909 72.6614 169.133 72.0321 169.133 71.3921C169.133 70.9654 169.027 70.5494 168.813 70.1441C168.344 69.3121 167.768 68.3948 167.085 67.3921C166.637 66.7308 166.232 66.1014 165.869 65.5041C165.443 64.8214 165.229 64.0641 165.229 63.2321C165.229 62.4641 165.443 61.7921 165.869 61.2161C166.317 60.6188 166.968 60.2454 167.821 60.0961L168.845 59.9041C169.955 59.6908 170.787 59.5841 171.341 59.5841C172.259 59.5841 173.069 59.7974 173.773 60.2241C173.923 60.3308 174.072 60.5228 174.221 60.8001C174.392 61.0561 174.52 61.2588 174.605 61.4081C174.456 61.4721 174.243 61.5788 173.965 61.7281C173.709 61.8561 173.485 61.9308 173.293 61.9521C172.995 61.9948 172.547 62.0161 171.949 62.0161C171.373 62.0161 170.936 62.0268 170.637 62.0481C169.955 62.1121 169.411 62.3468 169.005 62.7521C168.621 63.1361 168.429 63.6054 168.429 64.1601C168.429 64.5868 168.557 65.0241 168.813 65.4721C169.389 66.4321 170.189 67.5308 171.213 68.7681C171.981 69.7281 172.365 70.7201 172.365 71.7441C172.365 72.2988 172.237 72.8854 171.981 73.5041C171.107 75.6374 169.592 76.7041 167.437 76.7041ZM175.916 76.7041C174.124 76.7041 172.983 75.9361 172.492 74.4001C172.663 74.4001 172.887 74.4108 173.164 74.4321C173.463 74.4321 173.708 74.4534 173.9 74.4961C174.199 74.5388 174.412 74.5601 174.54 74.5601C175.5 74.5601 176.3 74.1334 176.94 73.2801C177.388 72.6614 177.612 72.0321 177.612 71.3921C177.612 70.9654 177.506 70.5494 177.292 70.1441C176.823 69.3121 176.247 68.3948 175.564 67.3921C175.116 66.7308 174.711 66.1014 174.348 65.5041C173.922 64.8214 173.708 64.0641 173.708 63.2321C173.708 62.4641 173.922 61.7921 174.348 61.2161C174.796 60.6188 175.447 60.2454 176.3 60.0961L177.324 59.9041C178.434 59.6908 179.266 59.5841 179.82 59.5841C180.738 59.5841 181.548 59.7974 182.252 60.2241C182.402 60.3308 182.551 60.5228 182.7 60.8001C182.871 61.0561 182.999 61.2588 183.084 61.4081C182.935 61.4721 182.722 61.5788 182.444 61.7281C182.188 61.8561 181.964 61.9308 181.772 61.9521C181.474 61.9948 181.026 62.0161 180.428 62.0161C179.852 62.0161 179.415 62.0268 179.116 62.0481C178.434 62.1121 177.89 62.3468 177.484 62.7521C177.1 63.1361 176.908 63.6054 176.908 64.1601C176.908 64.5868 177.036 65.0241 177.292 65.4721C177.868 66.4321 178.668 67.5308 179.692 68.7681C180.46 69.7281 180.844 70.7201 180.844 71.7441C180.844 72.2988 180.716 72.8854 180.46 73.5041C179.586 75.6374 178.071 76.7041 175.916 76.7041ZM198.539 64.0961C198.539 64.1814 198.55 64.2774 198.571 64.3841C198.593 64.4694 198.614 64.5548 198.635 64.6401C198.806 64.6614 199.062 64.6721 199.403 64.6721C200.897 64.6721 202.433 64.3521 204.011 63.7121C204.459 63.5414 204.833 63.4561 205.131 63.4561C205.729 63.4561 206.219 63.7334 206.603 64.2881C206.795 64.5868 206.891 64.8428 206.891 65.0561C206.891 65.3121 206.753 65.5788 206.475 65.8561C205.622 66.6454 204.715 67.0934 203.755 67.2001C202.902 67.3068 201.622 67.4881 199.915 67.7441L197.675 68.0641C197.334 68.8108 197.163 69.5361 197.163 70.2401C197.163 71.2641 197.515 72.1174 198.219 72.8001C198.945 73.4614 199.926 73.8134 201.163 73.8561C202.422 73.8774 204.033 73.7921 205.995 73.6001L206.475 73.5681C207.009 73.5681 207.446 73.6961 207.787 73.9521C208.15 74.1868 208.491 74.6134 208.811 75.2321C208.577 75.7441 208.246 76.0854 207.819 76.2561C207.393 76.4481 206.838 76.5868 206.155 76.6721C205.451 76.7574 204.651 76.8001 203.755 76.8001C201.814 76.8001 200.065 76.4908 198.507 75.8721C195.755 74.8054 193.995 72.9601 193.227 70.3361C193.121 69.9734 193.067 69.5894 193.067 69.1841C193.067 68.7574 193.067 68.5014 193.067 68.4161C193.067 67.6908 192.715 67.1574 192.011 66.8161C191.435 66.4961 190.987 66.1868 190.667 65.8881C190.369 65.5894 190.177 65.1414 190.091 64.5441L193.707 64.3201L195.339 59.6161C195.382 59.4668 195.425 59.2854 195.467 59.0721C195.531 58.8374 195.595 58.6561 195.659 58.5281C195.851 58.1014 195.947 57.7494 195.947 57.4721C195.947 57.0454 195.745 56.6721 195.339 56.3521C195.19 56.2454 195.062 56.0534 194.955 55.7761C194.87 55.4774 194.785 55.2428 194.699 55.0721L195.403 54.8481C195.745 54.7628 195.99 54.6881 196.139 54.6241C196.225 54.5814 196.406 54.5068 196.683 54.4001C196.961 54.2721 197.121 54.1334 197.163 53.9841C197.313 53.6214 197.494 53.3761 197.707 53.2481C197.942 53.1201 198.219 53.0561 198.539 53.0561C198.753 53.0561 199.073 53.0774 199.499 53.1201C199.627 53.1201 199.755 53.1521 199.883 53.2161C200.033 53.2588 200.15 53.3228 200.235 53.4081C200.726 53.9201 201.27 54.2614 201.867 54.4321C202.465 54.6028 203.169 54.6881 203.979 54.6881H205.355H208.043C209.857 54.6881 211.211 54.7094 212.107 54.7521C212.577 54.7734 213.174 54.9761 213.899 55.3601C214.027 55.4241 214.123 55.5521 214.187 55.7441C214.273 55.9148 214.315 56.0854 214.315 56.2561C214.315 56.3414 214.241 56.4481 214.091 56.5761C213.942 56.6828 213.803 56.7574 213.675 56.8001C212.225 57.1841 211.126 57.4081 210.379 57.4721C209.227 57.5788 207.499 57.7174 205.195 57.8881C204.662 57.9094 203.809 57.9628 202.635 58.0481C202.55 58.0481 202.401 58.0268 202.187 57.9841C201.974 57.9201 201.814 57.8881 201.707 57.8881C200.918 57.8881 200.417 58.2188 200.203 58.8801C199.627 60.5868 199.083 62.2828 198.571 63.9681L198.539 64.0961ZM219.253 63.9361C219.253 64.0641 219.231 64.2348 219.189 64.4481C219.146 64.6401 219.135 64.7681 219.157 64.8321C220.629 64.5121 221.877 64.3521 222.901 64.3521C224.501 64.3521 225.706 65.1201 226.517 66.6561C227.178 67.9574 227.509 69.3974 227.509 70.9761C227.509 71.3814 227.466 71.9681 227.381 72.7361C227.317 73.2481 227.114 73.6641 226.773 73.9841C226.431 74.2828 226.026 74.4321 225.557 74.4321C225.066 74.4321 224.714 74.3468 224.501 74.1761C224.309 73.9841 224.191 73.7708 224.149 73.5361C224.127 73.3014 224.117 72.9281 224.117 72.4161L224.085 71.7441C224.042 70.4641 223.957 69.3548 223.829 68.4161C223.765 68.0321 223.615 67.7654 223.381 67.6161C223.167 67.4454 222.879 67.3601 222.517 67.3601C222.175 67.3601 221.77 67.4134 221.301 67.5201C220.575 67.7121 220.085 67.8614 219.829 67.9681C219.594 68.0748 219.242 68.2988 218.773 68.6401C218.623 68.7468 218.517 68.9601 218.453 69.2801C218.389 69.6001 218.357 69.7814 218.357 69.8241C218.079 71.1894 217.781 72.8214 217.461 74.7201C217.439 74.8054 217.397 75.0081 217.333 75.3281C217.269 75.6481 217.141 75.8721 216.949 76.0001C216.778 76.1494 216.522 76.2028 216.181 76.1601C214.837 75.9894 214.154 75.4241 214.133 74.4641C214.111 73.2268 214.207 71.7654 214.421 70.0801C214.57 68.8641 214.709 67.8828 214.837 67.1361C214.879 66.7948 214.933 66.3788 214.997 65.8881C215.082 65.3974 215.157 64.8321 215.221 64.1921C215.285 63.7014 215.349 63.3388 215.413 63.1041C215.477 62.8694 215.626 62.6774 215.861 62.5281C216.095 62.3574 216.458 62.2721 216.949 62.2721C217.567 62.2721 218.079 62.4108 218.485 62.6881C218.89 62.9654 219.146 63.3601 219.253 63.8721V63.9361ZM227.88 64.0641C227.731 63.8934 227.624 63.7121 227.56 63.5201C227.518 63.3281 227.475 63.0614 227.432 62.7201C227.624 62.2721 227.976 62.0481 228.488 62.0481C228.744 62.0908 228.926 62.1121 229.032 62.1121C229.459 62.1121 229.726 61.9841 229.832 61.7281C229.939 61.4721 229.992 61.1734 229.992 60.8321C229.992 60.4908 229.992 60.2241 229.992 60.0321L230.088 58.1121C230.11 57.6854 230.131 57.1628 230.152 56.5441C230.195 55.9041 230.238 55.1681 230.28 54.3361C230.302 53.8881 230.408 53.5574 230.6 53.3441C230.814 53.1308 231.102 53.0241 231.464 53.0241C231.72 53.0241 231.923 53.0454 232.072 53.0881C232.947 53.2801 233.534 53.5574 233.832 53.9201C234.131 54.2828 234.334 54.8268 234.44 55.5521C234.462 55.7014 234.44 56.0108 234.376 56.4801L233.8 61.4721C233.779 61.6001 233.747 61.7601 233.704 61.9521C233.662 62.1228 233.64 62.2508 233.64 62.3361C233.64 62.5281 233.747 62.6561 233.96 62.7201C234.174 62.7841 234.568 62.8054 235.144 62.7841C236.126 62.5708 236.872 62.4321 237.384 62.3681C237.491 62.3468 237.662 62.3361 237.896 62.3361C238.152 62.3361 238.323 62.3681 238.408 62.4321C238.494 62.4748 238.558 62.6028 238.6 62.8161C238.664 63.0081 238.696 63.2321 238.696 63.4881C238.696 63.7228 238.664 63.9361 238.6 64.1281C238.558 64.3201 238.494 64.4268 238.408 64.4481C237.832 64.6188 237.15 64.7574 236.36 64.8641C235.422 65.0348 234.728 65.1841 234.28 65.3121C234.046 65.3761 233.811 65.5361 233.576 65.7921C233.342 66.0481 233.214 66.2828 233.192 66.4961C233.15 67.5414 233.118 68.6081 233.096 69.6961C233.075 70.5281 233.107 71.3601 233.192 72.1921C233.256 72.8961 233.395 73.4081 233.608 73.7281C233.822 74.0268 234.142 74.1761 234.568 74.1761C234.91 74.1761 235.4 74.0588 236.04 73.8241C236.382 73.6748 236.68 73.6001 236.936 73.6001C237.342 73.6001 237.63 73.8241 237.8 74.2721C237.864 74.4214 237.896 74.5708 237.896 74.7201C237.896 74.9974 237.79 75.2214 237.576 75.3921C237.384 75.5628 237.118 75.7121 236.776 75.8401C236.136 76.0748 235.486 76.2028 234.824 76.2241C233.928 76.2241 233.086 76.0108 232.296 75.5841C231.507 75.1361 230.878 74.5174 230.408 73.7281C229.96 72.9388 229.768 72.0321 229.832 71.0081C229.854 70.6028 229.864 69.9628 229.864 69.0881C229.864 67.7014 229.811 66.2934 229.704 64.8641C229.683 64.7361 229.608 64.6508 229.48 64.6081C229.352 64.5441 229.139 64.4801 228.84 64.4161C228.35 64.3308 228.03 64.2134 227.88 64.0641ZM245.414 71.0081C245.201 71.1361 244.891 71.2001 244.486 71.2001C244.337 71.2001 244.155 71.1894 243.942 71.1681C243.729 71.1468 243.547 71.1468 243.398 71.1681C243.569 71.8721 243.974 72.4481 244.614 72.8961C245.254 73.3228 245.969 73.5361 246.758 73.5361C247.441 73.5361 248.049 73.3868 248.582 73.0881C249.371 72.6828 250.054 72.2028 250.63 71.6481C251.035 71.2428 251.419 71.0401 251.782 71.0401C252.017 71.0401 252.219 71.1574 252.39 71.3921C252.561 71.6694 252.646 72.0108 252.646 72.4161C252.646 72.8428 252.561 73.1734 252.39 73.4081C251.835 74.2614 251.11 74.8481 250.214 75.1681C249.339 75.4881 248.315 75.6481 247.142 75.6481C245.926 75.6481 244.753 75.3814 243.622 74.8481C242.491 74.3148 241.521 73.5894 240.71 72.6721C239.921 71.7334 239.398 70.6988 239.142 69.5681C238.971 68.9068 238.886 68.2561 238.886 67.6161C238.886 66.6134 239.163 65.8028 239.718 65.1841C240.294 64.5654 241.211 63.9788 242.47 63.4241C243.622 62.9334 244.689 62.6881 245.67 62.6881C246.374 62.6881 247.057 62.7948 247.718 63.0081C249.766 63.6481 250.79 64.5228 250.79 65.6321C250.79 66.3361 250.374 67.1894 249.542 68.1921C249.137 68.6614 248.657 69.0774 248.102 69.4401C247.547 69.8028 247.003 70.1334 246.47 70.4321C245.958 70.7094 245.606 70.9014 245.414 71.0081ZM246.758 65.0881C246.737 64.9814 246.651 64.8961 246.502 64.8321C246.374 64.7468 246.299 64.6934 246.278 64.6721C245.702 64.6294 245.115 64.8001 244.518 65.1841C243.921 65.5468 243.419 66.0161 243.014 66.5921C242.63 67.1681 242.438 67.7228 242.438 68.2561L242.47 68.5121C242.491 68.5974 242.598 68.7041 242.79 68.8321C243.003 68.9601 243.131 69.0028 243.174 68.9601C244.689 67.8294 245.83 66.9228 246.598 66.2401C246.726 66.1121 246.79 65.8774 246.79 65.5361C246.79 65.3228 246.779 65.1734 246.758 65.0881ZM257.73 62.4321C257.794 62.6454 257.805 62.9761 257.762 63.4241L257.378 67.2001C257.485 67.1148 257.645 66.8161 257.858 66.3041C258.072 65.7708 258.274 65.3441 258.466 65.0241C258.658 64.6828 258.808 64.4588 258.914 64.3521C259.917 63.3921 261.048 62.8161 262.306 62.6241C263.565 62.4321 264.952 62.3468 266.466 62.3681C266.616 62.3681 266.776 62.4321 266.946 62.5601C267.138 62.6668 267.234 62.7628 267.234 62.8481C267.234 62.9121 267.17 63.0294 267.042 63.2001C266.914 63.3494 266.797 63.4454 266.69 63.4881C265.41 63.9148 264.28 64.4054 263.298 64.9601C262.338 65.5148 261.506 66.2401 260.802 67.1361C259.138 69.2481 258.178 71.4241 257.922 73.6641C257.858 74.2614 257.677 74.6668 257.378 74.8801C257.08 75.0721 256.664 75.1681 256.13 75.1681C255.533 75.1681 255 74.9121 254.53 74.4001C254.061 73.8881 253.826 73.3228 253.826 72.7041C253.848 70.4428 253.858 67.0508 253.858 62.5281C253.858 61.9094 253.997 61.4828 254.274 61.2481C254.552 60.9921 255.053 60.8641 255.778 60.8641C256.312 60.8641 256.76 61.0134 257.122 61.3121C257.506 61.6108 257.709 61.9841 257.73 62.4321ZM274.046 64.0641C273.896 63.8934 273.79 63.7121 273.726 63.5201C273.683 63.3281 273.64 63.0614 273.598 62.7201C273.79 62.2721 274.142 62.0481 274.654 62.0481C274.91 62.0908 275.091 62.1121 275.198 62.1121C275.624 62.1121 275.891 61.9841 275.998 61.7281C276.104 61.4721 276.158 61.1734 276.158 60.8321C276.158 60.4908 276.158 60.2241 276.158 60.0321L276.254 58.1121C276.275 57.6854 276.296 57.1628 276.318 56.5441C276.36 55.9041 276.403 55.1681 276.446 54.3361C276.467 53.8881 276.574 53.5574 276.766 53.3441C276.979 53.1308 277.267 53.0241 277.63 53.0241C277.886 53.0241 278.088 53.0454 278.238 53.0881C279.112 53.2801 279.699 53.5574 279.998 53.9201C280.296 54.2828 280.499 54.8268 280.606 55.5521C280.627 55.7014 280.606 56.0108 280.542 56.4801L279.966 61.4721C279.944 61.6001 279.912 61.7601 279.87 61.9521C279.827 62.1228 279.806 62.2508 279.806 62.3361C279.806 62.5281 279.912 62.6561 280.126 62.7201C280.339 62.7841 280.734 62.8054 281.31 62.7841C282.291 62.5708 283.038 62.4321 283.55 62.3681C283.656 62.3468 283.827 62.3361 284.062 62.3361C284.318 62.3361 284.488 62.3681 284.574 62.4321C284.659 62.4748 284.723 62.6028 284.766 62.8161C284.83 63.0081 284.862 63.2321 284.862 63.4881C284.862 63.7228 284.83 63.9361 284.766 64.1281C284.723 64.3201 284.659 64.4268 284.574 64.4481C283.998 64.6188 283.315 64.7574 282.526 64.8641C281.587 65.0348 280.894 65.1841 280.446 65.3121C280.211 65.3761 279.976 65.5361 279.742 65.7921C279.507 66.0481 279.379 66.2828 279.358 66.4961C279.315 67.5414 279.283 68.6081 279.262 69.6961C279.24 70.5281 279.272 71.3601 279.358 72.1921C279.422 72.8961 279.56 73.4081 279.774 73.7281C279.987 74.0268 280.307 74.1761 280.734 74.1761C281.075 74.1761 281.566 74.0588 282.206 73.8241C282.547 73.6748 282.846 73.6001 283.102 73.6001C283.507 73.6001 283.795 73.8241 283.966 74.2721C284.03 74.4214 284.062 74.5708 284.062 74.7201C284.062 74.9974 283.955 75.2214 283.742 75.3921C283.55 75.5628 283.283 75.7121 282.942 75.8401C282.302 76.0748 281.651 76.2028 280.99 76.2241C280.094 76.2241 279.251 76.0108 278.462 75.5841C277.672 75.1361 277.043 74.5174 276.574 73.7281C276.126 72.9388 275.934 72.0321 275.998 71.0081C276.019 70.6028 276.03 69.9628 276.03 69.0881C276.03 67.7014 275.976 66.2934 275.87 64.8641C275.848 64.7361 275.774 64.6508 275.646 64.6081C275.518 64.5441 275.304 64.4801 275.006 64.4161C274.515 64.3308 274.195 64.2134 274.046 64.0641ZM293.388 73.8561C292.727 74.2614 291.969 74.4641 291.116 74.4641C290.177 74.4641 289.271 74.2294 288.396 73.7601C287.543 73.2694 286.86 72.5761 286.348 71.6801C285.836 70.7841 285.623 69.7601 285.708 68.6081L285.868 67.8401C285.996 67.0721 286.103 66.5068 286.188 66.1441C286.38 65.3548 286.764 64.8001 287.34 64.4801C287.916 64.1601 288.684 63.9041 289.644 63.7121C290.263 63.5841 290.871 63.5201 291.468 63.5201C293.345 63.5201 294.924 64.1494 296.204 65.4081C296.887 66.0908 297.228 66.9228 297.228 67.9041C297.228 68.8641 296.876 69.8988 296.172 71.0081C295.361 72.2668 294.433 73.2161 293.388 73.8561ZM290.7 65.1521C290.359 65.9841 289.996 67.0188 289.612 68.2561L289.292 69.2161L289.516 69.3121C289.516 69.4614 289.516 69.6961 289.516 70.0161C289.537 70.3148 289.58 70.5708 289.644 70.7841C289.879 71.4454 290.145 71.8508 290.444 72.0001C290.572 72.0641 290.753 72.0321 290.988 71.9041C291.244 71.7761 291.468 71.6268 291.66 71.4561C291.959 71.2001 292.439 70.6668 293.1 69.8561C293.591 69.3014 293.836 68.6401 293.836 67.8721C293.836 67.2108 293.644 66.6134 293.26 66.0801C292.897 65.5468 292.385 65.1841 291.724 64.9921C291.66 64.9708 291.543 64.9601 291.372 64.9601C290.967 64.9601 290.743 65.0241 290.7 65.1521ZM308.464 76.7041C306.672 76.7041 305.53 75.9361 305.04 74.4001C305.21 74.4001 305.434 74.4108 305.712 74.4321C306.01 74.4321 306.256 74.4534 306.448 74.4961C306.746 74.5388 306.96 74.5601 307.088 74.5601C308.048 74.5601 308.848 74.1334 309.488 73.2801C309.936 72.6614 310.16 72.0321 310.16 71.3921C310.16 70.9654 310.053 70.5494 309.84 70.1441C309.37 69.3121 308.794 68.3948 308.112 67.3921C307.664 66.7308 307.258 66.1014 306.896 65.5041C306.469 64.8214 306.256 64.0641 306.256 63.2321C306.256 62.4641 306.469 61.7921 306.896 61.2161C307.344 60.6188 307.994 60.2454 308.848 60.0961L309.872 59.9041C310.981 59.6908 311.813 59.5841 312.368 59.5841C313.285 59.5841 314.096 59.7974 314.8 60.2241C314.949 60.3308 315.098 60.5228 315.248 60.8001C315.418 61.0561 315.546 61.2588 315.632 61.4081C315.482 61.4721 315.269 61.5788 314.992 61.7281C314.736 61.8561 314.512 61.9308 314.32 61.9521C314.021 61.9948 313.573 62.0161 312.976 62.0161C312.4 62.0161 311.962 62.0268 311.664 62.0481C310.981 62.1121 310.437 62.3468 310.032 62.7521C309.648 63.1361 309.456 63.6054 309.456 64.1601C309.456 64.5868 309.584 65.0241 309.84 65.4721C310.416 66.4321 311.216 67.5308 312.24 68.7681C313.008 69.7281 313.392 70.7201 313.392 71.7441C313.392 72.2988 313.264 72.8854 313.008 73.5041C312.133 75.6374 310.618 76.7041 308.464 76.7041ZM319.245 58.9121C319.266 60.9814 319.319 62.6881 319.405 64.0321C319.511 65.3548 319.746 66.7628 320.109 68.2561C321.005 67.9361 321.826 67.7761 322.573 67.7761C323.831 67.7761 324.919 68.1494 325.837 68.8961C326.754 69.6428 327.373 70.5708 327.693 71.6801C327.949 72.4908 328.077 73.5788 328.077 74.9441L328.045 77.4401C328.045 77.5894 327.959 77.7601 327.789 77.9521C327.618 78.1441 327.447 78.2614 327.277 78.3041C327.213 78.3254 327.117 78.3361 326.989 78.3361C326.498 78.3361 325.986 78.0908 325.453 77.6001C324.919 77.1308 324.642 76.6614 324.621 76.1921L324.557 74.5281C324.557 74.1441 324.535 73.5894 324.493 72.8641C324.45 72.1174 324.365 71.5841 324.237 71.2641C324.109 70.9014 323.949 70.6241 323.757 70.4321C323.565 70.2401 323.351 70.1441 323.117 70.1441C322.946 70.1441 322.754 70.2188 322.541 70.3681C322.349 70.5174 322.178 70.7201 322.029 70.9761C321.581 71.6801 320.994 73.0668 320.269 75.1361C320.034 75.8828 319.618 76.2561 319.021 76.2561C318.957 76.2561 318.818 76.2348 318.605 76.1921C318.477 76.1494 318.231 76.0854 317.869 76.0001C317.506 75.8934 317.218 75.7334 317.005 75.5201C316.813 75.3068 316.717 74.9974 316.717 74.5921C316.717 70.5601 316.471 67.2214 315.981 64.5761C315.746 63.2534 315.629 61.7281 315.629 60.0001V57.8561V56.7361C315.629 56.4374 315.789 56.1814 316.109 55.9681C316.429 55.7548 316.791 55.6481 317.197 55.6481C317.538 55.6481 317.826 55.7228 318.061 55.8721C318.487 56.1281 318.786 56.4481 318.957 56.8321C319.149 57.2161 319.245 57.6961 319.245 58.2721V58.9121ZM337.272 73.8561C336.61 74.2614 335.853 74.4641 335 74.4641C334.061 74.4641 333.154 74.2294 332.28 73.7601C331.426 73.2694 330.744 72.5761 330.232 71.6801C329.72 70.7841 329.506 69.7601 329.592 68.6081L329.752 67.8401C329.88 67.0721 329.986 66.5068 330.072 66.1441C330.264 65.3548 330.648 64.8001 331.224 64.4801C331.8 64.1601 332.568 63.9041 333.528 63.7121C334.146 63.5841 334.754 63.5201 335.352 63.5201C337.229 63.5201 338.808 64.1494 340.088 65.4081C340.77 66.0908 341.112 66.9228 341.112 67.9041C341.112 68.8641 340.76 69.8988 340.056 71.0081C339.245 72.2668 338.317 73.2161 337.272 73.8561ZM334.584 65.1521C334.242 65.9841 333.88 67.0188 333.496 68.2561L333.176 69.2161L333.4 69.3121C333.4 69.4614 333.4 69.6961 333.4 70.0161C333.421 70.3148 333.464 70.5708 333.528 70.7841C333.762 71.4454 334.029 71.8508 334.328 72.0001C334.456 72.0641 334.637 72.0321 334.872 71.9041C335.128 71.7761 335.352 71.6268 335.544 71.4561C335.842 71.2001 336.322 70.6668 336.984 69.8561C337.474 69.3014 337.72 68.6401 337.72 67.8721C337.72 67.2108 337.528 66.6134 337.144 66.0801C336.781 65.5468 336.269 65.1841 335.608 64.9921C335.544 64.9708 335.426 64.9601 335.256 64.9601C334.85 64.9601 334.626 65.0241 334.584 65.1521ZM346.842 62.4321C346.906 62.6454 346.916 62.9761 346.874 63.4241L346.49 67.2001C346.596 67.1148 346.756 66.8161 346.97 66.3041C347.183 65.7708 347.386 65.3441 347.578 65.0241C347.77 64.6828 347.919 64.4588 348.026 64.3521C349.028 63.3921 350.159 62.8161 351.418 62.6241C352.676 62.4321 354.063 62.3468 355.578 62.3681C355.727 62.3681 355.887 62.4321 356.058 62.5601C356.25 62.6668 356.346 62.7628 356.346 62.8481C356.346 62.9121 356.282 63.0294 356.154 63.2001C356.026 63.3494 355.908 63.4454 355.802 63.4881C354.522 63.9148 353.391 64.4054 352.41 64.9601C351.45 65.5148 350.618 66.2401 349.914 67.1361C348.25 69.2481 347.29 71.4241 347.034 73.6641C346.97 74.2614 346.788 74.6668 346.49 74.8801C346.191 75.0721 345.775 75.1681 345.242 75.1681C344.644 75.1681 344.111 74.9121 343.642 74.4001C343.172 73.8881 342.938 73.3228 342.938 72.7041C342.959 70.4428 342.97 67.0508 342.97 62.5281C342.97 61.9094 343.108 61.4828 343.386 61.2481C343.663 60.9921 344.164 60.8641 344.89 60.8641C345.423 60.8641 345.871 61.0134 346.234 61.3121C346.618 61.6108 346.82 61.9841 346.842 62.4321ZM356.147 64.0641C355.997 63.8934 355.891 63.7121 355.827 63.5201C355.784 63.3281 355.741 63.0614 355.699 62.7201C355.891 62.2721 356.243 62.0481 356.755 62.0481C357.011 62.0908 357.192 62.1121 357.299 62.1121C357.725 62.1121 357.992 61.9841 358.099 61.7281C358.205 61.4721 358.259 61.1734 358.259 60.8321C358.259 60.4908 358.259 60.2241 358.259 60.0321L358.355 58.1121C358.376 57.6854 358.397 57.1628 358.419 56.5441C358.461 55.9041 358.504 55.1681 358.547 54.3361C358.568 53.8881 358.675 53.5574 358.867 53.3441C359.08 53.1308 359.368 53.0241 359.731 53.0241C359.987 53.0241 360.189 53.0454 360.339 53.0881C361.213 53.2801 361.8 53.5574 362.099 53.9201C362.397 54.2828 362.6 54.8268 362.707 55.5521C362.728 55.7014 362.707 56.0108 362.643 56.4801L362.067 61.4721C362.045 61.6001 362.013 61.7601 361.971 61.9521C361.928 62.1228 361.907 62.2508 361.907 62.3361C361.907 62.5281 362.013 62.6561 362.227 62.7201C362.44 62.7841 362.835 62.8054 363.411 62.7841C364.392 62.5708 365.139 62.4321 365.651 62.3681C365.757 62.3468 365.928 62.3361 366.163 62.3361C366.419 62.3361 366.589 62.3681 366.675 62.4321C366.76 62.4748 366.824 62.6028 366.867 62.8161C366.931 63.0081 366.963 63.2321 366.963 63.4881C366.963 63.7228 366.931 63.9361 366.867 64.1281C366.824 64.3201 366.76 64.4268 366.675 64.4481C366.099 64.6188 365.416 64.7574 364.627 64.8641C363.688 65.0348 362.995 65.1841 362.547 65.3121C362.312 65.3761 362.077 65.5361 361.843 65.7921C361.608 66.0481 361.48 66.2828 361.459 66.4961C361.416 67.5414 361.384 68.6081 361.363 69.6961C361.341 70.5281 361.373 71.3601 361.459 72.1921C361.523 72.8961 361.661 73.4081 361.875 73.7281C362.088 74.0268 362.408 74.1761 362.835 74.1761C363.176 74.1761 363.667 74.0588 364.307 73.8241C364.648 73.6748 364.947 73.6001 365.203 73.6001C365.608 73.6001 365.896 73.8241 366.067 74.2721C366.131 74.4214 366.163 74.5708 366.163 74.7201C366.163 74.9974 366.056 75.2214 365.843 75.3921C365.651 75.5628 365.384 75.7121 365.043 75.8401C364.403 76.0748 363.752 76.2028 363.091 76.2241C362.195 76.2241 361.352 76.0108 360.563 75.5841C359.773 75.1361 359.144 74.5174 358.675 73.7281C358.227 72.9388 358.035 72.0321 358.099 71.0081C358.12 70.6028 358.131 69.9628 358.131 69.0881C358.131 67.7014 358.077 66.2934 357.971 64.8641C357.949 64.7361 357.875 64.6508 357.747 64.6081C357.619 64.5441 357.405 64.4801 357.107 64.4161C356.616 64.3308 356.296 64.2134 356.147 64.0641ZM373.68 71.0081C373.467 71.1361 373.158 71.2001 372.752 71.2001C372.603 71.2001 372.422 71.1894 372.208 71.1681C371.995 71.1468 371.814 71.1468 371.664 71.1681C371.835 71.8721 372.24 72.4481 372.88 72.8961C373.52 73.3228 374.235 73.5361 375.024 73.5361C375.707 73.5361 376.315 73.3868 376.848 73.0881C377.638 72.6828 378.32 72.2028 378.896 71.6481C379.302 71.2428 379.686 71.0401 380.048 71.0401C380.283 71.0401 380.486 71.1574 380.656 71.3921C380.827 71.6694 380.912 72.0108 380.912 72.4161C380.912 72.8428 380.827 73.1734 380.656 73.4081C380.102 74.2614 379.376 74.8481 378.48 75.1681C377.606 75.4881 376.582 75.6481 375.408 75.6481C374.192 75.6481 373.019 75.3814 371.888 74.8481C370.758 74.3148 369.787 73.5894 368.976 72.6721C368.187 71.7334 367.664 70.6988 367.408 69.5681C367.238 68.9068 367.152 68.2561 367.152 67.6161C367.152 66.6134 367.43 65.8028 367.984 65.1841C368.56 64.5654 369.478 63.9788 370.736 63.4241C371.888 62.9334 372.955 62.6881 373.936 62.6881C374.64 62.6881 375.323 62.7948 375.984 63.0081C378.032 63.6481 379.056 64.5228 379.056 65.6321C379.056 66.3361 378.64 67.1894 377.808 68.1921C377.403 68.6614 376.923 69.0774 376.368 69.4401C375.814 69.8028 375.27 70.1334 374.736 70.4321C374.224 70.7094 373.872 70.9014 373.68 71.0081ZM375.024 65.0881C375.003 64.9814 374.918 64.8961 374.768 64.8321C374.64 64.7468 374.566 64.6934 374.544 64.6721C373.968 64.6294 373.382 64.8001 372.784 65.1841C372.187 65.5468 371.686 66.0161 371.28 66.5921C370.896 67.1681 370.704 67.7228 370.704 68.2561L370.736 68.5121C370.758 68.5974 370.864 68.7041 371.056 68.8321C371.27 68.9601 371.398 69.0028 371.44 68.9601C372.955 67.8294 374.096 66.9228 374.864 66.2401C374.992 66.1121 375.056 65.8774 375.056 65.5361C375.056 65.3228 375.046 65.1734 375.024 65.0881ZM386.955 63.9361C386.955 64.0641 386.934 64.2348 386.891 64.4481C386.848 64.6401 386.838 64.7681 386.859 64.8321C388.331 64.5121 389.579 64.3521 390.603 64.3521C392.203 64.3521 393.408 65.1201 394.219 66.6561C394.88 67.9574 395.211 69.3974 395.211 70.9761C395.211 71.3814 395.168 71.9681 395.083 72.7361C395.019 73.2481 394.816 73.6641 394.475 73.9841C394.134 74.2828 393.728 74.4321 393.259 74.4321C392.768 74.4321 392.416 74.3468 392.203 74.1761C392.011 73.9841 391.894 73.7708 391.851 73.5361C391.83 73.3014 391.819 72.9281 391.819 72.4161L391.787 71.7441C391.744 70.4641 391.659 69.3548 391.531 68.4161C391.467 68.0321 391.318 67.7654 391.083 67.6161C390.87 67.4454 390.582 67.3601 390.219 67.3601C389.878 67.3601 389.472 67.4134 389.003 67.5201C388.278 67.7121 387.787 67.8614 387.531 67.9681C387.296 68.0748 386.944 68.2988 386.475 68.6401C386.326 68.7468 386.219 68.9601 386.155 69.2801C386.091 69.6001 386.059 69.7814 386.059 69.8241C385.782 71.1894 385.483 72.8214 385.163 74.7201C385.142 74.8054 385.099 75.0081 385.035 75.3281C384.971 75.6481 384.843 75.8721 384.651 76.0001C384.48 76.1494 384.224 76.2028 383.883 76.1601C382.539 75.9894 381.856 75.4241 381.835 74.4641C381.814 73.2268 381.91 71.7654 382.123 70.0801C382.272 68.8641 382.411 67.8828 382.539 67.1361C382.582 66.7948 382.635 66.3788 382.699 65.8881C382.784 65.3974 382.859 64.8321 382.923 64.1921C382.987 63.7014 383.051 63.3388 383.115 63.1041C383.179 62.8694 383.328 62.6774 383.563 62.5281C383.798 62.3574 384.16 62.2721 384.651 62.2721C385.27 62.2721 385.782 62.4108 386.187 62.6881C386.592 62.9654 386.848 63.3601 386.955 63.8721V63.9361ZM407.394 61.0881C407.352 61.2161 407.192 61.3548 406.914 61.5041C406.658 61.6534 406.445 61.7921 406.274 61.9201L405.378 61.4401C404.504 60.9708 403.906 60.5974 403.586 60.3201C403.416 60.1921 403.33 60.0321 403.33 59.8401C403.33 59.7121 403.373 59.6054 403.458 59.5201C403.565 59.4134 403.714 59.3601 403.906 59.3601C404.738 59.3601 405.752 59.5734 406.946 60.0001C407.074 60.0214 407.192 60.1708 407.298 60.4481C407.405 60.7041 407.437 60.9174 407.394 61.0881ZM404.514 67.0401C404.578 66.7628 404.621 66.5601 404.642 66.4321C404.664 66.3041 404.674 66.1654 404.674 66.0161C404.674 65.7174 404.76 65.4828 404.93 65.3121C405.122 65.1414 405.474 65.0561 405.986 65.0561C406.584 65.0561 407.106 65.2481 407.554 65.6321C408.024 65.9948 408.312 66.4748 408.418 67.0721C408.482 67.3708 408.525 67.7014 408.546 68.0641C408.568 68.4268 408.578 68.6614 408.578 68.7681L409.026 74.2401C409.09 74.8161 409.005 75.2641 408.77 75.5841C408.557 75.8828 408.141 76.0321 407.522 76.0321C406.989 76.0321 406.53 75.8828 406.146 75.5841C405.784 75.2854 405.56 74.9014 405.474 74.4321L404.642 67.6481L404.514 67.0401ZM410.259 64.0641C410.11 63.8934 410.003 63.7121 409.939 63.5201C409.897 63.3281 409.854 63.0614 409.811 62.7201C410.003 62.2721 410.355 62.0481 410.867 62.0481C411.123 62.0908 411.305 62.1121 411.411 62.1121C411.838 62.1121 412.105 61.9841 412.211 61.7281C412.318 61.4721 412.371 61.1734 412.371 60.8321C412.371 60.4908 412.371 60.2241 412.371 60.0321L412.467 58.1121C412.489 57.6854 412.51 57.1628 412.531 56.5441C412.574 55.9041 412.617 55.1681 412.659 54.3361C412.681 53.8881 412.787 53.5574 412.979 53.3441C413.193 53.1308 413.481 53.0241 413.843 53.0241C414.099 53.0241 414.302 53.0454 414.451 53.0881C415.326 53.2801 415.913 53.5574 416.211 53.9201C416.51 54.2828 416.713 54.8268 416.819 55.5521C416.841 55.7014 416.819 56.0108 416.755 56.4801L416.179 61.4721C416.158 61.6001 416.126 61.7601 416.083 61.9521C416.041 62.1228 416.019 62.2508 416.019 62.3361C416.019 62.5281 416.126 62.6561 416.339 62.7201C416.553 62.7841 416.947 62.8054 417.523 62.7841C418.505 62.5708 419.251 62.4321 419.763 62.3681C419.87 62.3468 420.041 62.3361 420.275 62.3361C420.531 62.3361 420.702 62.3681 420.787 62.4321C420.873 62.4748 420.937 62.6028 420.979 62.8161C421.043 63.0081 421.075 63.2321 421.075 63.4881C421.075 63.7228 421.043 63.9361 420.979 64.1281C420.937 64.3201 420.873 64.4268 420.787 64.4481C420.211 64.6188 419.529 64.7574 418.739 64.8641C417.801 65.0348 417.107 65.1841 416.659 65.3121C416.425 65.3761 416.19 65.5361 415.955 65.7921C415.721 66.0481 415.593 66.2828 415.571 66.4961C415.529 67.5414 415.497 68.6081 415.475 69.6961C415.454 70.5281 415.486 71.3601 415.571 72.1921C415.635 72.8961 415.774 73.4081 415.987 73.7281C416.201 74.0268 416.521 74.1761 416.947 74.1761C417.289 74.1761 417.779 74.0588 418.419 73.8241C418.761 73.6748 419.059 73.6001 419.315 73.6001C419.721 73.6001 420.009 73.8241 420.179 74.2721C420.243 74.4214 420.275 74.5708 420.275 74.7201C420.275 74.9974 420.169 75.2214 419.955 75.3921C419.763 75.5628 419.497 75.7121 419.155 75.8401C418.515 76.0748 417.865 76.2028 417.203 76.2241C416.307 76.2241 415.465 76.0108 414.675 75.5841C413.886 75.1361 413.257 74.5174 412.787 73.7281C412.339 72.9388 412.147 72.0321 412.211 71.0081C412.233 70.6028 412.243 69.9628 412.243 69.0881C412.243 67.7014 412.19 66.2934 412.083 64.8641C412.062 64.7361 411.987 64.6508 411.859 64.6081C411.731 64.5441 411.518 64.4801 411.219 64.4161C410.729 64.3308 410.409 64.2134 410.259 64.0641Z" fill="#1B1A18"/>
<path fill-rule="evenodd" clip-rule="evenodd" d="M483.168 12.879C486.073 6.02573 490.634 -1.79633 494.767 0.366782C499.086 2.62705 492.506 9.24822 485.979 14.8622C484.474 16.1569 482.392 14.707 483.168 12.879ZM489.331 18.6215C492.811 16.2859 496.642 14.5602 498.007 16.7132C499.466 19.0135 495.338 20.5094 490.658 21.5432C488.719 21.9716 487.683 19.728 489.331 18.6215Z" fill="#1B1A18"/>
</svg>
