<svg width="6" height="6" viewBox="0 0 6 6" fill="none" xmlns="http://www.w3.org/2000/svg">
<path d="M4.33476 4.31539H2.34867C1.9349 4.31539 1.60388 3.98438 1.60388 3.5706V1.58451C1.60388 1.17074 1.9349 0.839722 2.34867 0.839722H4.33476C4.74854 0.839722 5.07955 1.17074 5.07955 1.58451V3.5706C5.07955 3.98438 4.74854 4.31539 4.33476 4.31539ZM2.34867 1.33625C2.21626 1.33625 2.10041 1.4521 2.10041 1.58451V3.5706C2.10041 3.70301 2.21626 3.81887 2.34867 3.81887H4.33476C4.46717 3.81887 4.58303 3.70301 4.58303 3.5706V1.58451C4.58303 1.4521 4.46717 1.33625 4.33476 1.33625H2.34867Z" fill="#A7B0B7"/>
<path d="M3.6409 5.0602H1.05895C0.943098 5.0602 0.860352 4.97745 0.860352 4.86159V2.27966C0.860352 2.16381 0.943098 2.08105 1.05895 2.08105H3.6409C3.75675 2.08105 3.8395 2.16381 3.8395 2.27966V4.86159C3.8395 4.97745 3.75675 5.0602 3.6409 5.0602Z" fill="#EBEEF5"/>
<path d="M3.34343 5.30892H1.35734C0.943565 5.30892 0.612549 4.97791 0.612549 4.56414V2.57804C0.612549 2.16427 0.943565 1.83325 1.35734 1.83325H3.34343C3.7572 1.83325 4.08822 2.16427 4.08822 2.57804V4.56414C4.08822 4.97791 3.7572 5.30892 3.34343 5.30892ZM1.35734 2.32978C1.22493 2.32978 1.10907 2.44563 1.10907 2.57804V4.56414C1.10907 4.69654 1.22493 4.8124 1.35734 4.8124H3.34343C3.47584 4.8124 3.59169 4.69654 3.59169 4.56414V2.57804C3.59169 2.44563 3.47584 2.32978 3.34343 2.32978H1.35734Z" fill="#A7B0B7"/>
</svg>
