<svg width="549" height="399" viewBox="0 0 549 399" fill="none" xmlns="http://www.w3.org/2000/svg">
<path d="M57.4893 159.45C56.4083 163.882 55.3273 168.314 55.1111 172.963C55.2192 173.179 55.2192 174.044 55.1111 173.828C55.1111 174.584 53.922 174.476 53.922 173.719C53.922 173.287 53.922 172.746 53.922 172.314C51.3275 169.071 47.4359 167.017 44.409 164.098C41.9227 161.828 40.085 159.018 39.2202 155.775C36.6257 146.91 39.1121 137.614 35.9771 128.749C33.2746 121.182 28.5181 114.588 24.5184 107.669C20.3024 100.427 17.1675 92.7514 16.8432 84.2114C16.627 77.7253 17.3837 68.9691 22.3563 64.1045C27.6533 58.9157 34.1394 62.8073 38.1392 67.4557C49.8141 80.8603 55.2192 97.8322 57.3812 115.128C58.5703 124.749 59.8675 134.37 59.5432 144.1C59.4351 149.288 58.6784 154.369 57.4893 159.45Z" fill="#43BA7F"/>
<path d="M55.111 176.422C55.7597 167.341 55.6515 158.261 54.7867 149.288V149.18C54.8948 141.829 55.5434 134.479 55.2191 127.128C54.8948 119.128 53.7057 111.345 51.9761 103.453C51.9761 103.345 51.868 103.345 51.868 103.453C53.2733 111.021 54.1381 118.804 54.4624 126.587C54.5705 130.695 54.5705 134.911 54.3543 139.019C54.2462 140.316 54.1381 141.721 54.03 143.127C51.1113 122.479 43.4361 102.805 32.1935 85.2924C32.0854 85.0762 31.653 85.2924 31.7611 85.5086C39.8687 98.8051 45.8143 113.291 49.5979 128.425C43.9766 118.047 35.4366 109.399 29.1667 99.4537C29.1667 99.3456 29.0586 99.4537 29.0586 99.5618C34.6799 110.696 44.0847 119.452 50.0303 130.479C51.1113 134.911 51.868 139.451 52.5166 143.992C53.3814 150.261 53.8138 156.531 53.9219 162.801C50.4627 156.423 46.8953 150.261 44.1928 143.559C44.0847 143.343 43.8685 143.451 43.8685 143.667C46.2467 150.694 49.4898 158.261 53.9219 164.315C53.9219 168.747 53.8138 173.179 53.5976 177.611C52.949 189.502 50.8951 201.177 49.9222 213.068C49.9222 213.393 50.3546 213.501 50.4627 213.176C52.949 201.069 54.3543 188.637 55.111 176.422Z" fill="#263238"/>
<path d="M42.5714 84.9681C42.5714 84.86 42.3552 84.9681 42.4633 85.0762C44.6253 91.0218 45.8144 97.1836 47.4359 103.237C47.544 103.562 47.8683 103.453 47.8683 103.129C47.2197 96.8593 44.9496 90.6975 42.5714 84.9681Z" fill="#263238"/>
<path d="M97.5949 110.048C96.1896 113.615 94.46 116.966 92.6223 120.317C88.7306 127.452 84.6228 133.938 83.8661 142.154C83.5418 145.829 83.4337 149.505 82.2445 153.072C81.2716 156.099 79.6501 159.018 77.9205 161.612C73.7045 167.774 68.4076 173.071 64.5159 179.449C60.408 186.043 57.3812 193.394 55.5435 200.961C55.4354 201.393 54.7868 201.285 54.8949 200.853V200.745C54.8949 200.745 54.8949 200.745 54.8949 200.637C54.2463 182.908 55.6516 165.071 61.0567 148.099C63.4349 140.64 66.3536 133.289 69.5967 126.263C72.5154 120.101 76.0828 114.155 81.1635 109.615C84.4066 106.696 91.6494 101.075 96.2977 103.994C98.676 105.615 98.4598 107.886 97.5949 110.048Z" fill="#43BA7F"/>
<path d="M79.7582 150.153C76.7314 155.342 73.164 160.207 69.4886 164.963C67.7589 167.233 66.0293 169.395 64.2997 171.666C63.543 172.747 62.5701 173.828 61.8134 174.909C62.2458 173.071 62.7863 171.233 63.2187 169.287C65.4888 160.315 67.6508 151.342 71.1101 142.694C74.4612 134.262 78.8934 126.371 83.4337 118.588C83.5418 118.372 83.2175 118.263 83.1094 118.48C79.3258 124.641 75.5423 130.803 72.4073 137.289C70.6777 140.965 69.1643 144.64 67.867 148.424C69.3805 140.316 71.2182 132.533 73.9207 124.641C73.9207 124.533 73.8126 124.533 73.8126 124.641C70.5696 132.317 68.1914 141.073 67.5427 149.397C66.786 151.667 66.0293 154.045 65.3807 156.315C62.5701 166.26 60.1918 176.206 57.9217 186.259C57.9217 179.665 58.3541 173.071 59.6513 166.585C59.6513 166.477 59.4351 166.369 59.4351 166.585C57.8136 173.287 57.0569 180.422 57.7055 187.34C56.8407 191.124 55.9759 195.015 55.2192 198.799C53.4896 206.907 51.3275 215.23 50.3546 223.554C50.3546 223.77 50.6789 223.77 50.6789 223.662C51.868 219.23 52.6247 214.582 53.5977 210.042C54.5706 205.501 55.6516 200.961 56.6245 196.421C58.1379 189.827 59.7594 183.232 61.381 176.746C62.462 174.368 64.624 172.206 66.1374 170.152C67.867 167.99 69.5967 165.72 71.3263 163.45C74.4612 159.234 77.38 154.91 79.8663 150.261C79.9744 150.153 79.8663 150.045 79.7582 150.153Z" fill="#263238"/>
<path d="M80.515 142.586C76.6233 147.559 73.1641 152.964 70.4615 158.585C70.4615 158.693 70.5696 158.693 70.5696 158.693C73.9208 153.396 77.2719 147.991 80.6231 142.694C80.7312 142.586 80.6231 142.478 80.515 142.586Z" fill="#263238"/>
<path d="M5.16822 126.803C7.43835 130.803 10.0328 135.451 9.05987 140.208C8.41127 143.235 6.24924 145.613 5.81683 148.748C4.95202 155.558 11.6543 159.991 16.5189 163.125C28.6262 171.125 45.382 178.26 47.544 194.475C47.6521 195.015 48.625 194.907 48.5169 194.367V194.259C48.5169 194.259 48.625 194.259 48.625 194.151C50.2465 185.935 50.1384 177.503 48.4088 169.287C46.5711 160.855 42.8956 153.396 38.5716 145.937C31.2207 133.506 23.5455 120.642 12.411 111.129C9.38418 108.534 3.1143 103.778 0.627962 109.723C-1.53407 115.561 2.35759 122.047 5.16822 126.803Z" fill="#43BA7F"/>
<path d="M16.3026 153.288C24.4102 162.044 37.1662 166.909 44.0847 176.638C39.9768 161.72 33.2746 148.208 22.7887 136.533C22.5725 136.208 22.8968 135.776 23.2211 136.1C30.8963 143.451 36.5176 152.099 40.7336 161.396C38.8958 154.694 36.3014 148.424 33.1665 142.154C33.0584 141.938 33.3827 141.721 33.4908 141.938C37.3824 148.532 39.9768 155.991 41.5984 163.558C50.787 185.719 51.5437 211.663 49.706 234.905C49.706 235.229 49.1655 235.229 49.1655 234.905C49.706 216.528 49.3817 197.826 44.9495 179.881C44.8414 179.557 44.7333 179.125 44.6252 178.8C37.0581 168.314 24.3021 163.45 16.0864 153.396C16.0864 153.288 16.3026 153.18 16.3026 153.288Z" fill="#263238"/>
<path d="M14.465 145.829C18.681 149.721 22.8969 153.721 27.1129 157.504C27.1129 157.504 27.1129 157.612 27.0048 157.612C22.3564 154.477 17.708 150.369 14.1407 146.045C14.0326 145.829 14.2488 145.613 14.465 145.829Z" fill="#263238"/>
<path d="M13.8163 128.965C17.708 135.127 21.7077 140.857 26.4642 146.37C26.5723 146.478 26.4642 146.586 26.3561 146.478C21.1672 141.505 16.627 135.56 13.6001 129.074C13.492 128.965 13.7082 128.857 13.8163 128.965Z" fill="#263238"/>
<path d="M32.8422 251.336H69.921L64.9483 201.501H38.5715L32.8422 251.336Z" fill="#455A64"/>
<path d="M37.5986 209.609H65.705L64.9483 201.501H38.5715L37.5986 209.609Z" fill="#263238"/>
<path d="M34.0005 203.972H68.701V195.972H34.0005V203.972Z" fill="#455A64"/>
<path d="M414.224 100.616H89.0549V265.687H414.224V100.616Z" fill="#DBDBDB"/>
<path d="M89.055 154.342H46.6792V265.578H89.055V154.342Z" fill="#DBDBDB"/>
<path d="M456.6 154.342H414.224V265.578H456.6V154.342Z" fill="#DBDBDB"/>
<path d="M252.18 100.616H251.207V232.824H252.18V100.616Z" fill="#C7C7C7"/>
<path d="M89.4874 154.342H88.5145V265.578H89.4874V154.342Z" fill="#C7C7C7"/>
<path d="M414.765 154.342H413.792V265.578H414.765V154.342Z" fill="#C7C7C7"/>
<path d="M252.18 233.364H88.5145V198.88H252.18V233.364ZM89.5955 232.283H251.099V199.853H89.5955V232.283Z" fill="#C7C7C7"/>
<path d="M414.765 233.364H251.099V198.88H414.765V233.364ZM252.18 232.283H413.684V199.853H252.18V232.283Z" fill="#C7C7C7"/>
<path d="M100.081 136.938C99.2165 136.938 99.2165 138.343 100.081 138.343C101.054 138.343 101.054 136.938 100.081 136.938Z" fill="#A6A6A6"/>
<path d="M101.27 222.77C100.406 222.77 100.406 224.176 101.27 224.176C102.243 224.176 102.243 222.77 101.27 222.77Z" fill="#A6A6A6"/>
<path d="M141.592 209.366C141.592 209.258 141.484 209.258 141.484 209.149C141.376 208.933 141.052 208.933 140.944 209.149C140.944 209.258 140.836 209.258 140.836 209.366C140.403 210.23 141.917 210.23 141.592 209.366Z" fill="#A6A6A6"/>
<path d="M71.5426 224.608C71.5426 224.5 71.4345 224.5 71.4345 224.392C71.3264 224.176 71.0021 224.176 70.894 224.392C70.894 224.5 70.7859 224.5 70.7859 224.608C70.3535 225.365 71.8669 225.365 71.5426 224.608Z" fill="#A6A6A6"/>
<path d="M106.135 141.154C105.486 141.154 105.486 142.235 106.135 142.235C106.892 142.235 106.892 141.154 106.135 141.154Z" fill="#A6A6A6"/>
<path d="M325.257 158.666C324.608 158.666 324.608 159.747 325.257 159.747C326.013 159.747 326.013 158.666 325.257 158.666Z" fill="#A6A6A6"/>
<path d="M61.0566 195.637C60.408 195.637 60.408 196.718 61.0566 196.718C61.7053 196.718 61.7053 195.637 61.0566 195.637Z" fill="#A6A6A6"/>
<path d="M131.431 111.318C131.215 110.993 130.674 110.993 130.35 111.318C130.025 111.642 130.025 111.966 130.134 112.291C130.242 113.047 131.539 113.047 131.647 112.291C131.755 111.858 131.755 111.534 131.431 111.318Z" fill="#A6A6A6"/>
<path d="M107.216 218.771C107 218.446 106.459 218.446 106.135 218.771C105.811 219.095 105.811 219.419 105.919 219.743C106.027 220.5 107.324 220.5 107.432 219.743C107.54 219.419 107.432 219.095 107.216 218.771Z" fill="#A6A6A6"/>
<path d="M384.82 224.608C385.685 224.608 385.685 223.203 384.82 223.203C383.956 223.203 383.956 224.608 384.82 224.608Z" fill="#A6A6A6"/>
<path d="M239.208 226.013C240.073 226.013 240.073 224.608 239.208 224.608C238.343 224.608 238.343 226.013 239.208 226.013Z" fill="#A6A6A6"/>
<path d="M380.821 113.155C381.686 113.155 381.686 111.75 380.821 111.75C379.848 111.75 379.848 113.155 380.821 113.155Z" fill="#A6A6A6"/>
<path d="M204.291 132.397C205.156 132.397 205.156 130.992 204.291 130.992C203.426 130.992 203.426 132.397 204.291 132.397Z" fill="#A6A6A6"/>
<path d="M333.04 152.18C333.04 152.288 333.148 152.288 333.148 152.396C333.256 152.612 333.58 152.612 333.689 152.396C333.689 152.288 333.797 152.288 333.797 152.18C334.229 151.315 332.608 151.315 333.04 152.18Z" fill="#A6A6A6"/>
<path d="M269.692 219.419C269.692 219.527 269.801 219.527 269.801 219.635C269.909 219.852 270.233 219.852 270.341 219.635C270.341 219.527 270.449 219.527 270.449 219.419C270.882 218.554 269.26 218.554 269.692 219.419Z" fill="#A6A6A6"/>
<path d="M437.79 206.771C437.79 206.879 437.898 206.879 437.898 206.987C438.006 207.204 438.331 207.204 438.439 206.987C438.439 206.879 438.547 206.879 438.547 206.771C438.979 205.906 437.358 205.906 437.79 206.771Z" fill="#A6A6A6"/>
<path d="M378.767 220.392C379.415 220.392 379.415 219.311 378.767 219.311C378.118 219.311 378.118 220.392 378.767 220.392Z" fill="#A6A6A6"/>
<path d="M423.845 165.909C424.494 165.909 424.494 164.828 423.845 164.828C423.196 164.828 423.196 165.909 423.845 165.909Z" fill="#A6A6A6"/>
<path d="M427.737 237.796C428.385 237.796 428.385 236.715 427.737 236.715C426.98 236.715 426.98 237.796 427.737 237.796Z" fill="#A6A6A6"/>
<path d="M343.093 250.336C343.31 250.66 343.85 250.66 344.174 250.336C344.499 250.012 344.499 249.687 344.391 249.363C344.282 248.606 342.985 248.606 342.877 249.363C342.769 249.687 342.877 250.012 343.093 250.336Z" fill="#A6A6A6"/>
<path d="M377.686 142.775C377.902 143.1 378.443 143.1 378.767 142.775C379.091 142.451 379.091 142.127 378.983 141.802C378.875 141.046 377.578 141.046 377.47 141.802C377.362 142.127 377.47 142.451 377.686 142.775Z" fill="#A6A6A6"/>
<path d="M182.887 177.152C183.103 177.476 183.644 177.476 183.968 177.152C184.292 176.827 184.292 176.503 184.184 176.179C184.076 175.422 182.779 175.422 182.671 176.179C182.563 176.503 182.671 176.827 182.887 177.152Z" fill="#A6A6A6"/>
<path d="M442.006 199.745C442.222 200.069 442.763 200.069 443.087 199.745C443.411 199.42 443.411 199.096 443.303 198.772C443.195 198.015 441.898 198.015 441.79 198.772C441.574 199.096 441.682 199.42 442.006 199.745Z" fill="#A6A6A6"/>
<path d="M89.5955 232.391C89.5955 232.391 126.566 242.012 170.347 242.012C214.128 242.012 252.18 232.824 252.18 232.824L89.5955 232.391Z" fill="#C7C7C7"/>
<path d="M251.64 232.391C251.64 232.391 288.61 242.012 332.391 242.012C376.172 242.012 414.224 232.824 414.224 232.824L251.64 232.391Z" fill="#C7C7C7"/>
<path d="M456.6 255.849H46.6792V265.578H456.6V255.849Z" fill="#37474F"/>
<path d="M103.432 265.578L92.7304 287.739L81.8122 309.9H72.4073L75.9747 287.739L79.4339 265.578H103.432Z" fill="#37474F"/>
<path d="M79.434 265.578H103.433L96.9464 278.983H77.272L79.434 265.578Z" fill="#263238"/>
<path d="M426.872 309.9H417.467L406.549 287.739L395.847 265.578H419.845L423.305 287.739L426.872 309.9Z" fill="#37474F"/>
<path d="M422.007 278.983H402.333L395.847 265.578H419.845L422.007 278.983Z" fill="#263238"/>
<g clip-path="url(#clip0)">
<path d="M176.45 97.2264L174.22 92.0675L168.665 90.9796C168.028 90.8392 167.815 90.0671 168.311 89.646L172.557 85.9611L171.885 80.3811C171.814 79.7494 172.486 79.2931 173.052 79.6441L177.9 82.5218L183.031 80.1705C183.633 79.8897 184.27 80.4161 184.128 81.0478L182.89 86.5226L186.712 90.6286C187.136 91.0849 186.853 91.8569 186.216 91.9271L180.59 92.4536L177.83 97.3317C177.547 97.8581 176.733 97.7879 176.45 97.2264Z" fill="#E9B024"/>
<path d="M437.355 23.7385L439.089 21.5276L444.468 25.7389L449.068 17.7725L451.51 19.1412L445.317 29.9152L437.355 23.7385Z" fill="#E9B024"/>
<path d="M226.309 30.0555C225.531 37.5658 218.772 43.0405 211.199 42.3035C203.626 41.5314 198.106 34.8284 198.849 27.3182C199.628 19.8079 206.387 14.3332 213.959 15.0702C221.567 15.8423 227.088 22.5453 226.309 30.0555Z" fill="#E9B024"/>
<path d="M205.042 30.0906C204.617 34.1265 207.59 37.7061 211.624 38.0922C215.693 38.5133 219.303 35.5654 219.692 31.5646L205.042 30.0906Z" fill="#E9B024"/>
<path d="M470.229 73.5727L474.405 69.1508L472.105 67.6417C471.609 67.3259 471.468 66.624 471.786 66.1327C472.105 65.6413 472.813 65.501 473.308 65.8168L475.962 67.5715L479.713 63.6059L477.236 61.9915C476.741 61.6757 476.599 60.9738 476.917 60.4825C477.236 59.9911 477.944 59.8508 478.439 60.1666L481.27 62.0266L485.587 57.4643C485.941 57.0783 486.543 57.0081 487.003 57.2889L487.427 57.5696C487.993 57.9557 488.1 58.7277 487.64 59.2191L483.606 63.5357L487.71 66.238L492.028 61.6757C492.381 61.2896 492.983 61.2194 493.443 61.5002L493.903 61.816C494.469 62.2021 494.575 62.9742 494.115 63.4655L490.081 67.7821L492.381 69.2912C492.877 69.607 493.018 70.3089 492.7 70.8002C492.381 71.2916 491.674 71.4319 491.178 71.1161L488.524 69.3614L484.844 73.3621L487.321 74.9765C487.817 75.2923 487.958 75.9942 487.64 76.4855C487.321 76.9769 486.613 77.1173 486.118 76.8014L483.287 74.9414L478.864 79.6441C478.51 80.0301 477.908 80.1003 477.448 79.8195L476.953 79.5037C476.387 79.1176 476.28 78.3456 476.741 77.8542L480.916 73.4323L476.811 70.7301L472.388 75.4327C472.034 75.8188 471.432 75.8889 470.972 75.6082L470.477 75.2923C469.84 74.8712 469.734 74.064 470.229 73.5727ZM482.438 71.818L486.189 67.8523L482.084 65.15L478.333 69.1157L482.438 71.818Z" fill="#E9B024"/>
<path d="M304.97 38.5816C307.472 38.6966 309.494 38.6802 311.482 38.5487C312.128 38.5159 313.288 38.6309 313.702 38.0558C313.918 37.76 313.934 37.3984 313.653 37.1191C313.139 36.6097 312.161 36.889 311.499 36.9219C309.494 37.0369 307.207 37.0862 304.904 36.9876C304.473 36.9712 304.125 37.4149 304.142 37.8093C304.158 38.2858 304.539 38.5652 304.97 38.5816Z" fill="#E9B024"/>
<path d="M338.838 41.6874C339.799 41.6381 340.76 41.5888 341.721 41.523C342.649 41.4737 343.743 41.5723 344.588 41.1944C345.217 40.9315 345.217 40.077 344.538 39.8798C343.643 39.6168 342.583 39.8469 341.655 39.8962C340.694 39.9619 339.733 40.0112 338.772 40.0934C337.744 40.192 337.794 41.7367 338.838 41.6874Z" fill="#E9B024"/>
<path d="M314.58 50.561C315.674 48.4905 317.099 47.7839 318.176 46.9458C318.756 46.5021 318.375 45.6312 317.646 45.7955C315.657 46.2228 314.05 48.1125 313.172 49.8379C312.708 50.7417 314.116 51.4648 314.58 50.561Z" fill="#E9B024"/>
<path d="M325.964 54.9485C325.864 53.9625 325.964 52.993 326.278 52.0564C326.477 51.4812 327.521 49.8544 326.378 49.6243C325.301 49.4107 324.82 51.169 324.621 51.9249C324.34 52.9273 324.257 53.9954 324.373 55.0142C324.472 56.033 326.063 55.9838 325.964 54.9485Z" fill="#E9B024"/>
<path d="M333.768 48.4905C334.331 48.852 334.878 49.1971 335.441 49.5586C336.005 49.9201 336.535 50.446 337.231 50.2652C337.628 50.1666 337.761 49.7558 337.695 49.4107C337.579 48.7698 336.701 48.4412 336.187 48.1125C335.624 47.7674 335.077 47.4059 334.513 47.0608C334.149 46.8308 333.602 47.0444 333.42 47.4059C333.204 47.8167 333.403 48.244 333.768 48.4905Z" fill="#E9B024"/>
<path d="M318.839 29.7244C316.519 24.9754 316.552 24.9425 316.121 24.5646C315.674 24.1702 314.912 24.4988 314.945 25.1068C314.978 25.7148 314.978 25.5998 317.447 30.6118C317.646 31.0061 318.242 31.0719 318.59 30.8583C319.004 30.5953 319.038 30.1188 318.839 29.7244Z" fill="#E9B024"/>
<path d="M327.621 29.1657C327.902 28.3441 328.068 27.4896 328.167 26.6186C328.25 25.8134 328.482 24.5974 327.703 24.0716C327.538 23.9565 327.239 23.9894 327.074 24.1044C326.411 24.5974 326.626 25.682 326.544 26.4214C326.461 27.2266 326.278 28.0318 326.063 28.8206C325.947 29.2314 326.262 29.6751 326.676 29.7573C327.123 29.8723 327.488 29.5765 327.621 29.1657Z" fill="#E9B024"/>
<path d="M340.048 29.2643C340.164 28.8863 339.849 28.5577 339.517 28.4427C338.838 28.2126 338.01 28.9028 337.463 29.2643C336.833 29.6751 336.253 30.1517 335.706 30.6611C335.392 30.9568 335.458 31.5156 335.773 31.7949C336.121 32.1071 336.585 32.025 336.916 31.7292C339.053 29.8887 339.749 30.2009 340.048 29.2643Z" fill="#E9B024"/>
<path d="M547.337 97.1211L544.294 100.56L539.021 98.7003L534.067 103.438L529.573 102.771L528.263 105.088L534.244 106L538.95 101.508L544.435 103.438L549 98.2441L547.337 97.1211Z" fill="#E9B024"/>
<path d="M91.8047 83.4342C87.4522 89.4705 91.4863 98.2441 97.7497 101.052C104.685 104.175 113.284 101.754 117.814 95.7875C122.697 89.295 121.494 81.3988 115.16 77.3278C109.003 73.3972 101.819 76.8716 100.545 83.5746C99.6606 88.3826 102.598 91.9271 105.11 91.8218C107.092 91.7166 108.189 89.4705 106.596 88.1018C105.959 87.5754 105.004 87.5754 104.332 87.8913C103.093 86.4173 103.128 82.8025 105.818 80.2757C109.25 77.0471 114.346 79.5037 116.469 82.978C119.159 87.3999 117.071 92.7343 113.426 95.963C109.64 99.3321 103.695 100.42 98.9882 98.3494C93.6802 95.963 91.2739 89.6811 93.6095 84.4169C94.211 83.1886 92.5833 82.3463 91.8047 83.4342Z" fill="#E9B024"/>
</g>
<path d="M124.542 297.779C124.542 297.779 126.157 293.69 127.663 292.99C128.794 292.452 131.323 290.945 137.726 292.344C144.129 293.743 151.125 288.47 151.125 288.47C151.125 288.47 197.94 277.6 218.926 280.345C222.477 280.829 226.352 281.797 230.118 282.981C229.849 283.143 229.58 283.304 229.311 283.412C226.513 284.596 225.007 287.34 225.975 289.492L226.137 289.869C227.051 292.021 230.065 292.829 232.863 291.645C233.939 291.214 235.015 290.999 235.984 291.107C237.598 291.268 238.997 292.075 239.589 293.42L239.751 293.797C240.342 295.142 239.966 296.703 238.943 297.994C238.298 298.748 237.437 299.447 236.414 299.878C234.531 300.685 233.239 302.192 232.863 303.698C228.235 302.353 223.769 301.062 220.755 300.362C200.308 295.411 153.008 297.564 143.914 298.64C134.82 299.609 125.296 297.349 124.542 297.779Z" fill="#FCC232"/>
<path d="M121.368 306.443L119 306.174C119 306.174 119.054 305.582 119.161 304.613C119.161 304.452 119.215 304.344 119.215 304.183C119.215 304.021 119.269 303.86 119.269 303.698C119.269 303.591 119.269 303.483 119.323 303.375C119.323 303.268 119.323 303.16 119.377 302.999C119.377 302.837 119.43 302.622 119.43 302.407C119.43 302.299 119.43 302.138 119.484 302.03C119.484 301.869 119.538 301.761 119.538 301.6C119.538 301.438 119.592 301.331 119.592 301.169C119.592 301.115 119.592 301.008 119.592 300.954C119.592 300.793 119.646 300.685 119.646 300.523C119.646 300.47 119.646 300.362 119.646 300.308C119.646 300.147 119.7 300.039 119.7 299.878C119.915 297.672 120.184 295.358 120.345 293.743C120.345 293.636 120.399 293.528 120.399 293.421C120.399 293.313 120.399 293.205 120.453 293.098C120.507 292.829 120.507 292.613 120.561 292.452C120.561 292.344 120.614 292.237 120.614 292.129C120.614 292.075 120.614 292.021 120.668 291.968C120.722 291.752 120.722 291.645 120.776 291.537C120.776 291.483 120.83 291.483 120.83 291.43C122.013 290.622 135.789 291.86 136.058 289.277C136.381 286.587 121.475 285.026 121.475 285.026L121.691 283.197C121.691 283.197 137.995 284.004 141.224 284.111C144.452 284.273 151.232 288.309 151.232 288.309C151.232 288.309 146.497 293.959 139.932 293.582C133.367 293.259 128.417 293.421 127.394 294.066C125.995 295.035 125.081 299.34 125.081 299.34C124.273 299.985 121.368 306.443 121.368 306.443Z" fill="#1B1937"/>
<path d="M270.261 80.4927C269.992 82.968 268.162 93.2996 266.925 93.6224C266.333 93.7839 263.319 93.8377 261.705 93.7301C261.544 93.7301 261.436 93.7301 261.328 93.6763C261.221 93.6763 261.113 93.6763 261.006 93.6763C259.553 93.6763 258.261 94.8601 258.1 96.3668C257.992 97.3892 257.938 98.573 257.831 99.6492C257.723 101.533 257.616 103.147 257.777 103.524C258.53 105.568 258.692 114.124 264.18 115.2H257.616L242.656 105.784C242.764 104.923 243.41 102.555 243.732 99.2725C244.002 99.2725 244.324 99.2187 244.593 99.1649C249.275 98.573 248.898 79.6317 251.858 77.0488C253.365 75.7574 258.692 77.6408 262.512 76.4569C264.234 75.9188 264.073 73.605 264.934 71.2373C265.633 69.354 267.248 68.6544 267.84 68.493C268.055 68.6006 268.216 68.8158 268.27 69.0849C268.862 71.3449 270.584 77.8022 270.261 80.4927Z" fill="white"/>
<path d="M268.109 68.5468C268.109 68.5468 268.001 68.5468 267.893 68.6006C267.301 68.8159 265.687 69.4616 264.988 71.345C264.127 73.6588 264.288 76.0265 262.566 76.5646C258.746 77.6946 254.871 75.8651 253.311 77.1565C251.104 79.0399 250.835 83.5599 250.351 86.1967C249.652 89.8019 249.275 94.2682 247.23 97.443C244.271 102.125 241.365 98.4116 238.62 95.9901C234.854 92.6539 229.688 89.1024 231.733 83.2371C233.132 79.3089 236.145 78.8246 239.481 77.6408C237.329 71.8831 238.997 64.1344 244.862 61.121C259.015 53.9642 267.409 65.5873 268.109 68.5468Z" fill="#1B1937"/>
<path d="M252.88 90.5552C253.418 95.9363 257.831 99.6492 257.831 99.6492C257.885 98.573 257.992 97.3892 258.1 96.3668C258.207 94.8601 259.499 93.6762 261.006 93.6762C257.185 93.5148 252.88 90.5552 252.88 90.5552Z" fill="white"/>
<path d="M254.71 73.1745C254.172 73.1207 253.634 73.2821 253.096 73.5512C253.418 73.1207 253.634 72.5826 253.687 72.0445C253.795 70.0535 252.773 68.3316 251.374 68.2239C249.975 68.1163 248.683 69.6768 248.575 71.7216C248.522 72.2597 248.683 72.7978 248.952 73.2821C248.522 72.9593 247.984 72.744 247.445 72.6902C245.454 72.5826 243.732 73.605 243.625 75.0041C243.517 76.4031 245.078 77.6946 247.123 77.8022C247.714 77.856 248.253 77.6946 248.737 77.4255C248.414 77.9098 248.145 78.3941 248.145 78.986C248.037 80.977 249.06 82.6989 250.459 82.8066C251.858 82.9142 253.149 81.3537 253.257 79.3089C253.311 78.717 253.096 78.1789 252.88 77.6946C253.365 78.0174 253.849 78.2327 254.441 78.2865C256.432 78.3941 258.154 77.3717 258.261 75.9726C258.369 74.5736 256.701 73.2821 254.71 73.1745Z" fill="#FCC232"/>
<path d="M243.571 79.4165C243.356 79.6856 243.194 79.9546 243.141 80.2775C243.033 79.9546 242.925 79.6317 242.656 79.4165C241.795 78.5555 240.558 78.3941 239.966 78.986C239.374 79.6317 239.589 80.8156 240.45 81.6227C240.665 81.838 240.988 81.9994 241.311 82.0532C240.988 82.1608 240.665 82.2685 240.45 82.5375C239.589 83.3985 239.428 84.6361 240.02 85.228C240.665 85.8199 241.849 85.6047 242.656 84.7437C242.872 84.4747 243.033 84.1518 243.087 83.829C243.194 84.1518 243.302 84.4747 243.571 84.6899C244.432 85.5509 245.67 85.7123 246.262 85.1204C246.853 84.4747 246.638 83.2909 245.777 82.4837C245.508 82.2685 245.185 82.107 244.863 82.0532C245.185 81.9456 245.508 81.838 245.723 81.5689C246.584 80.708 246.746 79.4703 246.154 78.8784C245.562 78.2865 244.432 78.5555 243.571 79.4165Z" fill="#FCC232"/>
<path d="M299.211 130.698C297.812 129.944 296.574 129.299 295.713 128.814C293.184 127.308 281.507 119.129 277.794 117.353C272.521 114.824 256.916 109.174 253.257 115.308C250.782 119.398 263.481 128.545 266.279 130.644C269.992 133.496 274.404 135.272 278.709 137.101C281.992 138.5 285.113 139.846 288.126 141.729C293.023 144.796 309.058 155.773 313.256 145.173C315.408 139.523 305.399 133.98 299.211 130.698Z" fill="white"/>
<path d="M282.637 394.153C282.637 394.153 278.44 392.862 277.633 391.409C277.041 390.333 275.319 387.911 276.234 381.454C277.149 374.943 271.391 368.378 271.391 368.378C271.391 368.378 257.024 322.532 258.261 301.331C258.477 297.725 259.122 293.797 260.037 289.977C260.198 290.246 260.36 290.515 260.521 290.784C261.92 293.474 264.772 294.766 266.817 293.689L267.194 293.474C269.292 292.398 269.831 289.331 268.431 286.64C267.893 285.618 267.624 284.542 267.678 283.573C267.678 281.959 268.378 280.506 269.723 279.806L270.1 279.591C271.391 278.892 273.005 279.161 274.351 280.129C275.158 280.667 275.857 281.475 276.395 282.497C277.31 284.326 278.924 285.456 280.485 285.726C279.463 290.461 278.548 294.981 278.064 298.048C274.673 318.819 280.324 365.795 282.045 374.782C283.714 383.768 282.153 393.4 282.637 394.153Z" fill="#FCC232"/>
<path d="M291.57 396.629L291.462 398.997C291.462 398.997 290.87 398.996 289.902 398.943C289.74 398.943 289.633 398.943 289.471 398.943C289.31 398.943 289.148 398.943 288.987 398.943C288.879 398.943 288.772 398.943 288.61 398.943C288.503 398.943 288.395 398.943 288.234 398.943C288.072 398.943 287.857 398.943 287.642 398.943C287.534 398.943 287.373 398.943 287.265 398.943C287.104 398.943 286.996 398.943 286.835 398.943C286.673 398.943 286.566 398.943 286.404 398.943C286.35 398.943 286.243 398.943 286.189 398.943C286.027 398.943 285.92 398.943 285.758 398.943C285.705 398.943 285.597 398.943 285.543 398.943C285.382 398.943 285.274 398.943 285.113 398.943C282.906 398.889 280.593 398.781 278.925 398.727C278.817 398.727 278.709 398.727 278.602 398.727C278.494 398.727 278.386 398.727 278.279 398.727C278.01 398.727 277.794 398.727 277.633 398.674C277.525 398.674 277.418 398.674 277.31 398.674C277.256 398.674 277.203 398.674 277.149 398.674C276.934 398.674 276.826 398.62 276.718 398.62C276.664 398.62 276.664 398.566 276.611 398.566C275.696 397.49 275.911 383.607 273.328 383.553C270.638 383.445 270.207 398.405 270.207 398.405L268.378 398.351C268.378 398.351 267.947 382.046 267.84 378.818C267.732 375.535 271.283 368.54 271.283 368.54C271.283 368.54 277.256 372.845 277.418 379.41C277.579 385.974 278.064 390.871 278.871 391.84C279.893 393.185 284.252 393.723 284.252 393.723C284.897 394.261 291.57 396.629 291.57 396.629Z" fill="#1B1937"/>
<path d="M308.804 277.503C314.078 288.642 323.01 304.677 317.737 311.888C314.024 316.892 303.8 316.677 298.15 315.547C296.428 322.758 295.029 329.484 290.186 335.511C286.903 339.6 270.76 349.286 269.307 339.762C266.348 341.86 265.271 346.596 262.85 349.663C258.438 355.313 254.886 356.389 248.16 356.82C239.173 357.412 239.389 353.968 238.312 346.38C229.649 354.721 225.183 364.837 211.569 366.183C206.241 366.721 198.547 367.474 195.103 362.416C192.358 358.434 194.618 352.892 193.058 348.91C183.964 353.752 176.054 359.349 164.7 359.026C150.763 358.595 148.019 351.923 154.368 340.569C152.754 343.475 142.96 333.143 142.315 331.636C139.839 326.04 140.647 317.215 146.566 314.04C150.01 312.211 158.296 311.619 159.48 306.184C160.556 301.395 155.337 299.296 153.346 295.745C151.409 292.247 150.332 285.682 150.494 281.754C150.386 283.637 188.215 280.301 192.52 277.934C204.412 271.369 210.654 258.131 212.053 245.002C214.098 225.845 223.03 203.03 234.115 186.94C240.411 177.846 255.962 161.865 255.962 161.865L247.084 150.403L247.03 150.349C247.03 150.349 253.541 136.089 252.518 122.368C252.357 120.377 252.088 118.386 251.55 116.502C250.474 112.467 248.536 108.646 245.254 105.525C244.716 104.987 243.586 104.933 243.209 104.234C243.64 103.749 244.178 104.126 244.608 104.395L262.958 114.996L278.563 129.202C279.531 130.063 280.177 131.246 280.338 132.538C280.607 134.421 280.769 137.381 279.854 140.556C278.24 146.044 276.034 149.273 277.056 152.448C277.325 153.363 277.809 154.977 278.294 156.806C278.294 156.806 278.294 156.806 278.294 156.86C278.724 158.475 279.208 160.25 279.639 161.918C279.693 162.026 279.693 162.134 279.693 162.241C280.338 164.77 280.876 166.869 281.038 167.353V167.407C281.038 167.461 281.038 167.461 281.038 167.461C285.881 187.425 290.724 207.388 295.567 227.352C298.903 241.127 301.54 256.194 305.629 270.185C306.329 272.122 307.459 274.651 308.804 277.503Z" fill="#43BA7F"/>
<mask id="mask0" mask-type="alpha" maskUnits="userSpaceOnUse" x="141" y="104" width="179" height="263">
<path d="M308.804 277.503C314.078 288.642 323.01 304.677 317.737 311.888C314.024 316.892 303.8 316.677 298.15 315.547C296.428 322.758 295.029 329.484 290.186 335.511C286.903 339.6 270.76 349.286 269.307 339.762C266.348 341.86 265.271 346.596 262.85 349.663C258.438 355.313 254.886 356.389 248.16 356.82C239.173 357.412 239.389 353.968 238.312 346.38C229.649 354.721 225.183 364.837 211.569 366.183C206.241 366.721 198.547 367.474 195.103 362.416C192.358 358.434 194.618 352.892 193.058 348.91C183.964 353.752 176.054 359.349 164.7 359.026C150.763 358.595 148.019 351.923 154.368 340.569C152.754 343.475 142.96 333.143 142.315 331.636C139.839 326.04 140.647 317.215 146.566 314.04C150.01 312.211 158.296 311.619 159.48 306.184C160.556 301.395 155.337 299.296 153.346 295.745C151.409 292.247 150.332 285.682 150.494 281.754C150.386 283.637 188.215 280.301 192.52 277.934C204.412 271.369 210.654 258.131 212.053 245.002C214.098 225.845 223.03 203.03 234.115 186.94C240.411 177.846 255.962 161.865 255.962 161.865L247.084 150.403L247.03 150.349C247.03 150.349 253.541 136.089 252.518 122.368C252.357 120.377 252.088 118.386 251.55 116.502C250.474 112.467 248.536 108.646 245.254 105.525C244.716 104.987 243.586 104.933 243.209 104.234C243.64 103.749 244.178 104.126 244.608 104.395L262.958 114.996L278.563 129.202C279.531 130.063 280.177 131.246 280.338 132.538C280.607 134.421 280.769 137.381 279.854 140.556C278.24 146.044 276.034 149.273 277.056 152.448C277.325 153.363 277.809 154.977 278.294 156.806C278.294 156.806 278.294 156.806 278.294 156.86C278.724 158.475 279.208 160.25 279.639 161.918C279.693 162.026 279.693 162.134 279.693 162.241C280.338 164.77 280.876 166.869 281.038 167.353V167.407C281.038 167.461 281.038 167.461 281.038 167.461C285.881 187.425 290.724 207.388 295.567 227.352C298.903 241.127 301.54 256.194 305.629 270.185C306.329 272.122 307.459 274.651 308.804 277.503Z" fill="#43BA7F"/>
</mask>
<g mask="url(#mask0)">
<path d="M159.827 175.165C136.128 230.461 105.892 296.381 92 354.946C98.8099 356.308 109.978 346.774 115.698 347.864C130.408 288.209 149.476 230.189 167.181 172.441C165.002 173.53 162.006 174.62 159.827 175.165Z" fill="#4CC689"/>
<path d="M179.711 167.265C176.715 168.355 173.719 169.717 170.722 170.806C158.737 231.006 145.662 303.735 137.49 365.842C146.207 368.566 154.651 359.577 163.64 361.211C165.547 361.483 167.454 361.756 169.36 362.028C166.909 296.108 169.633 232.64 179.711 167.265Z" fill="#4CC689"/>
<path d="M206.134 162.634C205.044 162.634 203.682 162.907 202.593 162.907C202.593 227.737 210.22 302.918 207.768 367.748C212.671 366.659 215.395 356.308 220.026 356.035C216.485 290.388 212.944 227.465 207.223 162.634C206.679 162.634 206.406 162.634 206.134 162.634Z" fill="#4CC689"/>
<path d="M268.512 360.394C249.172 294.746 246.721 225.013 226.291 161C223.567 161 220.843 161.272 218.119 161.545C229.015 227.465 233.918 304.008 243.452 368.293C246.176 368.566 262.52 360.394 268.512 360.394Z" fill="#4CC689"/>
<path d="M249.445 165.631C246.448 163.452 242.362 162.09 237.732 161.545C264.699 224.468 281.587 298.015 297.659 363.118C302.017 361.756 304.196 351.949 308.827 350.315C295.48 286.03 273.96 225.558 249.445 165.631Z" fill="#4CC689"/>
<path d="M194.966 163.452C193.059 163.724 191.152 163.996 189.518 164.269C182.98 229.371 178.894 304.825 179.167 370.2C183.797 369.928 186.794 361.211 191.425 360.666C184.342 295.291 193.876 228.282 194.966 163.452Z" fill="#4CC689"/>
<path d="M254.761 144.832C247.67 146.515 246.381 133.996 241.331 126C240.472 128.946 239.29 131.786 238.001 134.206C237.893 134.416 247.348 149.987 249.604 155.352C249.819 155.773 250.248 155.984 250.678 155.879C250.893 155.984 251.215 156.089 251.43 155.879C254.116 154.09 257.339 151.46 259.917 149.461C261.529 146.41 262.818 143.359 264 140.098C261.099 142.097 258.091 143.78 254.761 144.832Z" fill="#FCC232"/>
<path d="M263.977 139.679C262.902 142.893 261.612 146 260 149C263.977 145.893 283.107 132.714 283 132.393C282.032 129.929 281.065 127.464 280.313 125C274.617 130.036 269.565 135.607 263.977 139.679Z" fill="#DCA826"/>
</g>
<path d="M217.252 34.3929L229.407 34.4C231.205 34.4 232.661 32.9458 232.664 31.1481L232.68 3.26379C232.68 1.4661 231.226 0.00947398 229.428 0.00710549L217.273 0C215.476 0 214.019 1.45426 214.017 3.25194L214 31.1362C213.998 32.9339 215.454 34.3905 217.252 34.3929Z" fill="#37474F"/>
<path d="M217.273 33.4408L229.386 33.4479C230.62 33.4479 231.619 32.4484 231.622 31.2168L231.638 3.40117C231.638 2.16718 230.639 1.16768 229.407 1.16531L217.295 1.1582C216.061 1.1582 215.061 2.15771 215.059 3.38933L215.042 31.2026C215.04 32.4389 216.039 33.4384 217.273 33.4408Z" fill="#FFFDFA"/>
<path d="M215.845 31.3813C215.845 32.1321 216.454 32.7408 217.204 32.7408L229.544 32.7479C230.295 32.7479 230.904 32.1392 230.904 31.3884L230.906 28.2715L230.918 4.18389C230.918 3.43308 230.309 2.82438 229.558 2.82438H227.796V3.09912C227.796 3.60361 227.387 4.01336 226.88 4.01336L219.563 4.00626C219.059 4.00626 218.649 3.59651 218.649 3.08965V2.81964H217.216C216.465 2.81964 215.857 3.42834 215.857 4.17916L215.845 28.2762V31.3813Z" fill="#FFFDFA"/>
<path d="M218.46 17.2951C218.46 17.5229 218.542 17.7144 218.705 17.8697C218.87 18.0237 219.071 18.1007 219.307 18.1007C219.542 18.1007 219.741 18.0224 219.906 17.8659C220.071 17.708 220.154 17.5178 220.154 17.2951C220.154 17.0723 220.071 16.8827 219.906 16.7262C219.741 16.5683 219.542 16.4894 219.307 16.4894C219.073 16.4894 218.873 16.5683 218.707 16.7262C218.543 16.884 218.46 17.0736 218.46 17.2951ZM218.229 17.2645V15.5349L218.46 15.5082V16.709C218.566 16.569 218.691 16.4627 218.836 16.3902C218.98 16.3163 219.137 16.2794 219.307 16.2794C219.615 16.2794 219.873 16.3768 220.08 16.5715C220.288 16.765 220.391 17.0061 220.391 17.2951C220.391 17.584 220.288 17.8264 220.08 18.0224C219.873 18.2184 219.615 18.3164 219.307 18.3164C218.992 18.3164 218.733 18.219 218.531 18.0243C218.33 17.8296 218.229 17.5763 218.229 17.2645Z" fill="black"/>
<path d="M222.083 17.9632C221.998 18.0829 221.899 18.1726 221.788 18.2324C221.677 18.2909 221.553 18.3202 221.415 18.3202C221.187 18.3202 221.01 18.2547 220.883 18.1236C220.757 17.9912 220.694 17.806 220.694 17.568V16.3214L220.922 16.2975L220.925 17.4592C220.925 17.6858 220.97 17.855 221.06 17.967C221.151 18.079 221.287 18.135 221.467 18.135C221.633 18.135 221.777 18.0771 221.899 17.9613C222.022 17.8442 222.083 17.703 222.083 17.5375V16.3214L222.314 16.2947V18.2687L222.083 18.2954V17.9632Z" fill="black"/>
<path d="M222.74 18.2954V16.3214L222.969 16.2947V16.7166C223.052 16.5639 223.153 16.4493 223.272 16.373C223.392 16.2966 223.531 16.2584 223.689 16.2584H223.745L223.651 16.4742C223.418 16.4958 223.246 16.5925 223.135 16.7643C223.024 16.9362 222.969 17.1926 222.969 17.5337V18.2687L222.74 18.2954Z" fill="black"/>
<path d="M223.896 18.2992V15.5387L224.131 15.5082V18.2687L223.896 18.2992Z" fill="black"/>
<path d="M224.733 17.463L226.086 16.6975C226.028 16.6301 225.955 16.5792 225.867 16.5448C225.78 16.5104 225.68 16.4933 225.568 16.4933C225.332 16.4933 225.133 16.5702 224.97 16.7242C224.807 16.8782 224.725 17.0672 224.725 17.2912C224.725 17.3269 224.726 17.3581 224.727 17.3848C224.728 17.4102 224.73 17.4363 224.733 17.463ZM226.381 18.0377C226.246 18.1331 226.112 18.2038 225.979 18.2496C225.847 18.2941 225.71 18.3164 225.568 18.3164C225.256 18.3164 224.997 18.219 224.791 18.0243C224.585 17.8283 224.482 17.5852 224.482 17.2951C224.482 17.0049 224.586 16.7631 224.793 16.5696C225.001 16.3762 225.259 16.2794 225.568 16.2794C225.763 16.2794 225.934 16.3195 226.08 16.3997C226.227 16.4799 226.341 16.5957 226.423 16.7472L224.815 17.6501C224.892 17.7901 224.995 17.8983 225.126 17.9747C225.258 18.051 225.405 18.0892 225.568 18.0892C225.698 18.0892 225.826 18.0638 225.953 18.0129C226.08 17.9607 226.223 17.8754 226.381 17.757V18.0377Z" fill="black"/>
<path d="M226.55 18.0224L226.722 17.8659C226.796 17.946 226.877 18.0065 226.965 18.0472C227.055 18.0879 227.15 18.1083 227.252 18.1083C227.379 18.1083 227.483 18.0746 227.563 18.0071C227.643 17.9397 227.684 17.8525 227.684 17.7456C227.684 17.6501 227.654 17.575 227.595 17.5203C227.536 17.4656 227.431 17.4204 227.28 17.3848C227.023 17.3237 226.848 17.2518 226.754 17.1691C226.661 17.0851 226.614 16.9692 226.614 16.8216C226.614 16.6663 226.677 16.5359 226.804 16.4303C226.932 16.3233 227.093 16.2699 227.288 16.2699C227.405 16.2699 227.514 16.2883 227.617 16.3253C227.72 16.3622 227.815 16.4169 227.902 16.4894L227.758 16.6689C227.68 16.6052 227.601 16.5569 227.521 16.5238C227.441 16.4907 227.362 16.4742 227.284 16.4742C227.156 16.4742 227.052 16.5053 226.973 16.5677C226.895 16.6301 226.857 16.7122 226.857 16.814C226.857 16.968 226.998 17.0774 227.28 17.1423C227.339 17.1551 227.383 17.1659 227.413 17.1748C227.587 17.2219 227.717 17.2906 227.804 17.381C227.891 17.4713 227.935 17.5833 227.935 17.717C227.935 17.8926 227.868 18.0383 227.736 18.1541C227.603 18.2699 227.437 18.3279 227.236 18.3279C227.094 18.3279 226.965 18.3024 226.849 18.2515C226.734 18.1993 226.634 18.1229 226.55 18.0224Z" fill="black"/>
<path d="M228.123 18.0224L228.296 17.8659C228.369 17.946 228.45 18.0065 228.539 18.0472C228.628 18.0879 228.724 18.1083 228.826 18.1083C228.953 18.1083 229.057 18.0746 229.137 18.0071C229.217 17.9397 229.257 17.8525 229.257 17.7456C229.257 17.6501 229.228 17.575 229.169 17.5203C229.11 17.4656 229.005 17.4204 228.854 17.3848C228.597 17.3237 228.422 17.2518 228.328 17.1691C228.234 17.0851 228.187 16.9692 228.187 16.8216C228.187 16.6663 228.251 16.5359 228.378 16.4303C228.505 16.3233 228.666 16.2699 228.862 16.2699C228.978 16.2699 229.088 16.2883 229.191 16.3253C229.294 16.3622 229.389 16.4169 229.476 16.4894L229.332 16.6689C229.254 16.6052 229.175 16.5569 229.095 16.5238C229.014 16.4907 228.935 16.4742 228.858 16.4742C228.729 16.4742 228.626 16.5053 228.547 16.5677C228.469 16.6301 228.43 16.7122 228.43 16.814C228.43 16.968 228.571 17.0774 228.854 17.1423C228.913 17.1551 228.957 17.1659 228.986 17.1748C229.16 17.2219 229.291 17.2906 229.378 17.381C229.465 17.4713 229.508 17.5833 229.508 17.717C229.508 17.8926 229.442 18.0383 229.309 18.1541C229.177 18.2699 229.01 18.3279 228.81 18.3279C228.668 18.3279 228.539 18.3024 228.422 18.2515C228.307 18.1993 228.207 18.1229 228.123 18.0224Z" fill="black"/>
<path d="M220.196 2.91089H226.487C226.664 2.91089 226.809 2.76642 226.809 2.58878C226.809 2.41114 226.664 2.26666 226.487 2.26666H220.196C220.018 2.26666 219.874 2.41114 219.874 2.58878C219.874 2.76642 220.018 2.91089 220.196 2.91089Z" fill="#FBF7F2"/>
<path d="M214.298 82.1608C215.374 80.0084 214.729 76.0802 214.567 74.4121C214.244 71.3449 214.029 68.2239 213.814 65.1567C213.007 53.2646 212.469 41.3725 211.931 29.5343C211.931 29.5343 216.666 24.6375 217.365 23.0232C218.065 21.4089 217.527 15.9202 217.527 15.9202C217.527 15.9202 215.59 16.1355 215.428 17.2655C215.321 18.3417 214.89 20.9784 214.083 20.8708C213.276 20.817 212.361 14.4135 213.545 13.0683C214.675 11.7768 218.011 8.0101 217.742 7.57961C217.365 6.88008 214.029 8.65582 211.339 10.6468L208.218 13.714C206.765 16.2431 204.612 27.059 204.182 28.9423C203.805 30.6105 197.671 67.4168 200.308 81.4613C200.523 82.6989 204.774 83.0218 205.689 83.1832C207.68 83.6137 209.886 84.2056 211.823 83.3447C212.469 83.0756 213.922 82.968 214.298 82.1608Z" fill="white"/>
<path d="M247.284 109.927C245.132 105.03 242.925 104.438 238.513 102.77C233.078 100.672 227.966 94.2143 223.876 89.8557C220.325 86.089 217.096 82.5913 214.406 78.125C212.845 75.4883 210.478 75.5421 207.464 75.5421C204.72 75.5421 200.792 75.6498 200.146 78.986C199.716 81.1384 200.846 83.4523 201.491 85.4432C204.881 95.0215 214.406 107.29 221.132 114.77C226.406 120.581 231.464 130.805 238.19 136.671C240.504 138.662 240.827 137.693 244.324 139.2C247.123 140.384 248.253 127.523 248.36 126.501C249.167 120.474 249.813 115.792 247.284 109.927Z" fill="white"/>
<path d="M251.804 122.68C251.643 120.689 251.374 118.698 250.835 116.815C249.813 112.887 247.93 109.227 244.863 106.16C246.8 110.035 247.338 115.792 247.607 118.698C247.984 122.25 247.984 125.64 246.154 128.868C244.271 132.312 241.311 134.949 238.459 137.586C240.558 142.805 243.463 147.164 246.262 150.715C246.315 150.661 252.826 136.402 251.804 122.68Z" fill="white"/>
<path d="M237.813 135.756L242.172 130.752L239.966 140.922L237.813 135.756Z" fill="white"/>
<path d="M296.951 187.791C295.229 189.405 293.077 190.696 290.655 190.589C287.857 190.427 286.512 189.244 284.467 187.629C281.185 185.046 278.064 187.575 274.781 186.553C271.445 185.531 273.543 181.441 275.373 179.719C277.418 177.782 280.646 177.728 283.552 177.997C287.319 178.428 289.74 180.203 293.292 181.333C293.991 181.549 298.242 165.89 298.511 162.554C299.103 155.612 300.018 148.563 303.193 142.482C305.023 138.985 307.552 137.693 311.534 140.868C319.605 147.271 313.363 159.271 310.995 165.621C309.381 169.872 307.39 174.015 305.13 177.943C303.354 181.118 300.61 183.647 298.242 186.445C297.812 186.93 297.435 187.36 296.951 187.791Z" fill="white"/>
<defs>
<clipPath id="clip0">
<rect width="459" height="91" fill="white" transform="translate(90 15)"/>
</clipPath>
</defs>
</svg>
